<?xml version="1.0" encoding="UTF-8"?>
<svg id="Layer_1" data-name="Layer 1" xmlns="http://www.w3.org/2000/svg" viewBox="0 0 3940.66 777.14">
  <defs>
    <style>
      .cls-1 {
        fill: #fff;
      }
    </style>
  </defs>
  <g>
    <path fill='#fff' d="m3320.17,397.15c1.81,40.76-5.24,77.02-23.83,110.44-33.48,60.19-84.48,95.73-152.87,104.32-102.83,12.93-196.16-49.92-221.54-149.4-29.15-114.24,39.95-224.62,151.74-249.53,41.33-9.21,82.17-6.03,121.39,10.29,14.9,6.2,31.42,9.78,43.63,21.17,26.4,24.63,51.03,50.75,65.2,84.84,1.4,3.38,2.69,6.82,4.35,10.08,9.72,19.04,15.64,38.82,11.93,57.79Zm-32.84,13.92c-.85-8.93-1.33-17.92-2.62-26.79-13.59-93.44-106.8-158.4-199.25-139.4-78.8,16.19-129.82,82.2-135.53,148.89-5.01,58.46,13.91,107.8,58.39,145.98,66.11,56.75,164.73,52.96,227.32-7.58q25.24-24.42,38.32-55.88c8.62-20.85,13.1-42.55,13.35-65.23Z"/>
    <path fill='#fff' d="m3778.7,234.25c-4.79,0-8.36,0-11.93,0-30.97,0-61.94,0-92.91,0-2.66,0-5.34.1-7.99-.07-9.16-.59-15.14-6.34-15.68-14.9-.56-9.02,4.89-16.37,13.68-18.1,2.58-.51,5.29-.5,7.94-.5,82.25-.02,164.51,0,246.76-.04,6.48,0,12.47.69,17.36,5.82,5,5.26,5.71,11.28,3.61,17.58-2.07,6.2-6.94,9.59-13.56,10.08-2.65.2-5.32.12-7.99.12-31.3,0-62.61,0-93.91,0-3.59,0-7.17,0-12.12,0v12.56c0,113.55-.03,227.1.09,340.65,0,6.33-.65,11.71-6.47,15.52-11.44,7.49-25.3,1.25-26.74-12.3-.35-3.3-.15-6.65-.15-9.98,0-110.89,0-221.77,0-332.66v-13.79Z"/>
    <path fill='#fff' d="m3418.96,580.07h11.79c55.28,0,110.55,0,165.83,0,2.99,0,6.04-.21,8.97.26,8.65,1.39,14.79,9.47,13.93,17.95-.85,8.44-8.09,15.42-16.33,15.42-65.93.04-131.86.07-197.8-.02-13.81-.02-19.2-5.57-19.21-19.55-.04-121.54-.03-243.07-.01-364.61,0-2.33-.07-4.7.31-6.97,1.34-7.99,7.43-13.33,14.86-13.26,9.55.1,15.87,4.79,17.18,13.28.61,3.92.46,7.97.46,11.95.02,110.55.02,221.09.02,331.64v13.89Z"/>
  </g>
  <g>
    <path fill='#fff' d="m782.8,9.19c4.53,1.68,5.23,2.35,4.93,5.89-.22,2.58-.78,5.18-1.56,7.69-1.16,3.73-2.62,7.39-4.02,11.06-.38.99-.94,2.05-2.56,1.74-1.51-.29-2.79-.91-2.97-2.39-.11-.93-.15-1.89-.02-2.81,1.06-7.27,4.1-14.1,6.21-21.18Z"/>
    <path fill='#fff' d="m242,626.59c-2.25.12-1.8,1.91-2.81,3.12,2.38.53,3.1,1.91,3.44,3.7.38,1.98,1.94,2.76,4.2,2.39,2.03-.33,4.04-.75,6.46-1.2,9.6,24.59,19.13,49.02,28.64,73.4.31,0,.42.02.52,0,.11-.03.25-.07.31-.15.14-.17.28-.35.34-.55,39.41-144.2,78.82-288.41,118.24-432.67h50.98c33.57,91.61,67.04,182.97,100.81,275.14.83-1.88,1.39-3.05,1.87-4.25,12.87-32.26,25.73-64.53,38.6-96.79,21.58-54.1,43.17-108.2,64.75-162.3,19.88-49.83,39.75-99.67,59.67-149.49.82-2.05,1.04-4.01.84-6.15-.73-8.16-1.3-16.32-1.98-25.15,1,.9,1.57,1.32,2,1.82,2.63,3.03,5.25,6.07,7.84,9.13,5.23,6.18,12.36,7.99,20.76,6.38,5.48-1.05,10.87-2.49,16.29-3.76.44-.1.87-.24,1.89-.52-.65,1.09-1.01,1.8-1.47,2.45-4.48,6.27-9.02,12.5-13.44,18.8-1.12,1.6-2.12,3.33-2.76,5.1-31.45,87.41-62.86,174.84-94.26,262.26-22.18,61.76-44.34,123.52-66.52,185.28-.46,1.29-1.01,2.56-1.56,3.94h-64.97c-30.15-81.98-60.32-164.03-90.49-246.07-.29,0-.59.02-.88.03-38.42,142.15-76.54,284.36-115.33,426.28-5.11.73-50.57.31-61.65-.54-14.86-43.99-29.67-88.19-44.64-132.78,11.17-2.19,21.97-4.32,32.82-6.45.21-1.79.4-3.43.61-5.17-1.2-.57-2.33-1.11-3.69-1.76,2.6-2.47,1.18-4.66-.5-7.39-.88,1.37-1.55,2.39-2.2,3.4-1.06-1.91-1.16-2.41.81-3.79,2.74-1.92,2.63-3.04.3-6.2-1.15,1.77-2.2,3.4-3.32,5.13-1.26-1.11-.8-2.3.34-3.33,1.41-1.28,1.37-2.42.42-3.95-.75-1.21-.88-2.71-1.58-4.13-.89,1.8-1.86,3.38-3.19,4.92-1.32,1.53-.12,3.57,2.15,4.98-3.38,2.18.53,4.87-1.21,7.35-.47-1.76-.97-3.52-1.41-5.29-.28-1.15-.24-1.16-2.44-2.14-.48.92-.95,1.83-1.24,2.37.85,1.51,1.43,2.74,2.21,3.87.48.69,1.16,1.34,1.92,1.8,3.19,1.92,7.28,2.67,9.74,5.71-1.34.3-2.45.1-3.49-1.03-.75-.82-1.84-1.42-3.34-2.53-.12,1.41-.18,2.14-.25,2.86-.19.07-.38.13-.57.2-.54-.74-1.07-1.49-1.64-2.28-.43,1.19-.74,2.32-1.24,3.39-.49,1.05-1.17,2.04-1.76,3.04-1.26-.74-2.58-1.52-3.98-2.35-.32.82-.53,1.36-1,2.58-.72-2.43-1.25-4.2-1.81-6.04-2.55,1.96-2.58,4.64-3.29,7.11-.42-2.01-.95-3.96.67-5.66.22-.24.39-.54.48-.84.29-.91.14-1.81-1.04-2.02-.52-.09-1.2.51-1.77.78-1.97-1.07,1.16-3.92-2.16-4.6-1.47,1.13-.87,2.26-.15,3.42,1.43,2.32.74,4.68.09,7.02-.06.22-.49.36-1.15.82.16-1.65.4-2.93.37-4.21-.02-1.01-.04-2.18-.6-3.01-1.49-2.2-.92-3.99.94-5.71.41-.38.76-.79,1.6-1.67-1.93-.15-3.35-.26-4.89-.38.29-1.11,1.2-1.39,2.59-1.24,3.96.44,6.57-.93,7.47-4.33,1.05-3.97,1.7-8.03,2.55-12.17-1.29-.76-2.37-1.42-3.48-2.04-2.24-1.27-3.43-2.94-2.98-5.32.22-1.13.46-2.31-1.22-3.03-1.79,5.26.09,9.11,5.96,11.38q-1.89,1.84-.83,5.04c-.87-.24-1.59-.44-2.44-.67-.45,1.5-.89,2.97-1.38,4.61-1.53-.85-.97-1.8-.62-2.89.72-2.27.3-4.31-3.03-5.99.46,2.38.83,4.25,1.29,6.62-1.64-1.11-1.47-2.46-2.18-3.48-1.03.4-2.04.78-3.47,1.33,1.37-3.44,4.8-5.7,4.53-9.68-.82.59-1.46.87-1.78,1.32-.37.52-.39,1.21-.67,1.78-1.1,2.21-2.69,2.36-5.79,0,.54,1.75.72,2.94,1.27,4.01,1.6,3.13,3.84,5.9,6.71,8.31.99.83,1.6,1.98,2.42,3.03-1.3.47-2.49.44-2.68-.78-.25-1.61-1.65-1.86-3.04-2.57-.18,1.6-.33,3-.49,4.4-.25.01-.51.02-.76.03-.07-.72-.16-1.43-.21-2.15-.06-.83-.1-1.67-.17-2.96-.77,1.17-1.3,1.98-1.83,2.78-.19-.04-.38-.08-.57-.11.04-.51.09-1.02.13-1.53.06-.73.44-1.6.11-2.16-1.88-3.12-.98-6.6-1.94-9.82-.25-.82.2-1.68-1.2-2.32-1.11-.51-.4-1.74.65-2.21,1.74-.78,1.91-1.94,1.79-3.43-.09-1.06.3-2.16.51-3.52-1.12-.35-2.41-1.28-3.56.66-.29.5-1.52.59-2.7,1.01,1.81-3.8,5.12-3.05,8.51-2.71.32-1.93.84-3.66.84-5.39,0-1.77-.05-3.4,2.92-4.44-1.57-.89-2.48-1.43-3.42-1.93-1.01-.54-2.11-.97-3.05-1.58-1.35-.89.13-1.99-.1-2.83-.8-2.89.74-4.89,2.62-7.05.91-1.04,1.2-2.84.96-4.18-.56-3.07-1.63-6.07-2.46-9.11-.44-1.6-1.49-2.75-3.28-3.78v3.61l.1-.05c-.39-.36-.78-.72-1.17-1.08-.37.34-.77.71-1.16,1.07l.1.04c1.28-4.85-.61-9.56-1.01-14.33-.08-.94-1.59-1.8-2.49-2.76-1.05,1.88.75,3.01.88,4.79-.97-.76-1.93-1.52-3-2.36-.72.93-1.42,1.84-2.13,2.75-.14-.05-.27-.11-.41-.16.51-1.68,1.02-3.35,1.73-5.69-1.77,1.04-2.87,1.69-4.19,2.46.62,3.31,2.03,6.37,4.22,9.16.38.48,1.08.8,1.69,1.12,1.26.66,2.56,1.26,3.6,2.44-.55.07-1.11.14-1.44.18-.74,2.25-1.24,4.49-2.21,6.57-1.55,3.33-.84,5.45,2.72,7.23.94.47,2.42.46,2.82,2.34-2.4-1.16-4.34-2.09-6.49-3.12.57,1.31,1.1,2.52,1.6,3.69,2,.65,3.9,1.27,5.9,1.91-2.16,1.94-2.32,4.32-.57,6.5.34.43.78.81,1.18,1.2,1.92,1.9,1.9,1.89.46,4.26-.2.33-.08.81-.13,1.36-.68-.07-1.26-.14-2.11-.23.14-.79.12-1.52.41-2.14.78-1.67.81-3.06-1.7-3.89-.4.92-.79,1.84-1.18,2.76-.16-.02-.31-.03-.47-.05.04-.87-.18-1.83.18-2.59,1.49-3.1.7-5.53-3.17-7.77,1.3,1.88,1.3,3.15.25,4.73-.78,1.17-.15,3.03-.15,4.66-2.05-1.91-2.05-3.58.04-6.7-.47-1.11-1.98-2.02-.73-3.81.63-.91-.76-2.85-1.91-4.3-.17,1.11-.33,2.23-.5,3.34-.77-2.35-2.36-4.63-.14-7.33-1.27-.2-2.11-.33-3.41-.53-.2-.66-.53-1.75-.87-2.84.2-.06.4-.12.6-.17.4.48.7,1.08,1.22,1.43,2.29,1.54,4.27,1.03,5.3-1.39.67-1.57,2.16-3.1.53-5.26-.46.87-.81,1.52-1.42,2.67-.24-2.27-.42-3.95-.65-6-2.68,1.44-1.82,3.95-3.7,5.6-.88-3.43,2.89-6.43.09-9.86-1.55,2.36-2.99,4.54-4.43,6.73-.25-.11-.51-.21-.76-.32.24-.6.4-1.24.73-1.81.97-1.69,2.05-3.34,2.98-5.04.87-1.6.82-3.19-.46-4.71-2.62,1.62-2,4.44-3.57,6.58-.79-3.08.53-6.35,3.75-9.64.26.47.52.93,1.07,1.89.36-1.43.58-2.28.79-3.12h-.09c.2.92.39,1.84.59,2.79,2.1-.76.45-1.89.61-2.81l-.1.11c1.3-1.39,2.61-2.79,3.91-4.18-.2,1.36.68,2.73-.38,4.15-.4.54.24,1.65,1.03,2.46.45-2.25.89-4.5,1.34-6.75,0,2.09-.88,4.41,2.39,6.08-.4-2.52-.75-4.71-1.15-7.22-.67.63-.99.94-1.31,1.24.28-1.21.55-2.41.83-3.62.23,0,.46-.02.69-.02.37,1.55.75,3.11,1.17,4.88.22-.98.41-1.82.65-2.89.54,5.44.99,10.64,1.61,15.82.16,1.31.72,2.63,1.38,3.83,1.24,2.25,1.33,2.22,4.34,1.76,1.36-1.83,2.66-3.58,3.94-5.3-1.27-1.17-2.52-2.32-3.83-3.54-.29.91-.66,2.04-1.02,3.17-.3-.06-.6-.12-.9-.18.82-4.32,1.64-8.63,2.46-12.95l.52-.48c.12.03.31.02.35.08,1.99,3.25,4.52,6.13,7.95,8.39.29.19.29.71.66,1.76-1.25-.77-1.89-1.17-3.14-1.94,1.13,2.83,2.04,5.1,2.95,7.37l-.92.33c-1.14-1.87-2.27-3.73-3.41-5.6-.43,1.51-.64,2.91.52,4.18,2.12,2.32,2.05,3.32-.55,6.12-.9-.94-1.75-1.84-2.79-2.93-.96,1.17-1.75,2.14-2.56,3.12,3.23,1.83,6.75.27,10.24.5-.57.85-1.33,1.48-1.23,1.98.1.46,1.11.8,1.76,1.15.75.4,1.53.75,2.06,1.58-1.09-.17-2.19-.34-3.84-.59.9,1.45,1.57,2.53,2.25,3.6-.15.09-.29.17-.44.26-1.44-.92-2.88-1.83-4.32-2.75-1.59,2.09,2.59,2,1.85,4.02-1.27-.75-2.46-1.46-3.69-2.18-1.16,3.17-1.15,3.2,1.7,4.68,3.07,1.58,5.99,3.25,7.1,6.47.19.55,1.17.95,1.86,1.31.69.35,1.47.55,2.08,1.28-.99-.04-1.98-.08-2.95-.12-.91,2.25.13,3.89,3.69,5.96-1.92,1.14-2.33,2.53-.87,3.87,1.28,1.17,2.85,2.1,4.41,3.22-2.03.62-3.19-.3-4.26-1.34-1.09-1.05-2.81-1.77-2.37-3.62.38-1.59-.19-3.01-1.57-4.56-.76,1.38-1.36,2.46-1.96,3.55.44.55,1.16,1.07,1.31,1.69.64,2.57,2.7,3.72,5.37,4.62,1.98.66,3.74,1.82,5.46,3.29-.59.08-1.19.15-1.92.25-1.42,1.31.53,2.02,1.04,3.1-1,.19-1.92.36-2.68.51-2.16-1.24-4.24-2.43-6.32-3.63,2.12,3.32,3.56,4.16,7.64,4.68-1.02.56-1.77.97-2.54,1.4,2.24.65,4.29,1.25,6.35,1.84-.07.26-.13.51-.2.77-2.4-.4-4.81-.8-7.49-1.24q1.37,3.46.09,4.76c-.01-2.35-3.22-4.27-.21-6.7-1.14-.91-2-1.59-2.8-2.22-1.31.61-1.68,1.41-.99,2.19,1.3,1.49.62,2.7-.89,4.64-.22-3.12-.39-5.58-.62-8.82-.7-.86-2.47-1.11-4.97-.73.99,1.52,2.13,2.75,2.61,4.14.47,1.36-.12,3.01.43,4.32,1.01,2.38,3.88,3.12,6.33,3.95,1.73.59,3.15-.54,4.45-1.51,1.75-1.3,4.01-1.32,6.38-.04,1.21.65,2.3,1.46,3.52,2.25q-1.93.35-4.6-1.31c.39,1.67.53,3,2.28,4.02,1.38.8,2.27,2.21,3.37,3.35-.19.16-.38.32-.56.47-.91-.55-1.82-1.09-3.09-1.85-.13,2.29-.03,4.04,2.18,5.41,1.02.63,1.81,1.75,2.24,2.79.69,1.67,1.41,3.22,4.21,4.2-1.7.34-2.55.51-3.4.68-.04.17-.09.34-.13.51,1.13.43,2.26.87,3.32,1.28.11.72.22,1.49.33,2.25-.24.2-.48.39-.72.59Zm-35.88-56.59c-1.46.84-2.87,1.56-1.94,3.49.33.67.08,1.67-.23,2.42-.59,1.47.21,2.41,1.63,2.62,3.49.53,4.87,3.05,6.96,4.97-.65.07-1.29.05-1.66-.24-1.4-1.06-2.34-.23-2.94.63-.74,1.06-.34,1.89,1.2,2.4,1.09.36,2.51.98,2.88,1.78.9,1.97,2.56,1.95,4.44,1.85.28-.75.32-1.7.89-2.22,1.51-1.36,1.06-2.7.27-4.04-.57-.98-1.4-1.86-2.12-2.78,1.83-2.77,3.33-5.6,2.7-9.41-1.4.93-2.26,1.51-3.13,2.09-.15-.1-.29-.2-.44-.3.85-1.15,1.69-2.29,2.56-3.47-1.61-2.05-3.66-3.33-6.44-3.92,1.21,1.5,2.41,3,3.78,4.69q-2.37-.76-6.13-6.69c-1.71,3.17-1.27,6.27,1.01,9.34-2.84-.09-1.81-2.23-3.29-3.22Zm.91,34.05c.43-2.22,1.24-3.99,3.57-5,.62-.27.97-1.41,1.02-2.17.14-2.08.13-4.16.05-6.24-.08-2.09-.66-2.53-3.17-2.98-1.11,1.98-1.68,4.39-3.39,5.7-2.88,2.2,1.08,4.42-.7,6.37-.12.13-.01.41-.05.61-.27,1.57.12,2.85,2.66,3.71Zm18.2,27.78c-3.21-.96-5.43-3.71-8.59-10.23q-1.26,1.64.33,4.84c-1.26-.76-2.27-1.37-3.28-1.97-.13.17-.27.34-.4.51,2.31,1.58,2.99,4.51,6.31,5.29.37.09.79.58.88.95.56,2.33,2.65,3.04,4.79,3.6,2.68-1.67,1.95-3.93,1.86-6-1.06-.86-2.03-1.64-2.99-2.42,1.8-2.07-.93-2.32-1.88-3.12-.92-.77-2.31-1.13-3.67-1.74-.1,4.55,3.95,6.96,6.65,10.31Zm1.8-13.4c0-1.95-1.27-3.86.84-5.18,2.04-1.28,1.88-2.95,1.64-4.66-2.52-.92-4.84-1.77-7.17-2.62-2.82,5.73-1.1,10.52,4.68,12.45Zm-3.2-13.31c3.23,1.02,5.73,1.81,8.23,2.6-1.5-1.68-.57-4.49-3.71-5.05-1.18.64-2.49,1.35-4.52,2.44Zm-5.54-16.35c2.55,1.18,4.71,2.17,7,3.22-.09-3.58-.73-4.11-5.59-4.87-.39.46-.81.94-1.41,1.64Zm2.07,26.84c-1.7,4.23-1.69,4.26,1.63,6.27,2.23-2.56,2.13-3-1.63-6.27Zm-9.55-58.72c-1.74-.8-3.49-1.6-5.54-2.55.56,2.19,1.04,4.12,1.55,6.11,2.67-1.1,2.81-1.23,4-3.56Zm-2.18-13.58c.09-2.72,1.43-5.67-1.62-7.94-2.19,3.05.32,5.41,1.62,7.94Zm3.19,59.34c.24,2.59,1.84,3.72,3.92,4.78-.06-2.58-.13-2.66-3.92-4.78Zm-2.77-55.08c-.03.26-.05.52-.08.78.69.49,1.38.97,2.19,1.54.87-1.14,1.09-2.06-.09-2.65-.45-.22-1.33.2-2.02.33Zm3.9,8.82q.19-2.33-3-1.15c1.06.41,2.02.78,3,1.15Z"/>
    <path fill='#fff' d="m114.74,330.54c-.34-.77-.58-1.59-1.03-2.31-7.3-11.83-12.74-24.3-17.11-37.1-3.09-9.05-3.81-18.36-2.11-27.74.16-.91.15-1.84.01-2.78-2.07,5.01-2.4,10.22-2.53,15.44-.33,13.39,2.94,26.26,8.16,38.8,1.97,4.73,4.19,9.38,6.46,14.42-1.03-.21-1.79-.29-2.49-.53-4.39-1.48-8.26-3.71-11.66-6.47-3.2-2.59-6.36-5.27-9.09-8.22-1.78-1.92-2.89-4.33-4.05-6.61-1.46-2.88-2.5-5.92-4.02-8.76-3.29-6.12-6.21-12.34-7.31-19.05-.36-2.17-.66-4.4-.5-6.57.4-5.34.86-10.68,1.71-15.98,1.25-7.8,5.49-14.49,11.24-20.54,5.8-6.1,11.43-12.32,17.32-18.36,2.97-3.05,6.13-6.02,9.61-8.63,3.78-2.83,6.51-2.35,8.78,1.53,1.78,3.06,3.18,6.38,4.06,9.72,2.47,9.35,3.46,18.85,2.55,28.45-.21,2.19-.64,4.37-.95,6.55-.8,5.56.25,10.87,2.89,15.97.85,1.63,1.66,3.27,2.53,4.89,2.3,4.3,2.52,8.64.76,13.16-2.6,6.66-4.89,13.41-7.53,20.06-1.91,4.83-3.09,9.71-2.83,14.81.12,2.36-.64,4.33-2.99,5.72l.13.12Z"/>
    <path fill='#fff' d="m733.5,27.35c20.22,7.88,40.14,15.65,59.95,23.36,0,.64.09.97-.01,1.25-4.88,13.96-9.66,27.95-14.7,41.87-2.25,6.21-6.32,11.53-11.91,16.03-11.84,9.54-29.84,6.52-38.14-2.82-5.88-6.62-9.12-14.05-9.54-22.4-.44-8.71,1.37-17.16,3.87-25.5,3.04-10.16,6.46-20.23,9.72-30.34.13-.39.4-.75.77-1.44Zm23.96,37.87c.54-1.32,1-2.39,1.4-3.47.75-1.99,1.59-3.97,2.15-6,.38-1.37.52-2.88-1.58-4.03-5.77,5.57-11.46,11.04-17.13,16.53-.57.55-1.07,1.15-1.51,1.78-1.24,1.75-1.14,2.51.84,3.69,1.39.83,2.97,1.45,4.5,2.12,1.29.56,2.61,1.07,4.13,1.68-1.43,4.53-2.81,8.91-4.19,13.28.26.15.52.29.77.44,1.9-1.41,4-2.67,5.66-4.27,3.42-3.29,6.55-6.8,9.91-10.13,1.49-1.47,3.25-2.74,5.19-4.34.63-1.89-.86-3.22-2.92-4.18-2.24-1.05-4.58-1.96-7.24-3.08Z"/>
    <path fill='#fff' d="m114.61,330.43c.24.46.38,1,.74,1.37,5.15,5.25,9.2,11.13,13.36,16.96.93,1.31,2.11,2.49,3.06,3.6,2.44-.33,2.4-1.75,2.64-2.93.83-4.13,1.47-8.3,2.4-12.41.81-3.6,1.82-7.17,2.95-10.7.6-1.88,1.73-3.61,4-5.24.21,4.49-.52,8.38-1.4,12.22-2.46,10.69-1.86,21.19,1.27,31.79,5.35,18.12,11.77,35.96,18.37,53.77,5.81,15.69,10.98,31.56,16.44,47.35.23.68.6,1.32,1.2,2.63,1.01-1.65,1.76-2.76,2.41-3.93,3.63-6.53,7.31-13.05,10.84-19.62,2.04-3.81,3.95-7.67,5.67-11.59.52-1.18.52-2.71.17-3.96-1.38-4.89-2.99-9.74-4.53-14.6-.47-1.5-1-2.98-1.2-4.58,4.72,5.73,7.89,12.15,11.86,18.59,4.16-6.43,5.04-13.92,10.54-19.48.27.05.54.1.8.15-.19,1.39-.17,2.82-.59,4.15-1.44,4.56-3.09,9.06-4.55,13.62-1.16,3.61-2.15,7.26-2.53,11.56,9.01-4.45,17.2-9.22,27.19-12.22-1.17,2.26-2.97,3.29-4.72,4.32-5.36,3.15-10.7,6.33-16.18,9.32-3.08,1.69-5.53,3.81-7.47,6.39-7.63,10.16-14.98,20.46-21.28,31.27-.78,1.34-1.17,3-1.13,4.5.06,2.29.53,4.6,1.09,6.85.24.97,1.16,1.8,1.74,2.72.79,1.23,1.54,2.48,2.47,3.99h-4.24c-.21,1.03-.43,2.06-.64,3.09-.58-.72-1.15-1.45-2.17-2.72-.24,1.4-.38,2.24-.53,3.07-.37,2.09-.74,4.18-1.11,6.28-.12-.49-.23-.98-.35-1.47v-3.54c-.76-.19-1.54-.38-2.31-.57-.07-.2-.25-.42-.19-.58,2.55-7.1-2.75-11.94-6.96-16.92-1.96-2.32-4.9-4.09-7.59-5.89-5.98-4-12.09-7.87-18.15-11.8-5.06-3.28-10.8-5.35-16.85-6.85-4.47-1.11-8.98-2.14-13.44-3.27-1.46-.37-2.85-.94-4.16-1.72,4.1-1.32,7.9.13,11.76.61,3.84.48,7.67,1.09,12,1.72-.47-.82-.65-1.37-1.04-1.77-5.09-5.24-10.2-10.47-15.31-15.69-1.17-1.2-2.52-2.32-1.68-4.44,1.12.71,2.15,1.25,3.01,1.94,6.24,5.03,12.39,10.14,18.68,15.12,3.68,2.91,7.51,5.7,11.39,8.41,5.22,3.64,10.55,7.16,15.84,10.72.28.19.61.31,1.09.55.8-1.07.22-1.99-.15-2.93-4.24-10.68-8.33-21.41-12.73-32.05-5.32-12.85-10.68-25.69-16.43-38.4-4.77-10.55-9.98-20.95-15.26-31.32-4.39-8.64-10.14-16.51-18.88-22.56-2.81-1.95-5.25-4.28-6.97-7.16,7.45,2.48,13.11,7.3,20.07,11.01-.09-2.99-.8-5.41-2.36-7.7-3.14-4.62-6.12-9.32-7.55-14.59-.05-.18.03-.38.11-1.16,1.55,1.32,2.83,2.35,4.03,3.44,1.23,1.11,2.38,2.28,3.57,3.43,0,0-.13-.12-.13-.12Z"/>
    <path fill='#fff' d="m303.06,352.13c-.75.15-1.22.32-1.69.33-6.37.13-10.44,3.11-13.17,7.76-3.57,6.09-7.05,12.23-10.74,18.26-2.61,4.27-5.4,8.47-8.36,12.57-1.33,1.84-3.13,3.51-5.01,4.97-5.11,3.96-10.75,7.31-16.86,10.04-9.23,4.13-18.69,7.83-28.65,10.51-.55.15-1.15.17-2.36.34,7.72-18.4,16-35.94,34.96-47.83-19.35,9.98-30.34,25.74-39.94,43.15-2.45-4.01-2.95-7.72-2.91-11.42.07-7.6,1.34-15.07,4.59-22.19,1.65-3.61,3.49-7.17,5.54-10.62,3.08-5.19,7.18-9.77,12.45-13.49,3.69-2.6,7.49-5.09,11.34-7.51,8.86-5.58,19.02-8.24,29.84-8.72,6.86-.3,13.73.68,20.31,2.4,6.44,1.68,9.13,6.14,10.66,11.47Z"/>
    <path fill='#fff' d="m97.12,334.38c-2.25-.97-4.54-1.87-6.74-2.91-7.01-3.3-14.23-6.22-22.09-7.58-5.99-1.03-12.09-1.61-18.16-2.19-1.89-.18-3.85.27-5.74.64,4.72.39,9.52.44,14.14,1.25,4.64.82,9.21,2.15,13.6,3.69,4.52,1.59,8.84,3.62,13.15,5.6,4.15,1.91,8.53,3.59,12.17,6.96-1.09.39-1.67.69-2.3.81-9.09,1.67-18.14,3.55-27.3,4.91-14.2,2.1-27.52-.87-40.28-6.03-4.31-1.74-8.37-3.94-12.55-5.91-4.07-1.92-8.13-3.86-12.25-5.72-2.73-1.23-3.34-2.21-2.27-4.83,1.74-4.3,5.14-7.61,9.16-10.44,6.81-4.78,14.78-7.36,23.37-8.6,16.11-2.33,31.05.55,44.53,8.25,9.24,5.28,16.14,12.45,20.2,21.4-.21.23-.42.46-.63.69Z"/>
    <path fill='#fff' d="m139.27,323.88c-2.86-4.58-3.98-8.96-4.66-13.42-1.96-12.75,2.05-24.28,8.51-35.77,6.43-11.46,30.14-21.19,42.27-20.8,2.92.1,5.99.2,8.71.99,7.97,2.33,15.8,4.99,23.66,7.58.87.28,1.58.9,2.76,1.59-3.85,2.97-7.96,4.93-12.48,6.3-2.65.8-5.4,1.4-8.03,2.25-7.85,2.54-14.09,6.92-18.22,13.12-2.77,4.16-5.22,8.59-6.97,13.13-4.96,12.91-15,21.9-28.5,28.44-.38.19-.84.27-1.63.51.29-1.08.47-1.88.72-2.66,1.51-4.75,2.95-9.52,4.58-14.24,3.24-9.35,6.38-18.74,12.51-27.11,2.74-3.75,5.91-7.21,9.83-10.14,4.02-3,8.58-4.79,13.94-5.07,1.3-.07,2.58-.35,3.81-.78-5.96-.58-11.63.14-16.62,3.13-2.19,1.31-4.37,2.8-6.05,4.56-5.14,5.35-9.89,10.95-13.22,17.34-1.5,2.87-3.24,5.65-4.63,8.56-3.06,6.4-5.97,12.85-8.94,19.29-.4.87-.74,1.76-1.35,3.2Z"/>
    <path fill='#fff' d="m119.77,434.08c-1.3-1.04-2.2-1.72-3.04-2.44-3.65-3.11-7.37-6.17-10.9-9.37-9.17-8.32-20.56-13.09-33.43-15.47-4.3-.8-8.68-1.38-13.06-1.76-2.87-.25-5.8.04-8.7.09,0,.25-.02.49-.03.74,4.01.28,8.03.47,12.02.88,2.15.22,4.34.62,6.33,1.31,4.77,1.65,9.37,3.64,14.15,5.26,10.16,3.43,18.5,8.96,25.72,15.85,1.39,1.33,2.81,2.63,4.22,3.95,1.16,1.08,2.27,2.18,2.24,4.01-.58.13-1.12.33-1.67.36-14.2.9-27.56-1.3-39.86-7.68-6.08-3.15-12.35-6.03-18.44-9.17-2.82-1.46-5.52-3.12-8.05-4.93-2.74-1.96-5.73-2.7-9.2-2.37-5.24.5-9.87,2.37-14.35,4.59-1.13.56-2.29,1.09-3.68,1.75-.95-2.62-.27-4.77.86-6.88,1.78-3.32,4.63-5.92,7.83-8.23,10.11-7.3,21.63-12,34.91-12.73,7.63-.42,15.12,1.02,22.14,3.73,6.06,2.34,11.59,5.47,16.76,9.04,3.68,2.55,6.34,5.84,8.58,9.36,3.65,5.74,6.3,11.82,8.37,18.1.16.47.13.99.25,2.02Z"/>
    <path fill='#fff' d="m311.46,411.91c-2.16,1.57-3.53,2.74-5.1,3.66-7.05,4.14-15.03,6.58-23.08,8.77-4.18,1.14-8.54,2.28-12.87,2.46-10.22.42-20.16,2.12-30.14,3.74-1.18.19-2.41.17-3.75,0,6.56-5.05,13.94-8.89,21.92-12.04,8.02-3.17,16.39-4.52,25.19-4.56-2.06-.94-4.22-.78-6.38-.72-8.91.26-16.96,3-24.79,6.34-1.1.47-2.16.99-3.22,1.52-4.23,2.16-8.57,4.06-13.97,4.25.1-1.8,1.03-3.32,2.57-4.48,4.95-3.75,9.99-7.41,15.01-11.1,1.11-.82,2.49-1.45,3.34-2.42,4.9-5.54,11.81-7.21,19.41-7.47,6.49-.23,12.74.95,18.48,3.48,5.63,2.48,10.99,5.39,17.36,8.56Z"/>
    <path fill='#fff' d="m109.21,452.95c-5.59,0-10.36-.04-15.13.01-5.26.06-10.55-.04-15.77.39-4.73.39-9.03,2.09-12.59,5.03.97-.34,1.94-.67,2.91-1.01,6.19-2.15,12.54-3.62,19.3-3.34,6.86.29,13.72.6,20.57.92.72.03,1.43.19,2.23.3-1,3.22-2.61,5.97-5.55,8.06-.57.4-1.1.84-1.6,1.3-4.72,4.41-10.47,5.65-17.33,4.74-6.02-.8-12.13-1.92-18.28-.97-4.57.71-9.12,1.55-13.6,2.59-1.28.29-2.44,1.33-3.39,2.23-2.03,1.92-3.89,3.97-6.22,6.39-.38-1.19-.71-1.82-.77-2.47-.46-5.25.86-10.22,3.34-14.99.75-1.43,1.69-2.79,2.54-4.18,4.74-7.74,12.28-11.98,22.3-13.29,12.72-1.66,24.35.64,34.97,6.78.57.33,1.05.76,2.08,1.51Z"/>
    <path fill='#fff' d="m156.54,369.4c6.52-1.22,12.12-1.74,17.79-.07,16.33,4.81,27.58,21.24,21.81,36.94-.39,1.07-.98,2.09-2.2,3.17-1.06-2.93-2.06-5.88-3.19-8.79-1.15-2.98-2.76-5.78-5.12-8.27,2.38,6.29,5.14,12.48,5.78,19.95-6.01-2.53-11.26-4.71-16.46-6.98-.83-.36-1.49-1.09-2.08-1.75-5.31-5.81-8.55-12.29-7.97-19.77.3-3.87-1.15-6.95-4.02-9.76-1.35-1.32-2.57-2.75-4.34-4.67Z"/>
    <path fill='#fff' d="m757.13,26.94c-2.85-.78-3.67-2.17-3.44-4.04.26-2.08.42-4.19,1.02-6.2,1.63-5.46,3.47-10.88,5.35-16.7,2.14.79,3.99,1.47,6.18,2.28-3.06,8.27-6.06,16.39-9.12,24.66Z"/>
    <path fill='#fff' d="m187.84,535.21s.09,0,.09,0c-.46.15-.93.3-1.39.45.5-1.39,1-2.78,1.48-4.11-1.47-1.62-2.87-3.16-4.69-5.18-1.05,4.05-1.97,7.6-2.89,11.15-.32-.03-.64-.06-.96-.08-.25-1.2.11-2.4.39-3.64.65-2.87,1.19-5.76,1.77-8.65.51.16,1.01.32,1.52.48.07-.39.34-1.03.18-1.12-.48-.26-1.12-.32-1.7-.45.3-.25.66-.76.89-.72,2.66.49,4.4-.81,5.99-2.26,1.5-1.36,2.86-2.83,4.65-4.61.31,2.22-.45,3.76-1.31,5.29v-1.67c-1.69,1.5-4.7,2.01-4.2,4.7-1.03.14-2.04.28-3.25.44,1.09,1.95,2.18,3.56,3.98,4.98.87-1.82,1.59-3.33,2.3-4.84.21.65.42,1.3.63,1.96-.37,1.08-.77,2.15-1.09,3.24-.46,1.57-.85,3.15-1.27,4.73,0,0,.1-.11.1-.11-.4.01-.8.02-1.2.03Z"/>
    <path fill='#fff' d="m183.09,513.83c1.05,1.1,2.09,2.2,3.14,3.3l-.4.49c-.52-.23-1.03-.46-1.89-.83.38,1.73.73,3.27,1.07,4.82-.24.07-.48.13-.72.2-.74-1.77-1.48-3.53-2.44-5.83-.69,1.54-1.2,2.69-1.72,3.85-.23-.03-.46-.05-.69-.08.12-1.3.25-2.6.39-4.11-.78.05-1.56.09-2.33.14h0c.48-1.03.97-2.07,1.45-3.1,0,.27,0,.53,0,.8.36-.12.95-.16,1.05-.37.39-.8.62-1.66.91-2.5-.03.73-.06,1.46-.11,2.19-.07,1.03.76,1.15,1.64,1.23.25.05.46,0,.62-.17Z"/>
    <path fill='#fff' d="m187.74,505.76c6.15,3.71,6.92,3.63,5.76,8.89.76-2.97-1.31-4.66-3.98-6.42v5.17c-1.57-2.15-2.02-4.54-1.69-7.69,0,0-.09.05-.09.05Z"/>
    <path fill='#fff' d="m206.62,531.54l-.52.48c-2.01-2.9-4.08-5.78-6-8.73-.47-.71-.45-1.66-.34-2.6,2.49,3.55,5.44,6.85,6.86,10.85Z"/>
    <path fill='#fff' d="m242,626.59c.24-.2.48-.39.72-.59h2.93c-.39,1.09-1.06,2.02-.94,2.88.11.79,1.05,1.5,1.72,2.38-2.93-.23-2.97-.27-4.43-4.68Z"/>
    <path fill='#fff' d="m200.74,554.79c.33.6.67,1.2,1.09,1.95-4.15-.56-3.84,3.31-7.01,4.28.77-2.55,2.49-4.32,3.8-6.25,0,0-.1-.04-.1-.04.25.4.5.8.75,1.19.52-.39,1.05-.79,1.57-1.18l-.1.05Z"/>
    <path fill='#fff' d="m176.22,520.66c-.18.58-.44,1.15-.53,1.73-.1.66.03,1.27,1.13.99.08.27.28.56.21.8-.51,1.75-1.07,3.5-1.62,5.24-.24-.03-.47-.05-.71-.08.21-2.72.4-5.44.66-8.15.02-.2.56-.35.87-.53,0,0,0,0,0,0Z"/>
    <path fill='#fff' d="m182.46,514.01c.23-2.2.46-4.39.68-6.59,0,1.32,0,2.65,0,4.2,1.34.53,2.8,1.11,4.95,1.96-2.17.11-3.59.18-5.01.25-.17.17-.37.23-.62.17Z"/>
    <path fill='#fff' d="m183.05,507.54c.26-.76.52-1.52.78-2.28,1.03,1.91,2.06,3.83,3.09,5.74-.18.08-.36.16-.54.24-1.11-1.23-2.22-2.46-3.33-3.7Z"/>
    <path fill='#fff' d="m180.86,510.73c-.13-1.19.74-2.53-.74-3.52.38-.89-.57-2.17,1.08-2.69.12.49.24.98.35,1.47-.23,1.58-.47,3.16-.7,4.74Z"/>
    <path fill='#fff' d="m187.74,505.76s.09-.05.09-.05c-1.38-.24-1.5-1.21-1.7-2.14.08-.14.17-.27.27-.4,1.37.51,2.67,1.05,1.34,2.58Z"/>
    <path fill='#fff' d="m193.39,529.3c-.31-1.29,1.09-2.84-.78-3.91.24-.42.48-.84.71-1.26.88,1.79.99,3.49.07,5.17Z"/>
    <path fill='#fff' class="cls-1" d="m186.54,535.66c.46-.15.93-.3,1.39-.45-.21.85-.43,1.69-.79,3.12-.54-.96-.8-1.43-1.07-1.89.15-.26.31-.52.46-.78Z"/>
    <path fill='#fff' d="m197.44,526.35v-2.34c.06,0,.11,0,.17,0v2.21c-.06.04-.11.09-.17.13Z"/>
    <path fill='#fff' d="m196.85,510.11c-1.87-.37-1.42-1.79-1.62-2.91.54.97,1.08,1.95,1.62,2.92h0Z"/>
    <path fill='#fff' d="m177.64,505.91c.22-1.18.45-2.37.67-3.55.16,1.22.87,2.52-.72,3.48.01.01.05.07.05.07Z"/>
    <path fill='#fff' d="m176.23,520.67l-.48-3.9c.15,0,.31-.02.46-.03,0,1.3,0,2.6,0,3.91,0,.01.01.02.01.02Z"/>
    <path fill='#fff' d="m177.66,511.17c-.27.95-.53,1.91-.76,2.75q-.23-1.57.78-2.72s-.02-.03-.02-.03Z"/>
    <path fill='#fff' d="m177.67,511.2c0-1.75,0-3.51-.02-5.27-.01-.02-.05-.07-.06-.09,0,1.76.02,3.53.05,5.32.01.02.03.04.03.04Z"/>
    <path fill='#fff' d="m186.39,503.18c-.1.13-.19.26-.27.4-.77.38-1.54.76-2.31,1.15.08-1.7,1.4-2.04,3.04-2.01,0,0-.13-.04-.13-.04-.06.19-.16.36-.32.51Z"/>
    <path fill='#fff' d="m177.51,515.77c.14,1.1.28,2.21.42,3.31-.14,0-.28.02-.41.03,0-1.11,0-2.22,0-3.34,0,0,0,0,0,0Z"/>
    <path fill='#fff' d="m196.85,510.12v3.15l-.45-.03c.15-1.04.3-2.08.46-3.12,0,0,0,0,0,0Z"/>
    <path fill='#fff' d="m192.93,502.53l-.93-1.68c.14-.05.27-.11.41-.16.3.56.61,1.12.91,1.69l-.39.16Z"/>
    <path fill='#fff' d="m186.72,502.67s.12.04.13.04c-.52-1.15-1.05-2.31-1.58-3.46.48,1.14.96,2.28,1.44,3.42Z"/>
  </g>
  <g>
    <path fill='#fff' d="m1773.57,391.32c1.37,48.99-9.12,91.11-33.93,129-35.71,54.55-86.13,86.77-150.73,96.13-103.66,15.02-201.98-45.21-234.58-144.54-39.95-121.72,30.15-249.02,154.21-278.33,44.5-10.52,88.57-7.31,131.28,9.75,12.34,4.93,24.55,10.22,36.67,15.68,3.54,1.6,6.94,3.95,9.75,6.65,8.89,8.52,17.55,17.28,26.17,26.09,18.58,18.99,33.14,40.72,43.82,65.05,1.07,2.44,1.93,4.98,3.14,7.34,11.42,22.35,18.54,45.55,14.2,67.19Zm-215.05-168.19c-9.59.94-19.24,1.4-28.74,2.88-102.26,15.85-170.38,118.06-146.07,218.98,19.59,81.35,90.31,137.05,174.13,137.44,36.67.17,70.53-9.2,100.63-30.12,30.18-20.99,55.13-46.12,67.34-82.55,10.38-30.96,15.28-62.02,10.22-94.21-14.26-90.69-93.26-153.29-177.49-152.42Z"/>
    <path fill='#fff' d="m2278.83,365.58c5.62-6.93,10.65-13.06,15.6-19.26,36.77-46.03,73.53-92.07,110.29-138.1,3.53-4.42,6.85-9.04,13.07-10.05,7.22-1.18,13.23.68,17.53,6.78,4.08,5.78,3.99,11.9.54,17.85-1.82,3.14-4.23,5.96-6.51,8.81-42.53,53.36-85,106.76-127.73,159.96-4.26,5.31-5.93,10.52-5.9,17.21.2,56.59.12,113.18.1,169.77,0,3.32.21,6.71-.35,9.96-1.52,8.9-8.85,14.65-17.7,14.3-8.89-.35-15.19-6.67-15.8-16.02-.19-2.98-.07-5.99-.07-8.99,0-56.26-.1-112.52.13-168.77.03-6.76-1.87-11.92-6.06-17.15-43.11-53.74-86.02-107.65-128.97-161.53-2.07-2.6-4.27-5.17-5.84-8.07-4.14-7.65-2.15-16.32,4.56-21.36,5.96-4.47,15.47-4.23,21.23.97,2.94,2.65,5.35,5.91,7.84,9.03,39.07,48.88,78.12,97.78,117.18,146.66,2.02,2.53,4.21,4.92,6.85,7.99Z"/>
    <path fill='#fff' d="m1880.77,571.82c5.4,0,9.03,0,12.67,0,54.29,0,108.59,0,162.88,0,2.66,0,5.33-.08,7.99.03,8.86.37,14.33,4.4,16.32,11.92,1.96,7.39-1.22,16.12-7.98,19.99-2.39,1.37-5.7,1.51-8.6,1.53-17.65.13-35.31.07-52.96.07-45.97,0-91.93,0-137.9,0-3,0-6.02.14-8.99-.17-10.88-1.14-15.78-6.56-16.16-17.64-.06-1.66-.02-3.33-.02-5,0-119.57,0-239.15.02-358.72,0-3.65-.12-7.4.6-10.94,1.51-7.43,7.73-12.41,14.58-12.31,9.33.14,15.9,5.11,17.18,13.46.55,3.59.34,7.31.34,10.97.01,111.25.01,222.5.01,333.74,0,3.92,0,7.84,0,13.08Z"/>
    <path fill='#fff' d="m1630.6,281.07c2.23,2.63,3.91,4.61,5.51,6.49-.29.82-.32,1.64-.72,1.93-3.9,2.82-7.39,5.14-8.15,11.09-.84,6.62-5.19,8.03-12.03,5.65-3.75-1.31-7.4-2.96-11.01-4.64-1.1-.51-2.7-1.58-2.76-2.48-.37-6.21-5.41-7.72-10.33-10.49,2.79-4.34,5.57-8.66,8.63-13.41-1.18-2.31-2.51-4.89-3.84-7.48,4.49-10.57,10.17-14.75,19.96-14.67,8.82.07,16.39,5.16,19.43,13.06,2.72,7.07,1.58,10.8-4.7,14.95Z"/>
    <path fill='#fff' d="m1570.65,526.33c-5,5.47-10.02,10.96-15.35,16.79-7.07-3.02-13.09-8.94-20.57-8.01-2.59-3.48-4.92-6.6-7.88-10.57,3.35-3.48-4.29-8.87,0-13.93-3.92-8.01,3.74-9.44,6.86-13.67,4.6,1.28,6.68,8.38,12.22,4.08,2,5.29,9.57,2.48,11.6,8.04.57,1.55,2.64,2.53,3.94,3.85,1.03,1.04,2.42,2.04,2.81,3.31,1.56,5.04,1.98,6.03,6.36,10.09Z"/>
    <path fill='#fff' d="m1461.59,507.26c.89-5.6-10.51-6.36-7.31-14.44-4.32-5.38,2.26-11.53-1.69-16.5,2.88-2.74,5.25-5,6.96-6.63,5.43.76,11.7-.23,14.31,2.41,4.56,4.6,13.34,2.4,15.26,10.39.33,1.37,1.95,2.94,3.34,3.46,3.76,1.41,5.05,3.9,4.6,7.68-.07.6.21,1.33.53,1.88,1.7,2.91,6.69,5.07,3.72,9.13-3.27,4.46-7.66,8.12-11.68,12.01-.6.58-1.96.89-2.77.64-4.81-1.44-9.63-2.91-14.32-4.7-3.19-1.21-6.17-2.96-10.95-5.31Zm2.72-28c-4.01,10.2.59,16.33,7.12,20.09,5.77,3.32,12.94,6.89,19.35-.49-5.85-10.17-15.89-14.54-26.47-19.6Z"/>
    <path fill='#fff' d="m1524.11,338.3c2.8-1.13,4.23-1.72,5.9-2.39-.49-1.22-.68-2.19-1.2-2.92-3.86-5.5-3.76-7.25.84-11.48,6.14-5.65,17.69-6.84,25.06-2.58,8.25,4.76,12.43,14.62,10.02,23.75-.42,1.57-1.11,3.07-1.9,5.22h-9.45c-.66,5.54,4.48,5.48,5.8,7.46-3.59,0-7.86.86-11.6-.2-5.59-1.59-11.21-3.91-16.03-7.1-3.13-2.07-4.87-6.24-7.45-9.75Z"/>
    <path fill='#fff' d="m1444.58,336.74c-7.14-5.63-6.24-15.19-11.62-21.39-.06-.07.96-.93,1.3-1.52,1.29-2.25,2.51-4.53,3.78-6.85-1.87-1.54-3.36-2.77-5.19-4.27,1.16-.59,2.04-1.44,2.79-1.34,2.62.35,5.21,1.55,7.78,1.44,2.44-.1,5.91-.68,7.06-2.34,4.73-6.86,10.98-6.43,19.1-4.81.74,4.05,1.6,8.47,2.36,12.91.5,2.9.63,5.87,1.33,8.72,1.39,5.65.21,7.57-5.45,8.37-3.44.49-7.45-.13-9.15,4.2-.12.31-.28.6-.43.9-6.85-3.42-8.9,4.83-13.67,5.98Zm4.78-31.23c4.18,8.7,7.37,9.98,16.31,6.38-1.51-4.48-3.01-8.95-4.69-13.97-4.6,3-8.11,5.3-11.61,7.58Z"/>
    <path fill='#fff' d="m1600.88,390.89c2.81,3.41,5.06,6.13,7.64,9.26-3.48-.43-6.29-.77-10.79-1.32,2.41,6.1,4.35,11.02,6.3,15.95-.38.23-.76.46-1.13.68-2.68-3.1-5.37-6.19-8.15-9.4-3.05.64-6.44.49-8.64,2.04-2.84,1.99-4.43.97-6.9-.23-5.97-2.9-9.43-8.35-13.16-13.23-1.01-1.32,1.17-6.26,3.14-8.39,3.37-3.64,8.13-4.48,12.77-2.07,2.32,1.21,4.14,3.39,6.47,4.6,1.77.91,3.97.98,6.74-.05-1.04-1.08-2.28-2.02-3.1-3.25-2.54-3.82-1.35-6.78,2.88-8.14,3.14-1.01,6.17-2.37,9.51-3.68,8.62,7.29,8.06,11.81-3.57,17.24Z"/>
    <path fill='#fff' d="m1462.53,355.93c1.46,7.13,3.51,12.66,3.44,18.16-.06,4.69-2.2,9.52-4.27,13.87-.46.96-5.33,1.19-6.84.02-6.85-5.27-13.22-11.18-19.79-16.82-2.72-2.33-4.9-5.35-2.7-8.53,1.39-2.01,4.59-3.2,7.2-3.84,5.9-1.44,11.91-2.43,17.92-3.34,1.79-.27,3.71.32,5.05.46Zm-12.22,8.6c2.86,1.29,3.88,2.01,4.95,2.11.49.04,1.08-1.16,1.63-1.79-.96-.7-1.84-1.69-2.91-1.99-.66-.19-1.61.68-3.67,1.68Z"/>
    <path fill='#fff' d="m1585.89,469.69c-3.57,3.85-6.9,7.44-10.13,10.92-4.57-1.87-8.77-3.6-12.96-5.32-6.81-2.8-11.19-16.8-6.95-22.62,2.35-3.22,5.4-5,9.43-2.8,6.75,3.68,14.08,6.65,16.85,14.95.56,1.67,2.25,2.96,3.77,4.87Z"/>
    <path fill='#fff' d="m1510.49,409.68c6-1.76,4.19-10.56,10.99-10.67,5.53-.09,11.07.91,17.04,5.22-2.96,2.66-5.31,5.12-8.01,7.11-3.87,2.85-7.64,5.39-4.72,11.16.68,1.35.48,3.28.29,4.9-.46,3.87-2.81,5.98-6.71,5.8-3.7-.18-6.98-4.32-5.29-7.72,2.94-5.91.32-10.06-3.6-15.79Z"/>
    <path fill='#fff' d="m1441.86,432.56c1.04-4.26,1.73-7.07,2.42-9.93,7.37-1.62,9.41,3.62,12.08,7.9-3.63,6.2-7.95,10.67-15.51,12.05-3.87.71-7.29,4.22-10.77,6.68-3.58,2.53-6.83,2.6-9.44-1.08-2.45-3.45-1.93-7.07,1.12-9.83,3.42-3.09,7.04-5.91,12.34-5.08,2.45.38,5.08-.43,7.75-.72Z"/>
    <path fill='#fff' d="m1662.71,405.9v-7.46c5.17-1.6,6.98-8.75,14.98-9.84-.95,6.53-1.72,11.84-2.58,17.73-5.7,1.64-9.89,4.55-8.84,11.78.25,1.7-2,4.11-3.61,5.65-2.78,2.65-6.54,2.78-8.83-.04-1.54-1.89-2.56-6.19-1.46-7.83,2.44-3.65,6.36-6.31,10.34-9.99Z"/>
    <path fill='#fff' d="m1512.46,289.77c-.99-4.75-2.34-9.31-2.76-13.96-.28-3.05.3-6.41,1.37-9.3,1.54-4.14,3.88-7.97,6.14-12.47,2.35-.26,5.77-.63,9.74-1.06.38,2.11,1.57,5.07.9,5.57-7.59,5.75-4.25,15.26-8,22.13-1.91,3.5-5.08,6.31-7.4,9.08Z"/>
    <path fill='#fff' d="m1710.02,453.8c-4.47,4.22-7.18,8.45-10.91,9.75-2.91,1.01-5.14,1.75-7.05,4.19-1.14,1.47-2.9,2.79-4.65,3.36-3.34,1.1-6.48.58-8.6-2.8-2.26-3.59-.9-7.42,1.99-8.5,7.52-2.81,13.75-8.98,22.28-8.93,1.78.01,3.55,1.44,6.94,2.92Z"/>
    <path fill='#fff' d="m1637.41,473.54c-4.98-4.06-12.07,1.88-17.75-2.37-1.47-1.1-3.48-2.68-3.54-4.11-.06-1.29,1.97-3.21,3.51-3.93,6.83-3.18,14.32-.96,21.49-2.14,3.73-.62,5.35,3.28,4.95,7.07-.42,4.01-3.15,5.87-8.66,5.48Z"/>
    <path fill='#fff' d="m1665.52,517.12c-3.93.73-7.84,1.63-11.79,2.13-4.3.54-8.07-2.71-8.23-6.73-.14-3.47,3.14-7.62,6.73-7.3,6.18.55,12.34,1.72,18.4,3.11,1.91.44,3.48,2.39,5.21,3.64-1.8,1.56-3.5,3.25-5.43,4.63-1.32.94-2.96,1.44-4.45,2.14-.15-.54-.3-1.08-.45-1.62Z"/>
    <path fill='#fff' d="m1694.64,361.34c6.94-1.35,11.53,3.66,16.25,7.07,2.63,1.9,1.76,6.18-1.13,8.77-2.63,2.36-5.7,2.54-7.88-.23-3.53-4.49-9-8.23-7.23-15.61Z"/>
    <path fill='#fff' d="m1614.35,442.11c2.15-6.26,3.49-11.75,5.95-16.68,1.38-2.77,4.81-3.17,7.78-1.2,3.39,2.26,4.62,6.44,2.11,9.25-3.59,4.03-6.83,8.96-15.84,8.63Z"/>
    <path fill='#fff' d="m1648.81,357.36c4.25-2.03,6.81-3.18,9.29-4.47,2.65-1.38,5.79-1.57,6.79,1.16.99,2.67.96,6.4-.17,9-1.29,2.97-4.42,1.84-6.78.32-2.6-1.67-5.16-3.39-9.14-6.01Z"/>
  </g>
  <path fill='#fff' d="m962.77,224.6l124.09,388.94s7.66,15.12,26.04,15.88,24.51-15.88,24.51-15.88l124.09-388.94-18.38-9.37c-26.04,5.93-15.32,9.37-15.32,9.37l-115.66,355.03c-8.43-1.53-11.49-22.98-11.49-22.98l-105.7-334.84-16.85-6.58"/>
  <path fill='#fff' d="m2552.13,209.45l124.09,388.94s7.66,15.12,26.04,15.88,24.51-15.88,24.51-15.88l124.09-388.94-18.38-9.37c-26.04,5.93-15.32,9.37-15.32,9.37l-115.66,355.03c-8.43-1.53-11.49-22.98-11.49-22.98l-105.7-334.84-16.85-6.58"/>
</svg>