<svg version="1.1" id="Layer_1" xmlns="http://www.w3.org/2000/svg" xmlns:xlink="http://www.w3.org/1999/xlink" x="0px" y="0px"
	 width="100%" viewBox="0 0 1500 1500" enable-background="new 0 0 1500 1500" xml:space="preserve">
<path fill="#F36D25" opacity="1.000000" stroke="none" 
	d="
M1.000000,556.000000 
	C1.000000,370.666687 1.000000,185.833405 1.000000,1.000074 
	C500.999878,1.000050 1000.999756,1.000050 1500.999756,1.000025 
	C1500.999756,500.999786 1500.999756,1000.999573 1500.999878,1500.999512 
	C1001.000305,1500.999756 501.000610,1500.999756 1.000452,1500.999878 
	C1.000000,1186.166626 1.000000,871.333313 1.000000,556.000000 
M746.583191,699.076721 
	C702.331909,724.635498 658.135986,750.291077 613.767029,775.643921 
	C607.454041,779.251221 605.049500,783.630493 605.081421,790.865601 
	C605.319763,844.862793 605.156555,898.861755 605.313232,952.859497 
	C605.325867,957.221558 604.119080,959.619324 600.232361,961.845093 
	C552.854431,988.976196 505.620117,1016.358032 458.273010,1043.543213 
	C453.249542,1046.427612 450.912872,1050.069702 450.925232,1055.962280 
	C451.046844,1113.960205 451.036346,1171.958496 450.936676,1229.956421 
	C450.927338,1235.389526 452.902405,1239.061035 457.599152,1241.765503 
	C507.939636,1270.753052 558.247681,1299.796997 608.521851,1328.899414 
	C613.363220,1331.701782 617.722351,1331.620117 622.566101,1328.813110 
	C670.092224,1301.272217 717.703369,1273.877808 765.201477,1246.289062 
	C768.520203,1244.361328 770.850891,1244.329834 774.158203,1246.250366 
	C821.227844,1273.583618 868.422424,1300.701782 915.468445,1328.075317 
	C921.328979,1331.485229 926.180115,1331.659302 932.141602,1328.192139 
	C981.350403,1299.572388 1030.655518,1271.117065 1080.068237,1242.851074 
	C1086.228760,1239.327026 1088.531128,1234.926025 1088.508667,1227.965210 
	C1088.325806,1171.301025 1088.317017,1114.635498 1088.517334,1057.971436 
	C1088.542725,1050.793823 1086.132080,1046.349121 1079.809937,1042.734497 
	C1032.557373,1015.719421 985.494324,988.372986 938.291016,961.271240 
	C935.111450,959.445679 934.045776,957.510254 934.054077,953.882141 
	C934.179260,899.050842 934.095764,844.219055 934.207764,789.387756 
	C934.219421,783.660095 932.482422,779.659668 927.322693,776.694275 
	C876.954773,747.746399 826.657288,718.675781 776.378845,689.572632 
	C771.880371,686.968750 767.656982,686.828247 763.213867,689.463989 
	C757.916992,692.606140 752.563599,695.653137 746.583191,699.076721 
M247.210571,349.495728 
	C246.447388,356.908844 246.601135,364.565765 244.709900,371.678955 
	C241.741486,382.843567 232.083221,388.572357 220.146255,387.800354 
	C207.187698,386.962341 200.404816,381.286987 197.833389,369.018127 
	C197.392014,366.912262 197.060516,364.742035 197.036072,362.597473 
	C196.943756,354.499237 196.998978,346.399261 196.998978,338.311646 
	C180.825653,338.311646 165.577972,338.311646 150.134171,338.311646 
	C149.761963,353.771973 149.534653,368.917603 153.098160,383.789948 
	C158.964325,408.272369 174.117966,423.659393 199.028183,427.911255 
	C210.240906,429.825134 221.916290,430.416199 233.280853,429.786530 
	C264.352264,428.065002 286.082123,410.203400 293.877655,380.055176 
	C296.434265,370.167877 297.741180,359.694733 297.823517,349.475006 
	C298.219666,300.311737 298.095520,251.143143 297.910187,201.977371 
	C297.878967,193.688171 297.285187,185.290100 295.845154,177.137726 
	C291.214478,150.922699 277.915314,131.475067 251.335052,123.379829 
	C236.910538,118.986725 222.103973,119.018600 207.263260,120.740181 
	C194.651138,122.203224 182.827057,125.913246 172.657990,133.787231 
	C156.716217,146.131058 150.246307,163.451920 149.145599,182.649582 
	C148.012115,202.418472 148.122986,222.281738 148.355988,242.095886 
	C148.466949,251.532120 149.413300,261.088440 151.214874,270.350433 
	C156.536804,297.710907 172.025406,312.693665 197.970932,315.470551 
	C217.769943,317.589600 234.629272,312.157867 245.398315,293.916748 
	C245.727310,293.359497 245.608932,292.538147 245.699127,291.839935 
	C246.202942,292.243347 246.706757,292.646759 247.210571,293.050171 
	C247.210571,311.532623 247.210571,330.015045 247.210571,349.495728 
M515.412720,379.500427 
	C515.412720,351.937531 515.412720,324.374603 515.412720,296.893921 
	C508.907593,296.893921 503.294281,296.893921 496.979889,296.893921 
	C496.979889,319.739502 496.979889,342.288330 496.979889,364.837128 
	C495.782349,363.775024 495.381165,362.700439 495.035645,361.608185 
	C488.615326,341.313629 482.244263,321.003204 475.703674,300.747498 
	C475.195496,299.173706 473.579437,296.874146 472.357971,296.796143 
	C466.078888,296.395081 459.760468,296.610321 453.230560,296.610321 
	C453.230560,339.335022 453.230560,381.597687 453.230560,424.062164 
	C459.231323,424.062164 465.124512,424.062164 471.767090,424.062164 
	C471.767090,399.008636 471.767090,374.297668 471.767090,349.586670 
	C473.430969,351.538177 474.164612,353.531250 474.800720,355.554993 
	C481.581238,377.127441 488.305786,398.717682 495.199127,420.253937 
	C495.703003,421.828125 497.311035,424.103760 498.554535,424.203857 
	C503.970520,424.639740 509.441620,424.391113 515.412598,424.391113 
	C515.412598,409.401245 515.412598,394.950867 515.412720,379.500427 
M471.412659,586.354736 
	C471.412659,564.047119 471.412659,541.739441 471.412659,519.431824 
	C471.903320,519.376038 472.393982,519.320251 472.884613,519.264404 
	C480.739227,544.156982 488.593842,569.049500 496.416321,593.840210 
	C502.903076,593.840210 508.875397,593.840210 515.129395,593.840210 
	C515.129395,551.275452 515.129395,508.872742 515.129395,466.269104 
	C509.196747,466.269104 503.464569,466.269104 497.034485,466.269104 
	C497.034485,489.250702 497.034485,511.970459 497.034485,534.690247 
	C495.780640,533.482727 495.345276,532.250854 494.951721,531.005737 
	C488.540161,510.720825 482.175842,490.420776 475.644897,470.174408 
	C475.135559,468.595490 473.540710,466.275726 472.328308,466.197693 
	C466.068665,465.794922 459.769226,466.010712 453.257263,466.010712 
	C453.257263,508.829407 453.257263,551.194641 453.257263,593.781250 
	C459.286560,593.781250 465.058411,593.781250 471.412567,593.781250 
	C471.412567,591.560730 471.412567,589.435364 471.412659,586.354736 
M515.414490,207.500427 
	C515.414490,180.740433 515.414490,153.980438 515.414490,127.251068 
	C509.023163,127.251068 503.297821,127.251068 497.066711,127.251068 
	C497.066711,150.290924 497.066711,172.941422 497.066711,195.591919 
	C495.763947,194.162216 495.248749,192.632782 494.762695,191.094162 
	C488.453186,171.120346 482.188812,151.132050 475.764496,131.195282 
	C475.243439,129.578217 473.708282,127.152176 472.517975,127.075958 
	C466.124847,126.666603 459.691650,126.882515 453.277588,126.882515 
	C453.277588,169.818756 453.277588,212.051407 453.277588,254.537643 
	C459.304474,254.537643 465.051025,254.537643 471.717682,254.537643 
	C471.717682,229.655670 471.717682,204.978897 471.717682,180.302139 
	C473.194733,181.333023 473.632416,182.381592 473.972260,183.460983 
	C481.011078,205.818619 487.990662,228.195236 495.166656,250.508682 
	C495.698730,252.163101 497.525299,254.459915 498.922516,254.588867 
	C504.173889,255.073441 509.496796,254.783142 515.414368,254.783142 
	C515.414368,239.062149 515.414368,223.781296 515.414490,207.500427 
M571.857361,313.502136 
	C571.857361,330.861542 571.857361,348.220917 571.857361,365.580322 
	C571.507507,365.633881 571.157715,365.687439 570.807861,365.740997 
	C563.500977,342.710175 556.194092,319.679321 548.958496,296.873047 
	C541.652466,296.873047 534.881653,296.873047 528.014160,296.873047 
	C528.014160,339.496521 528.014160,381.832794 528.014160,424.117493 
	C534.058899,424.117493 539.672913,424.117493 545.757874,424.117493 
	C545.757874,398.617401 545.757874,373.406372 545.757874,348.195312 
	C547.132385,349.327881 547.660889,350.638458 548.084656,351.982025 
	C555.236023,374.653778 562.329163,397.344086 569.607178,419.975037 
	C570.150635,421.665039 571.893677,424.078705 573.254883,424.201172 
	C578.677490,424.688934 584.169800,424.402100 589.807312,424.402100 
	C589.807312,381.624268 589.807312,339.368073 589.807312,296.849548 
	C583.846375,296.849548 578.080688,296.849548 571.857361,296.849548 
	C571.857361,302.232819 571.857361,307.368103 571.857361,313.502136 
M1049.000610,400.500000 
	C1049.000610,365.951691 1049.000610,331.403381 1049.000610,296.920410 
	C1042.591919,296.920410 1037.005737,296.920410 1031.023682,296.920410 
	C1031.023682,320.119843 1031.023682,342.998962 1031.023682,365.878082 
	C1029.765015,364.905518 1029.331787,363.731750 1028.953125,362.540619 
	C1022.406738,341.947601 1015.898254,321.342407 1009.263062,300.778107 
	C1008.771790,299.255676 1007.445129,296.900818 1006.396973,296.840424 
	C1000.008484,296.472412 993.588257,296.656616 987.218140,296.656616 
	C987.218140,339.626709 987.218140,381.840942 987.218140,423.987671 
	C993.296143,423.987671 999.008484,423.987671 1005.149414,423.987671 
	C1005.149414,398.267395 1005.149414,372.960968 1005.149414,347.654510 
	C1006.255920,348.969971 1006.726257,350.353760 1007.166199,351.747162 
	C1014.372498,374.573151 1021.537476,397.412384 1028.859375,420.201263 
	C1029.368286,421.785187 1030.947266,424.092346 1032.180420,424.192352 
	C1037.591919,424.631195 1043.059326,424.381561 1049.000610,424.381561 
	C1049.000610,416.411957 1049.000610,408.955963 1049.000610,400.500000 
M527.586548,237.495804 
	C527.586548,243.118729 527.586548,248.741638 527.586548,254.563858 
	C540.511780,254.563858 552.857361,255.291458 565.081360,254.382782 
	C580.965881,253.201950 588.905151,245.088379 591.232178,229.230530 
	C591.976501,224.158249 591.948792,218.947678 591.971436,213.799042 
	C592.051941,195.471725 592.165710,177.142014 591.958618,158.816681 
	C591.718201,137.541702 580.805481,126.885696 559.691895,126.858231 
	C552.527466,126.848915 545.362976,126.856728 538.198547,126.856705 
	C534.777466,126.856697 531.356384,126.856705 527.586670,126.856705 
	C527.586670,163.893539 527.586670,200.195297 527.586548,237.495804 
M587.205688,589.274780 
	C587.299988,590.722351 587.394287,592.169922 587.496887,593.744995 
	C594.749756,593.744995 601.656189,593.744995 609.098022,593.744995 
	C609.098022,575.381531 609.098022,557.269592 609.098022,539.157654 
	C610.571106,540.896057 611.292114,542.706970 611.927734,544.547363 
	C617.189819,559.784424 622.391113,575.042786 627.760742,590.241760 
	C628.268250,591.678040 629.752991,593.769470 630.870972,593.825500 
	C637.579712,594.162292 644.313904,593.992615 651.765869,593.992615 
	C644.819275,574.275574 638.167480,555.395142 631.354675,536.057922 
	C641.897644,533.349976 647.494812,526.654724 647.978210,516.386230 
	C648.407837,507.258820 648.415833,498.074280 647.934570,488.950592 
	C647.321472,477.327667 640.523499,468.644348 629.384644,467.381775 
	C615.606689,465.820038 601.626709,466.040771 587.205444,465.470520 
	C587.205444,507.149109 587.205444,547.732422 587.205688,589.274780 
M812.204407,234.499573 
	C812.204407,241.102570 812.204407,247.705566 812.204407,254.488190 
	C819.775757,254.488190 826.672485,254.488190 834.171265,254.488190 
	C834.171265,235.950714 834.171265,217.711182 834.171265,199.471634 
	C835.212158,200.376343 835.586060,201.289001 835.907898,202.219620 
	C841.558105,218.555832 847.155945,234.910522 852.928406,251.203354 
	C853.425232,252.605591 855.021118,254.567307 856.188843,254.625885 
	C862.784668,254.956833 869.405640,254.785767 876.833130,254.785767 
	C869.896179,235.066742 863.210205,216.061188 856.545959,197.117203 
	C869.684753,191.384552 873.011353,186.666122 873.352478,172.872055 
	C873.541626,165.222717 873.489014,157.542435 873.025696,149.907639 
	C872.285217,137.702118 865.697510,129.330353 853.657349,128.074890 
	C840.324097,126.684593 826.779663,127.316803 813.326660,127.097664 
	C813.075745,127.093575 812.818848,127.454781 812.204407,127.916046 
	C812.204407,162.937241 812.204407,198.218460 812.204407,234.499573 
M869.995300,471.627045 
	C869.995300,512.342041 869.995300,553.057007 869.995300,593.643555 
	C877.628845,593.643555 884.529358,593.643555 891.940186,593.643555 
	C891.940186,575.472839 891.940186,557.656433 891.940186,539.840088 
	C893.554810,541.659973 894.312439,543.613159 894.995239,545.592224 
	C900.144775,560.517395 905.244141,575.460083 910.478577,590.355347 
	C910.956055,591.714172 912.226868,593.776855 913.203613,593.819763 
	C920.083679,594.121765 926.983215,593.980042 934.512512,593.980042 
	C927.561401,574.288818 920.890381,555.391113 914.071289,536.073792 
	C925.402283,533.261719 930.590515,525.664551 930.948303,514.647095 
	C931.202209,506.829193 931.178650,498.991272 930.957947,491.171356 
	C930.563965,477.210388 923.159790,468.084015 909.399353,466.945160 
	C896.548767,465.881592 883.540894,466.717712 870.237122,466.717712 
	C870.172241,467.773926 870.083801,469.215637 869.995300,471.627045 
M1250.412720,562.500488 
	C1250.412720,555.138794 1250.412720,547.777100 1250.412720,540.415344 
	C1250.880981,540.354919 1251.349243,540.294495 1251.817505,540.234070 
	C1258.010010,558.144104 1264.202393,576.054077 1270.330200,593.777222 
	C1278.117798,593.777222 1285.381104,593.777222 1293.123413,593.777222 
	C1286.291626,574.402893 1279.582275,555.375854 1272.759033,536.025574 
	C1284.036865,533.269104 1289.075684,525.820374 1289.595703,515.304199 
	C1290.006348,507.001526 1290.225586,498.610687 1289.507935,490.347748 
	C1288.143555,474.641693 1280.483521,467.330566 1264.299438,466.313293 
	C1253.845825,465.656250 1243.325073,466.052948 1232.834351,466.014740 
	C1231.569336,466.010132 1230.303467,466.239014 1229.106201,466.353149 
	C1229.106201,508.999298 1229.106201,551.250488 1229.106201,593.706177 
	C1236.235840,593.706177 1243.114990,593.706177 1250.412598,593.706177 
	C1250.412598,583.443665 1250.412598,573.472107 1250.412720,562.500488 
M910.645874,318.287567 
	C910.362793,320.093079 909.836975,321.898071 909.833313,323.704132 
	C909.783325,348.197235 909.205505,372.710114 910.008423,397.177124 
	C910.604248,415.332520 923.096191,425.849426 941.741821,426.000275 
	C960.387085,426.151123 973.263245,415.792908 973.933411,397.714233 
	C974.857910,372.772858 974.762207,347.751617 973.943542,322.802673 
	C973.411194,306.580322 962.364868,296.476807 946.465698,295.068787 
	C927.584290,293.396667 915.472717,301.017670 910.645874,318.287567 
M606.296753,411.074371 
	C614.143555,423.695099 628.254517,428.743011 644.725037,424.821320 
	C657.647705,421.744385 666.537720,411.156891 666.860596,396.292480 
	C667.381042,372.335846 667.414124,348.349670 666.830139,324.396057 
	C666.537781,312.403229 661.225525,302.520081 649.352112,297.557343 
	C624.614075,287.217590 602.130676,301.946930 602.014954,328.613770 
	C601.923279,349.754211 601.703369,370.901978 602.179321,392.032104 
	C602.317810,398.178406 604.654480,404.275177 606.296753,411.074371 
M1188.136353,577.220520 
	C1180.005249,577.551331 1176.424683,574.404297 1175.890259,566.397400 
	C1175.779419,564.737183 1175.799561,563.066650 1175.799316,561.400879 
	C1175.794434,531.568665 1175.795776,501.736511 1175.795654,471.904327 
	C1175.795654,470.114685 1175.795654,468.325043 1175.795654,466.375854 
	C1168.241577,466.375854 1161.215210,466.375854 1153.994507,466.375854 
	C1153.994507,498.579620 1153.926514,530.402161 1154.017334,562.224304 
	C1154.083130,585.323608 1165.444824,596.148865 1188.541748,595.404541 
	C1189.539429,595.372437 1190.535767,595.271484 1191.530762,595.180786 
	C1205.109009,593.943726 1213.919189,585.758850 1215.923828,572.273438 
	C1216.485229,568.497864 1216.750488,564.644348 1216.759033,560.825806 
	C1216.825317,531.160400 1216.795776,501.494843 1216.795776,471.829346 
	C1216.795776,470.045502 1216.795654,468.261658 1216.795654,466.361511 
	C1209.840454,466.361511 1203.461792,466.361511 1196.853271,466.361511 
	C1196.853271,468.550171 1196.853271,470.373810 1196.853271,472.197449 
	C1196.853271,501.862976 1196.869507,531.528503 1196.825195,561.193970 
	C1196.821167,563.843445 1196.593628,566.520081 1196.169312,569.135254 
	C1195.499634,573.261780 1193.259277,576.147156 1188.136353,577.220520 
M1005.143188,530.500061 
	C1005.143188,509.097595 1005.143188,487.695099 1005.143188,466.294922 
	C998.173279,466.294922 991.928955,466.294922 985.208435,466.294922 
	C985.208435,468.379852 985.208435,470.173004 985.208435,471.966156 
	C985.208374,501.775543 985.216431,531.584961 985.193726,561.394348 
	C985.191833,563.887573 985.205200,566.415344 984.823975,568.866760 
	C984.019104,574.042419 980.403870,577.174194 975.320007,577.439941 
	C969.838745,577.726501 966.077271,575.005005 964.896973,569.510681 
	C964.343811,566.935913 964.177734,564.235718 964.173523,561.591797 
	C964.125671,531.615906 964.143250,501.640015 964.143188,471.664093 
	C964.143188,469.898499 964.143188,468.132935 964.143188,466.187408 
	C956.728882,466.187408 949.948120,466.187408 943.019592,466.187408 
	C942.868652,467.091766 942.618713,467.892303 942.618225,468.692993 
	C942.600037,500.334167 942.246399,531.980774 942.726990,563.614685 
	C943.069519,586.162659 954.288330,596.086365 976.920227,595.400024 
	C978.249634,595.359741 979.578796,595.240051 980.902649,595.103882 
	C992.950562,593.864136 1001.277527,586.681458 1003.840759,574.851624 
	C1004.713989,570.821350 1005.018616,566.610718 1005.086914,562.474365 
	C1005.257385,552.152100 1005.143127,541.825195 1005.143188,530.500061 
M666.795593,167.500107 
	C666.795593,154.071243 666.795593,140.642395 666.795593,127.137566 
	C659.834351,127.137566 653.582092,127.137566 646.853210,127.137566 
	C646.853210,129.205322 646.853210,130.994873 646.853210,132.784439 
	C646.853149,162.428482 646.873474,192.072571 646.820129,221.716522 
	C646.815063,224.525436 646.609131,227.387451 646.041565,230.130676 
	C644.882874,235.731323 641.462158,238.201813 635.680054,238.039810 
	C630.461487,237.893570 627.013916,234.969452 626.149963,229.637024 
	C625.779968,227.353333 625.810547,224.990463 625.808960,222.663467 
	C625.788696,192.852890 625.795654,163.042297 625.795593,133.231705 
	C625.795593,131.281433 625.795593,129.331177 625.795593,127.120438 
	C618.315918,127.120438 611.414185,127.120438 604.202454,127.120438 
	C604.127014,128.772263 604.003479,130.227066 604.002686,131.681931 
	C603.990234,153.165543 603.993103,174.649139 603.994507,196.132751 
	C603.995117,205.792038 603.792419,215.456848 604.049072,225.109390 
	C604.522217,242.904938 612.492737,253.356232 628.203308,255.591583 
	C648.849182,258.529144 665.585388,252.253906 666.408997,226.933899 
	C667.042053,207.472366 666.702576,187.979218 666.795593,167.500107 
M663.835693,555.197937 
	C661.416138,567.984497 658.996582,580.771057 656.527039,593.821655 
	C663.846008,593.821655 670.301392,593.821655 676.972656,593.821655 
	C678.268860,586.180542 679.541443,578.678528 680.876282,570.809692 
	C687.844666,570.809692 694.483276,570.677185 701.104919,570.952881 
	C702.095093,570.994141 703.602539,572.827454 703.853027,574.041687 
	C705.189148,580.517395 706.201599,587.059875 707.357849,593.763672 
	C714.724365,593.763672 721.814331,593.763672 729.572754,593.763672 
	C721.449097,551.050964 713.390564,508.680847 705.272095,465.995270 
	C698.424805,465.995270 691.956055,466.167450 685.502625,465.927063 
	C681.953674,465.794891 680.396729,466.592102 679.682495,470.546082 
	C674.630188,498.515076 669.234680,526.422119 663.835693,555.197937 
M759.581726,420.973236 
	C760.649048,414.424927 761.716431,407.876617 762.777222,401.368347 
	C770.543091,401.368347 777.936890,401.368347 785.400330,401.368347 
	C786.770142,409.174133 788.080750,416.642273 789.369873,423.988220 
	C796.896179,423.988220 803.932129,423.988220 811.197937,423.988220 
	C811.117981,422.741913 811.151917,421.914185 811.001526,421.121399 
	C803.313965,380.595703 795.640747,340.067169 787.763733,299.578247 
	C787.528137,298.367432 785.182617,296.808746 783.743835,296.724213 
	C778.100769,296.392761 772.418335,296.774567 766.767517,296.517456 
	C763.377441,296.363220 762.322144,297.596802 761.712769,300.889191 
	C755.630310,333.753815 749.328857,366.577881 743.114807,399.418243 
	C741.579590,407.531799 740.137390,415.662903 738.543945,424.379364 
	C745.194336,424.379364 751.153076,424.474731 757.101074,424.264618 
	C757.889099,424.236786 758.622253,422.654053 759.581726,420.973236 
M738.004150,151.703354 
	C737.164124,137.283768 731.332336,129.338684 718.985229,126.442650 
	C711.261780,124.631111 703.446838,124.676048 695.778564,127.012207 
	C687.549561,129.519226 681.425842,134.768372 679.401672,143.081955 
	C675.919556,157.383957 676.517212,171.364868 687.220764,182.958328 
	C694.674194,191.031418 702.340210,198.933441 710.286499,206.518738 
	C717.280212,213.194717 719.011536,221.216949 717.690125,230.240967 
	C716.710022,236.934433 711.443420,240.032669 704.850403,238.302246 
	C699.773071,236.969635 698.014526,233.296600 697.896179,228.601593 
	C697.742188,222.495270 697.858521,216.382141 697.858521,210.208344 
	C690.744995,210.208344 684.358215,210.208344 678.071167,210.208344 
	C678.071167,218.365707 677.399658,226.240555 678.236572,233.951660 
	C679.350952,244.219238 685.134033,251.534515 695.358093,254.501465 
	C704.020020,257.015076 712.785034,256.994232 721.430847,254.234314 
	C730.225708,251.426849 736.141235,245.514954 738.002991,236.520309 
	C741.310242,220.542160 740.415222,205.314850 727.913391,192.847977 
	C719.778198,184.735443 711.746033,176.519501 703.665833,168.351730 
	C699.419922,164.059799 697.711243,158.908951 698.120789,152.899338 
	C698.559875,146.455612 701.953979,142.964767 708.153198,142.919128 
	C714.555664,142.872009 717.908875,146.074295 718.161438,152.724640 
	C718.311218,156.669281 718.188843,160.624252 718.188843,164.757339 
	C725.052307,164.757339 731.295044,164.757339 738.005066,164.757339 
	C738.005066,160.567032 738.005066,156.609833 738.004150,151.703354 
M746.406311,524.085571 
	C753.566345,531.290100 760.567627,538.661926 767.931641,545.651550 
	C775.075317,552.432129 776.672852,560.661926 775.237183,569.858643 
	C774.357483,575.494019 770.828003,578.208801 765.139709,577.986267 
	C758.967407,577.744812 755.679077,574.179810 755.461792,567.063904 
	C755.285217,561.279602 755.425964,555.485596 755.425964,549.557983 
	C748.434265,549.557983 742.053162,549.557983 735.588501,549.557983 
	C735.588501,557.022766 735.020020,564.193420 735.711670,571.240417 
	C736.994202,584.308289 743.104553,591.756653 754.983948,594.158691 
	C768.460876,596.883667 781.733643,596.807190 791.488220,584.756287 
	C793.514648,582.252808 795.125000,578.987793 795.744507,575.840942 
	C799.086243,558.864746 797.591553,543.067078 783.971863,530.310242 
	C776.564758,523.372437 769.595520,515.968628 762.382629,508.821503 
	C757.761841,504.242828 755.273071,498.926086 755.834839,492.265839 
	C756.408997,485.459137 759.778748,482.064392 766.248962,482.149292 
	C772.412598,482.230194 775.705811,485.615723 775.955078,492.360199 
	C776.094727,496.138031 775.980225,499.925293 775.980225,503.864044 
	C782.771057,503.864044 789.005432,503.864044 795.233093,503.864044 
	C795.233093,497.982269 795.753296,492.323090 795.128113,486.793396 
	C793.689697,474.070862 786.244568,466.669556 773.511536,465.165375 
	C768.598511,464.584991 763.505371,464.585846 758.590332,465.153259 
	C746.880371,466.505249 738.241028,473.901001 736.375854,484.942322 
	C733.998779,499.014343 735.068787,512.590698 746.406311,524.085571 
M1058.091919,486.574768 
	C1059.034668,494.887115 1059.977417,503.199432 1060.947510,511.752319 
	C1066.755859,511.752319 1072.997559,511.752319 1080.310791,511.752319 
	C1079.713623,502.373596 1079.911499,493.180847 1078.366333,484.291046 
	C1076.388428,472.911255 1068.581421,466.486572 1056.996826,465.110046 
	C1053.218018,464.661041 1049.338135,464.611023 1045.538208,464.871582 
	C1029.617554,465.963287 1018.720459,475.274902 1018.132202,491.173340 
	C1017.172852,517.103394 1017.313110,543.113159 1018.125000,569.053772 
	C1018.552795,582.721741 1027.520142,592.059143 1040.249756,594.541687 
	C1045.232056,595.513367 1050.546875,595.434265 1055.645386,595.024963 
	C1068.012695,594.032104 1077.072388,586.616272 1078.537842,574.397461 
	C1079.809326,563.796387 1078.802368,552.921936 1078.802368,541.871399 
	C1073.004395,541.871399 1066.743530,541.871399 1059.977173,541.871399 
	C1059.977173,550.173279 1060.113037,558.297546 1059.936768,566.415100 
	C1059.779297,573.671265 1056.151489,577.440247 1049.793457,577.468445 
	C1043.671753,577.495605 1039.177368,573.417725 1039.121948,566.674500 
	C1038.922241,542.347290 1038.970459,518.017151 1039.097290,493.689026 
	C1039.119995,489.343964 1040.767700,485.270721 1045.223999,483.642944 
	C1049.623413,482.035919 1054.084961,482.050232 1058.091919,486.574768 
M726.750122,390.290955 
	C732.605347,359.287537 738.460571,328.284088 744.391174,296.881226 
	C737.342529,296.881226 730.917725,296.881226 724.097778,296.881226 
	C719.299194,325.093109 714.489075,353.373047 709.678955,381.653015 
	C708.400818,380.631836 708.134521,379.712646 707.978882,378.775024 
	C703.677490,352.849640 699.423157,326.916229 695.007141,301.010437 
	C694.738342,299.433960 693.274597,296.872375 692.242004,296.809174 
	C685.856323,296.418671 679.434753,296.612915 672.379456,296.612915 
	C673.667480,303.465973 674.786987,309.478424 675.928589,315.486725 
	C682.602417,350.611786 689.255371,385.740875 696.058960,420.840759 
	C696.317383,422.173889 698.005920,424.193939 699.102478,424.243408 
	C706.025452,424.555939 712.969482,424.401855 720.142151,424.401855 
	C722.342407,412.949371 724.439392,402.034180 726.750122,390.290955 
M1352.799194,588.339294 
	C1352.799194,584.416321 1352.799194,580.493347 1352.799194,576.036072 
	C1342.452759,576.036072 1332.886841,576.036072 1323.289429,576.036072 
	C1323.289429,563.068970 1323.289429,550.655090 1323.289429,537.678284 
	C1330.295044,537.678284 1337.037476,537.678284 1343.704346,537.678284 
	C1343.704346,531.563660 1343.704346,526.025024 1343.704346,520.081543 
	C1336.669434,520.081543 1330.071411,520.081543 1323.377197,520.081543 
	C1323.377197,507.780945 1323.377197,495.906036 1323.377197,483.503174 
	C1333.319092,483.503174 1342.894897,483.503174 1352.419434,483.503174 
	C1352.419434,477.390869 1352.419434,471.818909 1352.419434,466.254211 
	C1335.273071,466.254211 1318.507812,466.254211 1301.530029,466.254211 
	C1301.530029,508.884735 1301.530029,551.252136 1301.530029,593.806030 
	C1318.624268,593.806030 1335.388916,593.806030 1352.503174,593.806030 
	C1352.609497,592.182495 1352.704224,590.734985 1352.799194,588.339294 
M940.410706,170.480179 
	C940.410950,163.651932 940.653809,156.811920 940.323120,149.999741 
	C940.115234,145.717926 941.245789,144.093124 945.812561,144.307739 
	C953.761108,144.681244 961.739868,144.411636 969.793823,144.411636 
	C969.793823,138.323608 969.793823,132.762741 969.793823,127.179108 
	C952.716370,127.179108 935.988403,127.179108 919.303711,127.179108 
	C919.303711,169.831940 919.303711,212.162720 919.303711,254.532623 
	C936.343079,254.532623 952.936218,254.532623 969.748657,254.532623 
	C969.748657,248.592697 969.748657,242.915146 969.748657,236.714905 
	C959.806702,236.714905 950.249695,236.714905 940.426025,236.714905 
	C940.426025,224.706833 940.473267,213.225510 940.391296,201.745102 
	C940.371887,199.032288 941.645569,198.356491 944.061707,198.393066 
	C949.843872,198.480652 955.628357,198.421356 961.528564,198.421356 
	C961.528564,192.314102 961.528564,186.887222 961.528564,180.879257 
	C954.547058,180.879257 947.810791,180.879257 940.410645,180.879257 
	C940.410645,177.360229 940.410645,174.415512 940.410706,170.480179 
M1133.487793,296.597839 
	C1120.386841,296.597839 1107.286011,296.597839 1094.060425,296.597839 
	C1094.060425,339.514130 1094.060425,381.819489 1094.060425,424.011047 
	C1111.241821,424.011047 1127.957764,424.011047 1144.747559,424.011047 
	C1144.747559,418.195496 1144.747559,412.773315 1144.747559,406.689209 
	C1134.812500,406.689209 1125.108765,406.689209 1115.489990,406.689209 
	C1115.489990,393.451263 1115.489990,380.882660 1115.489990,367.828796 
	C1122.589600,367.828796 1129.347290,367.828796 1136.050049,367.828796 
	C1136.050049,361.916229 1136.050049,356.503662 1136.050049,350.477051 
	C1128.974487,350.477051 1122.231689,350.477051 1115.454346,350.477051 
	C1115.454346,338.116180 1115.454346,326.379120 1115.454346,314.156372 
	C1125.334839,314.156372 1134.910156,314.156372 1144.696045,314.156372 
	C1144.696045,308.109344 1144.696045,302.552887 1144.696045,296.597748 
	C1141.092285,296.597748 1137.788208,296.597748 1133.487793,296.597839 
M527.587280,560.499512 
	C527.587280,571.583313 527.587280,582.667175 527.587280,593.749512 
	C535.112915,593.749512 541.883728,593.749512 549.187500,593.749512 
	C549.187500,575.108032 549.187500,556.710754 549.187500,537.686646 
	C556.602234,537.686646 563.492493,537.686646 570.502197,537.686646 
	C570.502197,531.630676 570.502197,526.215881 570.502197,520.158569 
	C563.346191,520.158569 556.460632,520.158569 549.441895,520.158569 
	C549.441895,507.775299 549.441895,496.038666 549.441895,483.783020 
	C558.979065,483.783020 568.227478,483.783020 577.617676,483.783020 
	C577.617676,477.563690 577.617676,471.872559 577.617676,466.303650 
	C560.818604,466.303650 544.406189,466.303650 527.587402,466.303650 
	C527.587402,497.571960 527.587402,528.535706 527.587280,560.499512 
M784.795593,183.500107 
	C784.795593,170.579376 784.795593,157.658630 784.795593,144.301208 
	C791.020935,144.301208 796.459167,144.301208 802.070251,144.301208 
	C802.070251,138.298325 802.070251,132.751099 802.070251,127.251274 
	C783.003418,127.251274 764.287903,127.251274 745.499573,127.251274 
	C745.499573,133.062042 745.499573,138.471695 745.499573,144.438293 
	C751.361450,144.438293 756.943298,144.438293 763.173218,144.438293 
	C763.173218,181.505630 763.173218,218.017975 763.173218,254.356354 
	C770.736084,254.356354 777.627319,254.356354 784.795593,254.356354 
	C784.795593,230.778839 784.795593,207.639481 784.795593,183.500107 
M847.999390,331.501770 
	C847.999390,325.887177 847.999390,320.272552 847.999390,314.140350 
	C854.070435,314.140350 859.645874,314.140350 865.392578,314.140350 
	C865.392578,308.076782 865.392578,302.548706 865.392578,297.040833 
	C846.300171,297.040833 827.604553,297.040833 808.943726,297.040833 
	C808.943726,302.894775 808.943726,308.300293 808.943726,314.191772 
	C814.690613,314.191772 820.109436,314.191772 826.152771,314.191772 
	C826.152771,351.167358 826.152771,387.654572 826.152771,424.089905 
	C833.722900,424.089905 840.641846,424.089905 847.999390,424.089905 
	C847.999390,393.353577 847.999390,362.927277 847.999390,331.501770 
M1130.491333,465.999237 
	C1116.079102,465.999237 1101.666870,465.999237 1087.346680,465.999237 
	C1087.346680,472.267914 1087.346680,477.834198 1087.346680,483.924683 
	C1093.257324,483.924683 1098.834717,483.924683 1104.905273,483.924683 
	C1104.905273,520.823364 1104.905273,557.193604 1104.905273,593.663208 
	C1112.320190,593.663208 1119.213379,593.663208 1126.628906,593.663208 
	C1126.628906,556.942322 1126.628906,520.556213 1126.628906,483.582367 
	C1132.718140,483.582367 1138.287476,483.582367 1143.775269,483.582367 
	C1143.775269,477.414581 1143.775269,471.847687 1143.775269,465.999237 
	C1139.440063,465.999237 1135.463867,465.999237 1130.491333,465.999237 
M820.859863,553.499939 
	C820.859863,566.906982 820.859863,580.314087 820.859863,593.742920 
	C828.356873,593.742920 835.118896,593.742920 842.420715,593.742920 
	C842.420715,557.109192 842.420715,520.728027 842.420715,483.767090 
	C848.522705,483.767090 854.093018,483.767090 859.878418,483.767090 
	C859.878418,477.612854 859.878418,472.044617 859.878418,466.249939 
	C840.897400,466.249939 822.178284,466.249939 803.241699,466.249939 
	C803.241699,472.072968 803.241699,477.644714 803.241699,483.925110 
	C809.158630,483.925110 814.857239,483.925110 820.859863,483.925110 
	C820.859863,507.254974 820.859863,529.877441 820.859863,553.499939 
M1193.138062,390.500061 
	C1193.138062,365.222900 1193.138062,339.945709 1193.138062,314.174957 
	C1199.309692,314.174957 1204.898071,314.174957 1210.694824,314.174957 
	C1210.694824,308.114441 1210.694824,302.553711 1210.694824,296.986725 
	C1191.667725,296.986725 1172.947876,296.986725 1154.131470,296.986725 
	C1154.131470,302.797913 1154.131470,308.218109 1154.131470,314.209167 
	C1159.942261,314.209167 1165.505615,314.209167 1171.693848,314.209167 
	C1171.693848,351.168335 1171.693848,387.558533 1171.693848,424.126740 
	C1179.090210,424.126740 1185.837402,424.126740 1193.138062,424.126740 
	C1193.138062,413.073669 1193.138062,402.286865 1193.138062,390.500061 
M419.204376,389.499908 
	C419.204376,400.942810 419.204376,412.385712 419.204376,424.010986 
	C426.732208,424.010986 433.748413,424.010986 440.706848,424.010986 
	C440.706848,381.401886 440.706848,339.201202 440.706848,296.899780 
	C433.484772,296.899780 426.565063,296.899780 419.204407,296.899780 
	C419.204407,327.644043 419.204407,358.071960 419.204376,389.499908 
M441.005951,500.500000 
	C441.005951,489.083618 441.005951,477.667236 441.005951,466.336670 
	C433.405182,466.336670 426.503754,466.336670 419.585938,466.336670 
	C419.585938,509.035553 419.585938,551.390625 419.585938,593.675415 
	C426.885529,593.675415 433.798828,593.675415 441.005951,593.675415 
	C441.005951,562.730591 441.005951,532.115295 441.005951,500.500000 
M441.007111,180.500000 
	C441.007111,162.737625 441.007111,144.975250 441.007111,127.180565 
	C433.481934,127.180565 426.581116,127.180565 419.656555,127.180565 
	C419.656555,169.850632 419.656555,212.190140 419.656555,254.543121 
	C426.889954,254.543121 433.666595,254.543121 441.007111,254.543121 
	C441.007111,230.028931 441.007111,205.764465 441.007111,180.500000 
M906.404968,167.500244 
	C906.404968,154.080887 906.404968,140.661514 906.404968,127.149269 
	C898.907471,127.149269 892.166138,127.149269 885.419678,127.149269 
	C885.419678,169.798737 885.419678,212.157318 885.419678,254.360229 
	C892.571838,254.360229 899.297058,254.360229 906.404968,254.360229 
	C906.404968,225.456207 906.404968,196.978226 906.404968,167.500244 
M897.138184,328.500061 
	C897.138184,318.051270 897.138184,307.602478 897.138184,296.994751 
	C889.726990,296.994751 882.864319,296.994751 875.993530,296.994751 
	C875.993530,339.592224 875.993530,381.791656 875.993530,424.104980 
	C883.135437,424.104980 889.878662,424.104980 897.138184,424.104980 
	C897.138184,392.373840 897.138184,360.936951 897.138184,328.500061 
M981.920715,250.274582 
	C981.557617,254.976944 981.194458,259.679321 980.799622,264.792053 
	C984.591370,264.792053 987.572388,264.952881 990.519470,264.707306 
	C991.591370,264.617950 993.170105,263.791962 993.519836,262.907593 
	C997.222595,253.543686 1000.723816,244.100128 1004.426086,234.293030 
	C997.023743,234.293030 990.317261,234.293030 983.340332,234.293030 
	C982.871704,239.493454 982.427307,244.424408 981.920715,250.274582 
z"/>
<path fill="#FFFEFE" opacity="1.000000" stroke="none" 
	d="
M746.908936,698.909058 
	C752.563599,695.653137 757.916992,692.606140 763.213867,689.463989 
	C767.656982,686.828247 771.880371,686.968750 776.378845,689.572632 
	C826.657288,718.675781 876.954773,747.746399 927.322693,776.694275 
	C932.482422,779.659668 934.219421,783.660095 934.207764,789.387756 
	C934.095764,844.219055 934.179260,899.050842 934.054077,953.882141 
	C934.045776,957.510254 935.111450,959.445679 938.291016,961.271240 
	C985.494324,988.372986 1032.557373,1015.719421 1079.809937,1042.734497 
	C1086.132080,1046.349121 1088.542725,1050.793823 1088.517334,1057.971436 
	C1088.317017,1114.635498 1088.325806,1171.301025 1088.508667,1227.965210 
	C1088.531128,1234.926025 1086.228760,1239.327026 1080.068237,1242.851074 
	C1030.655518,1271.117065 981.350403,1299.572388 932.141602,1328.192139 
	C926.180115,1331.659302 921.328979,1331.485229 915.468445,1328.075317 
	C868.422424,1300.701782 821.227844,1273.583618 774.158203,1246.250366 
	C770.850891,1244.329834 768.520203,1244.361328 765.201477,1246.289062 
	C717.703369,1273.877808 670.092224,1301.272217 622.566101,1328.813110 
	C617.722351,1331.620117 613.363220,1331.701782 608.521851,1328.899414 
	C558.247681,1299.796997 507.939636,1270.753052 457.599152,1241.765503 
	C452.902405,1239.061035 450.927338,1235.389526 450.936676,1229.956421 
	C451.036346,1171.958496 451.046844,1113.960205 450.925232,1055.962280 
	C450.912872,1050.069702 453.249542,1046.427612 458.273010,1043.543213 
	C505.620117,1016.358032 552.854431,988.976196 600.232361,961.845093 
	C604.119080,959.619324 605.325867,957.221558 605.313232,952.859497 
	C605.156555,898.861755 605.319763,844.862793 605.081421,790.865601 
	C605.049500,783.630493 607.454041,779.251221 613.767029,775.643921 
	C658.135986,750.291077 702.331909,724.635498 746.908936,698.909058 
M568.117065,1127.403198 
	C536.181763,1108.971191 504.246460,1090.539307 471.745880,1071.781128 
	C471.591949,1073.602417 471.416077,1074.714233 471.415771,1075.826050 
	C471.402100,1124.637817 471.435425,1173.449829 471.328217,1222.261353 
	C471.321533,1225.295776 472.638733,1226.637085 474.990845,1227.990601 
	C516.955994,1252.140259 558.881531,1276.358521 600.825195,1300.545532 
	C602.036133,1301.243774 603.351746,1301.760376 604.922485,1302.505859 
	C605.058228,1301.021118 605.198486,1300.201538 605.198669,1299.381958 
	C605.210632,1250.403564 605.245178,1201.425049 605.078125,1152.447266 
	C605.071960,1150.627808 603.537781,1148.074341 601.956665,1147.118652 
	C590.995544,1140.493164 579.833252,1134.200684 568.117065,1127.403198 
M938.635620,1146.220093 
	C935.068726,1147.576660 934.019958,1149.997559 934.033264,1153.915649 
	C934.195496,1201.739990 934.136597,1249.565186 934.147766,1297.390137 
	C934.148132,1298.969604 934.283386,1300.549194 934.376831,1302.589966 
	C935.880005,1301.877808 936.931885,1301.466553 937.899292,1300.908813 
	C979.998108,1276.634277 1022.070801,1252.314331 1064.221924,1228.131226 
	C1067.114014,1226.472046 1067.937866,1224.614136 1067.931152,1221.418945 
	C1067.830200,1173.427612 1067.861206,1125.435913 1067.861328,1077.444336 
	C1067.861328,1075.838379 1067.861450,1074.232544 1067.861450,1071.652344 
	C1024.501099,1096.681885 981.897461,1121.274780 938.635620,1146.220093 
M1025.931030,1035.583008 
	C993.204651,1016.700012 960.455933,997.855347 927.791626,978.865479 
	C924.999451,977.242249 923.042175,977.073730 920.150146,978.758606 
	C889.948242,996.353699 859.640442,1013.766846 829.368469,1031.241821 
	C816.604553,1038.609985 803.856140,1046.005249 790.585754,1053.686279 
	C792.525574,1054.923340 793.863708,1055.850464 795.268555,1056.661865 
	C836.634705,1080.555786 878.029236,1104.400757 919.337158,1128.394897 
	C922.561157,1130.267700 924.855225,1130.539795 928.258972,1128.556763 
	C967.664978,1105.598267 1007.190063,1082.844116 1046.680786,1060.031128 
	C1050.093628,1058.059570 1053.487793,1056.055786 1057.417603,1053.759033 
	C1046.696533,1047.567993 1036.632568,1041.756348 1025.931030,1035.583008 
M757.340271,1072.850830 
	C717.200378,1096.022827 677.060486,1119.194702 636.081360,1142.851196 
	C677.468567,1166.746094 718.091614,1190.199829 759.602661,1214.166260 
	C759.602661,1211.431885 759.602600,1209.818115 759.602600,1208.204346 
	C759.602600,1196.712646 759.602600,1185.220947 759.602600,1173.729248 
	C759.602600,1141.585815 759.625488,1109.442261 759.534729,1077.299194 
	C759.530212,1075.701416 758.538879,1074.106567 757.340271,1072.850830 
M678.940613,989.523132 
	C705.521912,1004.858948 732.103210,1020.194702 759.290894,1035.880371 
	C759.290894,988.126282 759.290894,941.298218 759.290894,893.645203 
	C718.088501,917.438416 677.477234,940.890137 636.110046,964.778503 
	C650.727112,973.219177 664.518738,981.183228 678.940613,989.523132 
M869.188721,921.277588 
	C883.669373,929.635193 898.150024,937.992798 913.142700,946.645935 
	C913.142700,898.969727 913.142700,852.181580 913.142700,804.809509 
	C872.036682,828.548584 831.529968,851.941528 790.340210,875.728943 
	C816.998779,891.143616 842.766968,906.043396 869.188721,921.277588 
M780.000061,964.500000 
	C780.000061,988.029785 780.000061,1011.559509 780.000061,1035.943115 
	C821.490234,1011.990845 862.059998,988.569946 903.266235,964.781616 
	C861.894409,940.892639 821.243958,917.420227 780.000061,893.605164 
	C780.000061,917.547852 780.000061,940.523926 780.000061,964.500000 
M707.041138,851.469666 
	C680.176514,835.967957 653.311829,820.466309 626.239502,804.844849 
	C626.239502,852.350830 626.239502,899.139404 626.239502,946.664001 
	C667.421631,922.879089 707.943604,899.475525 749.053833,875.732117 
	C734.733826,867.467529 721.202026,859.657837 707.041138,851.469666 
M701.720215,1259.205811 
	C717.232056,1250.256592 732.743958,1241.307373 749.051453,1231.899170 
	C707.684753,1208.012451 667.156799,1184.609985 626.196045,1160.957520 
	C626.196045,1208.427979 626.196045,1255.208740 626.196045,1302.806641 
	C651.604675,1288.152588 676.355042,1273.878296 701.720215,1259.205811 
z"/>
<path fill="#FFFEFE" opacity="1.000000" stroke="none" 
	d="
M247.210571,348.996613 
	C247.210571,330.015045 247.210571,311.532623 247.210571,293.050171 
	C246.706757,292.646759 246.202942,292.243347 245.699127,291.839935 
	C245.608932,292.538147 245.727310,293.359497 245.398315,293.916748 
	C234.629272,312.157867 217.769943,317.589600 197.970932,315.470551 
	C172.025406,312.693665 156.536804,297.710907 151.214874,270.350433 
	C149.413300,261.088440 148.466949,251.532120 148.355988,242.095886 
	C148.122986,222.281738 148.012115,202.418472 149.145599,182.649582 
	C150.246307,163.451920 156.716217,146.131058 172.657990,133.787231 
	C182.827057,125.913246 194.651138,122.203224 207.263260,120.740181 
	C222.103973,119.018600 236.910538,118.986725 251.335052,123.379829 
	C277.915314,131.475067 291.214478,150.922699 295.845154,177.137726 
	C297.285187,185.290100 297.878967,193.688171 297.910187,201.977371 
	C298.095520,251.143143 298.219666,300.311737 297.823517,349.475006 
	C297.741180,359.694733 296.434265,370.167877 293.877655,380.055176 
	C286.082123,410.203400 264.352264,428.065002 233.280853,429.786530 
	C221.916290,430.416199 210.240906,429.825134 199.028183,427.911255 
	C174.117966,423.659393 158.964325,408.272369 153.098160,383.789948 
	C149.534653,368.917603 149.761963,353.771973 150.134171,338.311646 
	C165.577972,338.311646 180.825653,338.311646 196.998978,338.311646 
	C196.998978,346.399261 196.943756,354.499237 197.036072,362.597473 
	C197.060516,364.742035 197.392014,366.912262 197.833389,369.018127 
	C200.404816,381.286987 207.187698,386.962341 220.146255,387.800354 
	C232.083221,388.572357 241.741486,382.843567 244.709900,371.678955 
	C246.601135,364.565765 246.447388,356.908844 247.210571,348.996613 
M199.487228,252.779800 
	C200.916534,262.761017 204.453491,271.202789 215.395813,274.014862 
	C232.631866,278.444366 246.111679,268.910461 246.749802,250.494980 
	C247.504974,228.702454 247.264374,206.853897 246.738129,185.046951 
	C246.445389,172.916275 240.333435,164.751328 231.125443,162.478287 
	C217.920547,159.218552 201.468491,162.799271 200.190674,182.017914 
	C198.647568,205.226227 199.525864,228.595535 199.487228,252.779800 
z"/>
<path fill="#FFFEFD" opacity="1.000000" stroke="none" 
	d="
M515.412659,380.000458 
	C515.412598,394.950867 515.412598,409.401245 515.412598,424.391113 
	C509.441620,424.391113 503.970520,424.639740 498.554535,424.203857 
	C497.311035,424.103760 495.703003,421.828125 495.199127,420.253937 
	C488.305786,398.717682 481.581238,377.127441 474.800720,355.554993 
	C474.164612,353.531250 473.430969,351.538177 471.767090,349.586670 
	C471.767090,374.297668 471.767090,399.008636 471.767090,424.062164 
	C465.124512,424.062164 459.231323,424.062164 453.230560,424.062164 
	C453.230560,381.597687 453.230560,339.335022 453.230560,296.610321 
	C459.760468,296.610321 466.078888,296.395081 472.357971,296.796143 
	C473.579437,296.874146 475.195496,299.173706 475.703674,300.747498 
	C482.244263,321.003204 488.615326,341.313629 495.035645,361.608185 
	C495.381165,362.700439 495.782349,363.775024 496.979889,364.837128 
	C496.979889,342.288330 496.979889,319.739502 496.979889,296.893921 
	C503.294281,296.893921 508.907593,296.893921 515.412720,296.893921 
	C515.412720,324.374603 515.412720,351.937531 515.412659,380.000458 
z"/>
<path fill="#FFFEFD" opacity="1.000000" stroke="none" 
	d="
M471.412598,586.832397 
	C471.412567,589.435364 471.412567,591.560730 471.412567,593.781250 
	C465.058411,593.781250 459.286560,593.781250 453.257263,593.781250 
	C453.257263,551.194641 453.257263,508.829407 453.257263,466.010712 
	C459.769226,466.010712 466.068665,465.794922 472.328308,466.197693 
	C473.540710,466.275726 475.135559,468.595490 475.644897,470.174408 
	C482.175842,490.420776 488.540161,510.720825 494.951721,531.005737 
	C495.345276,532.250854 495.780640,533.482727 497.034485,534.690247 
	C497.034485,511.970459 497.034485,489.250702 497.034485,466.269104 
	C503.464569,466.269104 509.196747,466.269104 515.129395,466.269104 
	C515.129395,508.872742 515.129395,551.275452 515.129395,593.840210 
	C508.875397,593.840210 502.903076,593.840210 496.416321,593.840210 
	C488.593842,569.049500 480.739227,544.156982 472.884613,519.264404 
	C472.393982,519.320251 471.903320,519.376038 471.412659,519.431824 
	C471.412659,541.739441 471.412659,564.047119 471.412598,586.832397 
z"/>
<path fill="#FFFEFD" opacity="1.000000" stroke="none" 
	d="
M515.414429,208.000427 
	C515.414368,223.781296 515.414368,239.062149 515.414368,254.783142 
	C509.496796,254.783142 504.173889,255.073441 498.922516,254.588867 
	C497.525299,254.459915 495.698730,252.163101 495.166656,250.508682 
	C487.990662,228.195236 481.011078,205.818619 473.972260,183.460983 
	C473.632416,182.381592 473.194733,181.333023 471.717682,180.302139 
	C471.717682,204.978897 471.717682,229.655670 471.717682,254.537643 
	C465.051025,254.537643 459.304474,254.537643 453.277588,254.537643 
	C453.277588,212.051407 453.277588,169.818756 453.277588,126.882515 
	C459.691650,126.882515 466.124847,126.666603 472.517975,127.075958 
	C473.708282,127.152176 475.243439,129.578217 475.764496,131.195282 
	C482.188812,151.132050 488.453186,171.120346 494.762695,191.094162 
	C495.248749,192.632782 495.763947,194.162216 497.066711,195.591919 
	C497.066711,172.941422 497.066711,150.290924 497.066711,127.251068 
	C503.297821,127.251068 509.023163,127.251068 515.414490,127.251068 
	C515.414490,153.980438 515.414490,180.740433 515.414429,208.000427 
z"/>
<path fill="#FFFEFD" opacity="1.000000" stroke="none" 
	d="
M571.857361,313.002777 
	C571.857361,307.368103 571.857361,302.232819 571.857361,296.849548 
	C578.080688,296.849548 583.846375,296.849548 589.807312,296.849548 
	C589.807312,339.368073 589.807312,381.624268 589.807312,424.402100 
	C584.169800,424.402100 578.677490,424.688934 573.254883,424.201172 
	C571.893677,424.078705 570.150635,421.665039 569.607178,419.975037 
	C562.329163,397.344086 555.236023,374.653778 548.084656,351.982025 
	C547.660889,350.638458 547.132385,349.327881 545.757874,348.195312 
	C545.757874,373.406372 545.757874,398.617401 545.757874,424.117493 
	C539.672913,424.117493 534.058899,424.117493 528.014160,424.117493 
	C528.014160,381.832794 528.014160,339.496521 528.014160,296.873047 
	C534.881653,296.873047 541.652466,296.873047 548.958496,296.873047 
	C556.194092,319.679321 563.500977,342.710175 570.807861,365.740997 
	C571.157715,365.687439 571.507507,365.633881 571.857361,365.580322 
	C571.857361,348.220917 571.857361,330.861542 571.857361,313.002777 
z"/>
<path fill="#FFFFFE" opacity="1.000000" stroke="none" 
	d="
M1049.000610,401.000000 
	C1049.000610,408.955963 1049.000610,416.411957 1049.000610,424.381561 
	C1043.059326,424.381561 1037.591919,424.631195 1032.180420,424.192352 
	C1030.947266,424.092346 1029.368286,421.785187 1028.859375,420.201263 
	C1021.537476,397.412384 1014.372498,374.573151 1007.166199,351.747162 
	C1006.726257,350.353760 1006.255920,348.969971 1005.149414,347.654510 
	C1005.149414,372.960968 1005.149414,398.267395 1005.149414,423.987671 
	C999.008484,423.987671 993.296143,423.987671 987.218140,423.987671 
	C987.218140,381.840942 987.218140,339.626709 987.218140,296.656616 
	C993.588257,296.656616 1000.008484,296.472412 1006.396973,296.840424 
	C1007.445129,296.900818 1008.771790,299.255676 1009.263062,300.778107 
	C1015.898254,321.342407 1022.406738,341.947601 1028.953125,362.540619 
	C1029.331787,363.731750 1029.765015,364.905518 1031.023682,365.878082 
	C1031.023682,342.998962 1031.023682,320.119843 1031.023682,296.920410 
	C1037.005737,296.920410 1042.591919,296.920410 1049.000610,296.920410 
	C1049.000610,331.403381 1049.000610,365.951691 1049.000610,401.000000 
z"/>
<path fill="#FFFEFD" opacity="1.000000" stroke="none" 
	d="
M527.586609,236.996429 
	C527.586670,200.195297 527.586670,163.893539 527.586670,126.856705 
	C531.356384,126.856705 534.777466,126.856697 538.198547,126.856705 
	C545.362976,126.856728 552.527466,126.848915 559.691895,126.858231 
	C580.805481,126.885696 591.718201,137.541702 591.958618,158.816681 
	C592.165710,177.142014 592.051941,195.471725 591.971436,213.799042 
	C591.948792,218.947678 591.976501,224.158249 591.232178,229.230530 
	C588.905151,245.088379 580.965881,253.201950 565.081360,254.382782 
	C552.857361,255.291458 540.511780,254.563858 527.586548,254.563858 
	C527.586548,248.741638 527.586548,243.118729 527.586609,236.996429 
M552.703125,237.000549 
	C553.868652,237.000885 555.034241,237.003922 556.199768,237.001099 
	C566.694031,236.975662 570.182922,233.458740 570.212463,222.851685 
	C570.226868,217.689926 570.215515,212.528122 570.215210,207.366333 
	C570.214355,190.548904 570.259338,173.731293 570.188965,156.914154 
	C570.161804,150.420303 567.778503,146.295761 562.835144,145.288162 
	C558.545471,144.413818 554.051208,144.542786 550.108276,144.261230 
	C549.518555,145.227188 549.364746,145.361588 549.364380,145.496429 
	C549.285339,175.127502 549.194641,204.758667 549.258667,234.389481 
	C549.260559,235.259872 550.896729,236.126724 552.703125,237.000549 
z"/>
<path fill="#FFFDFC" opacity="1.000000" stroke="none" 
	d="
M587.205566,588.795227 
	C587.205444,547.732422 587.205444,507.149109 587.205444,465.470520 
	C601.626709,466.040771 615.606689,465.820038 629.384644,467.381775 
	C640.523499,468.644348 647.321472,477.327667 647.934570,488.950592 
	C648.415833,498.074280 648.407837,507.258820 647.978210,516.386230 
	C647.494812,526.654724 641.897644,533.349976 631.354675,536.057922 
	C638.167480,555.395142 644.819275,574.275574 651.765869,593.992615 
	C644.313904,593.992615 637.579712,594.162292 630.870972,593.825500 
	C629.752991,593.769470 628.268250,591.678040 627.760742,590.241760 
	C622.391113,575.042786 617.189819,559.784424 611.927734,544.547363 
	C611.292114,542.706970 610.571106,540.896057 609.098022,539.157654 
	C609.098022,557.269592 609.098022,575.381531 609.098022,593.744995 
	C601.656189,593.744995 594.749756,593.744995 587.496887,593.744995 
	C587.394287,592.169922 587.299988,590.722351 587.205566,588.795227 
M608.996216,495.517578 
	C608.996216,504.608826 608.996216,513.700073 608.996216,523.125977 
	C612.500671,523.125977 615.469788,523.322388 618.402527,523.079468 
	C622.714844,522.722290 625.852600,520.323547 626.040588,515.948792 
	C626.395752,507.680756 626.575317,499.351166 625.887329,491.125854 
	C625.686890,488.729858 622.701355,485.535309 620.268494,484.609558 
	C616.968567,483.353821 612.971741,483.929352 608.996216,483.703613 
	C608.996216,487.906403 608.996216,491.215057 608.996216,495.517578 
z"/>
<path fill="#FFFDFC" opacity="1.000000" stroke="none" 
	d="
M812.204407,233.999634 
	C812.204407,198.218460 812.204407,162.937241 812.204407,127.916046 
	C812.818848,127.454781 813.075745,127.093575 813.326660,127.097664 
	C826.779663,127.316803 840.324097,126.684593 853.657349,128.074890 
	C865.697510,129.330353 872.285217,137.702118 873.025696,149.907639 
	C873.489014,157.542435 873.541626,165.222717 873.352478,172.872055 
	C873.011353,186.666122 869.684753,191.384552 856.545959,197.117203 
	C863.210205,216.061188 869.896179,235.066742 876.833130,254.785767 
	C869.405640,254.785767 862.784668,254.956833 856.188843,254.625885 
	C855.021118,254.567307 853.425232,252.605591 852.928406,251.203354 
	C847.155945,234.910522 841.558105,218.555832 835.907898,202.219620 
	C835.586060,201.289001 835.212158,200.376343 834.171265,199.471634 
	C834.171265,217.711182 834.171265,235.950714 834.171265,254.488190 
	C826.672485,254.488190 819.775757,254.488190 812.204407,254.488190 
	C812.204407,247.705566 812.204407,241.102570 812.204407,233.999634 
M851.177002,151.614792 
	C848.940735,144.984299 844.211182,143.113525 834.260864,145.031845 
	C834.260864,157.857010 834.260864,170.716751 834.260864,184.001236 
	C836.803528,184.001236 839.089355,184.046188 841.372986,183.992706 
	C847.988281,183.837784 851.325989,180.903107 851.516174,174.331238 
	C851.727295,167.039474 851.425232,159.732834 851.177002,151.614792 
z"/>
<path fill="#FFFDFC" opacity="1.000000" stroke="none" 
	d="
M869.995300,471.142181 
	C870.083801,469.215637 870.172241,467.773926 870.237122,466.717712 
	C883.540894,466.717712 896.548767,465.881592 909.399353,466.945160 
	C923.159790,468.084015 930.563965,477.210388 930.957947,491.171356 
	C931.178650,498.991272 931.202209,506.829193 930.948303,514.647095 
	C930.590515,525.664551 925.402283,533.261719 914.071289,536.073792 
	C920.890381,555.391113 927.561401,574.288818 934.512512,593.980042 
	C926.983215,593.980042 920.083679,594.121765 913.203613,593.819763 
	C912.226868,593.776855 910.956055,591.714172 910.478577,590.355347 
	C905.244141,575.460083 900.144775,560.517395 894.995239,545.592224 
	C894.312439,543.613159 893.554810,541.659973 891.940186,539.840088 
	C891.940186,557.656433 891.940186,575.472839 891.940186,593.643555 
	C884.529358,593.643555 877.628845,593.643555 869.995300,593.643555 
	C869.995300,553.057007 869.995300,512.342041 869.995300,471.142181 
M909.208618,497.602264 
	C909.155884,485.218994 905.231628,482.140717 892.188660,484.371735 
	C892.188660,497.215424 892.188660,510.077057 892.188660,523.207275 
	C894.570251,523.207275 896.556030,523.231873 898.541016,523.202942 
	C906.084778,523.092896 909.000183,520.230347 909.180969,512.564941 
	C909.290955,507.903717 909.205994,503.237854 909.208618,497.602264 
z"/>
<path fill="#FFFEFD" opacity="1.000000" stroke="none" 
	d="
M1250.412598,563.000488 
	C1250.412598,573.472107 1250.412598,583.443665 1250.412598,593.706177 
	C1243.114990,593.706177 1236.235840,593.706177 1229.106201,593.706177 
	C1229.106201,551.250488 1229.106201,508.999298 1229.106201,466.353149 
	C1230.303467,466.239014 1231.569336,466.010132 1232.834351,466.014740 
	C1243.325073,466.052948 1253.845825,465.656250 1264.299438,466.313293 
	C1280.483521,467.330566 1288.143555,474.641693 1289.507935,490.347748 
	C1290.225586,498.610687 1290.006348,507.001526 1289.595703,515.304199 
	C1289.075684,525.820374 1284.036865,533.269104 1272.759033,536.025574 
	C1279.582275,555.375854 1286.291626,574.402893 1293.123413,593.777222 
	C1285.381104,593.777222 1278.117798,593.777222 1270.330200,593.777222 
	C1264.202393,576.054077 1258.010010,558.144104 1251.817505,540.234070 
	C1251.349243,540.294495 1250.880981,540.354919 1250.412720,540.415344 
	C1250.412720,547.777100 1250.412720,555.138794 1250.412598,563.000488 
M1250.381714,503.499847 
	C1250.381714,509.943146 1250.381714,516.386475 1250.381714,523.228088 
	C1253.229858,523.228088 1255.376831,523.262817 1257.522583,523.221741 
	C1264.447266,523.089111 1267.742676,520.086365 1267.934448,513.268494 
	C1268.121582,506.608704 1268.036865,499.937714 1267.921509,493.274200 
	C1267.845581,488.879700 1266.037354,485.203125 1261.468262,484.360565 
	C1258.017334,483.724243 1254.354980,484.234589 1250.381714,484.234589 
	C1250.381714,490.549133 1250.381714,496.524872 1250.381714,503.499847 
z"/>
<path fill="#FFFEFD" opacity="1.000000" stroke="none" 
	d="
M910.744141,317.885773 
	C915.472717,301.017670 927.584290,293.396667 946.465698,295.068787 
	C962.364868,296.476807 973.411194,306.580322 973.943542,322.802673 
	C974.762207,347.751617 974.857910,372.772858 973.933411,397.714233 
	C973.263245,415.792908 960.387085,426.151123 941.741821,426.000275 
	C923.096191,425.849426 910.604248,415.332520 910.008423,397.177124 
	C909.205505,372.710114 909.783325,348.197235 909.833313,323.704132 
	C909.836975,321.898071 910.362793,320.093079 910.744141,317.885773 
M931.137817,369.499939 
	C931.138428,378.146790 931.050903,386.794830 931.165833,395.440186 
	C931.268860,403.193939 935.351807,407.806030 941.860046,407.852478 
	C948.425049,407.899292 952.489075,403.463470 952.959534,395.732208 
	C952.989746,395.234711 952.997864,394.735168 952.997864,394.236572 
	C952.998657,371.621735 953.037292,349.006714 952.938904,326.392303 
	C952.928284,323.952606 952.521912,321.352966 951.607300,319.109558 
	C948.990662,312.691010 939.522583,310.536530 934.997070,315.747070 
	C932.736023,318.350433 931.408386,322.567322 931.306396,326.101959 
	C930.898865,340.224487 931.138000,354.365662 931.137817,369.499939 
z"/>
<path fill="#FFFEFD" opacity="1.000000" stroke="none" 
	d="
M606.140137,410.734497 
	C604.654480,404.275177 602.317810,398.178406 602.179321,392.032104 
	C601.703369,370.901978 601.923279,349.754211 602.014954,328.613770 
	C602.130676,301.946930 624.614075,287.217590 649.352112,297.557343 
	C661.225525,302.520081 666.537781,312.403229 666.830139,324.396057 
	C667.414124,348.349670 667.381042,372.335846 666.860596,396.292480 
	C666.537720,411.156891 657.647705,421.744385 644.725037,424.821320 
	C628.254517,428.743011 614.143555,423.695099 606.140137,410.734497 
M623.796448,324.826782 
	C623.790833,347.778717 623.756287,370.730713 623.821777,393.682434 
	C623.828735,396.136536 624.094666,398.688019 624.806824,401.021454 
	C626.256409,405.770538 629.940369,407.787903 634.708435,407.832458 
	C639.535461,407.877594 643.529541,404.987854 644.707458,400.362000 
	C645.354614,397.820404 645.555908,395.108582 645.568909,392.471588 
	C645.645142,377.004333 645.615295,361.536530 645.602661,346.068909 
	C645.596802,338.918274 645.832214,331.752258 645.442444,324.621399 
	C645.035461,317.174896 641.131592,313.208527 634.936035,313.017578 
	C628.620178,312.822937 625.024658,316.362885 623.796448,324.826782 
z"/>
<path fill="#FFFDFC" opacity="1.000000" stroke="none" 
	d="
M1188.552490,577.151367 
	C1193.259277,576.147156 1195.499634,573.261780 1196.169312,569.135254 
	C1196.593628,566.520081 1196.821167,563.843445 1196.825195,561.193970 
	C1196.869507,531.528503 1196.853271,501.862976 1196.853271,472.197449 
	C1196.853271,470.373810 1196.853271,468.550171 1196.853271,466.361511 
	C1203.461792,466.361511 1209.840454,466.361511 1216.795654,466.361511 
	C1216.795654,468.261658 1216.795776,470.045502 1216.795776,471.829346 
	C1216.795776,501.494843 1216.825317,531.160400 1216.759033,560.825806 
	C1216.750488,564.644348 1216.485229,568.497864 1215.923828,572.273438 
	C1213.919189,585.758850 1205.109009,593.943726 1191.530762,595.180786 
	C1190.535767,595.271484 1189.539429,595.372437 1188.541748,595.404541 
	C1165.444824,596.148865 1154.083130,585.323608 1154.017334,562.224304 
	C1153.926514,530.402161 1153.994507,498.579620 1153.994507,466.375854 
	C1161.215210,466.375854 1168.241577,466.375854 1175.795654,466.375854 
	C1175.795654,468.325043 1175.795654,470.114685 1175.795654,471.904327 
	C1175.795776,501.736511 1175.794434,531.568665 1175.799316,561.400879 
	C1175.799561,563.066650 1175.779419,564.737183 1175.890259,566.397400 
	C1176.424683,574.404297 1180.005249,577.551331 1188.552490,577.151367 
z"/>
<path fill="#FFFEFD" opacity="1.000000" stroke="none" 
	d="
M1005.143188,531.000122 
	C1005.143127,541.825195 1005.257385,552.152100 1005.086914,562.474365 
	C1005.018616,566.610718 1004.713989,570.821350 1003.840759,574.851624 
	C1001.277527,586.681458 992.950562,593.864136 980.902649,595.103882 
	C979.578796,595.240051 978.249634,595.359741 976.920227,595.400024 
	C954.288330,596.086365 943.069519,586.162659 942.726990,563.614685 
	C942.246399,531.980774 942.600037,500.334167 942.618225,468.692993 
	C942.618713,467.892303 942.868652,467.091766 943.019592,466.187408 
	C949.948120,466.187408 956.728882,466.187408 964.143188,466.187408 
	C964.143188,468.132935 964.143188,469.898499 964.143188,471.664093 
	C964.143250,501.640015 964.125671,531.615906 964.173523,561.591797 
	C964.177734,564.235718 964.343811,566.935913 964.896973,569.510681 
	C966.077271,575.005005 969.838745,577.726501 975.320007,577.439941 
	C980.403870,577.174194 984.019104,574.042419 984.823975,568.866760 
	C985.205200,566.415344 985.191833,563.887573 985.193726,561.394348 
	C985.216431,531.584961 985.208374,501.775543 985.208435,471.966156 
	C985.208435,470.173004 985.208435,468.379852 985.208435,466.294922 
	C991.928955,466.294922 998.173279,466.294922 1005.143188,466.294922 
	C1005.143188,487.695099 1005.143188,509.097595 1005.143188,531.000122 
z"/>
<path fill="#FFFDFC" opacity="1.000000" stroke="none" 
	d="
M666.795593,168.000122 
	C666.702576,187.979218 667.042053,207.472366 666.408997,226.933899 
	C665.585388,252.253906 648.849182,258.529144 628.203308,255.591583 
	C612.492737,253.356232 604.522217,242.904938 604.049072,225.109390 
	C603.792419,215.456848 603.995117,205.792038 603.994507,196.132751 
	C603.993103,174.649139 603.990234,153.165543 604.002686,131.681931 
	C604.003479,130.227066 604.127014,128.772263 604.202454,127.120438 
	C611.414185,127.120438 618.315918,127.120438 625.795593,127.120438 
	C625.795593,129.331177 625.795593,131.281433 625.795593,133.231705 
	C625.795654,163.042297 625.788696,192.852890 625.808960,222.663467 
	C625.810547,224.990463 625.779968,227.353333 626.149963,229.637024 
	C627.013916,234.969452 630.461487,237.893570 635.680054,238.039810 
	C641.462158,238.201813 644.882874,235.731323 646.041565,230.130676 
	C646.609131,227.387451 646.815063,224.525436 646.820129,221.716522 
	C646.873474,192.072571 646.853149,162.428482 646.853210,132.784439 
	C646.853210,130.994873 646.853210,129.205322 646.853210,127.137566 
	C653.582092,127.137566 659.834351,127.137566 666.795593,127.137566 
	C666.795593,140.642395 666.795593,154.071243 666.795593,168.000122 
z"/>
<path fill="#FFFDFC" opacity="1.000000" stroke="none" 
	d="
M663.892151,554.773438 
	C669.234680,526.422119 674.630188,498.515076 679.682495,470.546082 
	C680.396729,466.592102 681.953674,465.794891 685.502625,465.927063 
	C691.956055,466.167450 698.424805,465.995270 705.272095,465.995270 
	C713.390564,508.680847 721.449097,551.050964 729.572754,593.763672 
	C721.814331,593.763672 714.724365,593.763672 707.357849,593.763672 
	C706.201599,587.059875 705.189148,580.517395 703.853027,574.041687 
	C703.602539,572.827454 702.095093,570.994141 701.104919,570.952881 
	C694.483276,570.677185 687.844666,570.809692 680.876282,570.809692 
	C679.541443,578.678528 678.268860,586.180542 676.972656,593.821655 
	C670.301392,593.821655 663.846008,593.821655 656.527039,593.821655 
	C658.996582,580.771057 661.416138,567.984497 663.892151,554.773438 
M700.039368,552.518738 
	C697.623596,536.810486 695.207764,521.102234 692.791992,505.393982 
	C692.379944,505.417175 691.967834,505.440399 691.555786,505.463593 
	C688.966736,521.198059 686.377686,536.932556 683.722839,553.067261 
	C689.368042,553.067261 694.314514,553.067261 700.039368,552.518738 
z"/>
<path fill="#FFFEFD" opacity="1.000000" stroke="none" 
	d="
M759.481262,421.382324 
	C758.622253,422.654053 757.889099,424.236786 757.101074,424.264618 
	C751.153076,424.474731 745.194336,424.379364 738.543945,424.379364 
	C740.137390,415.662903 741.579590,407.531799 743.114807,399.418243 
	C749.328857,366.577881 755.630310,333.753815 761.712769,300.889191 
	C762.322144,297.596802 763.377441,296.363220 766.767517,296.517456 
	C772.418335,296.774567 778.100769,296.392761 783.743835,296.724213 
	C785.182617,296.808746 787.528137,298.367432 787.763733,299.578247 
	C795.640747,340.067169 803.313965,380.595703 811.001526,421.121399 
	C811.151917,421.914185 811.117981,422.741913 811.197937,423.988220 
	C803.932129,423.988220 796.896179,423.988220 789.369873,423.988220 
	C788.080750,416.642273 786.770142,409.174133 785.400330,401.368347 
	C777.936890,401.368347 770.543091,401.368347 762.777222,401.368347 
	C761.716431,407.876617 760.649048,414.424927 759.481262,421.382324 
M770.703125,383.875305 
	C774.447571,383.875305 778.192017,383.875305 782.544983,383.875305 
	C779.819580,367.286011 777.227722,351.509460 774.474426,334.750519 
	C773.765259,336.214996 773.352478,336.738281 773.256226,337.314453 
	C770.876831,351.552734 768.598694,365.808380 766.128601,380.030701 
	C765.552307,383.349060 766.787842,384.269196 770.703125,383.875305 
z"/>
<path fill="#FFFDFC" opacity="1.000000" stroke="none" 
	d="
M738.004639,152.177994 
	C738.005066,156.609833 738.005066,160.567032 738.005066,164.757339 
	C731.295044,164.757339 725.052307,164.757339 718.188843,164.757339 
	C718.188843,160.624252 718.311218,156.669281 718.161438,152.724640 
	C717.908875,146.074295 714.555664,142.872009 708.153198,142.919128 
	C701.953979,142.964767 698.559875,146.455612 698.120789,152.899338 
	C697.711243,158.908951 699.419922,164.059799 703.665833,168.351730 
	C711.746033,176.519501 719.778198,184.735443 727.913391,192.847977 
	C740.415222,205.314850 741.310242,220.542160 738.002991,236.520309 
	C736.141235,245.514954 730.225708,251.426849 721.430847,254.234314 
	C712.785034,256.994232 704.020020,257.015076 695.358093,254.501465 
	C685.134033,251.534515 679.350952,244.219238 678.236572,233.951660 
	C677.399658,226.240555 678.071167,218.365707 678.071167,210.208344 
	C684.358215,210.208344 690.744995,210.208344 697.858521,210.208344 
	C697.858521,216.382141 697.742188,222.495270 697.896179,228.601593 
	C698.014526,233.296600 699.773071,236.969635 704.850403,238.302246 
	C711.443420,240.032669 716.710022,236.934433 717.690125,230.240967 
	C719.011536,221.216949 717.280212,213.194717 710.286499,206.518738 
	C702.340210,198.933441 694.674194,191.031418 687.220764,182.958328 
	C676.517212,171.364868 675.919556,157.383957 679.401672,143.081955 
	C681.425842,134.768372 687.549561,129.519226 695.778564,127.012207 
	C703.446838,124.676048 711.261780,124.631111 718.985229,126.442650 
	C731.332336,129.338684 737.164124,137.283768 738.004639,152.177994 
z"/>
<path fill="#FFFDFC" opacity="1.000000" stroke="none" 
	d="
M746.177490,523.815552 
	C735.068787,512.590698 733.998779,499.014343 736.375854,484.942322 
	C738.241028,473.901001 746.880371,466.505249 758.590332,465.153259 
	C763.505371,464.585846 768.598511,464.584991 773.511536,465.165375 
	C786.244568,466.669556 793.689697,474.070862 795.128113,486.793396 
	C795.753296,492.323090 795.233093,497.982269 795.233093,503.864044 
	C789.005432,503.864044 782.771057,503.864044 775.980225,503.864044 
	C775.980225,499.925293 776.094727,496.138031 775.955078,492.360199 
	C775.705811,485.615723 772.412598,482.230194 766.248962,482.149292 
	C759.778748,482.064392 756.408997,485.459137 755.834839,492.265839 
	C755.273071,498.926086 757.761841,504.242828 762.382629,508.821503 
	C769.595520,515.968628 776.564758,523.372437 783.971863,530.310242 
	C797.591553,543.067078 799.086243,558.864746 795.744507,575.840942 
	C795.125000,578.987793 793.514648,582.252808 791.488220,584.756287 
	C781.733643,596.807190 768.460876,596.883667 754.983948,594.158691 
	C743.104553,591.756653 736.994202,584.308289 735.711670,571.240417 
	C735.020020,564.193420 735.588501,557.022766 735.588501,549.557983 
	C742.053162,549.557983 748.434265,549.557983 755.425964,549.557983 
	C755.425964,555.485596 755.285217,561.279602 755.461792,567.063904 
	C755.679077,574.179810 758.967407,577.744812 765.139709,577.986267 
	C770.828003,578.208801 774.357483,575.494019 775.237183,569.858643 
	C776.672852,560.661926 775.075317,552.432129 767.931641,545.651550 
	C760.567627,538.661926 753.566345,531.290100 746.177490,523.815552 
z"/>
<path fill="#FFFDFC" opacity="1.000000" stroke="none" 
	d="
M1057.880005,486.236328 
	C1054.084961,482.050232 1049.623413,482.035919 1045.223999,483.642944 
	C1040.767700,485.270721 1039.119995,489.343964 1039.097290,493.689026 
	C1038.970459,518.017151 1038.922241,542.347290 1039.121948,566.674500 
	C1039.177368,573.417725 1043.671753,577.495605 1049.793457,577.468445 
	C1056.151489,577.440247 1059.779297,573.671265 1059.936768,566.415100 
	C1060.113037,558.297546 1059.977173,550.173279 1059.977173,541.871399 
	C1066.743530,541.871399 1073.004395,541.871399 1078.802368,541.871399 
	C1078.802368,552.921936 1079.809326,563.796387 1078.537842,574.397461 
	C1077.072388,586.616272 1068.012695,594.032104 1055.645386,595.024963 
	C1050.546875,595.434265 1045.232056,595.513367 1040.249756,594.541687 
	C1027.520142,592.059143 1018.552795,582.721741 1018.125000,569.053772 
	C1017.313110,543.113159 1017.172852,517.103394 1018.132202,491.173340 
	C1018.720459,475.274902 1029.617554,465.963287 1045.538208,464.871582 
	C1049.338135,464.611023 1053.218018,464.661041 1056.996826,465.110046 
	C1068.581421,466.486572 1076.388428,472.911255 1078.366333,484.291046 
	C1079.911499,493.180847 1079.713623,502.373596 1080.310791,511.752319 
	C1072.997559,511.752319 1066.755859,511.752319 1060.947510,511.752319 
	C1059.977417,503.199432 1059.034668,494.887115 1057.880005,486.236328 
z"/>
<path fill="#FFFDFC" opacity="1.000000" stroke="none" 
	d="
M726.643250,390.704956 
	C724.439392,402.034180 722.342407,412.949371 720.142151,424.401855 
	C712.969482,424.401855 706.025452,424.555939 699.102478,424.243408 
	C698.005920,424.193939 696.317383,422.173889 696.058960,420.840759 
	C689.255371,385.740875 682.602417,350.611786 675.928589,315.486725 
	C674.786987,309.478424 673.667480,303.465973 672.379456,296.612915 
	C679.434753,296.612915 685.856323,296.418671 692.242004,296.809174 
	C693.274597,296.872375 694.738342,299.433960 695.007141,301.010437 
	C699.423157,326.916229 703.677490,352.849640 707.978882,378.775024 
	C708.134521,379.712646 708.400818,380.631836 709.678955,381.653015 
	C714.489075,353.373047 719.299194,325.093109 724.097778,296.881226 
	C730.917725,296.881226 737.342529,296.881226 744.391174,296.881226 
	C738.460571,328.284088 732.605347,359.287537 726.643250,390.704956 
z"/>
<path fill="#FFFCFB" opacity="1.000000" stroke="none" 
	d="
M1352.799072,588.813354 
	C1352.704224,590.734985 1352.609497,592.182495 1352.503174,593.806030 
	C1335.388916,593.806030 1318.624268,593.806030 1301.530029,593.806030 
	C1301.530029,551.252136 1301.530029,508.884735 1301.530029,466.254211 
	C1318.507812,466.254211 1335.273071,466.254211 1352.419434,466.254211 
	C1352.419434,471.818909 1352.419434,477.390869 1352.419434,483.503174 
	C1342.894897,483.503174 1333.319092,483.503174 1323.377197,483.503174 
	C1323.377197,495.906036 1323.377197,507.780945 1323.377197,520.081543 
	C1330.071411,520.081543 1336.669434,520.081543 1343.704346,520.081543 
	C1343.704346,526.025024 1343.704346,531.563660 1343.704346,537.678284 
	C1337.037476,537.678284 1330.295044,537.678284 1323.289429,537.678284 
	C1323.289429,550.655090 1323.289429,563.068970 1323.289429,576.036072 
	C1332.886841,576.036072 1342.452759,576.036072 1352.799194,576.036072 
	C1352.799194,580.493347 1352.799194,584.416321 1352.799072,588.813354 
z"/>
<path fill="#FFFEFE" opacity="1.000000" stroke="none" 
	d="
M940.410645,170.975494 
	C940.410645,174.415512 940.410645,177.360229 940.410645,180.879257 
	C947.810791,180.879257 954.547058,180.879257 961.528564,180.879257 
	C961.528564,186.887222 961.528564,192.314102 961.528564,198.421356 
	C955.628357,198.421356 949.843872,198.480652 944.061707,198.393066 
	C941.645569,198.356491 940.371887,199.032288 940.391296,201.745102 
	C940.473267,213.225510 940.426025,224.706833 940.426025,236.714905 
	C950.249695,236.714905 959.806702,236.714905 969.748657,236.714905 
	C969.748657,242.915146 969.748657,248.592697 969.748657,254.532623 
	C952.936218,254.532623 936.343079,254.532623 919.303711,254.532623 
	C919.303711,212.162720 919.303711,169.831940 919.303711,127.179108 
	C935.988403,127.179108 952.716370,127.179108 969.793823,127.179108 
	C969.793823,132.762741 969.793823,138.323608 969.793823,144.411636 
	C961.739868,144.411636 953.761108,144.681244 945.812561,144.307739 
	C941.245789,144.093124 940.115234,145.717926 940.323120,149.999741 
	C940.653809,156.811920 940.410950,163.651932 940.410645,170.975494 
z"/>
<path fill="#FFFFFF" opacity="1.000000" stroke="none" 
	d="
M1133.985840,296.597778 
	C1137.788208,296.597748 1141.092285,296.597748 1144.696045,296.597748 
	C1144.696045,302.552887 1144.696045,308.109344 1144.696045,314.156372 
	C1134.910156,314.156372 1125.334839,314.156372 1115.454346,314.156372 
	C1115.454346,326.379120 1115.454346,338.116180 1115.454346,350.477051 
	C1122.231689,350.477051 1128.974487,350.477051 1136.050049,350.477051 
	C1136.050049,356.503662 1136.050049,361.916229 1136.050049,367.828796 
	C1129.347290,367.828796 1122.589600,367.828796 1115.489990,367.828796 
	C1115.489990,380.882660 1115.489990,393.451263 1115.489990,406.689209 
	C1125.108765,406.689209 1134.812500,406.689209 1144.747559,406.689209 
	C1144.747559,412.773315 1144.747559,418.195496 1144.747559,424.011047 
	C1127.957764,424.011047 1111.241821,424.011047 1094.060425,424.011047 
	C1094.060425,381.819489 1094.060425,339.514130 1094.060425,296.597839 
	C1107.286011,296.597839 1120.386841,296.597839 1133.985840,296.597778 
z"/>
<path fill="#FFFEFD" opacity="1.000000" stroke="none" 
	d="
M527.587341,559.999512 
	C527.587402,528.535706 527.587402,497.571960 527.587402,466.303650 
	C544.406189,466.303650 560.818604,466.303650 577.617676,466.303650 
	C577.617676,471.872559 577.617676,477.563690 577.617676,483.783020 
	C568.227478,483.783020 558.979065,483.783020 549.441895,483.783020 
	C549.441895,496.038666 549.441895,507.775299 549.441895,520.158569 
	C556.460632,520.158569 563.346191,520.158569 570.502197,520.158569 
	C570.502197,526.215881 570.502197,531.630676 570.502197,537.686646 
	C563.492493,537.686646 556.602234,537.686646 549.187500,537.686646 
	C549.187500,556.710754 549.187500,575.108032 549.187500,593.749512 
	C541.883728,593.749512 535.112915,593.749512 527.587280,593.749512 
	C527.587280,582.667175 527.587280,571.583313 527.587341,559.999512 
z"/>
<path fill="#FFFDFC" opacity="1.000000" stroke="none" 
	d="
M784.795593,184.000122 
	C784.795593,207.639481 784.795593,230.778839 784.795593,254.356354 
	C777.627319,254.356354 770.736084,254.356354 763.173218,254.356354 
	C763.173218,218.017975 763.173218,181.505630 763.173218,144.438293 
	C756.943298,144.438293 751.361450,144.438293 745.499573,144.438293 
	C745.499573,138.471695 745.499573,133.062042 745.499573,127.251274 
	C764.287903,127.251274 783.003418,127.251274 802.070251,127.251274 
	C802.070251,132.751099 802.070251,138.298325 802.070251,144.301208 
	C796.459167,144.301208 791.020935,144.301208 784.795593,144.301208 
	C784.795593,157.658630 784.795593,170.579376 784.795593,184.000122 
z"/>
<path fill="#FFFFFF" opacity="1.000000" stroke="none" 
	d="
M847.999390,332.001373 
	C847.999390,362.927277 847.999390,393.353577 847.999390,424.089905 
	C840.641846,424.089905 833.722900,424.089905 826.152771,424.089905 
	C826.152771,387.654572 826.152771,351.167358 826.152771,314.191772 
	C820.109436,314.191772 814.690613,314.191772 808.943726,314.191772 
	C808.943726,308.300293 808.943726,302.894775 808.943726,297.040833 
	C827.604553,297.040833 846.300171,297.040833 865.392578,297.040833 
	C865.392578,302.548706 865.392578,308.076782 865.392578,314.140350 
	C859.645874,314.140350 854.070435,314.140350 847.999390,314.140350 
	C847.999390,320.272552 847.999390,325.887177 847.999390,332.001373 
z"/>
<path fill="#FFFFFE" opacity="1.000000" stroke="none" 
	d="
M1130.989502,465.999237 
	C1135.463867,465.999237 1139.440063,465.999237 1143.775269,465.999237 
	C1143.775269,471.847687 1143.775269,477.414581 1143.775269,483.582367 
	C1138.287476,483.582367 1132.718140,483.582367 1126.628906,483.582367 
	C1126.628906,520.556213 1126.628906,556.942322 1126.628906,593.663208 
	C1119.213379,593.663208 1112.320190,593.663208 1104.905273,593.663208 
	C1104.905273,557.193604 1104.905273,520.823364 1104.905273,483.924683 
	C1098.834717,483.924683 1093.257324,483.924683 1087.346680,483.924683 
	C1087.346680,477.834198 1087.346680,472.267914 1087.346680,465.999237 
	C1101.666870,465.999237 1116.079102,465.999237 1130.989502,465.999237 
z"/>
<path fill="#FFFFFE" opacity="1.000000" stroke="none" 
	d="
M820.859863,552.999878 
	C820.859863,529.877441 820.859863,507.254974 820.859863,483.925110 
	C814.857239,483.925110 809.158630,483.925110 803.241699,483.925110 
	C803.241699,477.644714 803.241699,472.072968 803.241699,466.249939 
	C822.178284,466.249939 840.897400,466.249939 859.878418,466.249939 
	C859.878418,472.044617 859.878418,477.612854 859.878418,483.767090 
	C854.093018,483.767090 848.522705,483.767090 842.420715,483.767090 
	C842.420715,520.728027 842.420715,557.109192 842.420715,593.742920 
	C835.118896,593.742920 828.356873,593.742920 820.859863,593.742920 
	C820.859863,580.314087 820.859863,566.906982 820.859863,552.999878 
z"/>
<path fill="#FFFFFF" opacity="1.000000" stroke="none" 
	d="
M1193.138062,391.000061 
	C1193.138062,402.286865 1193.138062,413.073669 1193.138062,424.126740 
	C1185.837402,424.126740 1179.090210,424.126740 1171.693848,424.126740 
	C1171.693848,387.558533 1171.693848,351.168335 1171.693848,314.209167 
	C1165.505615,314.209167 1159.942261,314.209167 1154.131470,314.209167 
	C1154.131470,308.218109 1154.131470,302.797913 1154.131470,296.986725 
	C1172.947876,296.986725 1191.667725,296.986725 1210.694824,296.986725 
	C1210.694824,302.553711 1210.694824,308.114441 1210.694824,314.174957 
	C1204.898071,314.174957 1199.309692,314.174957 1193.138062,314.174957 
	C1193.138062,339.945709 1193.138062,365.222900 1193.138062,391.000061 
z"/>
<path fill="#FFFDFC" opacity="1.000000" stroke="none" 
	d="
M419.204407,388.999878 
	C419.204407,358.071960 419.204407,327.644043 419.204407,296.899780 
	C426.565063,296.899780 433.484772,296.899780 440.706848,296.899780 
	C440.706848,339.201202 440.706848,381.401886 440.706848,424.010986 
	C433.748413,424.010986 426.732208,424.010986 419.204376,424.010986 
	C419.204376,412.385712 419.204376,400.942810 419.204407,388.999878 
z"/>
<path fill="#FFFDFC" opacity="1.000000" stroke="none" 
	d="
M441.005951,501.000000 
	C441.005951,532.115295 441.005951,562.730591 441.005951,593.675415 
	C433.798828,593.675415 426.885529,593.675415 419.585938,593.675415 
	C419.585938,551.390625 419.585938,509.035553 419.585938,466.336670 
	C426.503754,466.336670 433.405182,466.336670 441.005951,466.336670 
	C441.005951,477.667236 441.005951,489.083618 441.005951,501.000000 
z"/>
<path fill="#FFFDFB" opacity="1.000000" stroke="none" 
	d="
M441.007111,181.000000 
	C441.007111,205.764465 441.007111,230.028931 441.007111,254.543121 
	C433.666595,254.543121 426.889954,254.543121 419.656555,254.543121 
	C419.656555,212.190140 419.656555,169.850632 419.656555,127.180565 
	C426.581116,127.180565 433.481934,127.180565 441.007111,127.180565 
	C441.007111,144.975250 441.007111,162.737625 441.007111,181.000000 
z"/>
<path fill="#FFFFFE" opacity="1.000000" stroke="none" 
	d="
M906.404968,168.000244 
	C906.404968,196.978226 906.404968,225.456207 906.404968,254.360229 
	C899.297058,254.360229 892.571838,254.360229 885.419678,254.360229 
	C885.419678,212.157318 885.419678,169.798737 885.419678,127.149269 
	C892.166138,127.149269 898.907471,127.149269 906.404968,127.149269 
	C906.404968,140.661514 906.404968,154.080887 906.404968,168.000244 
z"/>
<path fill="#FFFFFF" opacity="1.000000" stroke="none" 
	d="
M897.138184,329.000061 
	C897.138184,360.936951 897.138184,392.373840 897.138184,424.104980 
	C889.878662,424.104980 883.135437,424.104980 875.993530,424.104980 
	C875.993530,381.791656 875.993530,339.592224 875.993530,296.994751 
	C882.864319,296.994751 889.726990,296.994751 897.138184,296.994751 
	C897.138184,307.602478 897.138184,318.051270 897.138184,329.000061 
z"/>
<path fill="#FFFCFB" opacity="1.000000" stroke="none" 
	d="
M981.951782,249.814972 
	C982.427307,244.424408 982.871704,239.493454 983.340332,234.293030 
	C990.317261,234.293030 997.023743,234.293030 1004.426086,234.293030 
	C1000.723816,244.100128 997.222595,253.543686 993.519836,262.907593 
	C993.170105,263.791962 991.591370,264.617950 990.519470,264.707306 
	C987.572388,264.952881 984.591370,264.792053 980.799622,264.792053 
	C981.194458,259.679321 981.557617,254.976944 981.951782,249.814972 
z"/>
<path fill="#F36E26" opacity="1.000000" stroke="none" 
	d="
M568.426270,1127.602295 
	C579.833252,1134.200684 590.995544,1140.493164 601.956665,1147.118652 
	C603.537781,1148.074341 605.071960,1150.627808 605.078125,1152.447266 
	C605.245178,1201.425049 605.210632,1250.403564 605.198669,1299.381958 
	C605.198486,1300.201538 605.058228,1301.021118 604.922485,1302.505859 
	C603.351746,1301.760376 602.036133,1301.243774 600.825195,1300.545532 
	C558.881531,1276.358521 516.955994,1252.140259 474.990845,1227.990601 
	C472.638733,1226.637085 471.321533,1225.295776 471.328217,1222.261353 
	C471.435425,1173.449829 471.402100,1124.637817 471.415771,1075.826050 
	C471.416077,1074.714233 471.591949,1073.602417 471.745880,1071.781128 
	C504.246460,1090.539307 536.181763,1108.971191 568.426270,1127.602295 
z"/>
<path fill="#F36E26" opacity="1.000000" stroke="none" 
	d="
M938.964722,1146.043823 
	C981.897461,1121.274780 1024.501099,1096.681885 1067.861450,1071.652344 
	C1067.861450,1074.232544 1067.861328,1075.838379 1067.861328,1077.444336 
	C1067.861206,1125.435913 1067.830200,1173.427612 1067.931152,1221.418945 
	C1067.937866,1224.614136 1067.114014,1226.472046 1064.221924,1228.131226 
	C1022.070801,1252.314331 979.998108,1276.634277 937.899292,1300.908813 
	C936.931885,1301.466553 935.880005,1301.877808 934.376831,1302.589966 
	C934.283386,1300.549194 934.148132,1298.969604 934.147766,1297.390137 
	C934.136597,1249.565186 934.195496,1201.739990 934.033264,1153.915649 
	C934.019958,1149.997559 935.068726,1147.576660 938.964722,1146.043823 
z"/>
<path fill="#F36E26" opacity="1.000000" stroke="none" 
	d="
M1026.249756,1035.763916 
	C1036.632568,1041.756348 1046.696533,1047.567993 1057.417603,1053.759033 
	C1053.487793,1056.055786 1050.093628,1058.059570 1046.680786,1060.031128 
	C1007.190063,1082.844116 967.664978,1105.598267 928.258972,1128.556763 
	C924.855225,1130.539795 922.561157,1130.267700 919.337158,1128.394897 
	C878.029236,1104.400757 836.634705,1080.555786 795.268555,1056.661865 
	C793.863708,1055.850464 792.525574,1054.923340 790.585754,1053.686279 
	C803.856140,1046.005249 816.604553,1038.609985 829.368469,1031.241821 
	C859.640442,1013.766846 889.948242,996.353699 920.150146,978.758606 
	C923.042175,977.073730 924.999451,977.242249 927.791626,978.865479 
	C960.455933,997.855347 993.204651,1016.700012 1026.249756,1035.763916 
z"/>
<path fill="#F36F27" opacity="1.000000" stroke="none" 
	d="
M757.673645,1072.680664 
	C758.538879,1074.106567 759.530212,1075.701416 759.534729,1077.299194 
	C759.625488,1109.442261 759.602600,1141.585815 759.602600,1173.729248 
	C759.602600,1185.220947 759.602600,1196.712646 759.602600,1208.204346 
	C759.602600,1209.818115 759.602661,1211.431885 759.602661,1214.166260 
	C718.091614,1190.199829 677.468567,1166.746094 636.081360,1142.851196 
	C677.060486,1119.194702 717.200378,1096.022827 757.673645,1072.680664 
z"/>
<path fill="#F36F27" opacity="1.000000" stroke="none" 
	d="
M678.625488,989.335205 
	C664.518738,981.183228 650.727112,973.219177 636.110046,964.778503 
	C677.477234,940.890137 718.088501,917.438416 759.290894,893.645203 
	C759.290894,941.298218 759.290894,988.126282 759.290894,1035.880371 
	C732.103210,1020.194702 705.521912,1004.858948 678.625488,989.335205 
z"/>
<path fill="#F36F27" opacity="1.000000" stroke="none" 
	d="
M868.861938,921.110352 
	C842.766968,906.043396 816.998779,891.143616 790.340210,875.728943 
	C831.529968,851.941528 872.036682,828.548584 913.142700,804.809509 
	C913.142700,852.181580 913.142700,898.969727 913.142700,946.645935 
	C898.150024,937.992798 883.669373,929.635193 868.861938,921.110352 
z"/>
<path fill="#F36E26" opacity="1.000000" stroke="none" 
	d="
M780.000061,964.000000 
	C780.000061,940.523926 780.000061,917.547852 780.000061,893.605164 
	C821.243958,917.420227 861.894409,940.892639 903.266235,964.781616 
	C862.059998,988.569946 821.490234,1011.990845 780.000061,1035.943115 
	C780.000061,1011.559509 780.000061,988.029785 780.000061,964.000000 
z"/>
<path fill="#F36E26" opacity="1.000000" stroke="none" 
	d="
M707.355652,851.658875 
	C721.202026,859.657837 734.733826,867.467529 749.053833,875.732117 
	C707.943604,899.475525 667.421631,922.879089 626.239502,946.664001 
	C626.239502,899.139404 626.239502,852.350830 626.239502,804.844849 
	C653.311829,820.466309 680.176514,835.967957 707.355652,851.658875 
z"/>
<path fill="#F36E26" opacity="1.000000" stroke="none" 
	d="
M701.412781,1259.404907 
	C676.355042,1273.878296 651.604675,1288.152588 626.196045,1302.806641 
	C626.196045,1255.208740 626.196045,1208.427979 626.196045,1160.957520 
	C667.156799,1184.609985 707.684753,1208.012451 749.051453,1231.899170 
	C732.743958,1241.307373 717.232056,1250.256592 701.412781,1259.404907 
z"/>
<path fill="#F36E26" opacity="1.000000" stroke="none" 
	d="
M199.421692,252.337494 
	C199.525864,228.595535 198.647568,205.226227 200.190674,182.017914 
	C201.468491,162.799271 217.920547,159.218552 231.125443,162.478287 
	C240.333435,164.751328 246.445389,172.916275 246.738129,185.046951 
	C247.264374,206.853897 247.504974,228.702454 246.749802,250.494980 
	C246.111679,268.910461 232.631866,278.444366 215.395813,274.014862 
	C204.453491,271.202789 200.916534,262.761017 199.421692,252.337494 
z"/>
<path fill="#F36F27" opacity="1.000000" stroke="none" 
	d="
M552.237000,236.997894 
	C550.896729,236.126724 549.260559,235.259872 549.258667,234.389481 
	C549.194641,204.758667 549.285339,175.127502 549.364380,145.496429 
	C549.364746,145.361588 549.518555,145.227188 550.108276,144.261230 
	C554.051208,144.542786 558.545471,144.413818 562.835144,145.288162 
	C567.778503,146.295761 570.161804,150.420303 570.188965,156.914154 
	C570.259338,173.731293 570.214355,190.548904 570.215210,207.366333 
	C570.215515,212.528122 570.226868,217.689926 570.212463,222.851685 
	C570.182922,233.458740 566.694031,236.975662 556.199768,237.001099 
	C555.034241,237.003922 553.868652,237.000885 552.237000,236.997894 
z"/>
<path fill="#F37029" opacity="1.000000" stroke="none" 
	d="
M608.996216,495.020660 
	C608.996216,491.215057 608.996216,487.906403 608.996216,483.703613 
	C612.971741,483.929352 616.968567,483.353821 620.268494,484.609558 
	C622.701355,485.535309 625.686890,488.729858 625.887329,491.125854 
	C626.575317,499.351166 626.395752,507.680756 626.040588,515.948792 
	C625.852600,520.323547 622.714844,522.722290 618.402527,523.079468 
	C615.469788,523.322388 612.500671,523.125977 608.996216,523.125977 
	C608.996216,513.700073 608.996216,504.608826 608.996216,495.020660 
z"/>
<path fill="#F37029" opacity="1.000000" stroke="none" 
	d="
M851.261841,152.023743 
	C851.425232,159.732834 851.727295,167.039474 851.516174,174.331238 
	C851.325989,180.903107 847.988281,183.837784 841.372986,183.992706 
	C839.089355,184.046188 836.803528,184.001236 834.260864,184.001236 
	C834.260864,170.716751 834.260864,157.857010 834.260864,145.031845 
	C844.211182,143.113525 848.940735,144.984299 851.261841,152.023743 
z"/>
<path fill="#F36E26" opacity="1.000000" stroke="none" 
	d="
M909.208618,498.088165 
	C909.205994,503.237854 909.290955,507.903717 909.180969,512.564941 
	C909.000183,520.230347 906.084778,523.092896 898.541016,523.202942 
	C896.556030,523.231873 894.570251,523.207275 892.188660,523.207275 
	C892.188660,510.077057 892.188660,497.215424 892.188660,484.371735 
	C905.231628,482.140717 909.155884,485.218994 909.208618,498.088165 
z"/>
<path fill="#F3722C" opacity="1.000000" stroke="none" 
	d="
M1250.381714,503.000244 
	C1250.381714,496.524872 1250.381714,490.549133 1250.381714,484.234589 
	C1254.354980,484.234589 1258.017334,483.724243 1261.468262,484.360565 
	C1266.037354,485.203125 1267.845581,488.879700 1267.921509,493.274200 
	C1268.036865,499.937714 1268.121582,506.608704 1267.934448,513.268494 
	C1267.742676,520.086365 1264.447266,523.089111 1257.522583,523.221741 
	C1255.376831,523.262817 1253.229858,523.228088 1250.381714,523.228088 
	C1250.381714,516.386475 1250.381714,509.943146 1250.381714,503.000244 
z"/>
<path fill="#F36F27" opacity="1.000000" stroke="none" 
	d="
M931.137817,368.999939 
	C931.138000,354.365662 930.898865,340.224487 931.306396,326.101959 
	C931.408386,322.567322 932.736023,318.350433 934.997070,315.747070 
	C939.522583,310.536530 948.990662,312.691010 951.607300,319.109558 
	C952.521912,321.352966 952.928284,323.952606 952.938904,326.392303 
	C953.037292,349.006714 952.998657,371.621735 952.997864,394.236572 
	C952.997864,394.735168 952.989746,395.234711 952.959534,395.732208 
	C952.489075,403.463470 948.425049,407.899292 941.860046,407.852478 
	C935.351807,407.806030 931.268860,403.193939 931.165833,395.440186 
	C931.050903,386.794830 931.138428,378.146790 931.137817,368.999939 
z"/>
<path fill="#F37029" opacity="1.000000" stroke="none" 
	d="
M623.829224,324.373596 
	C625.024658,316.362885 628.620178,312.822937 634.936035,313.017578 
	C641.131592,313.208527 645.035461,317.174896 645.442444,324.621399 
	C645.832214,331.752258 645.596802,338.918274 645.602661,346.068909 
	C645.615295,361.536530 645.645142,377.004333 645.568909,392.471588 
	C645.555908,395.108582 645.354614,397.820404 644.707458,400.362000 
	C643.529541,404.987854 639.535461,407.877594 634.708435,407.832458 
	C629.940369,407.787903 626.256409,405.770538 624.806824,401.021454 
	C624.094666,398.688019 623.828735,396.136536 623.821777,393.682434 
	C623.756287,370.730713 623.790833,347.778717 623.829224,324.373596 
z"/>
<path fill="#F3722C" opacity="1.000000" stroke="none" 
	d="
M699.650146,552.792969 
	C694.314514,553.067261 689.368042,553.067261 683.722839,553.067261 
	C686.377686,536.932556 688.966736,521.198059 691.555786,505.463593 
	C691.967834,505.440399 692.379944,505.417175 692.791992,505.393982 
	C695.207764,521.102234 697.623596,536.810486 699.650146,552.792969 
z"/>
<path fill="#F3722C" opacity="1.000000" stroke="none" 
	d="
M770.237244,383.874939 
	C766.787842,384.269196 765.552307,383.349060 766.128601,380.030701 
	C768.598694,365.808380 770.876831,351.552734 773.256226,337.314453 
	C773.352478,336.738281 773.765259,336.214996 774.474426,334.750519 
	C777.227722,351.509460 779.819580,367.286011 782.544983,383.875305 
	C778.192017,383.875305 774.447571,383.875305 770.237244,383.874939 
z"/>
</svg>