<svg version="1.1" id="Layer_1" xmlns="http://www.w3.org/2000/svg" xmlns:xlink="http://www.w3.org/1999/xlink" x="0px" y="0px"
	 width="100%" viewBox="0 0 800 800" enable-background="new 0 0 800 800" xml:space="preserve">
<path fill="#FD9D24" opacity="1.000000" stroke="none" 
	d="
M1.000000,279.000000 
	C1.000000,186.000000 1.000000,93.500000 1.000000,1.000000 
	C267.666656,1.000000 534.333313,1.000000 801.000000,1.000000 
	C801.000000,267.666656 801.000000,534.333313 801.000000,801.000000 
	C534.333313,801.000000 267.666656,801.000000 1.000000,801.000000 
	C1.000000,627.166687 1.000000,453.333344 1.000000,279.000000 
M133.444595,103.962448 
	C133.444595,143.518814 133.444595,183.075165 133.444595,222.485931 
	C143.783829,222.485931 153.186081,222.485931 162.614960,222.485931 
	C162.614960,171.515427 162.614960,120.946213 162.614960,69.872131 
	C155.220367,69.872131 148.102051,69.842789 140.984802,69.916115 
	C140.247803,69.923706 139.480591,70.479942 138.789047,70.886497 
	C130.497604,75.760956 122.200340,80.626190 113.957268,85.581444 
	C112.938095,86.194099 111.511642,87.290291 111.481903,88.201828 
	C111.268600,94.741066 111.367844,101.290497 111.367844,108.367126 
	C118.868896,105.719757 125.434814,103.402428 132.165619,101.656548 
	C132.521484,102.121544 132.877335,102.586533 133.444595,103.962448 
M337.500122,372.298004 
	C325.505219,372.298004 313.506439,372.474854 301.517395,372.210052 
	C296.790649,372.105652 295.110748,373.529694 295.115540,378.433777 
	C295.226105,491.720367 295.219940,605.007080 295.129425,718.293762 
	C295.125885,722.710388 296.213287,724.483521 301.010345,724.455444 
	C332.662903,724.270447 364.317413,724.288696 395.970306,724.440735 
	C400.429626,724.462097 402.063110,723.326111 402.058014,718.559753 
	C401.936584,605.106567 401.939209,491.653229 402.050110,378.200043 
	C402.054688,373.515259 400.493134,372.174133 395.975708,372.218658 
	C376.818787,372.407379 357.658936,372.298340 337.500122,372.298004 
M415.848206,589.500000 
	C415.848236,632.308655 415.847137,675.117371 415.849396,717.926025 
	C415.849762,724.943481 415.856628,724.954285 422.608795,724.955200 
	C453.590973,724.959412 484.573181,724.959412 515.555359,724.955078 
	C522.171387,724.954163 522.187439,724.942810 522.187683,718.336121 
	C522.191345,626.555542 522.190308,534.775024 522.189026,442.994446 
	C522.188965,441.828583 522.399475,440.598999 522.098083,439.514099 
	C521.772522,438.342438 521.186646,436.727295 520.294678,436.378418 
	C519.455200,436.050049 517.930725,436.928284 516.963623,437.628998 
	C516.056091,438.286652 515.485168,439.407928 514.763428,440.323090 
	C486.509155,476.154633 458.768494,512.410217 429.723358,547.588806 
	C419.442657,560.040527 413.232727,572.388367 415.848206,589.500000 
M641.598267,615.901917 
	C640.621582,615.735291 639.645020,615.423950 638.668213,615.423157 
	C605.514404,615.395386 572.360413,615.451843 539.207031,615.330139 
	C534.721191,615.313660 534.095764,617.452942 534.106995,621.219910 
	C534.204468,653.873657 534.257507,686.528320 534.061523,719.181213 
	C534.031921,724.104370 535.668640,725.379333 540.379028,725.354492 
	C572.532349,725.184814 604.687378,725.185974 636.840759,725.352783 
	C641.519043,725.377014 643.177551,724.173035 643.146057,719.215515 
	C642.938477,686.562744 643.048950,653.908142 643.008362,621.254150 
	C643.006348,619.642517 642.562744,618.031372 641.598267,615.901917 
M281.000702,669.500000 
	C281.000244,660.839966 281.010681,652.179932 280.995758,643.519897 
	C280.984436,636.959717 280.970032,636.944885 274.196594,636.943604 
	C243.220245,636.937622 212.243851,636.917175 181.267548,636.952271 
	C169.516159,636.965576 170.954926,635.704895 170.931717,647.382629 
	C170.884399,671.197754 170.907150,695.012939 170.935104,718.828125 
	C170.937714,721.057617 170.297760,724.051331 173.820892,724.097778 
	C184.759003,724.241882 195.700226,724.150513 207.176819,724.150513 
	C207.176819,721.835449 207.176743,720.051147 207.176849,718.266785 
	C207.177673,703.944397 207.253006,689.621277 207.129532,675.299988 
	C207.096680,671.489746 208.371567,669.907654 212.353607,670.005127 
	C221.008484,670.216980 229.677185,670.245667 238.330017,669.995667 
	C242.565002,669.873291 243.838867,671.527649 243.796371,675.559021 
	C243.645477,689.879822 243.738647,704.203247 243.739365,718.525635 
	C243.739441,720.282471 243.739365,722.039307 243.739365,724.192688 
	C254.789032,724.192688 265.090454,724.016846 275.381042,724.274719 
	C279.826324,724.386047 281.125488,722.757019 281.074341,718.462463 
	C280.883850,702.476929 280.999786,686.487793 281.000702,669.500000 
M69.319916,181.499863 
	C69.319916,195.219635 69.319916,208.939407 69.319916,222.528854 
	C79.690651,222.528854 89.100304,222.528854 98.488647,222.528854 
	C98.488647,171.485672 98.488647,120.807137 98.488647,69.833542 
	C91.271599,69.833542 84.453880,69.798775 77.637390,69.874817 
	C76.721077,69.885033 75.726929,70.309860 74.910980,70.786209 
	C66.463028,75.718147 58.022373,80.663811 49.646862,85.716988 
	C48.668896,86.307022 47.466518,87.548248 47.436493,88.520569 
	C47.238976,94.916962 47.334595,101.322411 47.334595,108.340393 
	C54.987583,105.659912 61.822651,103.265907 69.320015,100.639938 
	C69.320015,127.646446 69.320015,154.073151 69.319916,181.499863 
M197.499893,627.616455 
	C223.623886,627.615967 249.747971,627.643433 275.871613,627.549194 
	C277.524536,627.543274 279.174042,626.590637 280.825134,626.078430 
	C280.232819,624.467712 279.992859,622.586609 278.995544,621.286560 
	C262.592133,599.904053 246.059189,578.620972 229.650986,557.242126 
	C227.048264,553.850952 225.076889,553.558411 222.368530,557.137329 
	C206.005859,578.759338 189.522141,600.289734 173.149765,621.904419 
	C172.337067,622.977295 171.419464,625.150085 171.895370,625.757996 
	C172.719070,626.810059 174.585510,627.493286 176.035400,627.531128 
	C182.853012,627.708679 189.677734,627.613892 197.499893,627.616455 
M549.508118,607.103882 
	C558.163025,607.103882 566.817993,607.103760 575.472900,607.103821 
	C596.278015,607.103882 617.083740,607.016541 637.887573,607.181641 
	C641.801880,607.212646 643.287537,606.113403 643.012207,602.087524 
	C642.695007,597.448914 642.648926,592.748718 643.019287,588.118042 
	C643.398254,583.379761 641.884277,581.841919 636.962646,581.876526 
	C606.339050,582.092407 575.713135,581.933289 545.088196,582.010376 
	C532.716858,582.041504 534.245361,580.187073 534.187439,592.790588 
	C534.121704,607.103638 534.172302,607.103882 549.508118,607.103882 
M448.718689,127.770393 
	C448.860474,113.144119 449.004303,98.517860 449.141510,83.891541 
	C449.159607,81.960022 449.143982,80.028183 449.143982,77.984535 
	C452.616333,77.778015 455.385620,77.613304 458.287415,77.440720 
	C458.287415,74.749481 458.287415,72.395523 458.287415,69.968506 
	C440.320770,69.968506 422.762909,69.968506 405.177917,69.968506 
	C405.177917,89.528358 405.177917,108.723412 405.177917,127.899307 
	C413.465576,127.899307 421.365143,127.899307 429.252777,127.899307 
	C429.252777,125.438797 429.252777,123.354698 429.252777,120.768585 
	C424.657806,120.768585 420.399994,120.768585 415.987610,120.768585 
	C415.987610,114.210938 415.987610,108.164970 415.987610,101.926750 
	C419.575012,101.762093 422.810211,101.613602 426.129883,101.461235 
	C426.129883,98.747299 426.129883,96.512108 426.129883,93.809006 
	C422.512512,93.809006 419.254303,93.809006 416.047913,93.809006 
	C416.047913,88.103447 416.047913,82.879700 416.047913,77.834885 
	C423.567383,77.834885 430.654022,77.834885 438.371643,77.834885 
	C438.371643,94.826454 438.371643,111.347000 438.371643,128.120178 
	C441.977783,128.120178 444.946136,128.120178 448.718689,127.770393 
M325.180573,202.838791 
	C326.191895,198.235657 327.203217,193.632538 328.214569,189.029404 
	C328.676788,189.072464 329.139038,189.115509 329.601257,189.158569 
	C329.601257,200.582809 329.601257,212.007065 329.601257,223.483032 
	C332.817291,223.483032 335.207458,223.483032 337.077271,223.483032 
	C337.077271,203.895416 337.077271,184.696945 337.077271,165.441803 
	C332.914825,165.441803 329.647278,165.441803 326.151428,165.441803 
	C323.383545,178.298096 320.661163,190.943237 317.938782,203.588379 
	C315.021576,193.654739 312.947968,183.742340 310.931915,173.818237 
	C309.091980,164.761032 309.119202,164.749512 299.895874,165.239319 
	C299.434509,165.263840 298.986664,165.543213 297.826782,165.953644 
	C297.826782,184.993317 297.826782,204.195251 297.826782,223.549805 
	C300.155182,223.549805 302.546844,223.549805 305.653290,223.549805 
	C305.653290,211.852921 305.653290,200.457687 305.653290,189.062454 
	C307.169556,190.500031 307.646362,192.023956 307.980499,193.578537 
	C309.869263,202.366196 311.754089,211.154968 313.568848,219.958084 
	C314.025818,222.174850 314.297241,223.912598 317.419586,223.987015 
	C320.752136,224.066437 321.231140,222.232819 321.710938,219.809418 
	C322.777771,214.420822 323.926422,209.048431 325.180573,202.838791 
M375.855621,210.501373 
	C375.855621,214.779190 375.855621,219.057022 375.855621,223.494934 
	C379.024872,223.494934 381.397949,223.494934 383.304382,223.494934 
	C383.304382,203.930496 383.304382,184.736771 383.304382,165.173294 
	C380.984283,165.173294 379.479584,165.361679 378.038879,165.137894 
	C373.757507,164.472870 371.896271,166.127777 371.195648,170.502777 
	C369.960938,178.213074 368.085266,185.821609 366.444550,193.465591 
	C365.731995,196.785294 364.936859,200.087250 364.179199,203.397263 
	C361.281891,193.550644 359.240570,183.819260 357.220642,174.083435 
	C355.241974,164.546402 355.251190,164.540588 345.498688,165.382904 
	C345.219116,165.407059 344.964325,165.718277 344.033264,166.338333 
	C344.033264,185.106720 344.033264,204.309921 344.033264,223.505005 
	C346.509796,223.505005 348.918488,223.505005 352.039917,223.505005 
	C352.039917,211.573730 352.039917,199.980515 352.039917,188.387283 
	C355.372711,198.687103 357.596436,209.051865 359.786591,219.423737 
	C360.262878,221.679321 360.194336,223.908325 363.713562,223.974899 
	C367.399872,224.044617 367.561218,221.824814 368.079559,219.303024 
	C370.108826,209.429825 372.230896,199.575729 374.318481,189.714554 
	C374.826599,189.746124 375.334686,189.777710 375.842773,189.809296 
	C375.842773,196.376938 375.842773,202.944580 375.855621,210.501373 
M314.296082,260.891388 
	C309.184021,260.891388 304.071960,260.891388 298.800659,260.891388 
	C298.800659,280.631165 298.800659,299.812317 298.800659,319.042847 
	C302.430634,319.042847 305.655884,319.042847 309.325195,319.042847 
	C309.325195,310.276764 309.325195,301.857147 309.325195,293.595612 
	C312.592865,292.033142 313.992950,293.116608 314.707123,295.988983 
	C316.352142,302.605316 318.295563,309.151459 319.784241,315.800781 
	C320.428680,318.679260 321.722137,319.701965 324.551361,319.435120 
	C326.625000,319.239594 328.731903,319.396790 331.601227,319.396790 
	C329.110199,310.460602 326.748505,302.370148 324.680542,294.205292 
	C324.323334,292.795013 324.659424,290.475677 325.615265,289.585297 
	C331.807373,283.817230 331.463196,276.723236 329.482330,269.693176 
	C327.550232,262.836395 321.495819,261.407318 314.296082,260.891388 
M400.472321,282.709595 
	C400.891418,280.936066 401.523285,279.182587 401.692780,277.385498 
	C402.432800,269.538910 399.687866,263.492432 393.342926,262.280548 
	C385.849091,260.849243 378.053284,260.999207 370.358704,260.461609 
	C370.358704,280.811798 370.358704,299.864655 370.358704,319.387970 
	C374.965790,319.387970 379.267242,319.422668 383.567719,319.374664 
	C386.060150,319.346863 388.576721,319.377594 391.037689,319.047913 
	C397.544189,318.176270 402.085602,313.921021 402.974274,307.440460 
	C404.025482,299.774689 404.021240,292.288940 395.572968,288.164276 
	C397.242126,286.412781 398.679260,284.904785 400.472321,282.709595 
M258.623505,200.350311 
	C258.740417,203.674423 258.654694,207.020523 259.012604,210.318481 
	C260.043976,219.821426 265.669891,224.626816 275.513611,224.651245 
	C285.341187,224.675629 291.448425,219.912796 292.009827,210.399338 
	C292.625824,199.960175 292.643921,189.431488 292.053284,178.990982 
	C291.490051,169.034912 285.642487,164.494263 275.323669,164.596771 
	C265.062683,164.698730 259.605286,169.450607 258.962128,179.429337 
	C258.534668,186.060913 258.715424,192.731705 258.623505,200.350311 
M436.828979,199.661728 
	C436.828979,197.329208 436.828979,194.996689 436.828979,192.664169 
	C441.652283,201.309464 445.558655,209.930908 448.817566,218.790512 
	C450.567200,223.546997 453.128204,224.941544 457.793671,223.276672 
	C457.793671,204.004883 457.793671,184.792404 457.793671,165.485168 
	C454.813080,165.485168 452.232086,165.485168 448.942749,165.485168 
	C448.942749,175.528732 448.942749,185.283340 448.942749,195.037933 
	C444.414886,186.883438 440.505859,178.780121 437.382599,170.384506 
	C435.510284,165.351578 432.746826,164.090851 427.900818,165.752975 
	C427.900818,185.049789 427.900818,204.285721 427.900818,223.447815 
	C431.011017,223.447815 433.744171,223.447815 436.828766,223.447815 
	C436.828766,215.570908 436.828766,208.094635 436.828979,199.661728 
M517.761963,224.341690 
	C527.043518,222.674606 530.776062,217.876801 530.909241,206.828384 
	C531.055786,194.669174 530.960205,182.506897 530.943054,170.345993 
	C530.940796,168.747818 530.778015,167.149872 530.686157,165.490295 
	C527.132874,165.490295 524.062195,165.490295 520.691162,165.490295 
	C520.605286,167.421188 520.475403,169.057968 520.468689,170.695251 
	C520.417480,183.188080 520.474731,195.682129 520.305908,208.173203 
	C520.252808,212.098557 519.708374,216.344147 514.351746,216.267899 
	C509.364288,216.196915 508.747681,212.173645 508.628632,208.408035 
	C508.391968,200.919281 508.404724,193.421967 508.364044,185.927917 
	C508.327179,179.135010 508.356262,172.341766 508.356262,165.479065 
	C504.640350,165.479065 501.551331,165.479065 498.026917,165.479065 
	C498.026917,179.728012 497.772614,193.682587 498.102020,207.623367 
	C498.400940,220.273697 504.197968,225.179169 517.761963,224.341690 
M399.895844,207.151520 
	C399.895844,193.249756 399.895844,179.348007 399.895844,165.556656 
	C395.925385,165.556656 392.853394,165.556656 389.719025,165.556656 
	C389.719025,180.724930 389.262207,195.530685 389.877655,210.291748 
	C390.296326,220.333923 396.004578,224.738419 406.033936,224.655945 
	C416.147034,224.572769 421.556763,219.778076 422.009949,209.463943 
	C422.484772,198.658218 422.260651,187.821533 422.327515,176.998276 
	C422.350952,173.205048 422.331238,169.411560 422.331238,165.458954 
	C418.651306,165.458954 415.570374,165.458954 411.942169,165.458954 
	C411.942169,167.523788 411.942261,169.308685 411.942139,171.093582 
	C411.941437,182.252060 411.984375,193.410828 411.906189,204.568756 
	C411.888855,207.046265 412.044983,209.815857 411.016998,211.908569 
	C410.101624,213.772156 407.651703,216.021591 405.890045,216.012329 
	C404.094238,216.002899 402.090942,213.636719 400.617157,211.924820 
	C399.885803,211.075333 400.138123,209.379013 399.895844,207.151520 
M255.958038,293.486176 
	C255.925385,287.490417 256.097137,281.484680 255.803741,275.501709 
	C255.498611,269.279449 253.314941,263.416901 246.624481,262.192657 
	C239.249313,260.843048 231.597183,261.007080 224.089035,260.513275 
	C224.089035,280.786713 224.089035,299.865540 224.089035,319.007385 
	C230.728271,319.007385 237.061646,319.405945 243.321579,318.898529 
	C249.965057,318.359985 253.947754,314.539978 255.108826,307.891968 
	C255.874924,303.505310 255.707474,298.955627 255.958038,293.486176 
M282.797638,273.510132 
	C282.740723,284.005035 282.830841,294.503937 282.546753,304.992706 
	C282.447998,308.639435 281.126221,312.179077 276.416199,311.911957 
	C272.105621,311.667450 271.108459,308.350220 270.960876,304.816589 
	C270.766388,300.158569 270.822174,295.489044 270.814148,290.824432 
	C270.797272,281.036346 270.809021,271.248199 270.809021,261.231262 
	C267.031128,261.231262 263.820648,261.231262 260.818909,261.231262 
	C260.818909,276.853882 260.325256,292.154999 261.014496,307.402618 
	C261.393921,315.796478 266.708069,319.694733 275.004486,320.060211 
	C287.111176,320.593536 292.717102,315.693665 293.035645,303.425903 
	C293.381531,290.104370 293.175568,276.768311 293.174408,263.438568 
	C293.174347,262.671783 292.851837,261.905029 292.703461,261.245300 
	C289.323029,261.245300 286.249329,261.245300 282.797577,261.245300 
	C282.797577,265.236572 282.797577,268.876251 282.797638,273.510132 
M224.140106,215.035690 
	C228.262817,223.683121 237.392441,227.028656 246.831192,223.350800 
	C253.883911,220.602661 257.183929,211.206696 254.367889,202.282776 
	C251.220047,202.282776 248.155594,202.282776 244.799942,202.282776 
	C244.799942,205.526749 244.958939,208.361465 244.756149,211.170059 
	C244.544250,214.104828 243.167984,216.249313 239.846420,216.398621 
	C236.421158,216.552551 234.185898,214.789917 234.124222,211.513657 
	C233.911346,200.207687 233.896408,188.893982 234.070129,177.587280 
	C234.120712,174.294342 236.364777,172.594269 239.780869,172.689255 
	C243.089401,172.781235 244.603271,174.699173 244.770386,177.748169 
	C244.922485,180.523438 244.802597,183.313644 244.802597,186.354080 
	C248.512909,186.354080 251.585114,186.354080 255.194885,186.354080 
	C255.194885,183.935593 255.249268,181.812103 255.185516,179.692154 
	C254.902191,170.269302 250.656433,165.486298 241.942703,164.718521 
	C231.269577,163.778091 224.251633,167.623901 223.597748,176.967224 
	C222.732727,189.327408 223.723572,201.817474 224.140106,215.035690 
M495.150513,220.891220 
	C491.409271,202.358063 487.668030,183.824905 483.902863,165.173019 
	C481.551941,165.173019 479.870270,165.364975 478.248108,165.135773 
	C473.975708,164.532104 472.115509,166.063324 471.470001,170.553391 
	C470.334320,178.452988 468.430267,186.242493 466.836945,194.075867 
	C464.858398,203.803055 462.868622,213.527969 460.816010,223.585632 
	C464.528687,223.585632 467.613861,223.585632 470.919159,223.585632 
	C471.454651,220.755676 472.201538,218.167480 472.382324,215.540314 
	C472.665771,211.421310 474.342651,209.868774 478.675720,210.128052 
	C482.076843,210.331558 484.016541,210.905807 484.143799,214.698227 
	C484.221283,217.006195 484.615509,219.394073 485.407227,221.547653 
	C485.778534,222.557755 487.590424,223.883942 488.461731,223.700439 
	C490.752930,223.217911 494.198395,226.087769 495.150513,220.891220 
M335.941742,302.362000 
	C334.861053,307.859589 333.780334,313.357178 332.664703,319.032562 
	C336.412689,319.032562 339.485870,319.032562 342.671417,319.032562 
	C343.552307,314.526642 344.370941,310.339264 345.184570,306.177490 
	C348.720062,306.177490 351.807007,306.177490 355.060699,306.177490 
	C355.754242,310.039856 355.412872,314.367126 357.359100,317.009552 
	C358.919891,319.128693 363.256073,319.203644 367.737518,320.621338 
	C363.483734,299.594849 359.607605,280.435059 355.716003,261.198792 
	C351.704285,261.198792 348.119415,261.198792 344.739685,261.198792 
	C344.450256,261.642059 344.312958,261.765381 344.282776,261.910919 
	C341.544739,275.114044 338.814911,288.318848 335.941742,302.362000 
M478.850769,269.144562 
	C480.106842,271.918274 481.362885,274.691986 482.737549,277.727570 
	C485.322296,277.153442 488.008423,276.556763 490.878265,275.919312 
	C490.280151,269.506226 488.940521,263.983612 482.694427,261.275635 
	C477.016327,258.813904 468.858856,260.116913 464.929504,264.189606 
	C460.212646,269.078613 460.021820,275.050262 462.125183,280.947693 
	C463.133820,283.775757 465.376312,286.323517 467.527466,288.545715 
	C470.525452,291.642670 474.226166,294.074890 477.116943,297.254517 
	C479.037628,299.367157 480.509888,302.148926 481.376770,304.886475 
	C482.287109,307.761292 481.475708,310.763092 478.021301,311.602448 
	C474.698151,312.409973 472.623657,310.391663 471.618683,307.425903 
	C470.886322,305.264435 470.539917,302.972229 469.925293,300.324066 
	C466.889557,300.977295 464.059540,301.586243 461.334106,302.172699 
	C461.120422,310.969421 464.454773,316.846100 470.672150,319.105438 
	C477.480804,321.579651 485.013397,319.874420 488.953796,314.966888 
	C493.093872,309.810699 493.231201,301.147827 488.665527,294.903412 
	C486.146851,291.458649 482.759979,288.642181 479.718597,285.588165 
	C477.378296,283.238129 474.359283,281.305054 472.783417,278.536835 
	C471.579437,276.421906 471.487579,273.076233 472.240204,270.702698 
	C472.604767,269.553070 476.044037,269.378418 478.850769,269.144562 
M357.550903,119.735207 
	C361.523621,127.866676 370.092804,131.230103 378.422546,127.927361 
	C385.563049,125.096161 388.978729,117.030678 385.965302,108.646034 
	C384.770477,105.321373 382.533661,102.180138 380.139435,99.525192 
	C377.035278,96.083069 373.088074,93.407791 369.921265,90.012962 
	C368.207825,88.176163 366.418335,85.532433 366.411102,83.247200 
	C366.404877,81.259438 368.439545,78.313766 370.316559,77.492584 
	C373.195068,76.233276 375.231506,78.497406 375.986053,81.470955 
	C376.387482,83.052734 376.693176,84.658798 377.136993,86.687721 
	C380.196320,86.012894 383.008026,85.392685 385.938049,84.746384 
	C385.181549,78.232117 383.944427,72.468910 377.484375,70.123230 
	C371.332550,67.889458 365.154724,68.284874 360.149048,72.887733 
	C355.135406,77.497925 354.994171,83.645210 357.053772,89.554489 
	C358.092072,92.533463 360.458923,95.213486 362.709167,97.565460 
	C365.690521,100.681480 369.465668,103.064766 372.287781,106.297195 
	C374.257843,108.553665 375.900299,111.598526 376.346680,114.497917 
	C376.622467,116.289276 374.497559,120.023827 373.240448,120.119194 
	C371.211426,120.273125 368.358643,118.624405 367.054810,116.853027 
	C365.618835,114.902191 365.538940,111.953133 364.829010,109.291588 
	C363.140411,109.584740 361.672638,109.771454 360.239899,110.107681 
	C358.843475,110.435379 357.482910,110.916000 355.741913,111.439041 
	C356.288330,114.182083 356.770233,116.601151 357.550903,119.735207 
M617.557251,219.990112 
	C622.761047,212.484116 622.327637,203.983246 615.823181,196.753128 
	C612.281616,192.816437 607.862976,189.675522 604.245544,185.797348 
	C602.430481,183.851486 600.958069,181.190857 600.357117,178.614136 
	C599.700256,175.797226 601.253723,172.879288 604.476257,173.110229 
	C606.389648,173.247345 608.508972,175.188217 609.865967,176.861328 
	C610.867615,178.096420 610.786865,180.209381 611.252930,182.207840 
	C614.350403,181.613449 617.058655,181.093750 620.070129,180.515854 
	C619.334229,174.263077 618.324036,168.583588 612.291870,166.013931 
	C606.285095,163.455063 600.081970,163.713593 594.832336,167.934113 
	C589.686340,172.071289 588.927795,178.024109 590.832336,183.845886 
	C591.959961,187.292725 594.455627,190.482498 596.939758,193.245102 
	C599.811462,196.438766 603.671814,198.753387 606.482605,201.988586 
	C608.446289,204.248764 610.070496,207.312271 610.491821,210.213669 
	C610.744873,211.955887 608.702209,215.297440 607.130676,215.693085 
	C605.462158,216.113159 602.449707,214.382095 601.263916,212.710831 
	C599.840393,210.704391 599.726440,207.768738 598.934326,204.822037 
	C595.981934,205.426392 593.130493,206.010086 590.009827,206.648895 
	C590.570862,213.582016 591.759521,219.887802 598.409424,222.877319 
	C604.871765,225.782516 611.367676,225.571564 617.557251,219.990112 
M244.745728,121.261917 
	C248.196533,104.217346 251.647339,87.172775 255.142822,69.907471 
	C251.587219,69.907471 248.639038,69.907471 245.385666,69.907471 
	C243.148148,82.253380 240.942932,94.420959 238.479202,108.014977 
	C237.683884,105.630478 237.220825,104.625549 237.016922,103.570526 
	C235.314117,94.760162 233.620834,85.947586 232.000946,77.121674 
	C230.563004,69.286919 230.605621,69.272224 222.654846,69.760361 
	C222.217255,69.787231 221.795944,70.079453 221.104324,70.351509 
	C224.819504,88.809425 228.490906,107.194374 232.293549,125.552132 
	C232.502472,126.560684 233.660263,127.892448 234.618835,128.141800 
	C240.941422,129.786560 243.306091,128.255295 244.745728,121.261917 
M575.585876,216.041885 
	C575.134155,209.915756 574.682495,203.789642 574.218323,197.494400 
	C578.626038,197.293762 581.885315,197.145401 585.028198,197.002335 
	C585.028198,194.279099 585.028198,192.051697 585.028198,189.254150 
	C581.390747,189.254150 578.149414,189.254150 574.885620,189.254150 
	C574.885620,183.585114 574.885620,178.504761 574.885620,172.885132 
	C579.412842,172.885132 583.650146,172.885132 588.043213,172.885132 
	C588.043213,170.080902 588.043213,167.827225 588.043213,165.371338 
	C579.943115,165.371338 572.164062,165.371338 564.139526,165.371338 
	C564.139526,184.884888 564.139526,204.233551 564.139526,223.638611 
	C572.338013,223.638611 580.114807,223.638611 588.220947,223.638611 
	C588.220947,221.183929 588.220947,218.956787 588.220947,216.185242 
	C584.137878,216.185242 580.348999,216.185242 575.585876,216.041885 
M448.840973,311.948914 
	C447.702179,311.151489 445.625031,310.406067 445.577454,309.548126 
	C445.276428,304.116425 445.424622,298.659821 445.424622,292.702179 
	C449.268372,292.702179 452.524323,292.702179 455.912231,292.702179 
	C455.912231,289.953339 455.912231,287.733063 455.912231,284.991241 
	C452.326508,284.991241 449.092346,284.991241 445.816956,284.991241 
	C445.816956,279.259247 445.816956,274.061676 445.816956,268.249756 
	C450.458618,268.249756 454.678009,268.249756 458.924255,268.249756 
	C458.924255,265.537842 458.924255,263.457184 458.924255,261.284241 
	C450.749725,261.284241 442.877197,261.284241 435.008698,261.284241 
	C435.008698,280.720245 435.008698,299.769745 435.008698,318.957581 
	C443.223724,318.957581 451.090088,318.957581 459.000580,318.957581 
	C459.000580,316.500458 459.000580,314.438141 459.000580,311.951477 
	C455.694092,311.951477 452.732269,311.951477 448.840973,311.948914 
M329.756104,74.581955 
	C329.756104,92.313148 329.756104,110.044342 329.756104,127.789932 
	C338.309540,127.789932 346.161407,127.789932 353.811218,127.789932 
	C353.811218,125.266129 353.811218,123.212242 353.811218,120.645844 
	C349.158142,120.645844 344.923065,120.645844 340.717224,120.645844 
	C340.717224,114.085243 340.717224,108.060089 340.717224,101.468155 
	C344.384888,101.468155 347.613586,101.468155 350.950745,101.468155 
	C350.950745,98.779137 350.950745,96.678551 350.950745,94.298172 
	C347.357880,94.112213 343.979797,93.937363 340.728516,93.769081 
	C340.728516,88.029541 340.728516,82.824501 340.728516,77.055695 
	C345.406342,77.055695 349.633759,77.055695 353.844177,77.055695 
	C353.844177,74.385963 353.844177,72.303345 353.844177,69.737419 
	C346.433990,69.737419 339.316986,69.604889 332.218597,69.907936 
	C331.347565,69.945122 330.576050,72.312920 329.756104,74.581955 
M532.236267,172.220917 
	C535.370056,172.775497 538.503845,173.330063 542.052612,173.958069 
	C542.052612,190.539581 542.052612,206.953033 542.052612,223.540573 
	C545.740967,223.540573 548.963989,223.540573 552.837646,223.540573 
	C552.837646,206.700821 552.837646,190.167664 552.837646,173.426605 
	C556.219177,173.264679 558.962097,173.133331 561.808960,172.996994 
	C561.808960,170.272903 561.808960,168.017502 561.808960,165.536346 
	C551.844055,165.536346 542.135864,165.536346 532.095642,165.536346 
	C532.095642,167.707336 532.095642,169.516312 532.236267,172.220917 
M302.257111,86.503601 
	C302.257111,100.270340 302.257111,114.037071 302.257111,127.986176 
	C310.820007,127.986176 318.737122,127.986176 326.768860,127.986176 
	C326.768860,125.598274 326.768860,123.504425 326.768860,120.757378 
	C322.140808,120.757378 317.748047,120.757378 313.011108,120.757378 
	C313.011108,103.477638 313.011108,86.851700 313.011108,70.099915 
	C309.264557,70.099915 305.897736,70.099915 302.257172,70.099915 
	C302.257172,75.527328 302.257172,80.516800 302.257111,86.503601 
M285.738464,88.501205 
	C285.738464,82.395691 285.738464,76.290176 285.738464,69.937408 
	C281.879303,69.937408 278.620453,69.937408 275.300171,69.937408 
	C275.300171,89.439789 275.300171,108.662682 275.300171,127.930008 
	C283.534271,127.930008 291.449097,127.930008 299.415710,127.930008 
	C299.415710,125.502220 299.415710,123.421959 299.415710,120.830353 
	C294.849762,120.830353 290.589783,120.830353 285.738373,120.830353 
	C285.738373,110.050522 285.738373,99.775665 285.738464,88.501205 
M407.199158,288.499939 
	C407.199158,298.610809 407.199158,308.721649 407.199158,318.962677 
	C415.772766,318.962677 423.790314,318.962677 431.721619,318.962677 
	C431.721619,316.460236 431.721619,314.390442 431.721619,311.834900 
	C427.112579,311.834900 422.853394,311.834900 417.978333,311.834900 
	C417.978333,294.642731 417.978333,277.932953 417.978333,261.253540 
	C414.099182,261.253540 410.864197,261.253540 407.199188,261.253540 
	C407.199188,270.241333 407.199188,278.870636 407.199158,288.499939 
M258.399323,96.499840 
	C258.399323,106.928810 258.399323,117.357780 258.399323,127.958717 
	C262.258911,127.958717 265.491486,127.958717 268.660889,127.958717 
	C268.660889,108.429764 268.660889,89.223488 268.660889,70.105629 
	C265.080658,70.105629 261.870636,70.105629 258.399475,70.105629 
	C258.399475,78.870430 258.399475,87.185127 258.399323,96.499840 
M579.835510,145.852158 
	C578.870850,146.527222 577.362915,147.005997 577.035828,147.911453 
	C575.638611,151.778305 574.590210,155.771164 573.405701,159.747726 
	C579.091553,160.892776 583.845337,155.825180 586.736694,145.844650 
	C584.657959,145.844650 582.682434,145.844650 579.835510,145.852158 
z"/>
<path fill="#FFFEFC" opacity="1.000000" stroke="none" 
	d="
M338.000122,372.298035 
	C357.658936,372.298340 376.818787,372.407379 395.975708,372.218658 
	C400.493134,372.174133 402.054688,373.515259 402.050110,378.200043 
	C401.939209,491.653229 401.936584,605.106567 402.058014,718.559753 
	C402.063110,723.326111 400.429626,724.462097 395.970306,724.440735 
	C364.317413,724.288696 332.662903,724.270447 301.010345,724.455444 
	C296.213287,724.483521 295.125885,722.710388 295.129425,718.293762 
	C295.219940,605.007080 295.226105,491.720367 295.115540,378.433777 
	C295.110748,373.529694 296.790649,372.105652 301.517395,372.210052 
	C313.506439,372.474854 325.505219,372.298004 338.000122,372.298035 
M358.794922,482.749695 
	C358.794922,490.836060 358.794922,498.922424 358.794922,507.231873 
	C367.601990,507.231873 375.789886,507.231873 384.478271,507.231873 
	C384.478271,498.584747 384.580627,490.316498 384.346344,482.057831 
	C384.317627,481.047089 382.516388,479.276062 381.483429,479.236206 
	C374.852051,478.980438 368.202118,479.003021 361.568542,479.231506 
	C360.621033,479.264130 359.728943,480.905151 358.794922,482.749695 
M313.099884,500.341095 
	C313.099884,502.588135 313.099884,504.835144 313.099884,507.210083 
	C322.122070,507.210083 330.339233,507.210083 338.922821,507.210083 
	C338.922821,498.657654 338.853577,490.520111 338.961212,482.384888 
	C338.997803,479.619720 337.645111,479.033234 335.263794,479.063416 
	C329.108246,479.141602 322.949188,479.181122 316.795441,479.051117 
	C313.942932,478.990875 312.999268,480.158447 313.063995,482.903839 
	C313.193390,488.391693 313.100769,493.884827 313.099884,500.341095 
M313.194702,624.883301 
	C313.606506,625.352478 314.014252,626.226685 314.430725,626.230835 
	C322.491882,626.311646 330.554077,626.290771 338.921173,626.290771 
	C338.921173,617.486511 338.856964,609.345520 338.955719,601.206543 
	C338.990692,598.323792 337.386658,598.016418 335.123260,598.041077 
	C329.299469,598.104675 323.468231,598.224854 317.652405,598.000122 
	C314.214386,597.867310 312.915436,598.944641 313.033173,602.511108 
	C313.269135,609.659302 313.114990,616.820374 313.194702,624.883301 
M358.789764,611.504395 
	C358.789764,616.289001 358.789764,621.073608 358.789764,626.191528 
	C367.470886,626.191528 375.665314,626.191528 384.048096,626.191528 
	C384.048096,616.742615 384.048096,607.595154 384.048096,598.064209 
	C379.473938,598.064209 375.345337,598.064209 371.216705,598.064209 
	C358.789917,598.064209 358.789917,598.064209 358.789764,611.504395 
M318.687042,567.031738 
	C325.260193,567.031738 331.833313,567.031738 338.908600,567.031738 
	C338.908600,558.066223 339.028259,549.805298 338.751862,541.557678 
	C338.718628,540.565369 336.574585,538.877502 335.348358,538.820801 
	C329.221710,538.537476 323.071167,538.816711 316.936584,538.638855 
	C313.743561,538.546265 313.005096,539.962341 313.066040,542.828918 
	C313.207001,549.463501 313.299133,556.110596 313.036865,562.737793 
	C312.890106,566.446350 314.465454,567.463623 318.687042,567.031738 
M338.921753,439.426514 
	C338.921204,434.118256 338.867065,428.809204 338.945038,423.502106 
	C338.978729,421.209351 338.603699,419.669495 335.760895,419.718079 
	C329.293427,419.828674 322.815765,419.600677 316.360016,419.897491 
	C315.234680,419.949249 313.304993,421.859680 313.262299,422.970001 
	C312.981934,430.258057 313.027618,437.564423 313.216003,444.858398 
	C313.243744,445.933167 314.564819,447.869263 315.332184,447.891907 
	C323.047150,448.119415 330.771484,448.030334 338.921753,448.030334 
	C338.921753,444.979156 338.921753,442.689056 338.921753,439.426514 
M338.921600,661.705444 
	C339.298157,658.765381 338.166992,657.494751 335.051758,657.583191 
	C329.078339,657.752686 323.094055,657.737061 317.119598,657.586487 
	C314.129333,657.511108 312.988281,658.560303 313.061401,661.614563 
	C313.224335,668.419189 313.215363,675.232788 313.063904,682.037964 
	C312.997772,685.010376 313.953705,686.218262 317.048279,686.127197 
	C323.021301,685.951477 329.007141,685.949158 334.979858,686.131470 
	C338.044983,686.224976 339.053925,685.117737 338.972870,682.094788 
	C338.799347,675.622986 338.921173,669.143311 338.921600,661.705444 
M384.449982,675.480347 
	C384.450073,671.157532 384.258484,666.823608 384.509827,662.515442 
	C384.717590,658.953796 383.758667,657.347046 379.843719,657.561218 
	C374.373444,657.860535 368.862366,657.860107 363.392059,657.561096 
	C359.485291,657.347595 358.428711,658.934998 358.756195,662.503296 
	C358.998260,665.141174 358.742371,667.820984 358.816071,670.479065 
	C358.953278,675.425354 357.287201,682.492188 359.844391,684.759216 
	C362.816467,687.393982 369.517181,685.979919 374.602966,686.039917 
	C384.448730,686.156128 384.449707,686.073853 384.449982,675.480347 
M384.449982,559.446289 
	C384.449127,553.798096 384.412109,548.149536 384.465271,542.501892 
	C384.486359,540.258728 384.180206,538.621887 381.301208,538.669983 
	C374.824219,538.778503 368.342194,538.626221 361.867615,538.791321 
	C360.858795,538.817017 359.027405,539.935547 359.013214,540.580444 
	C358.821686,549.288025 358.884705,558.001282 358.884705,566.663086 
	C367.803558,566.663086 375.859314,566.663086 384.450226,566.663086 
	C384.450226,564.351807 384.450226,562.391907 384.449982,559.446289 
M362.644073,419.749420 
	C361.381073,420.443451 359.041260,421.105286 359.019379,421.836395 
	C358.763153,430.405884 358.855011,438.985779 358.855011,448.041351 
	C366.960663,448.041351 374.399719,448.099365 381.835144,447.961792 
	C382.685547,447.946075 384.235687,446.849487 384.246979,446.231842 
	C384.406403,437.520233 384.355377,428.804749 384.355377,419.747101 
	C376.870422,419.747101 370.243317,419.747101 362.644073,419.749420 
z"/>
<path fill="#FFFCFA" opacity="1.000000" stroke="none" 
	d="
M415.848206,589.000000 
	C413.232727,572.388367 419.442657,560.040527 429.723358,547.588806 
	C458.768494,512.410217 486.509155,476.154633 514.763428,440.323090 
	C515.485168,439.407928 516.056091,438.286652 516.963623,437.628998 
	C517.930725,436.928284 519.455200,436.050049 520.294678,436.378418 
	C521.186646,436.727295 521.772522,438.342438 522.098083,439.514099 
	C522.399475,440.598999 522.188965,441.828583 522.189026,442.994446 
	C522.190308,534.775024 522.191345,626.555542 522.187683,718.336121 
	C522.187439,724.942810 522.171387,724.954163 515.555359,724.955078 
	C484.573181,724.959412 453.590973,724.959412 422.608795,724.955200 
	C415.856628,724.954285 415.849762,724.943481 415.849396,717.926025 
	C415.847137,675.117371 415.848236,632.308655 415.848206,589.000000 
M441.503052,557.015198 
	C437.922455,561.606140 433.935883,565.950867 430.937012,570.894653 
	C429.493774,573.273987 429.444824,576.840393 429.798279,579.743347 
	C429.894226,580.531677 433.740631,581.275146 435.883270,581.328186 
	C443.533142,581.517761 451.195953,581.229980 458.843018,581.469116 
	C463.049652,581.600647 464.297058,579.970825 464.230011,575.904846 
	C464.026978,563.594299 464.220734,551.277588 464.078491,538.965332 
	C464.060028,537.367615 462.977142,535.782166 462.387268,534.191040 
	C460.906799,535.013611 459.032837,535.504028 458.011566,536.714111 
	C452.540253,543.197021 447.281494,549.859253 441.503052,557.015198 
M475.358093,595.023987 
	C475.317963,600.510254 475.370392,605.999268 475.203033,611.481689 
	C475.102539,614.771912 476.181580,616.395935 479.748810,616.340454 
	C488.560638,616.203369 497.376556,616.240662 506.189758,616.321838 
	C509.172974,616.349304 510.390869,615.109009 510.326630,612.142761 
	C510.218628,607.156128 510.148102,602.159241 510.349884,597.178345 
	C510.495911,593.573181 508.872742,592.614868 505.560211,592.671082 
	C497.081329,592.815063 488.597229,592.648804 480.117950,592.781677 
	C478.627106,592.805054 477.149567,593.677063 475.358093,595.023987 
M510.162750,559.761169 
	C508.995636,559.054199 507.839630,557.756104 506.659668,557.734009 
	C497.515869,557.562500 488.367188,557.676514 479.220612,557.614380 
	C476.147400,557.593506 475.168823,559.137451 475.217651,561.969788 
	C475.303558,566.957581 475.336639,571.950562 475.205566,576.936462 
	C475.119904,580.196045 476.541260,581.313416 479.702515,581.268616 
	C488.348938,581.145996 497.000275,581.119263 505.645447,581.281433 
	C509.064972,581.345581 510.477295,580.186890 510.348450,576.679993 
	C510.153259,571.364990 510.280945,566.038086 510.162750,559.761169 
M501.444275,651.247864 
	C502.442230,651.248108 503.457642,651.127625 504.435150,651.269043 
	C509.051910,651.937378 510.734894,650.010925 510.374084,645.396179 
	C510.038025,641.097961 510.179565,636.748352 510.340515,632.429871 
	C510.462799,629.149597 509.463409,627.511292 505.851562,627.575073 
	C497.039062,627.730896 488.221497,627.684082 479.407043,627.602966 
	C476.439331,627.575623 475.168182,628.803650 475.219299,631.759705 
	C475.302673,636.581604 475.421753,641.415344 475.179596,646.226685 
	C474.976959,650.253296 476.695496,651.434753 480.499023,651.308838 
	C487.144745,651.088867 493.803009,651.247742 501.444275,651.247864 
M475.235718,674.500244 
	C475.235809,676.662964 475.377350,678.837097 475.204742,680.985962 
	C474.902954,684.742798 476.234497,686.469116 480.264832,686.376160 
	C488.744873,686.180481 497.234161,686.221069 505.716400,686.360413 
	C509.196106,686.417542 510.469421,685.024597 510.344666,681.613953 
	C510.168427,676.795837 510.157288,671.960938 510.345856,667.143738 
	C510.484772,663.595276 508.908539,662.464233 505.578125,662.530823 
	C499.092529,662.660522 492.602295,662.536621 486.114288,662.572510 
	C473.818176,662.640625 475.338989,661.244751 475.235718,674.500244 
M475.264008,543.029541 
	C476.602997,544.113892 477.913635,546.093872 479.285583,546.137329 
	C488.261230,546.421570 497.250824,546.225586 506.234375,546.323059 
	C509.268219,546.355896 510.390747,545.057800 510.327484,542.124023 
	C510.219910,537.134949 510.195374,532.138855 510.337097,527.151428 
	C510.426056,524.020325 509.344208,522.608215 506.033722,522.657593 
	C497.217468,522.789001 488.396759,522.786194 479.580353,522.659668 
	C476.302917,522.612671 475.130341,523.988464 475.207062,527.131470 
	C475.328766,532.119995 475.241150,537.113525 475.264008,543.029541 
M464.059479,677.418335 
	C464.058563,673.923035 463.953064,670.423706 464.089264,666.933777 
	C464.201447,664.059631 463.216461,662.545776 460.143219,662.564392 
	C451.155731,662.618835 442.167450,662.617249 433.179962,662.562927 
	C430.260010,662.545288 428.936859,663.753723 429.000946,666.747314 
	C429.107758,671.738281 429.165283,676.738342 428.979858,681.724792 
	C428.848022,685.270447 430.430328,686.402710 433.755280,686.351624 
	C441.243347,686.236389 448.734497,686.323975 456.224396,686.320007 
	C464.054962,686.315857 464.054962,686.311279 464.059479,677.418335 
M443.510559,592.717041 
	C440.184845,592.718628 436.854767,592.827026 433.534729,592.690430 
	C430.460876,592.564087 428.875397,593.560547 428.985687,596.932617 
	C429.148682,601.915771 429.131500,606.911255 428.991241,611.895813 
	C428.900787,615.110779 430.212189,616.364624 433.412079,616.325806 
	C442.223877,616.218689 451.038177,616.244141 459.850708,616.313904 
	C462.706268,616.336487 464.171051,615.377869 464.090729,612.275513 
	C463.957306,607.124084 463.957214,601.964233 464.093170,596.812927 
	C464.172699,593.799622 462.945129,592.624695 459.969879,592.691101 
	C454.817657,592.806152 449.660950,592.719238 443.510559,592.717041 
M440.531494,627.625549 
	C438.701965,627.625488 436.854553,627.789612 435.046417,627.592896 
	C430.626221,627.112061 428.547516,628.584778 428.945801,633.405579 
	C429.314301,637.865906 429.129547,642.383728 428.990387,646.870117 
	C428.890839,650.078308 430.186005,651.328857 433.407776,651.284302 
	C442.221161,651.162476 451.038574,651.157776 459.851807,651.285339 
	C463.187714,651.333618 464.197418,649.868103 464.097687,646.755493 
	C463.943298,641.937073 463.904663,637.103638 464.108704,632.288940 
	C464.255402,628.827637 462.932892,627.495056 459.485626,627.584473 
	C453.502075,627.739624 447.511566,627.626221 440.531494,627.625549 
M510.302277,499.464630 
	C510.300323,492.491241 510.403900,485.514862 510.208313,478.546906 
	C510.168732,477.136261 508.998596,475.757294 508.349670,474.363770 
	C507.100861,474.979553 505.466827,475.279480 504.662842,476.260010 
	C496.664276,486.014648 488.724884,495.820709 480.947815,505.752441 
	C478.464050,508.924347 479.588745,510.957336 483.697510,511.068268 
	C489.006775,511.211609 494.323059,511.147614 499.635712,511.103088 
	C511.181366,511.006409 510.277496,512.695068 510.302277,499.464630 
z"/>
<path fill="#FFFDFA" opacity="1.000000" stroke="none" 
	d="
M641.961548,616.161011 
	C642.562744,618.031372 643.006348,619.642517 643.008362,621.254150 
	C643.048950,653.908142 642.938477,686.562744 643.146057,719.215515 
	C643.177551,724.173035 641.519043,725.377014 636.840759,725.352783 
	C604.687378,725.185974 572.532349,725.184814 540.379028,725.354492 
	C535.668640,725.379333 534.031921,724.104370 534.061523,719.181213 
	C534.257507,686.528320 534.204468,653.873657 534.106995,621.219910 
	C534.095764,617.452942 534.721191,615.313660 539.207031,615.330139 
	C572.360413,615.451843 605.514404,615.395386 638.668213,615.423157 
	C639.645020,615.423950 640.621582,615.735291 641.961548,616.161011 
M583.803955,636.618286 
	C583.799866,627.881958 583.799866,627.881836 575.210632,627.881653 
	C568.069336,627.881531 560.913330,628.160950 553.791687,627.786499 
	C548.832092,627.525757 547.310425,629.438721 547.695801,634.111877 
	C548.008606,637.905823 548.051025,641.774353 547.686523,645.559021 
	C547.202820,650.582764 549.438416,651.882629 554.046265,651.710327 
	C561.343384,651.437500 568.658325,651.641235 575.965698,651.637390 
	C583.802856,651.633240 583.802917,651.630249 583.804077,643.554321 
	C583.804321,641.561401 583.803955,639.568481 583.803955,636.618286 
M631.031921,647.111206 
	C631.032410,642.293335 630.919067,637.471863 631.072754,632.658936 
	C631.178162,629.356628 630.116089,627.776245 626.536194,627.836731 
	C617.567627,627.988342 608.593323,627.976807 599.624329,627.839050 
	C596.129089,627.785461 594.885742,629.241943 594.990234,632.606628 
	C595.139832,637.419800 595.111572,642.243103 594.998901,647.058289 
	C594.925903,650.178711 596.160461,651.665100 599.369019,651.643860 
	C608.505920,651.583313 617.648865,651.779175 626.775024,651.460571 
	C628.228638,651.409790 629.607727,649.223328 631.031921,647.111206 
M618.475586,686.324463 
	C620.972168,686.322144 623.481384,686.159668 625.962524,686.354065 
	C629.937256,686.665649 631.282227,684.922852 631.080383,681.068970 
	C630.836975,676.421326 630.912231,671.747925 631.057251,667.092102 
	C631.158386,663.843201 629.779785,662.658752 626.603088,662.696228 
	C617.616577,662.802368 608.626648,662.820984 599.640869,662.684998 
	C596.147095,662.632141 594.892334,664.079407 595.000732,667.457703 
	C595.155396,672.279480 595.128784,677.112122 595.009216,681.935913 
	C594.929138,685.167847 596.353699,686.402039 599.508911,686.345459 
	C605.498779,686.238159 611.492065,686.320862 618.475586,686.324463 
M580.141846,686.300537 
	C581.357117,684.892273 583.485168,683.565979 583.620239,682.060669 
	C584.065125,677.105530 583.712158,672.083984 583.815796,667.091064 
	C583.882812,663.865051 582.429443,662.661011 579.284119,662.693909 
	C570.294006,662.787964 561.300720,662.825073 552.312012,662.678528 
	C548.764221,662.620667 547.616394,664.135864 547.731995,667.480957 
	C547.892944,672.137451 547.936096,676.811157 547.721985,681.463318 
	C547.549316,685.213501 549.128967,686.434631 552.728699,686.372192 
	C561.550659,686.219238 570.377075,686.320801 580.141846,686.300537 
z"/>
<path fill="#FFFFFE" opacity="1.000000" stroke="none" 
	d="
M281.000702,670.000000 
	C280.999786,686.487793 280.883850,702.476929 281.074341,718.462463 
	C281.125488,722.757019 279.826324,724.386047 275.381042,724.274719 
	C265.090454,724.016846 254.789032,724.192688 243.739365,724.192688 
	C243.739365,722.039307 243.739441,720.282471 243.739365,718.525635 
	C243.738647,704.203247 243.645477,689.879822 243.796371,675.559021 
	C243.838867,671.527649 242.565002,669.873291 238.330017,669.995667 
	C229.677185,670.245667 221.008484,670.216980 212.353607,670.005127 
	C208.371567,669.907654 207.096680,671.489746 207.129532,675.299988 
	C207.253006,689.621277 207.177673,703.944397 207.176849,718.266785 
	C207.176743,720.051147 207.176819,721.835449 207.176819,724.150513 
	C195.700226,724.150513 184.759003,724.241882 173.820892,724.097778 
	C170.297760,724.051331 170.937714,721.057617 170.935104,718.828125 
	C170.907150,695.012939 170.884399,671.197754 170.931717,647.382629 
	C170.954926,635.704895 169.516159,636.965576 181.267548,636.952271 
	C212.243851,636.917175 243.220245,636.937622 274.196594,636.943604 
	C280.970032,636.944885 280.984436,636.959717 280.995758,643.519897 
	C281.010681,652.179932 281.000244,660.839966 281.000702,670.000000 
z"/>
<path fill="#FFFDFB" opacity="1.000000" stroke="none" 
	d="
M69.319962,180.999847 
	C69.320015,154.073151 69.320015,127.646446 69.320015,100.639938 
	C61.822651,103.265907 54.987583,105.659912 47.334595,108.340393 
	C47.334595,101.322411 47.238976,94.916962 47.436493,88.520569 
	C47.466518,87.548248 48.668896,86.307022 49.646862,85.716988 
	C58.022373,80.663811 66.463028,75.718147 74.910980,70.786209 
	C75.726929,70.309860 76.721077,69.885033 77.637390,69.874817 
	C84.453880,69.798775 91.271599,69.833542 98.488647,69.833542 
	C98.488647,120.807137 98.488647,171.485672 98.488647,222.528854 
	C89.100304,222.528854 79.690651,222.528854 69.319916,222.528854 
	C69.319916,208.939407 69.319916,195.219635 69.319962,180.999847 
z"/>
<path fill="#FFFEFD" opacity="1.000000" stroke="none" 
	d="
M132.000732,101.085098 
	C125.434814,103.402428 118.868896,105.719757 111.367844,108.367126 
	C111.367844,101.290497 111.268600,94.741066 111.481903,88.201828 
	C111.511642,87.290291 112.938095,86.194099 113.957268,85.581444 
	C122.200340,80.626190 130.497604,75.760956 138.789047,70.886497 
	C139.480591,70.479942 140.247803,69.923706 140.984802,69.916115 
	C148.102051,69.842789 155.220367,69.872131 162.614960,69.872131 
	C162.614960,120.946213 162.614960,171.515427 162.614960,222.485931 
	C153.186081,222.485931 143.783829,222.485931 133.444595,222.485931 
	C133.444595,183.075165 133.444595,143.518814 133.424133,103.131271 
	C132.936020,101.895096 132.468369,101.490097 132.000732,101.085098 
z"/>
<path fill="#FFFDFB" opacity="1.000000" stroke="none" 
	d="
M196.999908,627.616394 
	C189.677734,627.613892 182.853012,627.708679 176.035400,627.531128 
	C174.585510,627.493286 172.719070,626.810059 171.895370,625.757996 
	C171.419464,625.150085 172.337067,622.977295 173.149765,621.904419 
	C189.522141,600.289734 206.005859,578.759338 222.368530,557.137329 
	C225.076889,553.558411 227.048264,553.850952 229.650986,557.242126 
	C246.059189,578.620972 262.592133,599.904053 278.995544,621.286560 
	C279.992859,622.586609 280.232819,624.467712 280.825134,626.078430 
	C279.174042,626.590637 277.524536,627.543274 275.871613,627.549194 
	C249.747971,627.643433 223.623886,627.615967 196.999908,627.616394 
z"/>
<path fill="#FFFEFD" opacity="1.000000" stroke="none" 
	d="
M549.010620,607.103882 
	C534.172302,607.103882 534.121704,607.103638 534.187439,592.790588 
	C534.245361,580.187073 532.716858,582.041504 545.088196,582.010376 
	C575.713135,581.933289 606.339050,582.092407 636.962646,581.876526 
	C641.884277,581.841919 643.398254,583.379761 643.019287,588.118042 
	C642.648926,592.748718 642.695007,597.448914 643.012207,602.087524 
	C643.287537,606.113403 641.801880,607.212646 637.887573,607.181641 
	C617.083740,607.016541 596.278015,607.103882 575.472900,607.103821 
	C566.817993,607.103760 558.163025,607.103882 549.010620,607.103882 
z"/>
<path fill="#FFFBF7" opacity="1.000000" stroke="none" 
	d="
M448.316589,127.945282 
	C444.946136,128.120178 441.977783,128.120178 438.371643,128.120178 
	C438.371643,111.347000 438.371643,94.826454 438.371643,77.834885 
	C430.654022,77.834885 423.567383,77.834885 416.047913,77.834885 
	C416.047913,82.879700 416.047913,88.103447 416.047913,93.809006 
	C419.254303,93.809006 422.512512,93.809006 426.129883,93.809006 
	C426.129883,96.512108 426.129883,98.747299 426.129883,101.461235 
	C422.810211,101.613602 419.575012,101.762093 415.987610,101.926750 
	C415.987610,108.164970 415.987610,114.210938 415.987610,120.768585 
	C420.399994,120.768585 424.657806,120.768585 429.252777,120.768585 
	C429.252777,123.354698 429.252777,125.438797 429.252777,127.899307 
	C421.365143,127.899307 413.465576,127.899307 405.177917,127.899307 
	C405.177917,108.723412 405.177917,89.528358 405.177917,69.968506 
	C422.762909,69.968506 440.320770,69.968506 458.287415,69.968506 
	C458.287415,72.395523 458.287415,74.749481 458.287415,77.440720 
	C455.385620,77.613304 452.616333,77.778015 449.143982,77.984535 
	C449.143982,80.028183 449.159607,81.960022 449.141510,83.891541 
	C449.004303,98.517860 448.860474,113.144119 448.316589,127.945282 
z"/>
<path fill="#FFFAF5" opacity="1.000000" stroke="none" 
	d="
M325.111145,203.254120 
	C323.926422,209.048431 322.777771,214.420822 321.710938,219.809418 
	C321.231140,222.232819 320.752136,224.066437 317.419586,223.987015 
	C314.297241,223.912598 314.025818,222.174850 313.568848,219.958084 
	C311.754089,211.154968 309.869263,202.366196 307.980499,193.578537 
	C307.646362,192.023956 307.169556,190.500031 305.653290,189.062454 
	C305.653290,200.457687 305.653290,211.852921 305.653290,223.549805 
	C302.546844,223.549805 300.155182,223.549805 297.826782,223.549805 
	C297.826782,204.195251 297.826782,184.993317 297.826782,165.953644 
	C298.986664,165.543213 299.434509,165.263840 299.895874,165.239319 
	C309.119202,164.749512 309.091980,164.761032 310.931915,173.818237 
	C312.947968,183.742340 315.021576,193.654739 317.938782,203.588379 
	C320.661163,190.943237 323.383545,178.298096 326.151428,165.441803 
	C329.647278,165.441803 332.914825,165.441803 337.077271,165.441803 
	C337.077271,184.696945 337.077271,203.895416 337.077271,223.483032 
	C335.207458,223.483032 332.817291,223.483032 329.601257,223.483032 
	C329.601257,212.007065 329.601257,200.582809 329.601257,189.158569 
	C329.139038,189.115509 328.676788,189.072464 328.214569,189.029404 
	C327.203217,193.632538 326.191895,198.235657 325.111145,203.254120 
z"/>
<path fill="#FFFBF7" opacity="1.000000" stroke="none" 
	d="
M375.849182,210.006805 
	C375.842773,202.944580 375.842773,196.376938 375.842773,189.809296 
	C375.334686,189.777710 374.826599,189.746124 374.318481,189.714554 
	C372.230896,199.575729 370.108826,209.429825 368.079559,219.303024 
	C367.561218,221.824814 367.399872,224.044617 363.713562,223.974899 
	C360.194336,223.908325 360.262878,221.679321 359.786591,219.423737 
	C357.596436,209.051865 355.372711,198.687103 352.039917,188.387283 
	C352.039917,199.980515 352.039917,211.573730 352.039917,223.505005 
	C348.918488,223.505005 346.509796,223.505005 344.033264,223.505005 
	C344.033264,204.309921 344.033264,185.106720 344.033264,166.338333 
	C344.964325,165.718277 345.219116,165.407059 345.498688,165.382904 
	C355.251190,164.540588 355.241974,164.546402 357.220642,174.083435 
	C359.240570,183.819260 361.281891,193.550644 364.179199,203.397263 
	C364.936859,200.087250 365.731995,196.785294 366.444550,193.465591 
	C368.085266,185.821609 369.960938,178.213074 371.195648,170.502777 
	C371.896271,166.127777 373.757507,164.472870 378.038879,165.137894 
	C379.479584,165.361679 380.984283,165.173294 383.304382,165.173294 
	C383.304382,184.736771 383.304382,203.930496 383.304382,223.494934 
	C381.397949,223.494934 379.024872,223.494934 375.855621,223.494934 
	C375.855621,219.057022 375.855621,214.779190 375.849182,210.006805 
z"/>
<path fill="#FFFBF7" opacity="1.000000" stroke="none" 
	d="
M314.762085,260.908447 
	C321.495819,261.407318 327.550232,262.836395 329.482330,269.693176 
	C331.463196,276.723236 331.807373,283.817230 325.615265,289.585297 
	C324.659424,290.475677 324.323334,292.795013 324.680542,294.205292 
	C326.748505,302.370148 329.110199,310.460602 331.601227,319.396790 
	C328.731903,319.396790 326.625000,319.239594 324.551361,319.435120 
	C321.722137,319.701965 320.428680,318.679260 319.784241,315.800781 
	C318.295563,309.151459 316.352142,302.605316 314.707123,295.988983 
	C313.992950,293.116608 312.592865,292.033142 309.325195,293.595612 
	C309.325195,301.857147 309.325195,310.276764 309.325195,319.042847 
	C305.655884,319.042847 302.430634,319.042847 298.800659,319.042847 
	C298.800659,299.812317 298.800659,280.631165 298.800659,260.891388 
	C304.071960,260.891388 309.184021,260.891388 314.762085,260.908447 
M320.188354,279.130463 
	C320.395264,269.577209 317.547729,266.873413 309.473145,269.121521 
	C309.473145,274.489319 309.473145,279.892578 309.473145,285.247681 
	C316.029236,286.324921 318.097870,285.261169 320.188354,279.130463 
z"/>
<path fill="#FFFCF8" opacity="1.000000" stroke="none" 
	d="
M400.294373,283.053162 
	C398.679260,284.904785 397.242126,286.412781 395.572968,288.164276 
	C404.021240,292.288940 404.025482,299.774689 402.974274,307.440460 
	C402.085602,313.921021 397.544189,318.176270 391.037689,319.047913 
	C388.576721,319.377594 386.060150,319.346863 383.567719,319.374664 
	C379.267242,319.422668 374.965790,319.387970 370.358704,319.387970 
	C370.358704,299.864655 370.358704,280.811798 370.358704,260.461609 
	C378.053284,260.999207 385.849091,260.849243 393.342926,262.280548 
	C399.687866,263.492432 402.432800,269.538910 401.692780,277.385498 
	C401.523285,279.182587 400.891418,280.936066 400.294373,283.053162 
M390.601807,310.143677 
	C394.273285,305.518860 394.047546,300.376099 391.500305,295.634827 
	C389.397491,291.720795 385.244781,292.061523 381.294647,292.519745 
	C381.294647,299.136078 381.294647,305.356964 381.294647,312.294617 
	C384.512512,311.674408 387.228912,311.150848 390.601807,310.143677 
M381.150604,283.794586 
	C384.341675,283.301208 389.237701,283.853027 390.329132,282.072571 
	C392.018738,279.316376 392.377625,274.300354 390.904694,271.505249 
	C389.720306,269.257629 384.985535,268.880890 380.949768,267.339264 
	C380.949768,273.675629 380.949768,278.304169 381.150604,283.794586 
z"/>
<path fill="#FFFCF8" opacity="1.000000" stroke="none" 
	d="
M258.623718,199.867615 
	C258.715424,192.731705 258.534668,186.060913 258.962128,179.429337 
	C259.605286,169.450607 265.062683,164.698730 275.323669,164.596771 
	C285.642487,164.494263 291.490051,169.034912 292.053284,178.990982 
	C292.643921,189.431488 292.625824,199.960175 292.009827,210.399338 
	C291.448425,219.912796 285.341187,224.675629 275.513611,224.651245 
	C265.669891,224.626816 260.043976,219.821426 259.012604,210.318481 
	C258.654694,207.020523 258.740417,203.674423 258.623718,199.867615 
M277.719513,216.141342 
	C278.945709,214.163437 281.161621,212.220001 281.231934,210.201813 
	C281.595734,199.760376 281.489868,189.298935 281.375610,178.846375 
	C281.334015,175.041077 279.575012,172.518890 275.263580,172.669250 
	C271.142944,172.812958 269.826050,175.454651 269.797394,178.967438 
	C269.713409,189.259171 269.710144,199.552399 269.786499,209.844223 
	C269.821014,214.494614 272.017548,217.024612 277.719513,216.141342 
z"/>
<path fill="#FFFCF8" opacity="1.000000" stroke="none" 
	d="
M436.828857,200.140045 
	C436.828766,208.094635 436.828766,215.570908 436.828766,223.447815 
	C433.744171,223.447815 431.011017,223.447815 427.900818,223.447815 
	C427.900818,204.285721 427.900818,185.049789 427.900818,165.752975 
	C432.746826,164.090851 435.510284,165.351578 437.382599,170.384506 
	C440.505859,178.780121 444.414886,186.883438 448.942749,195.037933 
	C448.942749,185.283340 448.942749,175.528732 448.942749,165.485168 
	C452.232086,165.485168 454.813080,165.485168 457.793671,165.485168 
	C457.793671,184.792404 457.793671,204.004883 457.793671,223.276672 
	C453.128204,224.941544 450.567200,223.546997 448.817566,218.790512 
	C445.558655,209.930908 441.652283,201.309464 436.828979,192.664169 
	C436.828979,194.996689 436.828979,197.329208 436.828857,200.140045 
z"/>
<path fill="#FFFBF7" opacity="1.000000" stroke="none" 
	d="
M517.349915,224.402496 
	C504.197968,225.179169 498.400940,220.273697 498.102020,207.623367 
	C497.772614,193.682587 498.026917,179.728012 498.026917,165.479065 
	C501.551331,165.479065 504.640350,165.479065 508.356262,165.479065 
	C508.356262,172.341766 508.327179,179.135010 508.364044,185.927917 
	C508.404724,193.421967 508.391968,200.919281 508.628632,208.408035 
	C508.747681,212.173645 509.364288,216.196915 514.351746,216.267899 
	C519.708374,216.344147 520.252808,212.098557 520.305908,208.173203 
	C520.474731,195.682129 520.417480,183.188080 520.468689,170.695251 
	C520.475403,169.057968 520.605286,167.421188 520.691162,165.490295 
	C524.062195,165.490295 527.132874,165.490295 530.686157,165.490295 
	C530.778015,167.149872 530.940796,168.747818 530.943054,170.345993 
	C530.960205,182.506897 531.055786,194.669174 530.909241,206.828384 
	C530.776062,217.876801 527.043518,222.674606 517.349915,224.402496 
z"/>
<path fill="#FFFBF7" opacity="1.000000" stroke="none" 
	d="
M399.920654,207.608673 
	C400.138123,209.379013 399.885803,211.075333 400.617157,211.924820 
	C402.090942,213.636719 404.094238,216.002899 405.890045,216.012329 
	C407.651703,216.021591 410.101624,213.772156 411.016998,211.908569 
	C412.044983,209.815857 411.888855,207.046265 411.906189,204.568756 
	C411.984375,193.410828 411.941437,182.252060 411.942139,171.093582 
	C411.942261,169.308685 411.942169,167.523788 411.942169,165.458954 
	C415.570374,165.458954 418.651306,165.458954 422.331238,165.458954 
	C422.331238,169.411560 422.350952,173.205048 422.327515,176.998276 
	C422.260651,187.821533 422.484772,198.658218 422.009949,209.463943 
	C421.556763,219.778076 416.147034,224.572769 406.033936,224.655945 
	C396.004578,224.738419 390.296326,220.333923 389.877655,210.291748 
	C389.262207,195.530685 389.719025,180.724930 389.719025,165.556656 
	C392.853394,165.556656 395.925385,165.556656 399.895844,165.556656 
	C399.895844,179.348007 399.895844,193.249756 399.920654,207.608673 
z"/>
<path fill="#FFFDFB" opacity="1.000000" stroke="none" 
	d="
M255.958038,293.982544 
	C255.707474,298.955627 255.874924,303.505310 255.108826,307.891968 
	C253.947754,314.539978 249.965057,318.359985 243.321579,318.898529 
	C237.061646,319.405945 230.728271,319.007385 224.089035,319.007385 
	C224.089035,299.865540 224.089035,280.786713 224.089035,260.513275 
	C231.597183,261.007080 239.249313,260.843048 246.624481,262.192657 
	C253.314941,263.416901 255.498611,269.279449 255.803741,275.501709 
	C256.097137,281.484680 255.925385,287.490417 255.958038,293.982544 
M234.586380,269.535278 
	C234.586380,283.470032 234.586380,297.404785 234.586380,311.278412 
	C242.106964,312.537140 244.788071,310.646454 244.934967,303.753357 
	C245.122787,294.939484 245.068771,286.118591 244.997498,277.301666 
	C244.936264,269.725922 243.006577,268.156494 234.586380,269.535278 
z"/>
<path fill="#FFFCF8" opacity="1.000000" stroke="none" 
	d="
M282.797607,273.013031 
	C282.797577,268.876251 282.797577,265.236572 282.797577,261.245300 
	C286.249329,261.245300 289.323029,261.245300 292.703461,261.245300 
	C292.851837,261.905029 293.174347,262.671783 293.174408,263.438568 
	C293.175568,276.768311 293.381531,290.104370 293.035645,303.425903 
	C292.717102,315.693665 287.111176,320.593536 275.004486,320.060211 
	C266.708069,319.694733 261.393921,315.796478 261.014496,307.402618 
	C260.325256,292.154999 260.818909,276.853882 260.818909,261.231262 
	C263.820648,261.231262 267.031128,261.231262 270.809021,261.231262 
	C270.809021,271.248199 270.797272,281.036346 270.814148,290.824432 
	C270.822174,295.489044 270.766388,300.158569 270.960876,304.816589 
	C271.108459,308.350220 272.105621,311.667450 276.416199,311.911957 
	C281.126221,312.179077 282.447998,308.639435 282.546753,304.992706 
	C282.830841,294.503937 282.740723,284.005035 282.797607,273.013031 
z"/>
<path fill="#FFFCF8" opacity="1.000000" stroke="none" 
	d="
M224.028442,214.643707 
	C223.723572,201.817474 222.732727,189.327408 223.597748,176.967224 
	C224.251633,167.623901 231.269577,163.778091 241.942703,164.718521 
	C250.656433,165.486298 254.902191,170.269302 255.185516,179.692154 
	C255.249268,181.812103 255.194885,183.935593 255.194885,186.354080 
	C251.585114,186.354080 248.512909,186.354080 244.802597,186.354080 
	C244.802597,183.313644 244.922485,180.523438 244.770386,177.748169 
	C244.603271,174.699173 243.089401,172.781235 239.780869,172.689255 
	C236.364777,172.594269 234.120712,174.294342 234.070129,177.587280 
	C233.896408,188.893982 233.911346,200.207687 234.124222,211.513657 
	C234.185898,214.789917 236.421158,216.552551 239.846420,216.398621 
	C243.167984,216.249313 244.544250,214.104828 244.756149,211.170059 
	C244.958939,208.361465 244.799942,205.526749 244.799942,202.282776 
	C248.155594,202.282776 251.220047,202.282776 254.367889,202.282776 
	C257.183929,211.206696 253.883911,220.602661 246.831192,223.350800 
	C237.392441,227.028656 228.262817,223.683121 224.028442,214.643707 
z"/>
<path fill="#FFFBF7" opacity="1.000000" stroke="none" 
	d="
M495.217010,221.286041 
	C494.198395,226.087769 490.752930,223.217911 488.461731,223.700439 
	C487.590424,223.883942 485.778534,222.557755 485.407227,221.547653 
	C484.615509,219.394073 484.221283,217.006195 484.143799,214.698227 
	C484.016541,210.905807 482.076843,210.331558 478.675720,210.128052 
	C474.342651,209.868774 472.665771,211.421310 472.382324,215.540314 
	C472.201538,218.167480 471.454651,220.755676 470.919159,223.585632 
	C467.613861,223.585632 464.528687,223.585632 460.816010,223.585632 
	C462.868622,213.527969 464.858398,203.803055 466.836945,194.075867 
	C468.430267,186.242493 470.334320,178.452988 471.470001,170.553391 
	C472.115509,166.063324 473.975708,164.532104 478.248108,165.135773 
	C479.870270,165.364975 481.551941,165.173019 483.902863,165.173019 
	C487.668030,183.824905 491.409271,202.358063 495.217010,221.286041 
M476.804718,189.301193 
	C476.113708,193.789963 475.422729,198.278717 474.718079,202.856186 
	C477.586212,202.856186 479.660736,202.856186 482.091949,202.856186 
	C480.947601,195.771790 479.867401,189.084381 478.787170,182.396973 
	C478.544464,182.374298 478.301758,182.351608 478.059052,182.328918 
	C477.682312,184.379761 477.305542,186.430588 476.804718,189.301193 
z"/>
<path fill="#FFFCF8" opacity="1.000000" stroke="none" 
	d="
M336.013123,301.942780 
	C338.814911,288.318848 341.544739,275.114044 344.282776,261.910919 
	C344.312958,261.765381 344.450256,261.642059 344.739685,261.198792 
	C348.119415,261.198792 351.704285,261.198792 355.716003,261.198792 
	C359.607605,280.435059 363.483734,299.594849 367.737518,320.621338 
	C363.256073,319.203644 358.919891,319.128693 357.359100,317.009552 
	C355.412872,314.367126 355.754242,310.039856 355.060699,306.177490 
	C351.807007,306.177490 348.720062,306.177490 345.184570,306.177490 
	C344.370941,310.339264 343.552307,314.526642 342.671417,319.032562 
	C339.485870,319.032562 336.412689,319.032562 332.664703,319.032562 
	C333.780334,313.357178 334.861053,307.859589 336.013123,301.942780 
M353.371490,295.708466 
	C352.440674,289.888031 351.509888,284.067596 350.579102,278.247162 
	C350.243042,278.235596 349.907013,278.223999 349.570953,278.212402 
	C348.506470,284.899902 347.441986,291.587372 346.377502,298.274872 
	C349.084412,297.465576 352.510559,301.213684 353.371490,295.708466 
z"/>
<path fill="#FFFBF7" opacity="1.000000" stroke="none" 
	d="
M478.471008,268.953461 
	C476.044037,269.378418 472.604767,269.553070 472.240204,270.702698 
	C471.487579,273.076233 471.579437,276.421906 472.783417,278.536835 
	C474.359283,281.305054 477.378296,283.238129 479.718597,285.588165 
	C482.759979,288.642181 486.146851,291.458649 488.665527,294.903412 
	C493.231201,301.147827 493.093872,309.810699 488.953796,314.966888 
	C485.013397,319.874420 477.480804,321.579651 470.672150,319.105438 
	C464.454773,316.846100 461.120422,310.969421 461.334106,302.172699 
	C464.059540,301.586243 466.889557,300.977295 469.925293,300.324066 
	C470.539917,302.972229 470.886322,305.264435 471.618683,307.425903 
	C472.623657,310.391663 474.698151,312.409973 478.021301,311.602448 
	C481.475708,310.763092 482.287109,307.761292 481.376770,304.886475 
	C480.509888,302.148926 479.037628,299.367157 477.116943,297.254517 
	C474.226166,294.074890 470.525452,291.642670 467.527466,288.545715 
	C465.376312,286.323517 463.133820,283.775757 462.125183,280.947693 
	C460.021820,275.050262 460.212646,269.078613 464.929504,264.189606 
	C468.858856,260.116913 477.016327,258.813904 482.694427,261.275635 
	C488.940521,263.983612 490.280151,269.506226 490.878265,275.919312 
	C488.008423,276.556763 485.322296,277.153442 482.737549,277.727570 
	C481.362885,274.691986 480.106842,271.918274 478.471008,268.953461 
z"/>
<path fill="#FFFBF7" opacity="1.000000" stroke="none" 
	d="
M357.401489,119.377716 
	C356.770233,116.601151 356.288330,114.182083 355.741913,111.439041 
	C357.482910,110.916000 358.843475,110.435379 360.239899,110.107681 
	C361.672638,109.771454 363.140411,109.584740 364.829010,109.291588 
	C365.538940,111.953133 365.618835,114.902191 367.054810,116.853027 
	C368.358643,118.624405 371.211426,120.273125 373.240448,120.119194 
	C374.497559,120.023827 376.622467,116.289276 376.346680,114.497917 
	C375.900299,111.598526 374.257843,108.553665 372.287781,106.297195 
	C369.465668,103.064766 365.690521,100.681480 362.709167,97.565460 
	C360.458923,95.213486 358.092072,92.533463 357.053772,89.554489 
	C354.994171,83.645210 355.135406,77.497925 360.149048,72.887733 
	C365.154724,68.284874 371.332550,67.889458 377.484375,70.123230 
	C383.944427,72.468910 385.181549,78.232117 385.938049,84.746384 
	C383.008026,85.392685 380.196320,86.012894 377.136993,86.687721 
	C376.693176,84.658798 376.387482,83.052734 375.986053,81.470955 
	C375.231506,78.497406 373.195068,76.233276 370.316559,77.492584 
	C368.439545,78.313766 366.404877,81.259438 366.411102,83.247200 
	C366.418335,85.532433 368.207825,88.176163 369.921265,90.012962 
	C373.088074,93.407791 377.035278,96.083069 380.139435,99.525192 
	C382.533661,102.180138 384.770477,105.321373 385.965302,108.646034 
	C388.978729,117.030678 385.563049,125.096161 378.422546,127.927361 
	C370.092804,131.230103 361.523621,127.866676 357.401489,119.377716 
z"/>
<path fill="#FFFBF7" opacity="1.000000" stroke="none" 
	d="
M617.295654,220.255371 
	C611.367676,225.571564 604.871765,225.782516 598.409424,222.877319 
	C591.759521,219.887802 590.570862,213.582016 590.009827,206.648895 
	C593.130493,206.010086 595.981934,205.426392 598.934326,204.822037 
	C599.726440,207.768738 599.840393,210.704391 601.263916,212.710831 
	C602.449707,214.382095 605.462158,216.113159 607.130676,215.693085 
	C608.702209,215.297440 610.744873,211.955887 610.491821,210.213669 
	C610.070496,207.312271 608.446289,204.248764 606.482605,201.988586 
	C603.671814,198.753387 599.811462,196.438766 596.939758,193.245102 
	C594.455627,190.482498 591.959961,187.292725 590.832336,183.845886 
	C588.927795,178.024109 589.686340,172.071289 594.832336,167.934113 
	C600.081970,163.713593 606.285095,163.455063 612.291870,166.013931 
	C618.324036,168.583588 619.334229,174.263077 620.070129,180.515854 
	C617.058655,181.093750 614.350403,181.613449 611.252930,182.207840 
	C610.786865,180.209381 610.867615,178.096420 609.865967,176.861328 
	C608.508972,175.188217 606.389648,173.247345 604.476257,173.110229 
	C601.253723,172.879288 599.700256,175.797226 600.357117,178.614136 
	C600.958069,181.190857 602.430481,183.851486 604.245544,185.797348 
	C607.862976,189.675522 612.281616,192.816437 615.823181,196.753128 
	C622.327637,203.983246 622.761047,212.484116 617.295654,220.255371 
z"/>
<path fill="#FFFBF7" opacity="1.000000" stroke="none" 
	d="
M244.651474,121.668243 
	C243.306091,128.255295 240.941422,129.786560 234.618835,128.141800 
	C233.660263,127.892448 232.502472,126.560684 232.293549,125.552132 
	C228.490906,107.194374 224.819504,88.809425 221.104324,70.351509 
	C221.795944,70.079453 222.217255,69.787231 222.654846,69.760361 
	C230.605621,69.272224 230.563004,69.286919 232.000946,77.121674 
	C233.620834,85.947586 235.314117,94.760162 237.016922,103.570526 
	C237.220825,104.625549 237.683884,105.630478 238.479202,108.014977 
	C240.942932,94.420959 243.148148,82.253380 245.385666,69.907471 
	C248.639038,69.907471 251.587219,69.907471 255.142822,69.907471 
	C251.647339,87.172775 248.196533,104.217346 244.651474,121.668243 
z"/>
<path fill="#FFFAF5" opacity="1.000000" stroke="none" 
	d="
M576.072998,216.113556 
	C580.348999,216.185242 584.137878,216.185242 588.220947,216.185242 
	C588.220947,218.956787 588.220947,221.183929 588.220947,223.638611 
	C580.114807,223.638611 572.338013,223.638611 564.139526,223.638611 
	C564.139526,204.233551 564.139526,184.884888 564.139526,165.371338 
	C572.164062,165.371338 579.943115,165.371338 588.043213,165.371338 
	C588.043213,167.827225 588.043213,170.080902 588.043213,172.885132 
	C583.650146,172.885132 579.412842,172.885132 574.885620,172.885132 
	C574.885620,178.504761 574.885620,183.585114 574.885620,189.254150 
	C578.149414,189.254150 581.390747,189.254150 585.028198,189.254150 
	C585.028198,192.051697 585.028198,194.279099 585.028198,197.002335 
	C581.885315,197.145401 578.626038,197.293762 574.218323,197.494400 
	C574.682495,203.789642 575.134155,209.915756 576.072998,216.113556 
z"/>
<path fill="#FFFEFC" opacity="1.000000" stroke="none" 
	d="
M449.305725,311.950195 
	C452.732269,311.951477 455.694092,311.951477 459.000580,311.951477 
	C459.000580,314.438141 459.000580,316.500458 459.000580,318.957581 
	C451.090088,318.957581 443.223724,318.957581 435.008698,318.957581 
	C435.008698,299.769745 435.008698,280.720245 435.008698,261.284241 
	C442.877197,261.284241 450.749725,261.284241 458.924255,261.284241 
	C458.924255,263.457184 458.924255,265.537842 458.924255,268.249756 
	C454.678009,268.249756 450.458618,268.249756 445.816956,268.249756 
	C445.816956,274.061676 445.816956,279.259247 445.816956,284.991241 
	C449.092346,284.991241 452.326508,284.991241 455.912231,284.991241 
	C455.912231,287.733063 455.912231,289.953339 455.912231,292.702179 
	C452.524323,292.702179 449.268372,292.702179 445.424622,292.702179 
	C445.424622,298.659821 445.276428,304.116425 445.577454,309.548126 
	C445.625031,310.406067 447.702179,311.151489 449.305725,311.950195 
z"/>
<path fill="#FFFEFD" opacity="1.000000" stroke="none" 
	d="
M329.757263,74.091316 
	C330.576050,72.312920 331.347565,69.945122 332.218597,69.907936 
	C339.316986,69.604889 346.433990,69.737419 353.844177,69.737419 
	C353.844177,72.303345 353.844177,74.385963 353.844177,77.055695 
	C349.633759,77.055695 345.406342,77.055695 340.728516,77.055695 
	C340.728516,82.824501 340.728516,88.029541 340.728516,93.769081 
	C343.979797,93.937363 347.357880,94.112213 350.950745,94.298172 
	C350.950745,96.678551 350.950745,98.779137 350.950745,101.468155 
	C347.613586,101.468155 344.384888,101.468155 340.717224,101.468155 
	C340.717224,108.060089 340.717224,114.085243 340.717224,120.645844 
	C344.923065,120.645844 349.158142,120.645844 353.811218,120.645844 
	C353.811218,123.212242 353.811218,125.266129 353.811218,127.789932 
	C346.161407,127.789932 338.309540,127.789932 329.756104,127.789932 
	C329.756104,110.044342 329.756104,92.313148 329.757263,74.091316 
z"/>
<path fill="#FFFBF7" opacity="1.000000" stroke="none" 
	d="
M532.165955,171.773102 
	C532.095642,169.516312 532.095642,167.707336 532.095642,165.536346 
	C542.135864,165.536346 551.844055,165.536346 561.808960,165.536346 
	C561.808960,168.017502 561.808960,170.272903 561.808960,172.996994 
	C558.962097,173.133331 556.219177,173.264679 552.837646,173.426605 
	C552.837646,190.167664 552.837646,206.700821 552.837646,223.540573 
	C548.963989,223.540573 545.740967,223.540573 542.052612,223.540573 
	C542.052612,206.953033 542.052612,190.539581 542.052612,173.958069 
	C538.503845,173.330063 535.370056,172.775497 532.165955,171.773102 
z"/>
<path fill="#FFFBF7" opacity="1.000000" stroke="none" 
	d="
M302.257141,86.004936 
	C302.257172,80.516800 302.257172,75.527328 302.257172,70.099915 
	C305.897736,70.099915 309.264557,70.099915 313.011108,70.099915 
	C313.011108,86.851700 313.011108,103.477638 313.011108,120.757378 
	C317.748047,120.757378 322.140808,120.757378 326.768860,120.757378 
	C326.768860,123.504425 326.768860,125.598274 326.768860,127.986176 
	C318.737122,127.986176 310.820007,127.986176 302.257111,127.986176 
	C302.257111,114.037071 302.257111,100.270340 302.257141,86.004936 
z"/>
<path fill="#FFFBF7" opacity="1.000000" stroke="none" 
	d="
M285.738403,89.001007 
	C285.738373,99.775665 285.738373,110.050522 285.738373,120.830353 
	C290.589783,120.830353 294.849762,120.830353 299.415710,120.830353 
	C299.415710,123.421959 299.415710,125.502220 299.415710,127.930008 
	C291.449097,127.930008 283.534271,127.930008 275.300171,127.930008 
	C275.300171,108.662682 275.300171,89.439789 275.300171,69.937408 
	C278.620453,69.937408 281.879303,69.937408 285.738464,69.937408 
	C285.738464,76.290176 285.738464,82.395691 285.738403,89.001007 
z"/>
<path fill="#FFFCF8" opacity="1.000000" stroke="none" 
	d="
M407.199158,287.999939 
	C407.199188,278.870636 407.199188,270.241333 407.199188,261.253540 
	C410.864197,261.253540 414.099182,261.253540 417.978333,261.253540 
	C417.978333,277.932953 417.978333,294.642731 417.978333,311.834900 
	C422.853394,311.834900 427.112579,311.834900 431.721619,311.834900 
	C431.721619,314.390442 431.721619,316.460236 431.721619,318.962677 
	C423.790314,318.962677 415.772766,318.962677 407.199158,318.962677 
	C407.199158,308.721649 407.199158,298.610809 407.199158,287.999939 
z"/>
<path fill="#FFFAF5" opacity="1.000000" stroke="none" 
	d="
M258.399414,95.999832 
	C258.399475,87.185127 258.399475,78.870430 258.399475,70.105629 
	C261.870636,70.105629 265.080658,70.105629 268.660889,70.105629 
	C268.660889,89.223488 268.660889,108.429764 268.660889,127.958717 
	C265.491486,127.958717 262.258911,127.958717 258.399323,127.958717 
	C258.399323,117.357780 258.399323,106.928810 258.399414,95.999832 
z"/>
<path fill="#FFFAF5" opacity="1.000000" stroke="none" 
	d="
M580.271240,145.848404 
	C582.682434,145.844650 584.657959,145.844650 586.736694,145.844650 
	C583.845337,155.825180 579.091553,160.892776 573.405701,159.747726 
	C574.590210,155.771164 575.638611,151.778305 577.035828,147.911453 
	C577.362915,147.005997 578.870850,146.527222 580.271240,145.848404 
z"/>
<path fill="#FD9D24" opacity="1.000000" stroke="none" 
	d="
M132.083176,101.370819 
	C132.468369,101.490097 132.936020,101.895096 133.318420,102.675812 
	C132.877335,102.586533 132.521484,102.121544 132.083176,101.370819 
z"/>
<path fill="#FD9F28" opacity="1.000000" stroke="none" 
	d="
M358.803040,482.275726 
	C359.728943,480.905151 360.621033,479.264130 361.568542,479.231506 
	C368.202118,479.003021 374.852051,478.980438 381.483429,479.236206 
	C382.516388,479.276062 384.317627,481.047089 384.346344,482.057831 
	C384.580627,490.316498 384.478271,498.584747 384.478271,507.231873 
	C375.789886,507.231873 367.601990,507.231873 358.794922,507.231873 
	C358.794922,498.922424 358.794922,490.836060 358.803040,482.275726 
z"/>
<path fill="#FD9F2A" opacity="1.000000" stroke="none" 
	d="
M313.099854,499.858429 
	C313.100769,493.884827 313.193390,488.391693 313.063995,482.903839 
	C312.999268,480.158447 313.942932,478.990875 316.795441,479.051117 
	C322.949188,479.181122 329.108246,479.141602 335.263794,479.063416 
	C337.645111,479.033234 338.997803,479.619720 338.961212,482.384888 
	C338.853577,490.520111 338.922821,498.657654 338.922821,507.210083 
	C330.339233,507.210083 322.122070,507.210083 313.099884,507.210083 
	C313.099884,504.835144 313.099884,502.588135 313.099854,499.858429 
z"/>
<path fill="#FD9F2A" opacity="1.000000" stroke="none" 
	d="
M313.158295,624.429688 
	C313.114990,616.820374 313.269135,609.659302 313.033173,602.511108 
	C312.915436,598.944641 314.214386,597.867310 317.652405,598.000122 
	C323.468231,598.224854 329.299469,598.104675 335.123260,598.041077 
	C337.386658,598.016418 338.990692,598.323792 338.955719,601.206543 
	C338.856964,609.345520 338.921173,617.486511 338.921173,626.290771 
	C330.554077,626.290771 322.491882,626.311646 314.430725,626.230835 
	C314.014252,626.226685 313.606506,625.352478 313.158295,624.429688 
z"/>
<path fill="#FD9F28" opacity="1.000000" stroke="none" 
	d="
M358.789734,611.007812 
	C358.789917,598.064209 358.789917,598.064209 371.216705,598.064209 
	C375.345337,598.064209 379.473938,598.064209 384.048096,598.064209 
	C384.048096,607.595154 384.048096,616.742615 384.048096,626.191528 
	C375.665314,626.191528 367.470886,626.191528 358.789764,626.191528 
	C358.789764,621.073608 358.789764,616.289001 358.789734,611.007812 
z"/>
<path fill="#FD9E26" opacity="1.000000" stroke="none" 
	d="
M318.211060,567.031250 
	C314.465454,567.463623 312.890106,566.446350 313.036865,562.737793 
	C313.299133,556.110596 313.207001,549.463501 313.066040,542.828918 
	C313.005096,539.962341 313.743561,538.546265 316.936584,538.638855 
	C323.071167,538.816711 329.221710,538.537476 335.348358,538.820801 
	C336.574585,538.877502 338.718628,540.565369 338.751862,541.557678 
	C339.028259,549.805298 338.908600,558.066223 338.908600,567.031738 
	C331.833313,567.031738 325.260193,567.031738 318.211060,567.031250 
z"/>
<path fill="#FD9E26" opacity="1.000000" stroke="none" 
	d="
M338.921753,439.912720 
	C338.921753,442.689056 338.921753,444.979156 338.921753,448.030334 
	C330.771484,448.030334 323.047150,448.119415 315.332184,447.891907 
	C314.564819,447.869263 313.243744,445.933167 313.216003,444.858398 
	C313.027618,437.564423 312.981934,430.258057 313.262299,422.970001 
	C313.304993,421.859680 315.234680,419.949249 316.360016,419.897491 
	C322.815765,419.600677 329.293427,419.828674 335.760895,419.718079 
	C338.603699,419.669495 338.978729,421.209351 338.945038,423.502106 
	C338.867065,428.809204 338.921204,434.118256 338.921753,439.912720 
z"/>
<path fill="#FD9E26" opacity="1.000000" stroke="none" 
	d="
M338.921814,662.186157 
	C338.921173,669.143311 338.799347,675.622986 338.972870,682.094788 
	C339.053925,685.117737 338.044983,686.224976 334.979858,686.131470 
	C329.007141,685.949158 323.021301,685.951477 317.048279,686.127197 
	C313.953705,686.218262 312.997772,685.010376 313.063904,682.037964 
	C313.215363,675.232788 313.224335,668.419189 313.061401,661.614563 
	C312.988281,658.560303 314.129333,657.511108 317.119598,657.586487 
	C323.094055,657.737061 329.078339,657.752686 335.051758,657.583191 
	C338.166992,657.494751 339.298157,658.765381 338.921814,662.186157 
z"/>
<path fill="#FD9D24" opacity="1.000000" stroke="none" 
	d="
M384.450073,675.975342 
	C384.449707,686.073853 384.448730,686.156128 374.602966,686.039917 
	C369.517181,685.979919 362.816467,687.393982 359.844391,684.759216 
	C357.287201,682.492188 358.953278,675.425354 358.816071,670.479065 
	C358.742371,667.820984 358.998260,665.141174 358.756195,662.503296 
	C358.428711,658.934998 359.485291,657.347595 363.392059,657.561096 
	C368.862366,657.860107 374.373444,657.860535 379.843719,657.561218 
	C383.758667,657.347046 384.717590,658.953796 384.509827,662.515442 
	C384.258484,666.823608 384.450073,671.157532 384.450073,675.975342 
z"/>
<path fill="#FD9D24" opacity="1.000000" stroke="none" 
	d="
M384.450104,559.939209 
	C384.450226,562.391907 384.450226,564.351807 384.450226,566.663086 
	C375.859314,566.663086 367.803558,566.663086 358.884705,566.663086 
	C358.884705,558.001282 358.821686,549.288025 359.013214,540.580444 
	C359.027405,539.935547 360.858795,538.817017 361.867615,538.791321 
	C368.342194,538.626221 374.824219,538.778503 381.301208,538.669983 
	C384.180206,538.621887 384.486359,540.258728 384.465271,542.501892 
	C384.412109,548.149536 384.449127,553.798096 384.450104,559.939209 
z"/>
<path fill="#FD9D24" opacity="1.000000" stroke="none" 
	d="
M363.130127,419.748260 
	C370.243317,419.747101 376.870422,419.747101 384.355377,419.747101 
	C384.355377,428.804749 384.406403,437.520233 384.246979,446.231842 
	C384.235687,446.849487 382.685547,447.946075 381.835144,447.961792 
	C374.399719,448.099365 366.960663,448.041351 358.855011,448.041351 
	C358.855011,438.985779 358.763153,430.405884 359.019379,421.836395 
	C359.041260,421.105286 361.381073,420.443451 363.130127,419.748260 
z"/>
<path fill="#FD9D24" opacity="1.000000" stroke="none" 
	d="
M441.726166,556.737427 
	C447.281494,549.859253 452.540253,543.197021 458.011566,536.714111 
	C459.032837,535.504028 460.906799,535.013611 462.387268,534.191040 
	C462.977142,535.782166 464.060028,537.367615 464.078491,538.965332 
	C464.220734,551.277588 464.026978,563.594299 464.230011,575.904846 
	C464.297058,579.970825 463.049652,581.600647 458.843018,581.469116 
	C451.195953,581.229980 443.533142,581.517761 435.883270,581.328186 
	C433.740631,581.275146 429.894226,580.531677 429.798279,579.743347 
	C429.444824,576.840393 429.493774,573.273987 430.937012,570.894653 
	C433.935883,565.950867 437.922455,561.606140 441.726166,556.737427 
z"/>
<path fill="#FD9D24" opacity="1.000000" stroke="none" 
	d="
M475.511963,594.590576 
	C477.149567,593.677063 478.627106,592.805054 480.117950,592.781677 
	C488.597229,592.648804 497.081329,592.815063 505.560211,592.671082 
	C508.872742,592.614868 510.495911,593.573181 510.349884,597.178345 
	C510.148102,602.159241 510.218628,607.156128 510.326630,612.142761 
	C510.390869,615.109009 509.172974,616.349304 506.189758,616.321838 
	C497.376556,616.240662 488.560638,616.203369 479.748810,616.340454 
	C476.181580,616.395935 475.102539,614.771912 475.203033,611.481689 
	C475.370392,605.999268 475.317963,600.510254 475.511963,594.590576 
z"/>
<path fill="#FD9D24" opacity="1.000000" stroke="none" 
	d="
M510.217102,560.238708 
	C510.280945,566.038086 510.153259,571.364990 510.348450,576.679993 
	C510.477295,580.186890 509.064972,581.345581 505.645447,581.281433 
	C497.000275,581.119263 488.348938,581.145996 479.702515,581.268616 
	C476.541260,581.313416 475.119904,580.196045 475.205566,576.936462 
	C475.336639,571.950562 475.303558,566.957581 475.217651,561.969788 
	C475.168823,559.137451 476.147400,557.593506 479.220612,557.614380 
	C488.367188,557.676514 497.515869,557.562500 506.659668,557.734009 
	C507.839630,557.756104 508.995636,559.054199 510.217102,560.238708 
z"/>
<path fill="#FD9D24" opacity="1.000000" stroke="none" 
	d="
M500.950134,651.247925 
	C493.803009,651.247742 487.144745,651.088867 480.499023,651.308838 
	C476.695496,651.434753 474.976959,650.253296 475.179596,646.226685 
	C475.421753,641.415344 475.302673,636.581604 475.219299,631.759705 
	C475.168182,628.803650 476.439331,627.575623 479.407043,627.602966 
	C488.221497,627.684082 497.039062,627.730896 505.851562,627.575073 
	C509.463409,627.511292 510.462799,629.149597 510.340515,632.429871 
	C510.179565,636.748352 510.038025,641.097961 510.374084,645.396179 
	C510.734894,650.010925 509.051910,651.937378 504.435150,651.269043 
	C503.457642,651.127625 502.442230,651.248108 500.950134,651.247925 
z"/>
<path fill="#FD9D24" opacity="1.000000" stroke="none" 
	d="
M475.235748,674.015991 
	C475.338989,661.244751 473.818176,662.640625 486.114288,662.572510 
	C492.602295,662.536621 499.092529,662.660522 505.578125,662.530823 
	C508.908539,662.464233 510.484772,663.595276 510.345856,667.143738 
	C510.157288,671.960938 510.168427,676.795837 510.344666,681.613953 
	C510.469421,685.024597 509.196106,686.417542 505.716400,686.360413 
	C497.234161,686.221069 488.744873,686.180481 480.264832,686.376160 
	C476.234497,686.469116 474.902954,684.742798 475.204742,680.985962 
	C475.377350,678.837097 475.235809,676.662964 475.235748,674.015991 
z"/>
<path fill="#FD9D24" opacity="1.000000" stroke="none" 
	d="
M475.253052,542.567261 
	C475.241150,537.113525 475.328766,532.119995 475.207062,527.131470 
	C475.130341,523.988464 476.302917,522.612671 479.580353,522.659668 
	C488.396759,522.786194 497.217468,522.789001 506.033722,522.657593 
	C509.344208,522.608215 510.426056,524.020325 510.337097,527.151428 
	C510.195374,532.138855 510.219910,537.134949 510.327484,542.124023 
	C510.390747,545.057800 509.268219,546.355896 506.234375,546.323059 
	C497.250824,546.225586 488.261230,546.421570 479.285583,546.137329 
	C477.913635,546.093872 476.602997,544.113892 475.253052,542.567261 
z"/>
<path fill="#FD9D24" opacity="1.000000" stroke="none" 
	d="
M464.059509,677.903076 
	C464.054962,686.311279 464.054962,686.315857 456.224396,686.320007 
	C448.734497,686.323975 441.243347,686.236389 433.755280,686.351624 
	C430.430328,686.402710 428.848022,685.270447 428.979858,681.724792 
	C429.165283,676.738342 429.107758,671.738281 429.000946,666.747314 
	C428.936859,663.753723 430.260010,662.545288 433.179962,662.562927 
	C442.167450,662.617249 451.155731,662.618835 460.143219,662.564392 
	C463.216461,662.545776 464.201447,664.059631 464.089264,666.933777 
	C463.953064,670.423706 464.058563,673.923035 464.059509,677.903076 
z"/>
<path fill="#FD9D24" opacity="1.000000" stroke="none" 
	d="
M444.008331,592.717041 
	C449.660950,592.719238 454.817657,592.806152 459.969879,592.691101 
	C462.945129,592.624695 464.172699,593.799622 464.093170,596.812927 
	C463.957214,601.964233 463.957306,607.124084 464.090729,612.275513 
	C464.171051,615.377869 462.706268,616.336487 459.850708,616.313904 
	C451.038177,616.244141 442.223877,616.218689 433.412079,616.325806 
	C430.212189,616.364624 428.900787,615.110779 428.991241,611.895813 
	C429.131500,606.911255 429.148682,601.915771 428.985687,596.932617 
	C428.875397,593.560547 430.460876,592.564087 433.534729,592.690430 
	C436.854767,592.827026 440.184845,592.718628 444.008331,592.717041 
z"/>
<path fill="#FD9D24" opacity="1.000000" stroke="none" 
	d="
M441.027710,627.625488 
	C447.511566,627.626221 453.502075,627.739624 459.485626,627.584473 
	C462.932892,627.495056 464.255402,628.827637 464.108704,632.288940 
	C463.904663,637.103638 463.943298,641.937073 464.097687,646.755493 
	C464.197418,649.868103 463.187714,651.333618 459.851807,651.285339 
	C451.038574,651.157776 442.221161,651.162476 433.407776,651.284302 
	C430.186005,651.328857 428.890839,650.078308 428.990387,646.870117 
	C429.129547,642.383728 429.314301,637.865906 428.945801,633.405579 
	C428.547516,628.584778 430.626221,627.112061 435.046417,627.592896 
	C436.854553,627.789612 438.701965,627.625488 441.027710,627.625488 
z"/>
<path fill="#FD9D24" opacity="1.000000" stroke="none" 
	d="
M510.302338,499.956848 
	C510.277496,512.695068 511.181366,511.006409 499.635712,511.103088 
	C494.323059,511.147614 489.006775,511.211609 483.697510,511.068268 
	C479.588745,510.957336 478.464050,508.924347 480.947815,505.752441 
	C488.724884,495.820709 496.664276,486.014648 504.662842,476.260010 
	C505.466827,475.279480 507.100861,474.979553 508.349670,474.363770 
	C508.998596,475.757294 510.168732,477.136261 510.208313,478.546906 
	C510.403900,485.514862 510.300323,492.491241 510.302338,499.956848 
z"/>
<path fill="#FD9F28" opacity="1.000000" stroke="none" 
	d="
M583.803955,637.096924 
	C583.803955,639.568481 583.804321,641.561401 583.804077,643.554321 
	C583.802917,651.630249 583.802856,651.633240 575.965698,651.637390 
	C568.658325,651.641235 561.343384,651.437500 554.046265,651.710327 
	C549.438416,651.882629 547.202820,650.582764 547.686523,645.559021 
	C548.051025,641.774353 548.008606,637.905823 547.695801,634.111877 
	C547.310425,629.438721 548.832092,627.525757 553.791687,627.786499 
	C560.913330,628.160950 568.069336,627.881531 575.210632,627.881653 
	C583.799866,627.881836 583.799866,627.881958 583.803955,637.096924 
z"/>
<path fill="#FD9F28" opacity="1.000000" stroke="none" 
	d="
M631.026611,647.567749 
	C629.607727,649.223328 628.228638,651.409790 626.775024,651.460571 
	C617.648865,651.779175 608.505920,651.583313 599.369019,651.643860 
	C596.160461,651.665100 594.925903,650.178711 594.998901,647.058289 
	C595.111572,642.243103 595.139832,637.419800 594.990234,632.606628 
	C594.885742,629.241943 596.129089,627.785461 599.624329,627.839050 
	C608.593323,627.976807 617.567627,627.988342 626.536194,627.836731 
	C630.116089,627.776245 631.178162,629.356628 631.072754,632.658936 
	C630.919067,637.471863 631.032410,642.293335 631.026611,647.567749 
z"/>
<path fill="#FD9D24" opacity="1.000000" stroke="none" 
	d="
M617.979736,686.324585 
	C611.492065,686.320862 605.498779,686.238159 599.508911,686.345459 
	C596.353699,686.402039 594.929138,685.167847 595.009216,681.935913 
	C595.128784,677.112122 595.155396,672.279480 595.000732,667.457703 
	C594.892334,664.079407 596.147095,662.632141 599.640869,662.684998 
	C608.626648,662.820984 617.616577,662.802368 626.603088,662.696228 
	C629.779785,662.658752 631.158386,663.843201 631.057251,667.092102 
	C630.912231,671.747925 630.836975,676.421326 631.080383,681.068970 
	C631.282227,684.922852 629.937256,686.665649 625.962524,686.354065 
	C623.481384,686.159668 620.972168,686.322144 617.979736,686.324585 
z"/>
<path fill="#FD9D24" opacity="1.000000" stroke="none" 
	d="
M579.671753,686.310303 
	C570.377075,686.320801 561.550659,686.219238 552.728699,686.372192 
	C549.128967,686.434631 547.549316,685.213501 547.721985,681.463318 
	C547.936096,676.811157 547.892944,672.137451 547.731995,667.480957 
	C547.616394,664.135864 548.764221,662.620667 552.312012,662.678528 
	C561.300720,662.825073 570.294006,662.787964 579.284119,662.693909 
	C582.429443,662.661011 583.882812,663.865051 583.815796,667.091064 
	C583.712158,672.083984 584.065125,677.105530 583.620239,682.060669 
	C583.485168,683.565979 581.357117,684.892273 579.671753,686.310303 
z"/>
<path fill="#FDA12E" opacity="1.000000" stroke="none" 
	d="
M320.134827,279.555664 
	C318.097870,285.261169 316.029236,286.324921 309.473145,285.247681 
	C309.473145,279.892578 309.473145,274.489319 309.473145,269.121521 
	C317.547729,266.873413 320.395264,269.577209 320.134827,279.555664 
z"/>
<path fill="#FD9F2A" opacity="1.000000" stroke="none" 
	d="
M390.273560,310.385498 
	C387.228912,311.150848 384.512512,311.674408 381.294647,312.294617 
	C381.294647,305.356964 381.294647,299.136078 381.294647,292.519745 
	C385.244781,292.061523 389.397491,291.720795 391.500305,295.634827 
	C394.047546,300.376099 394.273285,305.518860 390.273560,310.385498 
z"/>
<path fill="#FD9F2A" opacity="1.000000" stroke="none" 
	d="
M381.050171,283.363647 
	C380.949768,278.304169 380.949768,273.675629 380.949768,267.339264 
	C384.985535,268.880890 389.720306,269.257629 390.904694,271.505249 
	C392.377625,274.300354 392.018738,279.316376 390.329132,282.072571 
	C389.237701,283.853027 384.341675,283.301208 381.050171,283.363647 
z"/>
<path fill="#FD9F2A" opacity="1.000000" stroke="none" 
	d="
M277.355347,216.232544 
	C272.017548,217.024612 269.821014,214.494614 269.786499,209.844223 
	C269.710144,199.552399 269.713409,189.259171 269.797394,178.967438 
	C269.826050,175.454651 271.142944,172.812958 275.263580,172.669250 
	C279.575012,172.518890 281.334015,175.041077 281.375610,178.846375 
	C281.489868,189.298935 281.595734,199.760376 281.231934,210.201813 
	C281.161621,212.220001 278.945709,214.163437 277.355347,216.232544 
z"/>
<path fill="#FDA12E" opacity="1.000000" stroke="none" 
	d="
M234.861389,269.235168 
	C243.006577,268.156494 244.936264,269.725922 244.997498,277.301666 
	C245.068771,286.118591 245.122787,294.939484 244.934967,303.753357 
	C244.788071,310.646454 242.106964,312.537140 234.586380,311.278412 
	C234.586380,297.404785 234.586380,283.470032 234.861389,269.235168 
z"/>
<path fill="#FDA12E" opacity="1.000000" stroke="none" 
	d="
M476.866760,188.891312 
	C477.305542,186.430588 477.682312,184.379761 478.059052,182.328918 
	C478.301758,182.351608 478.544464,182.374298 478.787170,182.396973 
	C479.867401,189.084381 480.947601,195.771790 482.091949,202.856186 
	C479.660736,202.856186 477.586212,202.856186 474.718079,202.856186 
	C475.422729,198.278717 476.113708,193.789963 476.866760,188.891312 
z"/>
<path fill="#FDA12E" opacity="1.000000" stroke="none" 
	d="
M353.460449,296.110474 
	C352.510559,301.213684 349.084412,297.465576 346.377502,298.274872 
	C347.441986,291.587372 348.506470,284.899902 349.570953,278.212402 
	C349.907013,278.223999 350.243042,278.235596 350.579102,278.247162 
	C351.509888,284.067596 352.440674,289.888031 353.460449,296.110474 
z"/>
</svg>