<svg version="1.1" id="Layer_1" xmlns="http://www.w3.org/2000/svg" xmlns:xlink="http://www.w3.org/1999/xlink" x="0px" y="0px"
	 width="100%" viewBox="0 0 1500 1500" enable-background="new 0 0 1500 1500" xml:space="preserve">
<path fill="#DD1367" opacity="1.000000" stroke="none" 
	d="
M1501.000000,552.000000 
	C1501.000000,868.640381 1501.000000,1184.780762 1501.000000,1500.960571 
	C1001.067871,1500.960571 501.135742,1500.960571 1.101795,1500.960571 
	C1.101795,1001.109436 1.101795,501.218872 1.101795,1.164156 
	C500.999969,1.164156 1001.000000,1.164156 1501.000000,1.164156 
	C1501.000000,184.531281 1501.000000,368.015656 1501.000000,552.000000 
M208.828339,236.499908 
	C208.828354,270.811005 208.695908,305.122986 208.929184,339.432495 
	C208.982071,347.209320 209.627213,355.114899 211.170898,362.723663 
	C215.605194,384.580292 226.176376,402.477997 246.571548,413.215790 
	C259.906433,420.236450 274.396301,421.780884 289.207794,421.515381 
	C323.071289,420.908356 347.481354,403.238464 357.656982,371.942596 
	C361.620026,359.753967 362.461945,347.151947 362.483887,334.478333 
	C362.553406,294.337677 362.589111,254.196548 362.442108,214.056320 
	C362.412933,206.090408 362.062683,198.047791 360.915161,190.178406 
	C357.448212,166.403809 348.249634,145.419312 325.614868,134.321899 
	C299.892090,121.710480 272.923157,121.902946 246.917587,133.632675 
	C225.189133,143.433212 214.586380,162.703506 211.310165,185.238876 
	C208.907791,201.763565 209.545532,218.730209 208.828339,236.499908 
M876.496277,985.831970 
	C790.200134,985.831970 703.904053,985.830505 617.607910,985.834412 
	C610.588623,985.834717 610.501587,985.916443 610.499329,992.705811 
	C610.490784,1018.528015 610.576294,1044.350708 610.421021,1070.171875 
	C610.393616,1074.721191 611.854614,1076.253296 616.480774,1076.247803 
	C706.941589,1076.139893 797.402588,1076.142212 887.863525,1076.240234 
	C892.530151,1076.245361 893.955872,1074.488892 893.901489,1070.045166 
	C893.728210,1055.886719 893.837524,1041.724731 893.837463,1027.564209 
	C893.837341,1015.569397 893.727051,1003.572998 893.894897,991.580505 
	C893.955566,987.246094 892.305603,985.498352 887.985840,985.785461 
	C884.502747,986.016907 880.991943,985.832153 876.496277,985.831970 
M610.495728,882.489014 
	C610.495850,885.987427 610.706787,889.501709 610.443665,892.980225 
	C610.101685,897.502014 611.779114,899.086853 616.430542,899.081238 
	C706.889404,898.972778 797.348450,898.975159 887.807434,899.075439 
	C892.415405,899.080505 893.927673,897.483337 893.903870,892.966553 
	C893.766907,866.979065 893.745850,840.989868 893.919373,815.002808 
	C893.951721,810.169739 892.338806,808.734070 887.524902,808.740662 
	C797.232666,808.864868 706.940125,808.867676 616.647888,808.734924 
	C611.754944,808.727722 610.367310,810.283264 610.409241,815.023315 
	C610.604858,837.178162 610.495850,859.335815 610.495728,882.489014 
M1144.236938,944.539612 
	C1145.994751,941.398987 1143.816284,939.641785 1141.903564,937.729858 
	C1099.355347,895.198975 1056.817993,852.657349 1014.277771,810.118469 
	C1013.688782,809.529419 1013.186401,808.752991 1012.476379,808.409058 
	C1011.370728,807.873230 1010.031250,807.203735 1008.966553,807.427185 
	C1008.311279,807.564819 1007.819153,809.217163 1007.555786,810.265259 
	C1007.319153,811.207153 1007.489563,812.252747 1007.489502,813.252563 
	C1007.488770,899.409729 1007.477966,985.566833 1007.557800,1071.723877 
	C1007.559631,1073.676880 1008.589722,1075.628784 1009.140137,1077.581177 
	C1010.885803,1076.547607 1012.940613,1075.823853 1014.332397,1074.435547 
	C1057.514771,1031.360596 1100.632446,988.220947 1144.236938,944.539612 
M434.444733,1019.055176 
	C452.940247,1037.551758 471.411530,1056.072632 489.980438,1074.495239 
	C491.361908,1075.865845 493.444214,1076.530029 495.200684,1077.522583 
	C495.746582,1075.558960 496.768158,1073.595947 496.769958,1071.631714 
	C496.849243,985.494202 496.849182,899.356506 496.769958,813.218933 
	C496.768158,811.240479 495.749207,809.262939 495.204651,807.284912 
	C493.447632,808.260864 491.351654,808.896851 489.982635,810.261963 
	C447.510803,852.614136 405.108887,895.036438 362.700104,937.451904 
	C358.156555,941.996216 358.178772,942.786072 362.905670,947.513733 
	C386.583893,971.195679 410.264771,994.874939 434.444733,1019.055176 
M795.828552,591.671692 
	C782.988403,578.833069 770.149292,565.993408 757.307800,553.156128 
	C752.549927,548.399902 751.745300,548.403381 746.857910,553.290222 
	C704.689087,595.454590 662.523743,637.622375 620.358215,679.790039 
	C619.534119,680.614258 618.604614,681.364807 617.926208,682.296753 
	C616.066833,684.850952 616.404297,686.634827 619.885254,686.973328 
	C621.040649,687.085693 622.215515,687.000427 623.381470,687.000427 
	C709.165833,687.000916 794.950195,687.000977 880.734558,687.000000 
	C882.067078,687.000000 883.411255,687.098083 884.729675,686.958557 
	C887.671387,686.647156 887.862000,684.820190 886.668335,682.710083 
	C886.034241,681.589233 884.894836,680.746948 883.955261,679.807190 
	C854.748535,650.593140 825.538330,621.382690 795.828552,591.671692 
M627.540527,1197.833496 
	C626.205811,1197.833496 624.847168,1197.674072 623.541687,1197.869385 
	C621.369812,1198.194336 619.232056,1198.746948 617.079956,1199.203613 
	C618.265259,1201.216797 619.091003,1203.588623 620.688416,1205.191040 
	C662.799255,1247.434082 704.988647,1289.598633 747.168213,1331.773071 
	C751.832031,1336.436401 752.418823,1336.429199 757.177063,1331.671631 
	C799.356689,1289.497070 841.533081,1247.319214 883.710144,1205.142334 
	C884.416809,1204.435669 885.291748,1203.827026 885.783081,1202.993042 
	C886.409668,1201.929321 887.419678,1200.195679 887.018860,1199.623779 
	C886.346863,1198.665161 884.737183,1198.184082 883.434998,1197.898071 
	C882.163208,1197.618652 880.782471,1197.833618 879.449585,1197.833618 
	C795.809875,1197.833496 712.170105,1197.833496 627.540527,1197.833496 
M180.844910,158.500076 
	C180.844910,149.037140 180.844910,139.574219 180.844910,130.069382 
	C179.799850,129.821075 179.167679,129.541321 178.534760,129.539581 
	C165.703949,129.504211 152.872849,129.466797 140.042526,129.546097 
	C138.829941,129.553574 137.324112,130.009430 136.457016,130.804932 
	C124.507149,141.768158 110.487755,149.728729 95.698860,155.573776 
	C85.664055,159.539871 82.777992,164.927933 83.805481,174.954514 
	C84.705765,183.739853 83.993431,192.690430 83.993431,202.017578 
	C98.131897,196.932922 111.529114,192.114838 125.579086,187.061996 
	C125.579086,263.634338 125.579086,339.847015 125.579086,416.187958 
	C144.271942,416.187958 162.352570,416.187958 180.844910,416.187958 
	C180.844910,330.407318 180.844910,244.953705 180.844910,158.500076 
M635.474365,308.975891 
	C624.067993,308.975891 612.661682,308.975891 601.320435,308.975891 
	C601.320435,345.442322 601.320435,381.663940 601.320435,418.056427 
	C612.447021,418.056427 623.265869,418.436310 634.047791,417.967621 
	C650.328125,417.259918 660.216980,407.902405 660.857178,391.589233 
	C661.587402,372.980835 661.646301,354.306702 661.003479,335.695465 
	C660.426880,319.001984 653.126648,311.809906 635.474365,308.975891 
M519.920044,418.178009 
	C525.552368,418.178009 531.184692,418.178009 537.163391,418.178009 
	C536.813416,416.521057 536.641113,415.397766 536.336975,414.311371 
	C532.079529,399.102325 527.761169,383.910095 523.599182,368.675110 
	C523.182434,367.149689 523.083862,364.314270 523.857361,363.872589 
	C533.509644,358.360718 535.008484,349.117615 535.492859,339.395142 
	C536.277954,323.637146 530.104065,312.682068 516.812134,310.516052 
	C503.319794,308.317413 489.429291,308.562134 475.456512,307.721313 
	C475.456512,345.294464 475.456512,381.510040 475.456512,417.912048 
	C482.180023,417.912048 488.595978,417.912048 495.703918,417.912048 
	C495.703918,401.277008 495.703918,384.896301 495.703918,368.389801 
	C498.843170,368.389801 501.287781,368.389801 503.918488,368.389801 
	C504.371307,369.961639 504.811371,371.381378 505.189178,372.817444 
	C508.784760,386.484650 512.310608,400.170776 516.036804,413.802185 
	C516.475952,415.408966 517.997864,416.719788 519.920044,418.178009 
M733.528198,363.500275 
	C733.528198,345.269257 733.528198,327.038208 733.528198,308.711914 
	C726.526489,308.711914 720.426208,308.711914 713.815674,308.711914 
	C713.815674,310.739716 713.815674,312.532715 713.815674,314.325714 
	C713.815674,338.139954 713.879944,361.954590 713.749390,385.768097 
	C713.728699,389.550781 713.203674,393.425720 712.249390,397.085266 
	C710.921265,402.178406 707.322815,404.632751 702.316040,404.416626 
	C697.517212,404.209442 693.913696,402.020538 692.839111,397.124512 
	C691.989929,393.255005 691.279785,389.262238 691.255859,385.319641 
	C691.112000,361.672791 691.184448,338.024628 691.184387,314.376923 
	C691.184387,312.580811 691.184387,310.784668 691.184387,308.805420 
	C684.482422,308.805420 678.266479,308.805420 671.471680,308.805420 
	C671.471680,312.248474 671.453308,315.366821 671.474548,318.484894 
	C671.638733,342.623779 671.487488,366.770752 672.095642,390.898499 
	C672.489319,406.511414 679.332886,415.762970 691.866028,418.476349 
	C697.128601,419.615692 702.810486,419.786865 708.186340,419.247620 
	C722.677185,417.794159 729.936584,411.387726 731.985901,396.846832 
	C733.485901,386.203613 733.082886,375.292175 733.528198,363.500275 
M508.825897,196.499908 
	C508.825897,210.592361 508.825897,224.684814 508.825897,238.873672 
	C514.839783,238.873672 520.232727,238.873672 526.031311,238.873672 
	C526.031311,218.052460 526.031311,197.526718 526.031311,177.000961 
	C527.348816,177.952682 527.875122,179.080002 528.352600,180.227615 
	C535.948425,198.481369 543.498596,216.754303 551.196899,234.964676 
	C551.874817,236.568390 553.360352,238.753311 554.731628,238.963028 
	C558.393250,239.523056 562.197083,239.153671 565.895569,239.153671 
	C565.895569,202.156708 565.895569,165.919556 565.895569,129.477234 
	C560.406494,129.477234 555.198059,129.477234 549.259766,129.477234 
	C549.259766,149.049850 549.259766,168.312546 549.259766,187.575226 
	C547.727356,186.526917 547.162231,185.386215 546.656433,184.219803 
	C539.253784,167.149078 531.904114,150.055008 524.385925,133.035370 
	C523.708313,131.501266 522.082214,129.534744 520.677185,129.338333 
	C516.963257,128.819183 513.128845,129.162476 508.825897,129.162476 
	C508.825897,151.630661 508.825897,173.565277 508.825897,196.499908 
M674.299561,235.853821 
	C675.763428,234.080292 677.227356,232.306763 678.418213,230.863998 
	C679.802917,233.578140 680.569580,237.748566 682.813538,238.817383 
	C685.747681,240.214874 689.849976,239.159714 693.420227,239.159714 
	C693.420227,220.133636 693.420227,201.774719 693.420227,183.470734 
	C683.397156,183.470734 673.807983,183.470734 664.107056,183.470734 
	C664.107056,187.876465 664.107056,191.958038 664.107056,196.286133 
	C667.947510,196.462265 671.518860,196.626053 676.222229,196.841751 
	C675.329773,204.453064 675.030334,211.590302 673.511536,218.457870 
	C672.370117,223.618927 668.162292,225.695099 662.770142,225.428680 
	C657.216553,225.154282 654.209839,222.848251 653.009094,217.261490 
	C652.281250,213.875244 651.926514,210.348953 651.901001,206.881943 
	C651.786865,191.394943 651.795410,175.906265 651.896423,160.419083 
	C651.917969,157.118057 652.143921,153.731262 652.922302,150.541779 
	C654.232056,145.174606 658.054199,142.747269 663.698853,143.048721 
	C669.333008,143.349609 672.265869,145.705429 673.099609,151.375183 
	C673.788086,156.056473 673.888855,160.824188 674.246155,165.503174 
	C680.698303,165.503174 686.770752,165.503174 692.820740,165.503174 
	C692.820740,161.014114 693.217957,156.827499 692.749878,152.739975 
	C691.004700,137.499847 683.639832,129.797546 668.527466,128.357498 
	C646.988281,126.305031 633.396729,133.337631 631.925049,157.616440 
	C630.949585,173.709885 631.054016,189.898804 631.415710,206.028366 
	C631.558350,212.388474 632.882751,219.014542 635.115234,224.978149 
	C640.835876,240.260406 660.324341,245.718292 674.299561,235.853821 
M757.984192,204.377075 
	C752.922363,179.448669 747.860535,154.520279 742.710083,129.155579 
	C736.871155,129.155579 731.224915,129.333542 725.597290,129.086700 
	C722.385864,128.945831 721.426636,130.188812 720.825684,133.211868 
	C715.731812,158.832352 710.423462,184.410141 705.213684,210.007706 
	C703.271912,219.548325 701.421143,229.107468 699.488953,238.859680 
	C706.180847,238.859680 712.259460,238.859680 718.495483,238.859680 
	C720.025635,230.455002 721.506104,222.323578 722.990601,214.169769 
	C729.444336,214.169769 735.526917,214.169769 741.704468,214.169769 
	C743.221497,222.602066 744.685364,230.738770 746.141663,238.833405 
	C752.568481,238.833405 758.635803,238.833405 764.970581,238.833405 
	C762.626160,227.374771 760.359802,216.297699 757.984192,204.377075 
M1002.853760,159.648254 
	C1003.396301,160.094299 1004.018127,160.995361 1004.469299,160.916794 
	C1009.650085,160.014664 1014.804871,158.963730 1020.414795,157.864594 
	C1019.751526,154.064316 1019.395752,150.762589 1018.578064,147.579559 
	C1016.179932,138.244202 1011.098572,131.145889 1001.143982,129.033386 
	C989.853149,126.637314 979.024231,127.661209 970.624695,136.502380 
	C967.914062,139.355606 965.984070,143.532318 965.089600,147.423691 
	C962.000061,160.865143 965.630432,172.409927 976.247559,181.545609 
	C982.431824,186.866989 988.620972,192.187103 994.668945,197.661346 
	C1000.110718,202.586884 1003.277771,208.701874 1002.733032,216.208450 
	C1002.438721,220.263626 1000.724365,223.677963 996.252075,224.659042 
	C991.899780,225.613770 988.244385,224.259995 985.860596,220.512970 
	C984.550293,218.453476 983.580811,216.058151 983.001038,213.681671 
	C982.190735,210.360016 981.887878,206.914551 981.319275,203.204651 
	C975.399536,204.458344 969.774780,205.649567 964.275452,206.814224 
	C963.556824,229.920746 977.638428,242.943924 999.712708,240.124237 
	C1012.548706,238.484619 1021.459717,228.291306 1022.074036,215.359894 
	C1022.765198,200.812988 1015.697815,190.307480 1005.460876,181.204483 
	C999.615112,176.006241 993.730713,170.847916 988.002869,165.521957 
	C984.099792,161.892807 982.586853,157.192886 983.083008,151.927307 
	C983.543884,147.037033 986.518982,144.070084 991.379272,143.360580 
	C995.690613,142.731232 999.422668,144.930374 1000.935547,149.539764 
	C1001.910583,152.510406 1002.213989,155.701477 1002.853760,159.648254 
M918.963074,402.706055 
	C911.990723,405.545410 906.638245,403.580566 904.169250,396.626343 
	C902.640930,392.321777 902.092773,387.669189 900.956848,382.500305 
	C895.460388,383.642334 889.755554,384.827637 884.188904,385.984222 
	C883.957825,406.505066 893.905029,418.230835 912.282959,419.768036 
	C929.365601,421.196899 941.892395,409.591492 942.044434,392.486206 
	C942.168274,378.552185 934.777527,368.722382 925.035278,360.045105 
	C919.445251,355.066193 913.788269,350.159485 908.295349,345.075562 
	C904.272522,341.352386 902.510803,336.614960 903.059937,331.119537 
	C903.552551,326.189758 906.537842,323.149048 911.331177,322.632355 
	C916.130554,322.115021 919.528442,324.135559 920.915833,328.721985 
	C922.007385,332.330780 922.518494,336.115112 923.406067,340.393097 
	C928.906738,339.303650 934.356995,338.224182 939.701294,337.165741 
	C940.484680,320.369171 931.629517,309.221863 916.386475,307.327667 
	C895.655579,304.751495 881.682617,318.664307 884.210144,339.245331 
	C885.260010,347.793457 889.369019,354.573639 895.666382,360.183594 
	C902.374817,366.159729 909.361572,371.844971 915.800720,378.096191 
	C923.673706,385.739502 924.911072,395.224854 918.963074,402.706055 
M953.185486,178.847092 
	C953.050110,177.610565 952.914795,176.374054 952.737549,174.754929 
	C945.961853,174.754929 939.535034,174.754929 933.221985,174.754929 
	C933.221985,164.256134 933.221985,154.195480 933.221985,143.694168 
	C941.837463,143.694168 950.091858,143.694168 958.513672,143.694168 
	C958.513672,138.691406 958.513672,134.143112 958.513672,129.441650 
	C943.117554,129.441650 928.064453,129.441650 912.797485,129.441650 
	C912.797485,166.092468 912.797485,202.445694 912.797485,238.853806 
	C928.340210,238.853806 943.551514,238.853806 958.592285,238.853806 
	C958.592285,234.126251 958.592285,229.738983 958.592285,225.005692 
	C949.905029,225.005692 941.634766,225.005692 933.166931,225.005692 
	C933.166931,212.923950 933.166931,201.206940 933.166931,189.056992 
	C939.908813,189.056992 946.343262,189.056992 953.186401,189.056992 
	C953.186401,185.664658 953.186401,182.701599 953.185486,178.847092 
M873.190369,364.071442 
	C873.190369,360.795837 873.190369,357.520233 873.190369,353.858704 
	C866.165771,353.858704 859.725037,353.858704 853.158569,353.858704 
	C853.158569,343.397888 853.158569,333.340179 853.158569,322.652405 
	C861.827209,322.652405 870.213257,322.652405 878.666138,322.652405 
	C878.666138,317.726593 878.666138,313.434662 878.666138,308.872803 
	C863.276611,308.872803 848.082458,308.872803 832.844482,308.872803 
	C832.844482,345.482056 832.844482,381.679443 832.844482,418.003845 
	C848.352356,418.003845 863.477661,418.003845 878.728271,418.003845 
	C878.728271,413.407562 878.728271,409.000824 878.728271,404.061707 
	C870.052307,404.061707 861.649963,404.061707 853.221436,404.061707 
	C853.221436,391.961365 853.221436,380.401550 853.221436,368.535492 
	C858.900757,368.535492 864.225403,368.397980 869.538025,368.591370 
	C872.352295,368.693787 873.592712,367.791840 873.190369,364.071442 
M575.497925,308.481232 
	C566.058228,308.481232 556.618530,308.481232 547.155518,308.481232 
	C547.155518,345.374939 547.155518,381.597382 547.155518,417.900818 
	C562.563660,417.900818 577.637207,417.900818 592.796875,417.900818 
	C592.796875,413.247864 592.796875,408.879089 592.796875,403.969055 
	C584.036255,403.969055 575.644592,403.969055 567.402344,403.969055 
	C567.402344,391.868958 567.402344,380.321655 567.402344,368.301575 
	C574.219116,368.301575 580.645325,368.301575 587.104614,368.301575 
	C587.104614,363.279236 587.104614,358.747681 587.104614,353.841858 
	C580.260132,353.841858 573.822632,353.841858 567.283936,353.841858 
	C567.283936,343.386230 567.283936,333.318634 567.283936,322.698608 
	C575.943787,322.698608 584.342224,322.698608 592.706299,322.698608 
	C592.706299,317.726929 592.706299,313.314453 592.706299,308.481323 
	C587.106567,308.481323 581.801575,308.481323 575.497925,308.481232 
M578.995605,197.500000 
	C578.995605,211.269211 578.995605,225.038422 578.995605,238.869049 
	C594.639832,238.869049 609.701904,238.869049 624.759033,238.869049 
	C624.759033,234.190811 624.759033,229.824387 624.759033,224.915161 
	C615.966614,224.915161 607.580078,224.915161 599.301880,224.915161 
	C599.301880,212.774597 599.301880,201.189072 599.301880,189.195618 
	C606.030701,189.195618 612.476074,189.195618 619.092285,189.195618 
	C619.092285,184.255264 619.092285,179.737198 619.092285,174.838989 
	C612.244019,174.838989 605.807800,174.838989 599.280640,174.838989 
	C599.280640,164.380478 599.280640,154.312042 599.280640,143.693130 
	C607.941345,143.693130 616.338989,143.693130 624.627808,143.693130 
	C624.627808,138.569717 624.627808,134.007874 624.627808,129.420364 
	C609.329895,129.420364 594.409973,129.420364 578.995605,129.420364 
	C578.995605,151.952789 578.995605,174.226395 578.995605,197.500000 
M827.476135,310.232117 
	C825.785095,309.639587 824.098633,308.548218 822.402283,308.532715 
	C807.580872,308.397369 792.757568,308.454407 777.934875,308.454315 
	C775.815613,308.454285 773.696289,308.454315 771.358887,308.454315 
	C771.358887,313.695251 771.358887,318.289948 771.358887,323.656738 
	C777.413513,323.656738 783.281677,323.656738 789.530640,323.656738 
	C789.530640,355.511017 789.530640,386.596375 789.530640,417.856049 
	C796.490967,417.856049 803.038696,417.856049 810.098450,417.856049 
	C810.098450,386.288544 810.098450,355.057892 810.098450,323.381714 
	C816.051086,323.381714 821.490723,323.381714 827.530518,323.381714 
	C827.530518,318.999298 827.530518,315.051025 827.476135,310.232117 
M889.858032,166.500122 
	C889.858032,159.199463 889.858032,151.898819 889.858032,144.121643 
	C895.939941,144.121643 901.532837,144.121643 907.152100,144.121643 
	C907.152100,138.896027 907.152100,134.162872 907.152100,129.497482 
	C888.364868,129.497482 869.963196,129.497482 851.354309,129.497482 
	C851.354309,134.466309 851.354309,139.081589 851.354309,144.169052 
	C857.244812,144.169052 863.014282,144.169052 869.401123,144.169052 
	C869.401123,176.000961 869.401123,207.369614 869.401123,238.798828 
	C876.563354,238.798828 883.093323,238.798828 889.858032,238.798828 
	C889.858032,214.772919 889.858032,191.136505 889.858032,166.500122 
M799.499329,239.171661 
	C805.645142,239.171661 811.790955,239.171661 818.171387,239.171661 
	C818.171387,234.355286 818.171387,229.946426 818.171387,225.021835 
	C809.428284,225.021835 801.014099,225.021835 791.962158,225.021835 
	C791.962158,192.815582 791.962158,161.120880 791.962158,129.414185 
	C785.036987,129.414185 778.770996,129.414185 772.294922,129.414185 
	C772.294922,166.052780 772.294922,202.435791 772.294922,239.171661 
	C781.226196,239.171661 789.862915,239.171661 799.499329,239.171661 
M495.844940,198.500076 
	C495.844940,175.558975 495.844940,152.617874 495.844940,129.537170 
	C488.862213,129.537170 482.489014,129.537170 476.099915,129.537170 
	C476.099915,166.181046 476.099915,202.442154 476.099915,238.792938 
	C482.750824,238.792938 489.121063,238.792938 495.844940,238.792938 
	C495.844940,225.442352 495.844940,212.471222 495.844940,198.500076 
M745.822449,359.499908 
	C745.822449,378.922455 745.822449,398.345001 745.822449,417.769104 
	C752.805664,417.769104 759.172485,417.769104 765.629456,417.769104 
	C765.629456,381.281525 765.629456,345.202820 765.629456,308.802887 
	C759.012878,308.802887 752.613342,308.802887 745.822449,308.802887 
	C745.822449,325.565155 745.822449,342.032501 745.822449,359.499908 
M845.844971,136.623322 
	C845.844971,134.213455 845.844971,131.803604 845.844971,129.495926 
	C838.700623,129.495926 832.439453,129.495926 826.242310,129.495926 
	C826.242310,166.222351 826.242310,202.606369 826.242310,238.829987 
	C832.921631,238.829987 839.177734,238.829987 845.844971,238.829987 
	C845.844971,204.854630 845.844971,171.223190 845.844971,136.623322 
M590.749817,272.201660 
	C585.608826,272.130646 580.465759,271.961182 575.328613,272.070618 
	C574.286682,272.092865 572.605408,272.957214 572.339966,273.790405 
	C569.693909,282.098694 567.283020,290.481934 564.517761,299.816223 
	C569.222839,298.451324 573.902832,302.000916 576.934692,296.951935 
	C581.711792,288.996582 586.376099,280.973511 590.749817,272.201660 
M609.804626,116.528267 
	C614.331665,108.915527 618.858765,101.302795 623.798645,92.995857 
	C617.506348,92.995857 612.227478,92.918350 606.955261,93.070045 
	C606.047546,93.096161 604.599976,93.918495 604.362427,94.674767 
	C601.759277,102.963394 599.346924,111.311928 596.624207,120.518234 
	C601.440979,119.006012 606.460999,122.872665 609.804626,116.528267 
M931.835388,120.083321 
	C935.187256,119.740067 940.269104,120.655098 941.592163,118.836121 
	C947.374268,110.886612 952.065918,102.143845 957.433411,93.223572 
	C950.567810,93.223572 944.507751,93.223572 938.137085,93.223572 
	C935.747314,102.127396 933.394409,110.893867 931.835388,120.083321 
z"/>
<path fill="#FFFDFE" opacity="1.000000" stroke="none" 
	d="
M208.828339,235.999908 
	C209.545532,218.730209 208.907791,201.763565 211.310165,185.238876 
	C214.586380,162.703506 225.189133,143.433212 246.917587,133.632675 
	C272.923157,121.902946 299.892090,121.710480 325.614868,134.321899 
	C348.249634,145.419312 357.448212,166.403809 360.915161,190.178406 
	C362.062683,198.047791 362.412933,206.090408 362.442108,214.056320 
	C362.589111,254.196548 362.553406,294.337677 362.483887,334.478333 
	C362.461945,347.151947 361.620026,359.753967 357.656982,371.942596 
	C347.481354,403.238464 323.071289,420.908356 289.207794,421.515381 
	C274.396301,421.780884 259.906433,420.236450 246.571548,413.215790 
	C226.176376,402.477997 215.605194,384.580292 211.170898,362.723663 
	C209.627213,355.114899 208.982071,347.209320 208.929184,339.432495 
	C208.695908,305.122986 208.828354,270.811005 208.828339,235.999908 
M269.629303,363.646698 
	C273.816620,370.994080 280.246979,373.954468 288.476624,372.932068 
	C296.082672,371.987122 301.060089,367.266754 302.968506,360.234253 
	C304.819946,353.411926 306.291473,346.242706 306.340240,339.214783 
	C306.640594,295.927521 306.679108,252.635620 306.321686,209.349258 
	C306.255432,201.323776 304.634064,193.145126 302.560272,185.348419 
	C300.442963,177.387970 294.163330,173.905792 285.256622,174.004074 
	C276.291992,174.102982 270.314728,177.737823 268.202301,185.746048 
	C266.437683,192.435913 265.027161,199.447647 264.984619,206.326263 
	C264.705688,251.445343 264.650635,296.568604 265.037354,341.686096 
	C265.098358,348.804962 267.767914,355.901489 269.629303,363.646698 
z"/>
<path fill="#FFFEFF" opacity="1.000000" stroke="none" 
	d="
M876.994873,985.831970 
	C880.991943,985.832153 884.502747,986.016907 887.985840,985.785461 
	C892.305603,985.498352 893.955566,987.246094 893.894897,991.580505 
	C893.727051,1003.572998 893.837341,1015.569397 893.837463,1027.564209 
	C893.837524,1041.724731 893.728210,1055.886719 893.901489,1070.045166 
	C893.955872,1074.488892 892.530151,1076.245361 887.863525,1076.240234 
	C797.402588,1076.142212 706.941589,1076.139893 616.480774,1076.247803 
	C611.854614,1076.253296 610.393616,1074.721191 610.421021,1070.171875 
	C610.576294,1044.350708 610.490784,1018.528015 610.499329,992.705811 
	C610.501587,985.916443 610.588623,985.834717 617.607910,985.834412 
	C703.904053,985.830505 790.200134,985.831970 876.994873,985.831970 
z"/>
<path fill="#FFFEFF" opacity="1.000000" stroke="none" 
	d="
M610.495728,881.990723 
	C610.495850,859.335815 610.604858,837.178162 610.409241,815.023315 
	C610.367310,810.283264 611.754944,808.727722 616.647888,808.734924 
	C706.940125,808.867676 797.232666,808.864868 887.524902,808.740662 
	C892.338806,808.734070 893.951721,810.169739 893.919373,815.002808 
	C893.745850,840.989868 893.766907,866.979065 893.903870,892.966553 
	C893.927673,897.483337 892.415405,899.080505 887.807434,899.075439 
	C797.348450,898.975159 706.889404,898.972778 616.430542,899.081238 
	C611.779114,899.086853 610.101685,897.502014 610.443665,892.980225 
	C610.706787,889.501709 610.495850,885.987427 610.495728,881.990723 
z"/>
<path fill="#FFFDFE" opacity="1.000000" stroke="none" 
	d="
M1143.998535,944.815369 
	C1100.632446,988.220947 1057.514771,1031.360596 1014.332397,1074.435547 
	C1012.940613,1075.823853 1010.885803,1076.547607 1009.140137,1077.581177 
	C1008.589722,1075.628784 1007.559631,1073.676880 1007.557800,1071.723877 
	C1007.477966,985.566833 1007.488770,899.409729 1007.489502,813.252563 
	C1007.489563,812.252747 1007.319153,811.207153 1007.555786,810.265259 
	C1007.819153,809.217163 1008.311279,807.564819 1008.966553,807.427185 
	C1010.031250,807.203735 1011.370728,807.873230 1012.476379,808.409058 
	C1013.186401,808.752991 1013.688782,809.529419 1014.277771,810.118469 
	C1056.817993,852.657349 1099.355347,895.198975 1141.903564,937.729858 
	C1143.816284,939.641785 1145.994751,941.398987 1143.998535,944.815369 
z"/>
<path fill="#FFFEFE" opacity="1.000000" stroke="none" 
	d="
M434.194763,1018.805176 
	C410.264771,994.874939 386.583893,971.195679 362.905670,947.513733 
	C358.178772,942.786072 358.156555,941.996216 362.700104,937.451904 
	C405.108887,895.036438 447.510803,852.614136 489.982635,810.261963 
	C491.351654,808.896851 493.447632,808.260864 495.204651,807.284912 
	C495.749207,809.262939 496.768158,811.240479 496.769958,813.218933 
	C496.849182,899.356506 496.849243,985.494202 496.769958,1071.631714 
	C496.768158,1073.595947 495.746582,1075.558960 495.200684,1077.522583 
	C493.444214,1076.530029 491.361908,1075.865845 489.980438,1074.495239 
	C471.411530,1056.072632 452.940247,1037.551758 434.194763,1018.805176 
z"/>
<path fill="#FFFEFF" opacity="1.000000" stroke="none" 
	d="
M796.078613,591.921631 
	C825.538330,621.382690 854.748535,650.593140 883.955261,679.807190 
	C884.894836,680.746948 886.034241,681.589233 886.668335,682.710083 
	C887.862000,684.820190 887.671387,686.647156 884.729675,686.958557 
	C883.411255,687.098083 882.067078,687.000000 880.734558,687.000000 
	C794.950195,687.000977 709.165833,687.000916 623.381470,687.000427 
	C622.215515,687.000427 621.040649,687.085693 619.885254,686.973328 
	C616.404297,686.634827 616.066833,684.850952 617.926208,682.296753 
	C618.604614,681.364807 619.534119,680.614258 620.358215,679.790039 
	C662.523743,637.622375 704.689087,595.454590 746.857910,553.290222 
	C751.745300,548.403381 752.549927,548.399902 757.307800,553.156128 
	C770.149292,565.993408 782.988403,578.833069 796.078613,591.921631 
z"/>
<path fill="#FFFFFF" opacity="1.000000" stroke="none" 
	d="
M628.035461,1197.833496 
	C712.170105,1197.833496 795.809875,1197.833496 879.449585,1197.833618 
	C880.782471,1197.833618 882.163208,1197.618652 883.434998,1197.898071 
	C884.737183,1198.184082 886.346863,1198.665161 887.018860,1199.623779 
	C887.419678,1200.195679 886.409668,1201.929321 885.783081,1202.993042 
	C885.291748,1203.827026 884.416809,1204.435669 883.710144,1205.142334 
	C841.533081,1247.319214 799.356689,1289.497070 757.177063,1331.671631 
	C752.418823,1336.429199 751.832031,1336.436401 747.168213,1331.773071 
	C704.988647,1289.598633 662.799255,1247.434082 620.688416,1205.191040 
	C619.091003,1203.588623 618.265259,1201.216797 617.079956,1199.203613 
	C619.232056,1198.746948 621.369812,1198.194336 623.541687,1197.869385 
	C624.847168,1197.674072 626.205811,1197.833496 628.035461,1197.833496 
z"/>
<path fill="#FFFCFD" opacity="1.000000" stroke="none" 
	d="
M180.844910,159.000092 
	C180.844910,244.953705 180.844910,330.407318 180.844910,416.187958 
	C162.352570,416.187958 144.271942,416.187958 125.579086,416.187958 
	C125.579086,339.847015 125.579086,263.634338 125.579086,187.061996 
	C111.529114,192.114838 98.131897,196.932922 83.993431,202.017578 
	C83.993431,192.690430 84.705765,183.739853 83.805481,174.954514 
	C82.777992,164.927933 85.664055,159.539871 95.698860,155.573776 
	C110.487755,149.728729 124.507149,141.768158 136.457016,130.804932 
	C137.324112,130.009430 138.829941,129.553574 140.042526,129.546097 
	C152.872849,129.466797 165.703949,129.504211 178.534760,129.539581 
	C179.167679,129.541321 179.799850,129.821075 180.844910,130.069382 
	C180.844910,139.574219 180.844910,149.037140 180.844910,159.000092 
z"/>
<path fill="#FFFCFD" opacity="1.000000" stroke="none" 
	d="
M635.914917,308.992065 
	C653.126648,311.809906 660.426880,319.001984 661.003479,335.695465 
	C661.646301,354.306702 661.587402,372.980835 660.857178,391.589233 
	C660.216980,407.902405 650.328125,417.259918 634.047791,417.967621 
	C623.265869,418.436310 612.447021,418.056427 601.320435,418.056427 
	C601.320435,381.663940 601.320435,345.442322 601.320435,308.975891 
	C612.661682,308.975891 624.067993,308.975891 635.914917,308.992065 
M639.462708,397.533661 
	C639.975891,393.761993 640.891541,389.994598 640.931946,386.217865 
	C641.099426,370.566132 641.033936,354.911469 640.970093,339.258179 
	C640.960022,336.780121 640.556824,334.299500 640.270386,331.827606 
	C639.685974,326.784546 636.525391,324.049011 631.793335,323.417847 
	C628.430176,322.969238 624.958984,323.330872 621.529907,323.330872 
	C621.529907,350.355865 621.529907,377.060791 621.529907,404.058655 
	C628.171265,403.604767 635.166687,405.696228 639.462708,397.533661 
z"/>
<path fill="#FEFAFC" opacity="1.000000" stroke="none" 
	d="
M519.468994,418.172913 
	C517.997864,416.719788 516.475952,415.408966 516.036804,413.802185 
	C512.310608,400.170776 508.784760,386.484650 505.189178,372.817444 
	C504.811371,371.381378 504.371307,369.961639 503.918488,368.389801 
	C501.287781,368.389801 498.843170,368.389801 495.703918,368.389801 
	C495.703918,384.896301 495.703918,401.277008 495.703918,417.912048 
	C488.595978,417.912048 482.180023,417.912048 475.456512,417.912048 
	C475.456512,381.510040 475.456512,345.294464 475.456512,307.721313 
	C489.429291,308.562134 503.319794,308.317413 516.812134,310.516052 
	C530.104065,312.682068 536.277954,323.637146 535.492859,339.395142 
	C535.008484,349.117615 533.509644,358.360718 523.857361,363.872589 
	C523.083862,364.314270 523.182434,367.149689 523.599182,368.675110 
	C527.761169,383.910095 532.079529,399.102325 536.336975,414.311371 
	C536.641113,415.397766 536.813416,416.521057 537.163391,418.178009 
	C531.184692,418.178009 525.552368,418.178009 519.468994,418.172913 
M495.477570,332.583618 
	C495.477570,340.006287 495.477570,347.428986 495.477570,355.096588 
	C502.848755,355.107361 510.257111,356.517395 513.997253,349.284424 
	C517.759705,342.008301 517.987671,333.755646 513.285461,326.899261 
	C509.191742,320.930176 502.144012,322.545990 495.477631,322.663330 
	C495.477631,326.013641 495.477631,328.814484 495.477570,332.583618 
z"/>
<path fill="#FEF9FB" opacity="1.000000" stroke="none" 
	d="
M733.528198,364.000305 
	C733.082886,375.292175 733.485901,386.203613 731.985901,396.846832 
	C729.936584,411.387726 722.677185,417.794159 708.186340,419.247620 
	C702.810486,419.786865 697.128601,419.615692 691.866028,418.476349 
	C679.332886,415.762970 672.489319,406.511414 672.095642,390.898499 
	C671.487488,366.770752 671.638733,342.623779 671.474548,318.484894 
	C671.453308,315.366821 671.471680,312.248474 671.471680,308.805420 
	C678.266479,308.805420 684.482422,308.805420 691.184387,308.805420 
	C691.184387,310.784668 691.184387,312.580811 691.184387,314.376923 
	C691.184448,338.024628 691.112000,361.672791 691.255859,385.319641 
	C691.279785,389.262238 691.989929,393.255005 692.839111,397.124512 
	C693.913696,402.020538 697.517212,404.209442 702.316040,404.416626 
	C707.322815,404.632751 710.921265,402.178406 712.249390,397.085266 
	C713.203674,393.425720 713.728699,389.550781 713.749390,385.768097 
	C713.879944,361.954590 713.815674,338.139954 713.815674,314.325714 
	C713.815674,312.532715 713.815674,310.739716 713.815674,308.711914 
	C720.426208,308.711914 726.526489,308.711914 733.528198,308.711914 
	C733.528198,327.038208 733.528198,345.269257 733.528198,364.000305 
z"/>
<path fill="#FFFCFD" opacity="1.000000" stroke="none" 
	d="
M508.825897,195.999893 
	C508.825897,173.565277 508.825897,151.630661 508.825897,129.162476 
	C513.128845,129.162476 516.963257,128.819183 520.677185,129.338333 
	C522.082214,129.534744 523.708313,131.501266 524.385925,133.035370 
	C531.904114,150.055008 539.253784,167.149078 546.656433,184.219803 
	C547.162231,185.386215 547.727356,186.526917 549.259766,187.575226 
	C549.259766,168.312546 549.259766,149.049850 549.259766,129.477234 
	C555.198059,129.477234 560.406494,129.477234 565.895569,129.477234 
	C565.895569,165.919556 565.895569,202.156708 565.895569,239.153671 
	C562.197083,239.153671 558.393250,239.523056 554.731628,238.963028 
	C553.360352,238.753311 551.874817,236.568390 551.196899,234.964676 
	C543.498596,216.754303 535.948425,198.481369 528.352600,180.227615 
	C527.875122,179.080002 527.348816,177.952682 526.031311,177.000961 
	C526.031311,197.526718 526.031311,218.052460 526.031311,238.873672 
	C520.232727,238.873672 514.839783,238.873672 508.825897,238.873672 
	C508.825897,224.684814 508.825897,210.592361 508.825897,195.999893 
z"/>
<path fill="#FEFAFC" opacity="1.000000" stroke="none" 
	d="
M674.031738,236.096008 
	C660.324341,245.718292 640.835876,240.260406 635.115234,224.978149 
	C632.882751,219.014542 631.558350,212.388474 631.415710,206.028366 
	C631.054016,189.898804 630.949585,173.709885 631.925049,157.616440 
	C633.396729,133.337631 646.988281,126.305031 668.527466,128.357498 
	C683.639832,129.797546 691.004700,137.499847 692.749878,152.739975 
	C693.217957,156.827499 692.820740,161.014114 692.820740,165.503174 
	C686.770752,165.503174 680.698303,165.503174 674.246155,165.503174 
	C673.888855,160.824188 673.788086,156.056473 673.099609,151.375183 
	C672.265869,145.705429 669.333008,143.349609 663.698853,143.048721 
	C658.054199,142.747269 654.232056,145.174606 652.922302,150.541779 
	C652.143921,153.731262 651.917969,157.118057 651.896423,160.419083 
	C651.795410,175.906265 651.786865,191.394943 651.901001,206.881943 
	C651.926514,210.348953 652.281250,213.875244 653.009094,217.261490 
	C654.209839,222.848251 657.216553,225.154282 662.770142,225.428680 
	C668.162292,225.695099 672.370117,223.618927 673.511536,218.457870 
	C675.030334,211.590302 675.329773,204.453064 676.222229,196.841751 
	C671.518860,196.626053 667.947510,196.462265 664.107056,196.286133 
	C664.107056,191.958038 664.107056,187.876465 664.107056,183.470734 
	C673.807983,183.470734 683.397156,183.470734 693.420227,183.470734 
	C693.420227,201.774719 693.420227,220.133636 693.420227,239.159714 
	C689.849976,239.159714 685.747681,240.214874 682.813538,238.817383 
	C680.569580,237.748566 679.802917,233.578140 678.418213,230.863998 
	C677.227356,232.306763 675.763428,234.080292 674.031738,236.096008 
z"/>
<path fill="#FFFCFD" opacity="1.000000" stroke="none" 
	d="
M758.038818,204.798843 
	C760.359802,216.297699 762.626160,227.374771 764.970581,238.833405 
	C758.635803,238.833405 752.568481,238.833405 746.141663,238.833405 
	C744.685364,230.738770 743.221497,222.602066 741.704468,214.169769 
	C735.526917,214.169769 729.444336,214.169769 722.990601,214.169769 
	C721.506104,222.323578 720.025635,230.455002 718.495483,238.859680 
	C712.259460,238.859680 706.180847,238.859680 699.488953,238.859680 
	C701.421143,229.107468 703.271912,219.548325 705.213684,210.007706 
	C710.423462,184.410141 715.731812,158.832352 720.825684,133.211868 
	C721.426636,130.188812 722.385864,128.945831 725.597290,129.086700 
	C731.224915,129.333542 736.871155,129.155579 742.710083,129.155579 
	C747.860535,154.520279 752.922363,179.448669 758.038818,204.798843 
M726.706543,191.005295 
	C726.222046,194.024063 725.737610,197.042847 725.221191,200.260498 
	C730.222290,200.260498 734.488953,200.260498 739.411011,200.260498 
	C737.143188,186.206024 734.933655,172.512619 732.562988,157.820755 
	C732.052063,159.558487 731.738708,160.322311 731.607605,161.116226 
	C730.009155,170.793732 728.437561,180.475677 726.706543,191.005295 
z"/>
<path fill="#FEFBFC" opacity="1.000000" stroke="none" 
	d="
M1002.836121,159.221008 
	C1002.213989,155.701477 1001.910583,152.510406 1000.935547,149.539764 
	C999.422668,144.930374 995.690613,142.731232 991.379272,143.360580 
	C986.518982,144.070084 983.543884,147.037033 983.083008,151.927307 
	C982.586853,157.192886 984.099792,161.892807 988.002869,165.521957 
	C993.730713,170.847916 999.615112,176.006241 1005.460876,181.204483 
	C1015.697815,190.307480 1022.765198,200.812988 1022.074036,215.359894 
	C1021.459717,228.291306 1012.548706,238.484619 999.712708,240.124237 
	C977.638428,242.943924 963.556824,229.920746 964.275452,206.814224 
	C969.774780,205.649567 975.399536,204.458344 981.319275,203.204651 
	C981.887878,206.914551 982.190735,210.360016 983.001038,213.681671 
	C983.580811,216.058151 984.550293,218.453476 985.860596,220.512970 
	C988.244385,224.259995 991.899780,225.613770 996.252075,224.659042 
	C1000.724365,223.677963 1002.438721,220.263626 1002.733032,216.208450 
	C1003.277771,208.701874 1000.110718,202.586884 994.668945,197.661346 
	C988.620972,192.187103 982.431824,186.866989 976.247559,181.545609 
	C965.630432,172.409927 962.000061,160.865143 965.089600,147.423691 
	C965.984070,143.532318 967.914062,139.355606 970.624695,136.502380 
	C979.024231,127.661209 989.853149,126.637314 1001.143982,129.033386 
	C1011.098572,131.145889 1016.179932,138.244202 1018.578064,147.579559 
	C1019.395752,150.762589 1019.751526,154.064316 1020.414795,157.864594 
	C1014.804871,158.963730 1009.650085,160.014664 1004.469299,160.916794 
	C1004.018127,160.995361 1003.396301,160.094299 1002.836121,159.221008 
z"/>
<path fill="#FEFBFC" opacity="1.000000" stroke="none" 
	d="
M919.271240,402.456421 
	C924.911072,395.224854 923.673706,385.739502 915.800720,378.096191 
	C909.361572,371.844971 902.374817,366.159729 895.666382,360.183594 
	C889.369019,354.573639 885.260010,347.793457 884.210144,339.245331 
	C881.682617,318.664307 895.655579,304.751495 916.386475,307.327667 
	C931.629517,309.221863 940.484680,320.369171 939.701294,337.165741 
	C934.356995,338.224182 928.906738,339.303650 923.406067,340.393097 
	C922.518494,336.115112 922.007385,332.330780 920.915833,328.721985 
	C919.528442,324.135559 916.130554,322.115021 911.331177,322.632355 
	C906.537842,323.149048 903.552551,326.189758 903.059937,331.119537 
	C902.510803,336.614960 904.272522,341.352386 908.295349,345.075562 
	C913.788269,350.159485 919.445251,355.066193 925.035278,360.045105 
	C934.777527,368.722382 942.168274,378.552185 942.044434,392.486206 
	C941.892395,409.591492 929.365601,421.196899 912.282959,419.768036 
	C893.905029,418.230835 883.957825,406.505066 884.188904,385.984222 
	C889.755554,384.827637 895.460388,383.642334 900.956848,382.500305 
	C902.092773,387.669189 902.640930,392.321777 904.169250,396.626343 
	C906.638245,403.580566 911.990723,405.545410 919.271240,402.456421 
z"/>
<path fill="#FEF8FA" opacity="1.000000" stroke="none" 
	d="
M953.185913,179.292816 
	C953.186401,182.701599 953.186401,185.664658 953.186401,189.056992 
	C946.343262,189.056992 939.908813,189.056992 933.166931,189.056992 
	C933.166931,201.206940 933.166931,212.923950 933.166931,225.005692 
	C941.634766,225.005692 949.905029,225.005692 958.592285,225.005692 
	C958.592285,229.738983 958.592285,234.126251 958.592285,238.853806 
	C943.551514,238.853806 928.340210,238.853806 912.797485,238.853806 
	C912.797485,202.445694 912.797485,166.092468 912.797485,129.441650 
	C928.064453,129.441650 943.117554,129.441650 958.513672,129.441650 
	C958.513672,134.143112 958.513672,138.691406 958.513672,143.694168 
	C950.091858,143.694168 941.837463,143.694168 933.221985,143.694168 
	C933.221985,154.195480 933.221985,164.256134 933.221985,174.754929 
	C939.535034,174.754929 945.961853,174.754929 952.737549,174.754929 
	C952.914795,176.374054 953.050110,177.610565 953.185913,179.292816 
z"/>
<path fill="#FEF7FA" opacity="1.000000" stroke="none" 
	d="
M873.189575,364.509766 
	C873.592712,367.791840 872.352295,368.693787 869.538025,368.591370 
	C864.225403,368.397980 858.900757,368.535492 853.221436,368.535492 
	C853.221436,380.401550 853.221436,391.961365 853.221436,404.061707 
	C861.649963,404.061707 870.052307,404.061707 878.728271,404.061707 
	C878.728271,409.000824 878.728271,413.407562 878.728271,418.003845 
	C863.477661,418.003845 848.352356,418.003845 832.844482,418.003845 
	C832.844482,381.679443 832.844482,345.482056 832.844482,308.872803 
	C848.082458,308.872803 863.276611,308.872803 878.666138,308.872803 
	C878.666138,313.434662 878.666138,317.726593 878.666138,322.652405 
	C870.213257,322.652405 861.827209,322.652405 853.158569,322.652405 
	C853.158569,333.340179 853.158569,343.397888 853.158569,353.858704 
	C859.725037,353.858704 866.165771,353.858704 873.190369,353.858704 
	C873.190369,357.520233 873.190369,360.795837 873.189575,364.509766 
z"/>
<path fill="#FEFBFC" opacity="1.000000" stroke="none" 
	d="
M575.997253,308.481262 
	C581.801575,308.481323 587.106567,308.481323 592.706299,308.481323 
	C592.706299,313.314453 592.706299,317.726929 592.706299,322.698608 
	C584.342224,322.698608 575.943787,322.698608 567.283936,322.698608 
	C567.283936,333.318634 567.283936,343.386230 567.283936,353.841858 
	C573.822632,353.841858 580.260132,353.841858 587.104614,353.841858 
	C587.104614,358.747681 587.104614,363.279236 587.104614,368.301575 
	C580.645325,368.301575 574.219116,368.301575 567.402344,368.301575 
	C567.402344,380.321655 567.402344,391.868958 567.402344,403.969055 
	C575.644592,403.969055 584.036255,403.969055 592.796875,403.969055 
	C592.796875,408.879089 592.796875,413.247864 592.796875,417.900818 
	C577.637207,417.900818 562.563660,417.900818 547.155518,417.900818 
	C547.155518,381.597382 547.155518,345.374939 547.155518,308.481232 
	C556.618530,308.481232 566.058228,308.481232 575.997253,308.481262 
z"/>
<path fill="#FFFDFE" opacity="1.000000" stroke="none" 
	d="
M578.995605,197.000000 
	C578.995605,174.226395 578.995605,151.952789 578.995605,129.420364 
	C594.409973,129.420364 609.329895,129.420364 624.627808,129.420364 
	C624.627808,134.007874 624.627808,138.569717 624.627808,143.693130 
	C616.338989,143.693130 607.941345,143.693130 599.280640,143.693130 
	C599.280640,154.312042 599.280640,164.380478 599.280640,174.838989 
	C605.807800,174.838989 612.244019,174.838989 619.092285,174.838989 
	C619.092285,179.737198 619.092285,184.255264 619.092285,189.195618 
	C612.476074,189.195618 606.030701,189.195618 599.301880,189.195618 
	C599.301880,201.189072 599.301880,212.774597 599.301880,224.915161 
	C607.580078,224.915161 615.966614,224.915161 624.759033,224.915161 
	C624.759033,229.824387 624.759033,234.190811 624.759033,238.869049 
	C609.701904,238.869049 594.639832,238.869049 578.995605,238.869049 
	C578.995605,225.038422 578.995605,211.269211 578.995605,197.000000 
z"/>
<path fill="#FEF5F8" opacity="1.000000" stroke="none" 
	d="
M827.503296,310.667419 
	C827.530518,315.051025 827.530518,318.999298 827.530518,323.381714 
	C821.490723,323.381714 816.051086,323.381714 810.098450,323.381714 
	C810.098450,355.057892 810.098450,386.288544 810.098450,417.856049 
	C803.038696,417.856049 796.490967,417.856049 789.530640,417.856049 
	C789.530640,386.596375 789.530640,355.511017 789.530640,323.656738 
	C783.281677,323.656738 777.413513,323.656738 771.358887,323.656738 
	C771.358887,318.289948 771.358887,313.695251 771.358887,308.454315 
	C773.696289,308.454315 775.815613,308.454285 777.934875,308.454315 
	C792.757568,308.454407 807.580872,308.397369 822.402283,308.532715 
	C824.098633,308.548218 825.785095,309.639587 827.503296,310.667419 
z"/>
<path fill="#FEF7FA" opacity="1.000000" stroke="none" 
	d="
M889.858032,167.000107 
	C889.858032,191.136505 889.858032,214.772919 889.858032,238.798828 
	C883.093323,238.798828 876.563354,238.798828 869.401123,238.798828 
	C869.401123,207.369614 869.401123,176.000961 869.401123,144.169052 
	C863.014282,144.169052 857.244812,144.169052 851.354309,144.169052 
	C851.354309,139.081589 851.354309,134.466309 851.354309,129.497482 
	C869.963196,129.497482 888.364868,129.497482 907.152100,129.497482 
	C907.152100,134.162872 907.152100,138.896027 907.152100,144.121643 
	C901.532837,144.121643 895.939941,144.121643 889.858032,144.121643 
	C889.858032,151.898819 889.858032,159.199463 889.858032,167.000107 
z"/>
<path fill="#FFFDFE" opacity="1.000000" stroke="none" 
	d="
M798.999512,239.171661 
	C789.862915,239.171661 781.226196,239.171661 772.294922,239.171661 
	C772.294922,202.435791 772.294922,166.052780 772.294922,129.414185 
	C778.770996,129.414185 785.036987,129.414185 791.962158,129.414185 
	C791.962158,161.120880 791.962158,192.815582 791.962158,225.021835 
	C801.014099,225.021835 809.428284,225.021835 818.171387,225.021835 
	C818.171387,229.946426 818.171387,234.355286 818.171387,239.171661 
	C811.790955,239.171661 805.645142,239.171661 798.999512,239.171661 
z"/>
<path fill="#FFFCFD" opacity="1.000000" stroke="none" 
	d="
M495.844940,199.000092 
	C495.844940,212.471222 495.844940,225.442352 495.844940,238.792938 
	C489.121063,238.792938 482.750824,238.792938 476.099915,238.792938 
	C476.099915,202.442154 476.099915,166.181046 476.099915,129.537170 
	C482.489014,129.537170 488.862213,129.537170 495.844940,129.537170 
	C495.844940,152.617874 495.844940,175.558975 495.844940,199.000092 
z"/>
<path fill="#FEFBFC" opacity="1.000000" stroke="none" 
	d="
M745.822449,358.999878 
	C745.822449,342.032501 745.822449,325.565155 745.822449,308.802887 
	C752.613342,308.802887 759.012878,308.802887 765.629456,308.802887 
	C765.629456,345.202820 765.629456,381.281525 765.629456,417.769104 
	C759.172485,417.769104 752.805664,417.769104 745.822449,417.769104 
	C745.822449,398.345001 745.822449,378.922455 745.822449,358.999878 
z"/>
<path fill="#FFFCFD" opacity="1.000000" stroke="none" 
	d="
M845.844971,137.107544 
	C845.844971,171.223190 845.844971,204.854630 845.844971,238.829987 
	C839.177734,238.829987 832.921631,238.829987 826.242310,238.829987 
	C826.242310,202.606369 826.242310,166.222351 826.242310,129.495926 
	C832.439453,129.495926 838.700623,129.495926 845.844971,129.495926 
	C845.844971,131.803604 845.844971,134.213455 845.844971,137.107544 
z"/>
<path fill="#FEF8FA" opacity="1.000000" stroke="none" 
	d="
M590.918945,272.590393 
	C586.376099,280.973511 581.711792,288.996582 576.934692,296.951935 
	C573.902832,302.000916 569.222839,298.451324 564.517761,299.816223 
	C567.283020,290.481934 569.693909,282.098694 572.339966,273.790405 
	C572.605408,272.957214 574.286682,272.092865 575.328613,272.070618 
	C580.465759,271.961182 585.608826,272.130646 590.918945,272.590393 
z"/>
<path fill="#FEFAFC" opacity="1.000000" stroke="none" 
	d="
M609.579834,116.844955 
	C606.460999,122.872665 601.440979,119.006012 596.624207,120.518234 
	C599.346924,111.311928 601.759277,102.963394 604.362427,94.674767 
	C604.599976,93.918495 606.047546,93.096161 606.955261,93.070045 
	C612.227478,92.918350 617.506348,92.995857 623.798645,92.995857 
	C618.858765,101.302795 614.331665,108.915527 609.579834,116.844955 
z"/>
<path fill="#FEFAFC" opacity="1.000000" stroke="none" 
	d="
M931.438477,119.871834 
	C933.394409,110.893867 935.747314,102.127396 938.137085,93.223572 
	C944.507751,93.223572 950.567810,93.223572 957.433411,93.223572 
	C952.065918,102.143845 947.374268,110.886612 941.592163,118.836121 
	C940.269104,120.655098 935.187256,119.740067 931.438477,119.871834 
z"/>
<path fill="#DD1367" opacity="1.000000" stroke="none" 
	d="
M269.430359,363.327515 
	C267.767914,355.901489 265.098358,348.804962 265.037354,341.686096 
	C264.650635,296.568604 264.705688,251.445343 264.984619,206.326263 
	C265.027161,199.447647 266.437683,192.435913 268.202301,185.746048 
	C270.314728,177.737823 276.291992,174.102982 285.256622,174.004074 
	C294.163330,173.905792 300.442963,177.387970 302.560272,185.348419 
	C304.634064,193.145126 306.255432,201.323776 306.321686,209.349258 
	C306.679108,252.635620 306.640594,295.927521 306.340240,339.214783 
	C306.291473,346.242706 304.819946,353.411926 302.968506,360.234253 
	C301.060089,367.266754 296.082672,371.987122 288.476624,372.932068 
	C280.246979,373.954468 273.816620,370.994080 269.430359,363.327515 
z"/>
<path fill="#DE176A" opacity="1.000000" stroke="none" 
	d="
M639.281494,397.888702 
	C635.166687,405.696228 628.171265,403.604767 621.529907,404.058655 
	C621.529907,377.060791 621.529907,350.355865 621.529907,323.330872 
	C624.958984,323.330872 628.430176,322.969238 631.793335,323.417847 
	C636.525391,324.049011 639.685974,326.784546 640.270386,331.827606 
	C640.556824,334.299500 640.960022,336.780121 640.970093,339.258179 
	C641.033936,354.911469 641.099426,370.566132 640.931946,386.217865 
	C640.891541,389.994598 639.975891,393.761993 639.281494,397.888702 
z"/>
<path fill="#DE1C6D" opacity="1.000000" stroke="none" 
	d="
M495.477600,332.099457 
	C495.477631,328.814484 495.477631,326.013641 495.477631,322.663330 
	C502.144012,322.545990 509.191742,320.930176 513.285461,326.899261 
	C517.987671,333.755646 517.759705,342.008301 513.997253,349.284424 
	C510.257111,356.517395 502.848755,355.107361 495.477570,355.096588 
	C495.477570,347.428986 495.477570,340.006287 495.477600,332.099457 
z"/>
<path fill="#DE1C6D" opacity="1.000000" stroke="none" 
	d="
M726.782715,190.580872 
	C728.437561,180.475677 730.009155,170.793732 731.607605,161.116226 
	C731.738708,160.322311 732.052063,159.558487 732.562988,157.820755 
	C734.933655,172.512619 737.143188,186.206024 739.411011,200.260498 
	C734.488953,200.260498 730.222290,200.260498 725.221191,200.260498 
	C725.737610,197.042847 726.222046,194.024063 726.782715,190.580872 
z"/>
</svg>