<svg version="1.1" id="Layer_1" xmlns="http://www.w3.org/2000/svg" xmlns:xlink="http://www.w3.org/1999/xlink" x="0px" y="0px"
	 width="100%" viewBox="0 0 1500 1500" enable-background="new 0 0 1500 1500" xml:space="preserve">
<path fill="#19486A" opacity="1.000000" stroke="none" 
	d="
M1.000000,540.000000 
	C1.000000,360.000031 1.000000,180.500061 1.000000,1.000072 
	C500.999878,1.000048 1000.999756,1.000048 1500.999756,1.000024 
	C1500.999756,500.999786 1500.999756,1000.999573 1500.999878,1500.999512 
	C1001.000305,1500.999756 501.000610,1500.999756 1.000451,1500.999878 
	C1.000000,1180.833374 1.000000,860.666687 1.000000,540.000000 
M1060.658936,145.387985 
	C1056.736450,160.036957 1060.513550,172.250549 1072.072388,182.135056 
	C1078.523560,187.651810 1084.913086,193.252792 1091.109009,199.052460 
	C1095.811279,203.454010 1098.206299,209.081833 1097.934204,215.593765 
	C1097.754883,219.886887 1096.105103,223.482620 1091.519653,224.638626 
	C1086.957153,225.788803 1083.195679,224.140198 1080.800415,220.204681 
	C1079.449463,217.985092 1078.591553,215.373962 1077.966797,212.827484 
	C1077.223022,209.795334 1076.967407,206.643433 1076.451538,203.220169 
	C1070.621704,204.447617 1064.995483,205.632202 1059.032837,206.887619 
	C1059.395752,210.088150 1059.593506,212.889221 1060.045532,215.648636 
	C1063.420654,236.252670 1083.958252,246.920578 1102.864014,237.810394 
	C1109.638672,234.545898 1114.357910,229.270187 1116.138916,221.845200 
	C1119.934448,206.020844 1113.914307,193.487991 1102.530273,182.977219 
	C1096.906860,177.785309 1090.972046,172.932480 1085.274536,167.818817 
	C1080.913086,163.904343 1077.895264,159.265915 1078.170776,153.057220 
	C1078.415161,147.554688 1081.173828,144.284424 1086.407593,143.425323 
	C1091.119629,142.651871 1094.894653,145.068604 1096.401611,150.323624 
	C1097.394897,153.787003 1097.806396,157.417175 1098.536377,161.279129 
	C1104.106323,160.143951 1109.566040,159.031281 1114.913452,157.941467 
	C1115.171509,141.155548 1107.134155,130.502197 1092.940186,128.292938 
	C1079.249146,126.161957 1066.958130,131.694168 1061.039185,142.454315 
	C1060.587769,138.104828 1060.136353,133.755325 1059.676025,129.319504 
	C1041.158569,129.319504 1022.711914,129.319504 1004.039307,129.319504 
	C1004.039307,134.249741 1004.039307,139.005905 1004.039307,144.320557 
	C1010.108276,144.320557 1015.979004,144.320557 1022.131470,144.320557 
	C1022.131470,176.148880 1022.131470,207.421112 1022.131470,238.911469 
	C1029.023193,238.911469 1035.601807,238.911469 1042.723511,238.911469 
	C1042.723511,207.252090 1042.723511,175.864716 1042.723511,144.539566 
	C1049.202637,144.539566 1055.136353,144.539566 1060.658936,145.387985 
M861.947205,749.544006 
	C819.265686,716.309875 771.384155,705.262451 719.093018,718.897400 
	C665.986450,732.744995 629.431824,766.503174 608.618774,817.254761 
	C607.463623,820.071533 606.405334,821.797241 602.743286,821.965942 
	C579.451172,823.038818 557.573547,829.483215 536.994934,840.345764 
	C476.955200,872.038391 442.393738,939.551880 452.273224,1006.109680 
	C458.448792,1047.714478 477.896790,1081.983643 510.142090,1108.943970 
	C512.550415,1110.957642 513.017273,1112.543823 512.224304,1115.622070 
	C506.157654,1139.171387 505.302887,1162.911255 509.841492,1186.880615 
	C531.080872,1299.049927 659.655212,1354.800293 755.915710,1293.418579 
	C759.546570,1291.103271 761.885132,1291.136230 765.548645,1293.375122 
	C803.422607,1316.519409 844.340393,1323.529663 887.398682,1313.291016 
	C976.782349,1292.036865 1029.501953,1204.977783 1007.854614,1115.561646 
	C1007.147705,1112.641479 1007.356567,1110.923584 1009.802307,1108.810791 
	C1055.646240,1069.209106 1075.301880,1019.293396 1067.046021,959.189514 
	C1056.794189,884.556396 992.287048,825.880981 916.984253,821.906128 
	C914.053894,821.751465 912.623596,820.891968 911.545959,818.073608 
	C901.219299,791.065552 884.828186,768.381470 861.947205,749.544006 
M332.092377,234.731262 
	C336.768188,215.340012 340.997314,195.826523 346.260620,176.596069 
	C350.499542,161.108536 347.910675,145.570435 348.950531,129.929596 
	C304.712006,129.929596 261.044952,129.929596 217.494705,129.929596 
	C217.494705,143.948730 217.494705,157.519974 217.494705,171.652618 
	C243.379440,171.652618 268.932617,171.652618 294.972443,171.652618 
	C274.854675,253.567780 254.896500,334.833282 234.836777,416.512146 
	C252.137070,416.512146 268.786591,416.575775 285.433014,416.379730 
	C286.638855,416.365540 288.516998,414.669983 288.895721,413.401733 
	C290.510681,407.993774 291.684143,402.453644 293.010040,396.959686 
	C305.994904,343.156158 318.977966,289.352203 332.092377,234.731262 
M129.827530,346.499908 
	C129.827530,369.648071 129.827530,392.796234 129.827530,416.212280 
	C148.268387,416.212280 166.346069,416.212280 184.631958,416.212280 
	C184.631958,320.646393 184.631958,225.380600 184.631958,129.487534 
	C174.019058,129.487534 163.553314,129.765518 153.111008,129.390671 
	C146.044144,129.136993 140.684204,131.288162 134.602417,135.333755 
	C120.963211,144.406555 106.076294,151.597412 91.770927,159.684616 
	C90.312187,160.509293 88.345512,162.196304 88.318092,163.518494 
	C88.056183,176.148575 88.161613,188.786270 88.161613,202.001587 
	C102.251328,196.937836 115.894691,192.034485 129.827530,187.027115 
	C129.827530,240.177536 129.827530,292.838715 129.827530,346.499908 
M738.502441,487.825165 
	C733.394897,487.825165 728.287415,487.825165 723.115356,487.825165 
	C723.115356,524.629700 723.115356,560.855469 723.115356,597.348572 
	C735.033875,597.348572 746.697998,597.896973 758.289490,597.213806 
	C773.774780,596.301025 782.630127,588.342041 784.554321,573.509888 
	C786.373718,559.485840 785.663635,544.711243 767.686401,538.342651 
	C777.104675,535.745789 780.569885,529.013916 781.731628,520.529602 
	C784.458008,500.617920 774.473083,488.580597 754.494690,487.872253 
	C749.502563,487.695312 744.499268,487.832397 738.502441,487.825165 
M1370.852051,205.502228 
	C1370.852051,200.095886 1370.852051,194.689529 1370.852051,189.353455 
	C1379.195312,189.005264 1379.194946,189.005371 1381.129517,196.356644 
	C1381.425537,197.481750 1381.729492,198.604706 1382.025879,199.729706 
	C1385.479126,212.843674 1388.931396,225.957855 1392.336426,238.891571 
	C1399.291382,238.891571 1405.711426,238.891571 1412.633545,238.891571 
	C1407.568848,220.799194 1402.615601,203.105301 1397.710083,185.581299 
	C1405.765137,180.032211 1408.577393,176.759827 1409.660522,169.312393 
	C1410.465210,163.779373 1410.718140,158.016647 1410.153564,152.464355 
	C1408.892578,140.064255 1403.130127,132.893143 1390.832642,131.080872 
	C1377.766479,129.155273 1364.405640,129.228058 1350.794678,128.405304 
	C1350.794678,165.900238 1350.794678,202.294174 1350.794678,238.797424 
	C1357.497192,238.797424 1364.027710,238.797424 1370.852051,238.797424 
	C1370.852051,227.776215 1370.852051,217.138916 1370.852051,205.502228 
M585.148132,396.499817 
	C585.148132,403.608246 585.148132,410.716675 585.148132,417.930908 
	C592.195190,417.930908 598.621826,417.930908 605.681702,417.930908 
	C605.681702,401.303223 605.681702,384.916199 605.681702,368.366577 
	C608.769165,368.366577 611.221313,368.366577 614.042419,368.366577 
	C618.399719,384.918732 622.746704,401.431793 627.051636,417.785004 
	C633.918579,417.785004 640.442993,417.785004 647.366394,417.785004 
	C642.313354,399.759338 637.393250,382.207916 632.423767,364.480377 
	C641.753418,359.927795 644.797668,351.999054 645.185852,342.654724 
	C645.337158,339.011627 645.375488,335.333801 645.060486,331.706970 
	C644.108276,320.742798 638.329407,312.401886 627.607300,310.737427 
	C613.773132,308.589844 599.609619,308.563904 585.148132,307.594818 
	C585.148132,337.909210 585.148132,366.704559 585.148132,396.499817 
M435.774780,597.515930 
	C445.929596,597.351135 456.116119,597.632019 466.231354,596.911438 
	C479.597900,595.959229 489.026154,588.715332 489.885406,575.496399 
	C491.316040,553.486816 491.187225,531.293823 490.219971,509.243713 
	C489.705872,497.523468 481.400818,489.928558 469.617828,489.002228 
	C456.953491,488.006683 444.150299,488.777405 431.210785,488.777405 
	C431.270782,488.619843 431.059082,488.916534 431.058807,489.213409 
	C431.027344,524.201233 431.053650,559.189270 430.924561,594.176697 
	C430.912720,597.390747 432.376221,597.764709 435.774780,597.515930 
M685.822327,486.766724 
	C683.330139,486.669525 680.836853,486.467194 678.345886,486.492035 
	C660.503296,486.669922 650.032166,495.170471 649.072083,512.992676 
	C648.000061,532.892334 648.141541,552.938171 649.185242,572.845398 
	C650.016174,588.694336 659.057922,596.783813 674.595764,598.675537 
	C694.739014,601.127991 709.257568,592.261353 710.553406,574.056458 
	C712.037415,553.209656 711.788147,532.129028 710.630920,511.242096 
	C709.811035,496.442444 700.859253,488.745544 685.822327,486.766724 
M1150.545654,402.949768 
	C1151.415771,399.068573 1152.960449,395.201233 1153.040527,391.303802 
	C1153.406128,373.483887 1154.032959,355.627258 1153.284424,337.837738 
	C1152.444336,317.873199 1144.107788,308.828979 1125.924194,307.410187 
	C1105.493408,305.816132 1092.142090,313.032440 1090.821777,334.599731 
	C1089.643921,353.835083 1089.682861,373.272797 1091.002686,392.496399 
	C1092.266968,410.912048 1101.474731,418.577942 1119.822876,419.767456 
	C1122.781616,419.959290 1125.799438,419.484558 1128.772705,419.160309 
	C1138.848389,418.061554 1146.267944,413.237793 1150.545654,402.949768 
M739.850952,197.500336 
	C739.850952,190.853577 739.850952,184.206818 739.850952,177.560043 
	C748.019592,194.593948 755.113586,211.740723 762.238770,228.874512 
	C766.873413,240.019485 766.893799,240.011826 779.139038,239.043823 
	C779.272400,239.033295 779.393921,238.873016 779.766113,238.608246 
	C779.766113,202.399979 779.766113,166.017273 779.766113,129.542389 
	C774.157715,129.542389 768.792786,129.542389 762.905518,129.542389 
	C762.905518,149.388123 762.905518,168.845901 762.905518,188.303680 
	C761.793518,187.504120 761.378906,186.641556 760.998230,185.764206 
	C753.393555,168.235352 745.691772,150.747284 738.284546,133.135300 
	C736.953308,129.970016 735.375549,128.761673 732.036255,129.088776 
	C729.088806,129.377472 726.090759,129.149200 722.795166,129.149200 
	C722.795166,165.896362 722.795166,202.292206 722.795166,238.795013 
	C728.499146,238.795013 734.030396,238.795013 739.461182,238.795013 
	C739.644592,238.098785 739.797668,237.787704 739.798279,237.476318 
	C739.824402,224.484299 739.836853,211.492264 739.850952,197.500336 
M1212.247559,222.094330 
	C1215.372925,231.027100 1220.997681,237.525131 1230.631226,239.185715 
	C1235.976074,240.107025 1241.561646,240.471176 1246.962280,240.066406 
	C1261.278687,238.993378 1270.775391,231.575287 1271.760376,217.379578 
	C1273.242432,196.020462 1273.169678,174.474152 1272.321777,153.064285 
	C1271.858398,141.364731 1265.328735,131.973877 1252.897095,129.422241 
	C1246.676636,128.145477 1239.937256,128.067398 1233.617432,128.881729 
	C1220.470459,130.575760 1213.219360,138.124741 1211.004639,151.145508 
	C1210.393799,154.736969 1210.064453,158.417206 1210.037476,162.059891 
	C1209.930054,176.553696 1209.814575,191.052124 1210.087280,205.541595 
	C1210.186401,210.811096 1211.361694,216.060379 1212.247559,222.094330 
M596.062073,239.136154 
	C602.275818,239.136154 608.489563,239.136154 615.065125,239.136154 
	C609.879883,220.656158 604.913757,202.956894 599.937927,185.222977 
	C606.291138,182.242935 610.428772,177.597397 611.451843,171.194763 
	C612.465027,164.853806 613.165588,158.231842 612.476379,151.899323 
	C611.146179,139.677948 604.935303,132.663589 592.590698,130.952637 
	C579.673767,129.162354 566.499146,129.230759 553.107056,128.467911 
	C553.107056,166.005905 553.107056,202.385361 553.107056,238.930359 
	C559.774902,238.930359 566.178772,238.930359 573.092529,238.930359 
	C573.092529,222.293594 573.092529,205.891525 573.092529,189.399292 
	C576.213745,189.399292 578.818420,189.399292 581.664246,189.399292 
	C583.140991,194.987244 584.533752,200.438660 586.025330,205.862900 
	C589.057007,216.887955 592.142151,227.898346 596.062073,239.136154 
M858.657837,129.159470 
	C856.885620,129.159470 855.113464,129.159470 853.300415,129.159470 
	C853.300415,166.141693 853.300415,202.525803 853.300415,238.870148 
	C860.017578,238.870148 866.426636,238.870148 873.383667,238.870148 
	C873.383667,222.186768 873.383667,205.800003 873.383667,189.318985 
	C876.411682,189.318985 878.882812,189.318985 881.604675,189.318985 
	C882.095764,190.932159 882.620483,192.472244 883.033691,194.041687 
	C886.672119,207.859787 890.233276,221.698792 894.002869,235.480865 
	C894.385559,236.880157 895.928528,238.935806 897.033142,239.001373 
	C902.936218,239.351822 908.871094,239.166595 915.197754,239.166595 
	C910.045166,220.809372 905.078430,203.114410 900.067871,185.263168 
	C907.881409,181.712982 911.344299,175.343155 912.450073,167.508240 
	C912.935974,164.065140 913.196533,160.543961 913.094116,157.071960 
	C912.590515,140.008347 904.557861,131.279831 887.559326,129.944962 
	C878.283752,129.216568 868.937195,129.391769 858.657837,129.159470 
M1223.176880,388.500092 
	C1223.176880,361.941742 1223.176880,335.383423 1223.176880,308.887024 
	C1217.206543,308.887024 1211.983521,308.887024 1206.217285,308.887024 
	C1206.217285,328.434326 1206.217285,347.580048 1206.217285,366.725739 
	C1204.609253,365.281219 1203.803223,363.725616 1203.108887,362.121643 
	C1195.918579,345.511902 1188.794189,328.873230 1181.489624,312.313995 
	C1180.815552,310.786011 1179.149780,308.855530 1177.730591,308.659363 
	C1174.006836,308.144684 1170.164795,308.485626 1166.377319,308.485626 
	C1166.377319,345.345551 1166.377319,381.692596 1166.377319,417.937439 
	C1172.038940,417.937439 1177.313721,417.937439 1183.111328,417.937439 
	C1183.111328,397.089508 1183.111328,376.473877 1183.111328,355.858215 
	C1184.299072,356.790741 1184.764160,357.810181 1185.194214,358.844238 
	C1192.844604,377.244293 1200.451538,395.662720 1208.207520,414.018097 
	C1208.880981,415.611816 1210.384521,417.768311 1211.757690,417.976013 
	C1215.423340,418.530334 1219.228149,418.164673 1223.176880,418.164673 
	C1223.176880,408.126678 1223.176880,398.813385 1223.176880,388.500092 
M1322.153931,158.499939 
	C1322.153931,174.830170 1322.207642,191.160721 1322.106934,207.490326 
	C1322.087646,210.620667 1321.750488,213.813751 1321.052002,216.861450 
	C1319.697021,222.773895 1316.535034,225.187576 1310.929077,225.151901 
	C1305.552002,225.117676 1302.200317,222.469742 1300.945068,216.617020 
	C1300.218994,213.231766 1299.904663,209.698181 1299.891968,206.229553 
	C1299.804688,182.401184 1299.846191,158.572342 1299.846191,134.743652 
	C1299.846191,132.987122 1299.846069,131.230576 1299.846069,129.449066 
	C1292.847900,129.449066 1286.598389,129.449066 1280.346802,129.449066 
	C1280.196289,130.205200 1280.019287,130.679276 1280.019409,131.153351 
	C1280.020996,155.981247 1279.997437,180.809311 1280.096558,205.636887 
	C1280.111084,209.283401 1280.549438,212.951691 1281.075806,216.568573 
	C1283.046021,230.110062 1290.394653,238.158493 1302.695435,239.837082 
	C1307.107666,240.439178 1311.680176,240.511536 1316.121460,240.137054 
	C1330.593262,238.916809 1337.985962,232.110825 1340.742432,217.788269 
	C1341.338135,214.693192 1341.790771,211.514282 1341.802979,208.372009 
	C1341.904053,182.381760 1341.887451,156.391037 1341.886108,130.400452 
	C1341.886108,130.120728 1341.612793,129.841003 1341.481445,129.588959 
	C1335.078003,129.588959 1328.713623,129.588959 1322.153931,129.588959 
	C1322.153931,139.181824 1322.153931,148.340866 1322.153931,158.499939 
M908.177734,544.500061 
	C908.399963,533.191345 908.337158,521.866943 908.961121,510.580414 
	C909.288513,504.658386 912.478821,502.002808 917.740417,501.547668 
	C925.064148,500.914093 928.690613,503.971375 928.997253,511.443878 
	C929.218811,516.842712 929.040405,522.257996 929.040405,527.566772 
	C936.130432,527.566772 942.233887,527.566772 948.318054,527.566772 
	C948.318054,521.685120 948.875366,516.015930 948.211853,510.493439 
	C946.342346,494.933014 938.594116,487.755554 923.209473,486.533142 
	C902.469238,484.885223 890.486633,492.603973 888.824219,512.200378 
	C887.114685,532.351746 887.742432,552.790649 888.671997,573.042969 
	C889.227661,585.147339 895.633606,594.676453 908.448364,597.570190 
	C913.553589,598.722961 919.048584,598.969727 924.282593,598.560303 
	C935.100342,597.714233 943.758911,592.758972 946.473633,581.674133 
	C948.449951,573.604492 948.650879,565.100037 949.681641,556.468628 
	C942.038208,556.468628 935.816528,556.468628 929.105835,556.468628 
	C929.105835,562.069275 929.244019,567.367676 929.072205,572.655884 
	C928.836182,579.920776 925.689514,583.508667 919.641602,583.814880 
	C913.463074,584.127686 909.543091,581.022339 908.994629,573.915283 
	C908.266479,564.478760 908.409241,554.974976 908.177734,544.500061 
M729.542786,313.975006 
	C722.501160,348.574707 715.459534,383.174377 708.335938,418.176666 
	C714.062012,418.176666 718.885864,418.046539 723.698059,418.226288 
	C726.515869,418.331482 727.760010,417.605103 728.188782,414.510651 
	C729.182617,407.338318 730.710388,400.239960 732.000183,393.228607 
	C738.510864,393.228607 744.465393,393.228607 750.633484,393.228607 
	C752.157471,401.636261 753.650452,409.872803 755.108215,417.915222 
	C761.713684,417.915222 767.666321,417.915222 773.902832,417.915222 
	C766.479858,381.311127 759.119568,345.015808 751.710632,308.480804 
	C745.864075,308.480804 740.359619,308.742859 734.894653,308.391083 
	C731.080383,308.145569 729.740540,309.715637 729.542786,313.975006 
M937.546875,418.177032 
	C941.828979,418.177032 946.111084,418.177032 950.455078,418.177032 
	C952.071777,409.392365 953.583496,401.178131 955.032471,393.304749 
	C961.760071,393.304749 967.703918,393.304749 973.700317,393.304749 
	C975.212036,401.702911 976.674194,409.825836 978.111877,417.812500 
	C984.597534,417.812500 990.646729,417.812500 996.918701,417.812500 
	C989.484070,381.154663 982.130005,344.893768 974.745544,308.483307 
	C968.413330,308.483307 962.580872,308.280579 956.782715,308.636566 
	C955.457520,308.717926 953.393799,310.546753 953.115479,311.874298 
	C947.283630,339.695160 941.654602,367.558624 935.998596,395.416321 
	C934.492981,402.831848 933.030518,410.256165 931.448242,418.177002 
	C933.623901,418.177002 935.095825,418.177002 937.546875,418.177032 
M483.388611,401.849457 
	C482.364227,407.145874 481.339874,412.442291 480.230743,418.176941 
	C485.566925,418.176941 490.391876,417.960602 495.186432,418.249512 
	C498.649384,418.458221 499.694763,417.128021 500.138580,413.835785 
	C501.068237,406.940063 502.519867,400.114685 503.744690,393.329529 
	C510.212677,393.329529 516.295166,393.329529 522.477600,393.329529 
	C523.992737,401.739929 525.455688,409.860535 526.911865,417.943909 
	C533.353333,417.943909 539.302307,417.943909 545.220093,417.943909 
	C545.320251,417.413605 545.475647,417.093628 545.419617,416.816376 
	C538.305908,381.605438 531.204956,346.391754 523.918396,311.216522 
	C523.687500,310.102142 521.582825,308.692047 520.274475,308.606964 
	C515.462708,308.294250 510.612579,308.625000 505.788574,308.427490 
	C503.002502,308.313354 502.215027,309.445740 501.695129,312.049591 
	C495.769012,341.730957 489.692017,371.382202 483.388611,401.849457 
M501.620239,150.015762 
	C495.587646,179.571762 489.555054,209.127747 483.484863,238.867889 
	C490.387817,238.867889 496.480042,238.867889 502.617096,238.867889 
	C504.139008,230.442657 505.608673,222.306763 507.087372,214.120758 
	C513.522339,214.120758 519.613037,214.120758 525.803589,214.120758 
	C527.301880,222.510452 528.755981,230.652679 530.231201,238.913422 
	C536.586975,238.913422 542.680054,238.913422 549.074341,238.913422 
	C541.620117,202.169128 534.229370,165.737885 526.869141,129.456985 
	C519.534485,129.456985 512.781921,129.456985 505.718567,129.456985 
	C504.384949,136.183517 503.096069,142.684525 501.620239,150.015762 
M803.837524,233.374008 
	C804.963440,226.894180 806.089294,220.414352 807.192566,214.064667 
	C813.763977,214.064667 819.717163,214.064667 825.898438,214.064667 
	C827.419922,222.490326 828.911377,230.749847 830.389404,238.934738 
	C836.842102,238.934738 842.787781,238.934738 849.195679,238.934738 
	C841.745789,202.186584 834.361572,165.762299 826.985352,129.377625 
	C819.771912,129.377625 812.997620,129.377625 805.877014,129.377625 
	C798.455688,165.909012 791.064270,202.293579 783.631592,238.881012 
	C790.502014,238.881012 796.594238,238.881012 802.653442,238.881012 
	C803.020569,237.134476 803.326904,235.676880 803.837524,233.374008 
M970.066284,214.159729 
	C976.026611,214.159729 981.986877,214.159729 988.298340,214.159729 
	C989.788940,222.405579 991.284851,230.680786 992.774841,238.923065 
	C999.180237,238.923065 1005.120239,238.923065 1011.515442,238.923065 
	C1009.958374,231.125961 1008.485229,223.653442 1006.972107,216.189026 
	C1001.360718,188.507980 995.772278,160.822037 990.016785,133.170944 
	C989.706421,131.679855 988.020630,129.412079 986.859680,129.338913 
	C980.751404,128.953934 974.606018,129.158661 968.304504,129.158661 
	C960.826294,165.949219 953.432312,202.325302 945.981995,238.978683 
	C952.601074,238.978683 958.710083,238.978683 965.069275,238.978683 
	C966.551758,230.835358 968.007751,222.837692 970.066284,214.159729 
M609.448364,509.123016 
	C605.234680,487.401947 581.102844,478.485535 563.467834,492.166534 
	C558.804443,495.784332 556.058350,500.627899 554.969727,506.411499 
	C552.447083,519.813538 556.162537,531.027954 566.574219,540.004578 
	C573.254333,545.763916 579.930054,551.543518 586.333801,557.603516 
	C591.150024,562.161072 593.465088,568.008423 592.897217,574.724670 
	C592.586182,578.403992 591.169189,581.664368 587.241150,582.747559 
	C583.084412,583.893860 579.104614,583.206360 576.530212,579.477478 
	C574.965881,577.211609 573.846741,574.502319 573.117310,571.831238 
	C572.255432,568.675476 572.029419,565.346069 571.448425,561.576660 
	C565.636719,562.792419 560.016174,563.968201 554.486694,565.124939 
	C553.661316,583.682068 562.912048,596.038086 579.206116,598.547546 
	C598.994324,601.595276 612.839050,589.377258 612.172302,569.452942 
	C611.789490,558.011169 605.996948,549.286133 597.993958,541.802185 
	C591.672058,535.890198 585.025208,530.326477 578.678284,524.440308 
	C574.394470,520.467407 572.407593,515.417175 573.390869,509.553162 
	C574.122131,505.191437 576.619812,502.371979 581.298828,501.871918 
	C586.044495,501.364746 589.613708,503.013519 591.032532,507.693512 
	C592.177063,511.468658 592.747803,515.417725 593.636658,519.587646 
	C599.004944,518.504395 604.470398,517.401611 610.259827,516.233398 
	C610.043030,513.872498 609.862854,511.909943 609.448364,509.123016 
M892.538391,419.020447 
	C894.353455,419.268768 896.161499,419.601501 897.984619,419.752136 
	C913.670715,421.048431 925.712158,411.437256 927.469666,395.862823 
	C929.023865,382.088867 922.868958,371.358612 913.129517,362.363495 
	C907.629089,357.283447 901.836060,352.521545 896.223877,347.560883 
	C891.565063,343.442871 888.253723,338.610016 888.604675,332.023682 
	C888.902039,326.442291 891.835571,323.202881 897.044312,322.634857 
	C902.020142,322.092224 905.460571,324.417023 906.895325,329.765442 
	C907.782715,333.073059 908.134644,336.524353 908.817871,340.431763 
	C914.639343,339.251678 920.209961,338.122406 925.816284,336.985901 
	C925.452637,334.152893 925.258118,332.001892 924.890808,329.880768 
	C922.518127,316.178680 915.284485,308.690277 902.031921,307.388489 
	C884.111938,305.628174 869.037598,314.545990 869.688538,335.716614 
	C870.025269,346.667938 874.911926,354.664398 882.750488,361.518402 
	C889.139343,367.104736 895.569458,372.653290 901.756714,378.457916 
	C906.642151,383.041199 909.113953,388.985077 907.932190,395.591766 
	C907.424316,398.430756 905.242126,402.270386 902.891602,403.137665 
	C900.192749,404.133514 895.970154,403.137543 893.335754,401.508636 
	C891.141907,400.152130 889.828613,396.776031 888.952087,394.030457 
	C887.771057,390.331451 887.383484,386.379120 886.628235,382.392120 
	C880.771729,383.642303 875.281494,384.814331 869.884766,385.966370 
	C869.872803,404.409424 876.782654,414.715576 892.538391,419.020447 
M1098.338135,579.961304 
	C1102.071289,591.012085 1109.754761,597.061157 1121.304810,598.656799 
	C1140.688477,601.334595 1154.251221,589.586792 1154.010132,570.102234 
	C1153.897339,560.993774 1150.516724,553.044373 1144.314697,546.667908 
	C1137.598999,539.763367 1130.230225,533.486633 1123.045776,527.048218 
	C1117.988525,522.516235 1114.303345,517.424133 1115.066528,510.202209 
	C1115.576416,505.378845 1118.444214,502.396729 1122.915527,501.910095 
	C1128.156738,501.339752 1131.441895,503.101654 1132.969727,507.983398 
	C1134.096436,511.582977 1134.552124,515.392639 1135.392334,519.529785 
	C1140.874390,518.461304 1146.349365,517.394226 1151.737183,516.344116 
	C1152.433594,501.870361 1145.123535,490.277649 1133.366333,487.422272 
	C1126.119995,485.662384 1118.791016,485.921448 1111.732666,488.587952 
	C1103.840088,491.569550 1098.807251,497.239380 1096.991577,505.492859 
	C1093.920776,519.451721 1097.879883,531.063660 1108.797729,540.390808 
	C1115.506104,546.122009 1122.154297,551.943542 1128.527954,558.039795 
	C1133.348877,562.650757 1135.407593,568.638000 1134.616089,575.305359 
	C1134.184692,578.937561 1132.512817,582.110840 1128.476562,582.924927 
	C1124.463989,583.734192 1120.666504,583.013733 1118.253540,579.421326 
	C1116.803711,577.262634 1115.713989,574.729004 1115.048828,572.209106 
	C1114.175293,568.899597 1113.879395,565.437622 1113.261108,561.580505 
	C1107.449707,562.786682 1101.821045,563.954956 1095.546631,565.257263 
	C1096.437744,570.120239 1097.269531,574.658936 1098.338135,579.961304 
M1169.496582,129.150955 
	C1162.556030,129.150955 1155.615356,129.150955 1148.425659,129.150955 
	C1148.425659,166.036652 1148.425659,202.379135 1148.425659,238.951263 
	C1155.126709,238.951263 1161.554199,238.951263 1168.579102,238.951263 
	C1168.579102,222.746552 1168.579102,206.695358 1168.579102,189.993149 
	C1173.952881,189.993149 1178.760498,190.264282 1183.527832,189.941360 
	C1196.835327,189.039932 1205.169678,181.801392 1207.286865,168.657562 
	C1208.145020,163.329681 1208.151001,157.651566 1207.353271,152.310745 
	C1205.149170,137.552338 1198.145630,131.068207 1183.451294,129.499252 
	C1179.168579,129.041992 1174.815186,129.248642 1169.496582,129.150955 
M468.850494,189.725021 
	C483.045868,186.436752 488.982361,180.187653 490.617096,166.234695 
	C491.077423,162.305481 491.074921,158.223328 490.585419,154.298553 
	C488.436401,137.067642 479.865051,129.474350 462.386719,129.187653 
	C453.069641,129.034805 443.747925,129.146606 434.428436,129.179718 
	C433.334625,129.183624 432.241730,129.446747 431.345215,129.563980 
	C431.345215,166.283310 431.345215,202.650391 431.345215,238.826294 
	C438.109070,238.826294 444.520386,238.826294 451.470551,238.826294 
	C451.470551,222.449692 451.470551,206.413269 451.470551,189.859436 
	C457.338562,189.859436 462.653168,189.859436 468.850494,189.725021 
M549.017029,589.565308 
	C549.017029,587.645813 549.017029,585.726318 549.017029,583.294739 
	C539.979065,583.294739 531.586487,583.294739 523.110657,583.294739 
	C523.110657,571.187378 523.110657,559.607056 523.110657,547.414673 
	C529.876526,547.414673 536.405151,547.414673 542.954956,547.414673 
	C542.954956,542.348999 542.954956,537.901489 542.954956,532.921814 
	C536.161377,532.921814 529.594666,532.921814 523.223022,532.921814 
	C523.223022,522.329834 523.223022,512.275208 523.223022,501.701538 
	C531.965759,501.701538 540.351318,501.701538 548.688843,501.701538 
	C548.688843,496.865906 548.688843,492.563049 548.688843,488.091644 
	C533.278381,488.091644 518.038574,488.091644 502.763153,488.091644 
	C502.763153,524.583679 502.763153,560.792358 502.763153,597.248413 
	C518.289673,597.248413 533.513000,597.248413 549.017029,597.248413 
	C549.017029,594.805664 549.017029,592.652832 549.017029,589.565308 
M870.347656,533.141479 
	C865.562317,533.141479 860.777039,533.141479 855.791992,533.141479 
	C855.791992,522.559387 855.791992,512.502441 855.791992,502.047852 
	C864.304199,502.047852 872.571655,502.047852 880.832275,502.047852 
	C880.832275,497.080444 880.832275,492.518250 880.832275,488.201965 
	C865.428223,488.201965 850.385132,488.201965 835.320801,488.201965 
	C835.320801,524.692078 835.320801,560.789001 835.320801,597.160339 
	C850.864868,597.160339 866.228149,597.160339 881.591797,597.160339 
	C881.591797,592.514587 881.591797,588.250916 881.591797,583.450439 
	C872.928223,583.450439 864.516296,583.450439 855.941833,583.450439 
	C855.941833,571.224182 855.941833,559.544312 855.941833,547.439575 
	C862.775940,547.439575 869.216309,547.439575 875.823364,547.439575 
	C875.823364,542.577515 875.823364,538.144775 875.823364,533.397888 
	C874.211426,533.306335 872.760559,533.223938 870.347656,533.141479 
M692.484009,404.141510 
	C687.897034,404.141510 683.310120,404.141510 678.834900,404.141510 
	C678.834900,391.936005 678.834900,380.506287 678.834900,368.474243 
	C685.667419,368.474243 692.227356,368.474243 698.665894,368.474243 
	C698.665894,363.289124 698.665894,358.719818 698.665894,353.837585 
	C691.868530,353.837585 685.420105,353.837585 678.803833,353.837585 
	C678.803833,343.452484 678.803833,333.392609 678.803833,322.724976 
	C687.425293,322.724976 695.799194,322.724976 704.190308,322.724976 
	C704.190308,317.704987 704.190308,313.302521 704.190308,308.750153 
	C688.762878,308.750153 673.686035,308.750153 658.376160,308.750153 
	C658.376160,345.274139 658.376160,381.508881 658.376160,417.834473 
	C673.879028,417.834473 689.253540,417.834473 704.586060,417.834473 
	C704.586060,413.204590 704.586060,408.934570 704.586060,404.141510 
	C700.710754,404.141510 697.091003,404.141510 692.484009,404.141510 
M702.491699,174.985687 
	C699.046509,174.985687 695.601257,174.985687 692.138306,174.985687 
	C692.138306,164.359436 692.138306,154.296066 692.138306,143.666351 
	C700.794922,143.666351 709.179871,143.666351 717.458008,143.666351 
	C717.458008,138.530655 717.458008,133.973267 717.458008,129.481750 
	C702.006226,129.481750 686.953735,129.481750 671.825500,129.481750 
	C671.825500,166.170044 671.825500,202.520691 671.825500,238.818542 
	C687.395081,238.818542 702.602661,238.818542 717.782104,238.818542 
	C717.782104,234.177643 717.782104,229.908859 717.782104,224.999115 
	C709.039368,224.999115 700.508850,224.999115 692.164978,224.999115 
	C692.164978,212.765228 692.164978,201.180832 692.164978,189.162659 
	C698.877991,189.162659 705.296875,189.162659 711.807495,189.162659 
	C711.807495,184.200546 711.807495,179.688644 711.807495,174.985687 
	C708.780762,174.985687 706.129761,174.985687 702.491699,174.985687 
M1064.503540,487.809082 
	C1058.564331,487.809082 1052.625000,487.809082 1046.799316,487.809082 
	C1046.799316,524.659424 1046.799316,560.867188 1046.799316,597.255371 
	C1053.551880,597.255371 1059.963379,597.255371 1066.854126,597.255371 
	C1066.854126,580.761047 1066.854126,564.541626 1066.854126,547.758606 
	C1073.705811,547.758606 1080.088989,547.758606 1086.508911,547.758606 
	C1086.508911,542.623474 1086.508911,538.069763 1086.508911,532.948608 
	C1079.785889,532.948608 1073.396240,532.948608 1067.181274,532.948608 
	C1067.181274,522.299500 1067.181274,512.226379 1067.181274,501.594238 
	C1075.546387,501.594238 1083.600342,501.594238 1091.628540,501.594238 
	C1091.628540,496.749054 1091.628540,492.476715 1091.628540,487.809113 
	C1082.770142,487.809113 1074.136230,487.809113 1064.503540,487.809082 
M1012.137878,328.541901 
	C1012.137878,358.299011 1012.137878,388.056091 1012.137878,417.828308 
	C1019.209900,417.828308 1025.770264,417.828308 1032.855713,417.828308 
	C1032.855713,386.249084 1032.855713,355.033417 1032.855713,323.459351 
	C1038.830811,323.459351 1044.274292,323.459351 1049.932129,323.459351 
	C1049.932129,318.345947 1049.932129,313.601257 1049.932129,308.700897 
	C1031.253052,308.700897 1012.836853,308.700897 994.257690,308.700897 
	C994.257690,313.673645 994.257690,318.398773 994.257690,323.445709 
	C1000.157593,323.445709 1005.788086,323.445709 1011.771973,323.445709 
	C1011.911011,325.007050 1012.024292,326.278595 1012.137878,328.541901 
M969.827637,560.499939 
	C969.827637,572.648010 969.827637,584.796143 969.827637,597.130737 
	C976.725769,597.130737 983.257080,597.130737 990.237366,597.130737 
	C990.237366,565.500793 990.237366,534.250610 990.237366,502.579895 
	C996.286499,502.579895 1001.880371,502.579895 1007.603027,502.579895 
	C1007.603027,497.558899 1007.603027,492.965942 1007.603027,488.101624 
	C988.801514,488.101624 970.237061,488.101624 951.506226,488.101624 
	C951.506226,493.044189 951.506226,497.755646 951.506226,503.023285 
	C957.738708,503.023285 963.634277,503.023285 969.827637,503.023285 
	C969.827637,522.221191 969.827637,540.860535 969.827637,560.499939 
M652.003235,230.460419 
	C652.003235,201.753464 652.003235,173.046494 652.003235,144.002594 
	C658.425354,144.002594 664.024780,144.002594 669.683716,144.002594 
	C669.683716,138.933090 669.683716,134.214478 669.683716,129.357559 
	C650.945801,129.357559 632.527771,129.357559 613.799072,129.357559 
	C613.799072,134.295425 613.799072,139.037750 613.799072,144.311615 
	C619.928406,144.311615 625.835754,144.311615 632.196533,144.311615 
	C632.196533,176.221741 632.196533,207.605194 632.196533,238.978409 
	C638.946411,238.978409 645.224243,238.978409 652.003235,238.978409 
	C652.003235,236.344040 652.003235,233.894882 652.003235,230.460419 
M788.720520,308.460449 
	C786.784851,308.460449 784.849182,308.460449 782.752563,308.460449 
	C782.752563,345.362152 782.752563,381.580505 782.752563,417.916321 
	C798.283203,417.916321 813.520325,417.916321 828.662720,417.916321 
	C828.662720,413.230133 828.662720,408.823914 828.662720,403.941406 
	C819.911133,403.941406 811.504944,403.941406 802.812744,403.941406 
	C802.812744,372.009094 802.812744,340.562225 802.812744,308.460480 
	C798.230774,308.460480 793.946533,308.460480 788.720520,308.460449 
M451.172455,367.500092 
	C451.172455,347.944794 451.172455,328.389496 451.172455,308.823364 
	C444.040375,308.823364 437.636841,308.823364 431.264984,308.823364 
	C431.264984,345.381744 431.264984,381.603699 431.264984,418.172455 
	C439.153381,418.172455 446.777649,418.172455 454.401917,418.172455 
	C461.985168,418.172455 469.568451,418.172455 477.075684,418.172455 
	C477.075684,413.112244 477.075684,408.739685 477.075684,403.884827 
	C468.244232,403.884827 459.842346,403.884827 451.172455,403.884827 
	C451.172455,391.758820 451.172455,380.129456 451.172455,367.500092 
M802.153992,558.499390 
	C802.153992,561.830750 802.156616,565.162048 802.153564,568.493408 
	C802.140625,582.715271 801.595764,583.390808 787.905029,586.067810 
	C787.905029,590.569153 787.905029,595.091187 787.905029,599.845947 
	C790.320068,599.845947 792.310486,599.845764 794.300903,599.846008 
	C815.997314,599.848206 822.174622,593.659790 822.177124,571.906616 
	C822.180054,545.755493 822.177795,519.604431 822.177795,493.453339 
	C822.177795,491.686157 822.177734,489.918976 822.177734,488.214874 
	C815.181946,488.214874 808.806030,488.214874 802.153992,488.214874 
	C802.153992,511.570892 802.153992,534.535278 802.153992,558.499390 
M1057.695435,417.542419 
	C1064.069336,417.839508 1070.443237,418.136597 1076.799316,418.432831 
	C1076.799316,381.336914 1076.799316,345.005188 1076.799316,308.903931 
	C1070.172241,308.903931 1063.939331,308.903931 1057.510132,308.903931 
	C1057.510132,345.123932 1057.510132,380.906525 1057.695435,417.542419 
M1013.473816,594.902710 
	C1014.204224,595.770813 1014.907898,597.363586 1015.669250,597.391663 
	C1021.405029,597.603333 1027.152100,597.507141 1032.940186,597.507141 
	C1032.940186,560.616150 1032.940186,524.402039 1032.940186,488.046570 
	C1026.440430,488.046570 1020.189636,488.046570 1013.467346,488.046570 
	C1013.467346,523.520203 1013.467346,558.762268 1013.473816,594.902710 
M857.846008,352.500061 
	C857.846008,337.951935 857.846008,323.403839 857.846008,308.724792 
	C850.833435,308.724792 844.568909,308.724792 838.164551,308.724792 
	C838.164551,345.284668 838.164551,381.598267 838.164551,417.754944 
	C844.884644,417.754944 851.255615,417.754944 857.846008,417.754944 
	C857.846008,396.055298 857.846008,374.777710 857.846008,352.500061 
M928.603455,129.154892 
	C926.501038,129.154892 924.398621,129.154892 922.332703,129.154892 
	C922.332703,166.193405 922.332703,202.596161 922.332703,238.856567 
	C928.934692,238.856567 935.192261,238.856567 941.439636,238.856567 
	C941.439636,202.160980 941.439636,165.787384 941.439636,129.154892 
	C937.215088,129.154892 933.394165,129.154892 928.603455,129.154892 
M679.556641,287.920929 
	C678.490479,291.536865 677.424316,295.152802 675.925781,300.235138 
	C680.529907,299.368103 685.899536,299.955261 687.528320,297.763000 
	C693.397217,289.864014 698.005127,281.028137 703.304382,272.187439 
	C696.489136,272.187439 690.392273,272.187439 684.232483,272.187439 
	C682.727112,277.290161 681.271118,282.225525 679.556641,287.920929 
z"/>
<path fill="#FDFEFE" opacity="1.000000" stroke="none" 
	d="
M862.213135,749.780518 
	C884.828186,768.381470 901.219299,791.065552 911.545959,818.073608 
	C912.623596,820.891968 914.053894,821.751465 916.984253,821.906128 
	C992.287048,825.880981 1056.794189,884.556396 1067.046021,959.189514 
	C1075.301880,1019.293396 1055.646240,1069.209106 1009.802307,1108.810791 
	C1007.356567,1110.923584 1007.147705,1112.641479 1007.854614,1115.561646 
	C1029.501953,1204.977783 976.782349,1292.036865 887.398682,1313.291016 
	C844.340393,1323.529663 803.422607,1316.519409 765.548645,1293.375122 
	C761.885132,1291.136230 759.546570,1291.103271 755.915710,1293.418579 
	C659.655212,1354.800293 531.080872,1299.049927 509.841492,1186.880615 
	C505.302887,1162.911255 506.157654,1139.171387 512.224304,1115.622070 
	C513.017273,1112.543823 512.550415,1110.957642 510.142090,1108.943970 
	C477.896790,1081.983643 458.448792,1047.714478 452.273224,1006.109680 
	C442.393738,939.551880 476.955200,872.038391 536.994934,840.345764 
	C557.573547,829.483215 579.451172,823.038818 602.743286,821.965942 
	C606.405334,821.797241 607.463623,820.071533 608.618774,817.254761 
	C629.431824,766.503174 665.986450,732.744995 719.093018,718.897400 
	C771.384155,705.262451 819.265686,716.309875 862.213135,749.780518 
M749.496460,895.990356 
	C752.943542,901.898071 756.390625,907.805786 760.004028,913.998474 
	C785.181030,865.032104 824.378967,834.953796 877.943665,823.768677 
	C860.623962,782.132507 815.982056,745.284668 758.546021,746.395996 
	C706.441895,747.404236 652.218140,784.379089 642.145264,823.884338 
	C687.514648,833.153992 723.345947,856.745605 749.496460,895.990356 
M585.210571,1017.710449 
	C604.906677,1005.706055 626.308167,998.471985 649.950562,995.284241 
	C610.136230,956.353943 593.224182,909.795532 598.765198,855.206604 
	C543.432617,862.215759 499.112762,901.672974 487.081848,953.970276 
	C475.094849,1006.076843 496.834167,1054.307983 526.652832,1078.862427 
	C540.721191,1053.598511 559.985168,1033.285156 585.210571,1017.710449 
M563.533447,1230.917236 
	C605.611084,1289.772827 681.684265,1299.765503 733.626038,1267.996582 
	C696.703369,1227.733521 682.439209,1180.495850 690.815613,1126.332642 
	C641.849365,1151.256470 592.664429,1152.455078 542.508484,1130.117310 
	C535.721436,1166.729004 542.415894,1199.954956 563.533447,1230.917236 
M922.169312,874.506104 
	C922.062073,921.413757 904.634644,961.055481 870.924377,994.185364 
	C925.931152,1002.897888 966.461487,1031.110229 993.739075,1078.442993 
	C1026.788330,1050.430298 1046.454102,998.042053 1030.615723,946.311340 
	C1012.338013,886.613098 959.373108,858.010803 921.187622,855.642944 
	C921.513000,861.610779 921.837463,867.561035 922.169312,874.506104 
M920.553040,1264.096680 
	C975.564819,1228.503662 986.766724,1165.685669 976.790527,1130.325562 
	C927.050598,1152.501343 877.838928,1151.220337 828.830078,1126.257202 
	C837.448547,1180.341064 823.658508,1227.293091 787.568115,1267.617554 
	C822.262268,1289.018555 875.668335,1292.843506 920.553040,1264.096680 
M838.306824,1026.727661 
	C821.747559,1028.244873 806.160461,1032.957153 791.408752,1040.600586 
	C822.927429,1108.110107 908.113953,1131.541748 965.949951,1097.833984 
	C945.154602,1053.951416 894.973877,1021.341187 838.306824,1026.727661 
M769.459961,1075.053955 
	C766.194153,1071.401245 762.928345,1067.748535 759.654419,1064.086792 
	C705.272827,1117.056030 711.769653,1203.679810 760.962402,1247.444946 
	C762.094116,1246.250366 763.257874,1245.074707 764.363770,1243.846802 
	C807.849548,1195.562256 810.090881,1127.859375 769.459961,1075.053955 
M617.371704,1112.997559 
	C673.498840,1111.002686 713.485291,1074.000366 727.830933,1041.777466 
	C663.733643,1006.847839 582.273499,1037.417114 554.336975,1098.780762 
	C573.858765,1108.650879 594.505310,1113.528931 617.371704,1112.997559 
M849.324036,968.825317 
	C880.822388,937.687622 893.228149,900.106873 887.926636,856.248352 
	C814.689453,866.063538 766.773254,938.239868 779.631897,1003.352417 
	C806.177368,999.048706 829.225891,987.729370 849.324036,968.825317 
M723.857666,999.771851 
	C729.317139,1001.022339 734.776611,1002.272827 740.255371,1003.527771 
	C753.185913,933.669556 700.522644,864.492188 632.449829,856.456116 
	C621.996399,913.877991 656.859009,979.487854 723.857666,999.771851 
z"/>
<path fill="#FCFDFD" opacity="1.000000" stroke="none" 
	d="
M332.026978,235.139832 
	C318.977966,289.352203 305.994904,343.156158 293.010040,396.959686 
	C291.684143,402.453644 290.510681,407.993774 288.895721,413.401733 
	C288.516998,414.669983 286.638855,416.365540 285.433014,416.379730 
	C268.786591,416.575775 252.137070,416.512146 234.836777,416.512146 
	C254.896500,334.833282 274.854675,253.567780 294.972443,171.652618 
	C268.932617,171.652618 243.379440,171.652618 217.494705,171.652618 
	C217.494705,157.519974 217.494705,143.948730 217.494705,129.929596 
	C261.044952,129.929596 304.712006,129.929596 348.950531,129.929596 
	C347.910675,145.570435 350.499542,161.108536 346.260620,176.596069 
	C340.997314,195.826523 336.768188,215.340012 332.026978,235.139832 
z"/>
<path fill="#FDFEFE" opacity="1.000000" stroke="none" 
	d="
M129.827530,345.999878 
	C129.827530,292.838715 129.827530,240.177536 129.827530,187.027115 
	C115.894691,192.034485 102.251328,196.937836 88.161613,202.001587 
	C88.161613,188.786270 88.056183,176.148575 88.318092,163.518494 
	C88.345512,162.196304 90.312187,160.509293 91.770927,159.684616 
	C106.076294,151.597412 120.963211,144.406555 134.602417,135.333755 
	C140.684204,131.288162 146.044144,129.136993 153.111008,129.390671 
	C163.553314,129.765518 174.019058,129.487534 184.631958,129.487534 
	C184.631958,225.380600 184.631958,320.646393 184.631958,416.212280 
	C166.346069,416.212280 148.268387,416.212280 129.827530,416.212280 
	C129.827530,392.796234 129.827530,369.648071 129.827530,345.999878 
z"/>
<path fill="#FCFDFD" opacity="1.000000" stroke="none" 
	d="
M739.001770,487.825165 
	C744.499268,487.832397 749.502563,487.695312 754.494690,487.872253 
	C774.473083,488.580597 784.458008,500.617920 781.731628,520.529602 
	C780.569885,529.013916 777.104675,535.745789 767.686401,538.342651 
	C785.663635,544.711243 786.373718,559.485840 784.554321,573.509888 
	C782.630127,588.342041 773.774780,596.301025 758.289490,597.213806 
	C746.697998,597.896973 735.033875,597.348572 723.115356,597.348572 
	C723.115356,560.855469 723.115356,524.629700 723.115356,487.825165 
	C728.287415,487.825165 733.394897,487.825165 739.001770,487.825165 
M765.576477,561.172058 
	C763.377441,548.763733 756.566895,544.591614 743.219971,547.515442 
	C743.219971,559.240784 743.219971,570.975037 743.219971,582.677063 
	C760.346130,585.019958 766.030579,580.147156 765.823181,563.514893 
	C765.817017,563.017578 765.760376,562.520935 765.576477,561.172058 
M743.003723,520.484375 
	C743.003723,524.263062 743.003723,528.041748 743.003723,532.313538 
	C750.065613,531.573242 757.815125,534.355591 761.915466,526.871277 
	C765.381409,520.545166 766.063843,513.008423 761.923218,506.889893 
	C757.517090,500.379059 749.956055,502.182343 743.003723,502.049133 
	C743.003723,508.233063 743.003723,513.862000 743.003723,520.484375 
z"/>
<path fill="#F9FAFB" opacity="1.000000" stroke="none" 
	d="
M1370.852051,206.001923 
	C1370.852051,217.138916 1370.852051,227.776215 1370.852051,238.797424 
	C1364.027710,238.797424 1357.497192,238.797424 1350.794678,238.797424 
	C1350.794678,202.294174 1350.794678,165.900238 1350.794678,128.405304 
	C1364.405640,129.228058 1377.766479,129.155273 1390.832642,131.080872 
	C1403.130127,132.893143 1408.892578,140.064255 1410.153564,152.464355 
	C1410.718140,158.016647 1410.465210,163.779373 1409.660522,169.312393 
	C1408.577393,176.759827 1405.765137,180.032211 1397.710083,185.581299 
	C1402.615601,203.105301 1407.568848,220.799194 1412.633545,238.891571 
	C1405.711426,238.891571 1399.291382,238.891571 1392.336426,238.891571 
	C1388.931396,225.957855 1385.479126,212.843674 1382.025879,199.729706 
	C1381.729492,198.604706 1381.425537,197.481750 1381.129517,196.356644 
	C1379.194946,189.005371 1379.195312,189.005264 1370.852051,189.353455 
	C1370.852051,194.689529 1370.852051,200.095886 1370.852051,206.001923 
M1378.993408,175.953064 
	C1389.438232,175.019302 1393.376587,168.189301 1390.815186,152.562637 
	C1389.550049,144.844681 1381.327515,141.471146 1371.235107,143.857864 
	C1371.235107,154.595612 1371.235107,165.308960 1371.235107,175.990646 
	C1373.784790,175.990646 1375.943848,175.990646 1378.993408,175.953064 
z"/>
<path fill="#F9FAFB" opacity="1.000000" stroke="none" 
	d="
M585.148132,395.999878 
	C585.148132,366.704559 585.148132,337.909210 585.148132,307.594818 
	C599.609619,308.563904 613.773132,308.589844 627.607300,310.737427 
	C638.329407,312.401886 644.108276,320.742798 645.060486,331.706970 
	C645.375488,335.333801 645.337158,339.011627 645.185852,342.654724 
	C644.797668,351.999054 641.753418,359.927795 632.423767,364.480377 
	C637.393250,382.207916 642.313354,399.759338 647.366394,417.785004 
	C640.442993,417.785004 633.918579,417.785004 627.051636,417.785004 
	C622.746704,401.431793 618.399719,384.918732 614.042419,368.366577 
	C611.221313,368.366577 608.769165,368.366577 605.681702,368.366577 
	C605.681702,384.916199 605.681702,401.303223 605.681702,417.930908 
	C598.621826,417.930908 592.195190,417.930908 585.148132,417.930908 
	C585.148132,410.716675 585.148132,403.608246 585.148132,395.999878 
M626.405884,338.526398 
	C625.144653,324.601990 618.245300,319.546082 605.804504,323.407501 
	C605.804504,333.844910 605.804504,344.273926 605.804504,354.660004 
	C620.128357,356.598541 625.305969,352.701721 626.405884,338.526398 
z"/>
<path fill="#FCFDFD" opacity="1.000000" stroke="none" 
	d="
M435.307678,597.515625 
	C432.376221,597.764709 430.912720,597.390747 430.924561,594.176697 
	C431.053650,559.189270 431.027344,524.201233 431.058807,489.213409 
	C431.059082,488.916534 431.270782,488.619843 431.210785,488.777405 
	C444.150299,488.777405 456.953491,488.006683 469.617828,489.002228 
	C481.400818,489.928558 489.705872,497.523468 490.219971,509.243713 
	C491.187225,531.293823 491.316040,553.486816 489.885406,575.496399 
	C489.026154,588.715332 479.597900,595.959229 466.231354,596.911438 
	C456.116119,597.632019 445.929596,597.351135 435.307678,597.515625 
M451.269623,582.121094 
	C462.085876,586.332520 470.456573,581.371765 470.739716,569.752930 
	C471.185516,551.459106 470.909637,533.147156 470.870880,514.843079 
	C470.867401,513.205322 470.851257,511.225311 469.990723,510.002747 
	C468.198090,507.455780 466.236053,504.239288 463.610840,503.257599 
	C459.955170,501.890656 455.627899,502.319794 451.182098,501.946075 
	C451.182098,528.973083 451.182098,555.075195 451.269623,582.121094 
z"/>
<path fill="#FAFBFC" opacity="1.000000" stroke="none" 
	d="
M686.257812,486.810425 
	C700.859253,488.745544 709.811035,496.442444 710.630920,511.242096 
	C711.788147,532.129028 712.037415,553.209656 710.553406,574.056458 
	C709.257568,592.261353 694.739014,601.127991 674.595764,598.675537 
	C659.057922,596.783813 650.016174,588.694336 649.185242,572.845398 
	C648.141541,552.938171 648.000061,532.892334 649.072083,512.992676 
	C650.032166,495.170471 660.503296,486.669922 678.345886,486.492035 
	C680.836853,486.467194 683.330139,486.669525 686.257812,486.810425 
M670.010864,577.077087 
	C672.176941,579.148926 673.997253,582.206055 676.573181,583.110168 
	C684.708679,585.965515 690.803772,580.954163 690.921570,571.263306 
	C691.154358,552.115295 690.996826,532.962341 690.978210,513.811462 
	C690.977112,512.652161 690.891663,511.469025 690.652832,510.337616 
	C689.324158,504.042786 686.172852,501.490448 679.885620,501.526184 
	C673.525024,501.562378 670.452148,504.061859 669.276917,510.450897 
	C668.888489,512.562622 668.868835,514.761902 668.864868,516.921509 
	C668.833862,533.910950 668.803650,550.900635 668.891174,567.889648 
	C668.905579,570.686340 669.496704,573.480042 670.010864,577.077087 
z"/>
<path fill="#FAFBFC" opacity="1.000000" stroke="none" 
	d="
M1150.378418,403.295166 
	C1146.267944,413.237793 1138.848389,418.061554 1128.772705,419.160309 
	C1125.799438,419.484558 1122.781616,419.959290 1119.822876,419.767456 
	C1101.474731,418.577942 1092.266968,410.912048 1091.002686,392.496399 
	C1089.682861,373.272797 1089.643921,353.835083 1090.821777,334.599731 
	C1092.142090,313.032440 1105.493408,305.816132 1125.924194,307.410187 
	C1144.107788,308.828979 1152.444336,317.873199 1153.284424,337.837738 
	C1154.032959,355.627258 1153.406128,373.483887 1153.040527,391.303802 
	C1152.960449,395.201233 1151.415771,399.068573 1150.378418,403.295166 
M1132.991699,380.491638 
	C1132.991577,366.006897 1133.050415,351.521729 1132.940308,337.037842 
	C1132.919067,334.245880 1132.890259,331.120941 1131.674072,328.764008 
	C1130.439331,326.370880 1128.059692,323.800659 1125.609009,322.941956 
	C1117.153076,319.979218 1111.091553,324.639832 1110.969360,334.259583 
	C1110.725952,353.402557 1110.849365,372.550507 1110.889648,391.696289 
	C1110.893433,393.499695 1111.194214,395.355499 1111.684326,397.094818 
	C1113.135010,402.243256 1116.654175,404.748993 1121.981812,404.653015 
	C1127.501343,404.553589 1131.074219,402.191711 1131.978027,396.854767 
	C1132.830688,391.819275 1132.693481,386.616150 1132.991699,380.491638 
z"/>
<path fill="#FAFBFB" opacity="1.000000" stroke="none" 
	d="
M739.850952,198.000275 
	C739.836853,211.492264 739.824402,224.484299 739.798279,237.476318 
	C739.797668,237.787704 739.644592,238.098785 739.461182,238.795013 
	C734.030396,238.795013 728.499146,238.795013 722.795166,238.795013 
	C722.795166,202.292206 722.795166,165.896362 722.795166,129.149200 
	C726.090759,129.149200 729.088806,129.377472 732.036255,129.088776 
	C735.375549,128.761673 736.953308,129.970016 738.284546,133.135300 
	C745.691772,150.747284 753.393555,168.235352 760.998230,185.764206 
	C761.378906,186.641556 761.793518,187.504120 762.905518,188.303680 
	C762.905518,168.845901 762.905518,149.388123 762.905518,129.542389 
	C768.792786,129.542389 774.157715,129.542389 779.766113,129.542389 
	C779.766113,166.017273 779.766113,202.399979 779.766113,238.608246 
	C779.393921,238.873016 779.272400,239.033295 779.139038,239.043823 
	C766.893799,240.011826 766.873413,240.019485 762.238770,228.874512 
	C755.113586,211.740723 748.019592,194.593948 739.850952,177.560043 
	C739.850952,184.206818 739.850952,190.853577 739.850952,198.000275 
z"/>
<path fill="#FCFCFD" opacity="1.000000" stroke="none" 
	d="
M1212.146729,221.706604 
	C1211.361694,216.060379 1210.186401,210.811096 1210.087280,205.541595 
	C1209.814575,191.052124 1209.930054,176.553696 1210.037476,162.059891 
	C1210.064453,158.417206 1210.393799,154.736969 1211.004639,151.145508 
	C1213.219360,138.124741 1220.470459,130.575760 1233.617432,128.881729 
	C1239.937256,128.067398 1246.676636,128.145477 1252.897095,129.422241 
	C1265.328735,131.973877 1271.858398,141.364731 1272.321777,153.064285 
	C1273.169678,174.474152 1273.242432,196.020462 1271.760376,217.379578 
	C1270.775391,231.575287 1261.278687,238.993378 1246.962280,240.066406 
	C1241.561646,240.471176 1235.976074,240.107025 1230.631226,239.185715 
	C1220.997681,237.525131 1215.372925,231.027100 1212.146729,221.706604 
M1230.761230,214.134598 
	C1231.842285,222.160538 1234.794434,225.321152 1241.347534,225.468185 
	C1248.077026,225.619217 1252.219727,222.260040 1252.413818,214.171280 
	C1252.892822,194.202271 1252.597412,174.214218 1252.548828,154.233978 
	C1252.545288,152.762207 1252.509277,150.857254 1251.652954,149.905457 
	C1249.458252,147.466187 1247.118042,144.285034 1244.253784,143.484924 
	C1235.712158,141.098923 1230.668213,146.055298 1230.570312,156.749512 
	C1230.397827,175.571899 1230.576660,194.397507 1230.761230,214.134598 
z"/>
<path fill="#FDFEFE" opacity="1.000000" stroke="none" 
	d="
M595.633667,239.025452 
	C592.142151,227.898346 589.057007,216.887955 586.025330,205.862900 
	C584.533752,200.438660 583.140991,194.987244 581.664246,189.399292 
	C578.818420,189.399292 576.213745,189.399292 573.092529,189.399292 
	C573.092529,205.891525 573.092529,222.293594 573.092529,238.930359 
	C566.178772,238.930359 559.774902,238.930359 553.107056,238.930359 
	C553.107056,202.385361 553.107056,166.005905 553.107056,128.467911 
	C566.499146,129.230759 579.673767,129.162354 592.590698,130.952637 
	C604.935303,132.663589 611.146179,139.677948 612.476379,151.899323 
	C613.165588,158.231842 612.465027,164.853806 611.451843,171.194763 
	C610.428772,177.597397 606.291138,182.242935 599.937927,185.222977 
	C604.913757,202.956894 609.879883,220.656158 615.065125,239.136154 
	C608.489563,239.136154 602.275818,239.136154 595.633667,239.025452 
M572.998108,162.493073 
	C572.998108,166.940201 572.998108,171.387329 572.998108,176.248383 
	C580.039490,175.816132 587.465881,177.412994 591.421082,170.479904 
	C595.521484,163.292297 595.601013,155.097244 591.156555,148.116455 
	C587.108887,141.758896 579.833801,143.398270 572.998108,143.201202 
	C572.998108,149.598358 572.998108,155.547424 572.998108,162.493073 
z"/>
<path fill="#FDFEFE" opacity="1.000000" stroke="none" 
	d="
M859.140259,129.159454 
	C868.937195,129.391769 878.283752,129.216568 887.559326,129.944962 
	C904.557861,131.279831 912.590515,140.008347 913.094116,157.071960 
	C913.196533,160.543961 912.935974,164.065140 912.450073,167.508240 
	C911.344299,175.343155 907.881409,181.712982 900.067871,185.263168 
	C905.078430,203.114410 910.045166,220.809372 915.197754,239.166595 
	C908.871094,239.166595 902.936218,239.351822 897.033142,239.001373 
	C895.928528,238.935806 894.385559,236.880157 894.002869,235.480865 
	C890.233276,221.698792 886.672119,207.859787 883.033691,194.041687 
	C882.620483,192.472244 882.095764,190.932159 881.604675,189.318985 
	C878.882812,189.318985 876.411682,189.318985 873.383667,189.318985 
	C873.383667,205.800003 873.383667,222.186768 873.383667,238.870148 
	C866.426636,238.870148 860.017578,238.870148 853.300415,238.870148 
	C853.300415,202.525803 853.300415,166.141693 853.300415,129.159470 
	C855.113464,129.159470 856.885620,129.159470 859.140259,129.159454 
M873.814453,175.884720 
	C876.784912,175.862076 879.796082,176.144684 882.717407,175.754318 
	C889.142700,174.895782 892.652832,171.806091 893.532166,165.254593 
	C894.474426,158.233658 895.402954,150.872238 888.853210,145.496948 
	C888.231445,144.986633 887.407471,144.542938 886.626892,144.435532 
	C882.306030,143.841034 877.969543,143.360336 873.257385,142.794937 
	C873.257385,154.272446 873.257385,164.698944 873.814453,175.884720 
z"/>
<path fill="#FCFCFD" opacity="1.000000" stroke="none" 
	d="
M1223.176880,389.000122 
	C1223.176880,398.813385 1223.176880,408.126678 1223.176880,418.164673 
	C1219.228149,418.164673 1215.423340,418.530334 1211.757690,417.976013 
	C1210.384521,417.768311 1208.880981,415.611816 1208.207520,414.018097 
	C1200.451538,395.662720 1192.844604,377.244293 1185.194214,358.844238 
	C1184.764160,357.810181 1184.299072,356.790741 1183.111328,355.858215 
	C1183.111328,376.473877 1183.111328,397.089508 1183.111328,417.937439 
	C1177.313721,417.937439 1172.038940,417.937439 1166.377319,417.937439 
	C1166.377319,381.692596 1166.377319,345.345551 1166.377319,308.485626 
	C1170.164795,308.485626 1174.006836,308.144684 1177.730591,308.659363 
	C1179.149780,308.855530 1180.815552,310.786011 1181.489624,312.313995 
	C1188.794189,328.873230 1195.918579,345.511902 1203.108887,362.121643 
	C1203.803223,363.725616 1204.609253,365.281219 1206.217285,366.725739 
	C1206.217285,347.580048 1206.217285,328.434326 1206.217285,308.887024 
	C1211.983521,308.887024 1217.206543,308.887024 1223.176880,308.887024 
	C1223.176880,335.383423 1223.176880,361.941742 1223.176880,389.000122 
z"/>
<path fill="#FBFCFD" opacity="1.000000" stroke="none" 
	d="
M1322.153931,157.999924 
	C1322.153931,148.340866 1322.153931,139.181824 1322.153931,129.588959 
	C1328.713623,129.588959 1335.078003,129.588959 1341.481445,129.588959 
	C1341.612793,129.841003 1341.886108,130.120728 1341.886108,130.400452 
	C1341.887451,156.391037 1341.904053,182.381760 1341.802979,208.372009 
	C1341.790771,211.514282 1341.338135,214.693192 1340.742432,217.788269 
	C1337.985962,232.110825 1330.593262,238.916809 1316.121460,240.137054 
	C1311.680176,240.511536 1307.107666,240.439178 1302.695435,239.837082 
	C1290.394653,238.158493 1283.046021,230.110062 1281.075806,216.568573 
	C1280.549438,212.951691 1280.111084,209.283401 1280.096558,205.636887 
	C1279.997437,180.809311 1280.020996,155.981247 1280.019409,131.153351 
	C1280.019287,130.679276 1280.196289,130.205200 1280.346802,129.449066 
	C1286.598389,129.449066 1292.847900,129.449066 1299.846069,129.449066 
	C1299.846069,131.230576 1299.846191,132.987122 1299.846191,134.743652 
	C1299.846191,158.572342 1299.804688,182.401184 1299.891968,206.229553 
	C1299.904663,209.698181 1300.218994,213.231766 1300.945068,216.617020 
	C1302.200317,222.469742 1305.552002,225.117676 1310.929077,225.151901 
	C1316.535034,225.187576 1319.697021,222.773895 1321.052002,216.861450 
	C1321.750488,213.813751 1322.087646,210.620667 1322.106934,207.490326 
	C1322.207642,191.160721 1322.153931,174.830170 1322.153931,157.999924 
z"/>
<path fill="#FBFCFD" opacity="1.000000" stroke="none" 
	d="
M908.177734,545.000122 
	C908.409241,554.974976 908.266479,564.478760 908.994629,573.915283 
	C909.543091,581.022339 913.463074,584.127686 919.641602,583.814880 
	C925.689514,583.508667 928.836182,579.920776 929.072205,572.655884 
	C929.244019,567.367676 929.105835,562.069275 929.105835,556.468628 
	C935.816528,556.468628 942.038208,556.468628 949.681641,556.468628 
	C948.650879,565.100037 948.449951,573.604492 946.473633,581.674133 
	C943.758911,592.758972 935.100342,597.714233 924.282593,598.560303 
	C919.048584,598.969727 913.553589,598.722961 908.448364,597.570190 
	C895.633606,594.676453 889.227661,585.147339 888.671997,573.042969 
	C887.742432,552.790649 887.114685,532.351746 888.824219,512.200378 
	C890.486633,492.603973 902.469238,484.885223 923.209473,486.533142 
	C938.594116,487.755554 946.342346,494.933014 948.211853,510.493439 
	C948.875366,516.015930 948.318054,521.685120 948.318054,527.566772 
	C942.233887,527.566772 936.130432,527.566772 929.040405,527.566772 
	C929.040405,522.257996 929.218811,516.842712 928.997253,511.443878 
	C928.690613,503.971375 925.064148,500.914093 917.740417,501.547668 
	C912.478821,502.002808 909.288513,504.658386 908.961121,510.580414 
	C908.337158,521.866943 908.399963,533.191345 908.177734,545.000122 
z"/>
<path fill="#FCFCFD" opacity="1.000000" stroke="none" 
	d="
M729.645020,313.570312 
	C729.740540,309.715637 731.080383,308.145569 734.894653,308.391083 
	C740.359619,308.742859 745.864075,308.480804 751.710632,308.480804 
	C759.119568,345.015808 766.479858,381.311127 773.902832,417.915222 
	C767.666321,417.915222 761.713684,417.915222 755.108215,417.915222 
	C753.650452,409.872803 752.157471,401.636261 750.633484,393.228607 
	C744.465393,393.228607 738.510864,393.228607 732.000183,393.228607 
	C730.710388,400.239960 729.182617,407.338318 728.188782,414.510651 
	C727.760010,417.605103 726.515869,418.331482 723.698059,418.226288 
	C718.885864,418.046539 714.062012,418.176666 708.335938,418.176666 
	C715.459534,383.174377 722.501160,348.574707 729.645020,313.570312 
M746.359314,367.048676 
	C744.811523,357.382782 743.263733,347.716888 741.716003,338.050964 
	C741.444824,338.024353 741.173706,337.997742 740.902588,337.971130 
	C738.646973,351.779816 736.391357,365.588470 734.111755,379.544098 
	C739.095947,379.544098 743.507446,379.544098 748.339661,379.544098 
	C747.722717,375.416809 747.160217,371.653442 746.359314,367.048676 
z"/>
<path fill="#FCFCFD" opacity="1.000000" stroke="none" 
	d="
M937.057312,418.177002 
	C935.095825,418.177002 933.623901,418.177002 931.448242,418.177002 
	C933.030518,410.256165 934.492981,402.831848 935.998596,395.416321 
	C941.654602,367.558624 947.283630,339.695160 953.115479,311.874298 
	C953.393799,310.546753 955.457520,308.717926 956.782715,308.636566 
	C962.580872,308.280579 968.413330,308.483307 974.745544,308.483307 
	C982.130005,344.893768 989.484070,381.154663 996.918701,417.812500 
	C990.646729,417.812500 984.597534,417.812500 978.111877,417.812500 
	C976.674194,409.825836 975.212036,401.702911 973.700317,393.304749 
	C967.703918,393.304749 961.760071,393.304749 955.032471,393.304749 
	C953.583496,401.178131 952.071777,409.392365 950.455078,418.177032 
	C946.111084,418.177032 941.828979,418.177032 937.057312,418.177002 
M969.400818,367.041229 
	C967.844360,357.354828 966.287903,347.668457 964.731445,337.982056 
	C964.471924,337.953308 964.212402,337.924530 963.952881,337.895782 
	C961.693054,351.715088 959.433289,365.534393 957.141785,379.547302 
	C962.131653,379.547302 966.539795,379.547302 971.356628,379.547302 
	C970.748718,375.418304 970.194092,371.650513 969.400818,367.041229 
z"/>
<path fill="#FCFCFD" opacity="1.000000" stroke="none" 
	d="
M483.521973,401.445465 
	C489.692017,371.382202 495.769012,341.730957 501.695129,312.049591 
	C502.215027,309.445740 503.002502,308.313354 505.788574,308.427490 
	C510.612579,308.625000 515.462708,308.294250 520.274475,308.606964 
	C521.582825,308.692047 523.687500,310.102142 523.918396,311.216522 
	C531.204956,346.391754 538.305908,381.605438 545.419617,416.816376 
	C545.475647,417.093628 545.320251,417.413605 545.220093,417.943909 
	C539.302307,417.943909 533.353333,417.943909 526.911865,417.943909 
	C525.455688,409.860535 523.992737,401.739929 522.477600,393.329529 
	C516.295166,393.329529 510.212677,393.329529 503.744690,393.329529 
	C502.519867,400.114685 501.068237,406.940063 500.138580,413.835785 
	C499.694763,417.128021 498.649384,418.458221 495.186432,418.249512 
	C490.391876,417.960602 485.566925,418.176941 480.230743,418.176941 
	C481.339874,412.442291 482.364227,407.145874 483.521973,401.445465 
M518.864685,370.596619 
	C517.100220,359.963287 515.335754,349.329956 513.571228,338.696625 
	C513.252930,338.660431 512.934631,338.624237 512.616333,338.588043 
	C510.388153,352.181366 508.160034,365.774689 505.894562,379.595703 
	C510.921967,379.595703 515.352600,379.595703 520.147095,379.595703 
	C519.727600,376.679016 519.352234,374.069672 518.864685,370.596619 
z"/>
<path fill="#FCFCFD" opacity="1.000000" stroke="none" 
	d="
M501.713715,149.600647 
	C503.096069,142.684525 504.384949,136.183517 505.718567,129.456985 
	C512.781921,129.456985 519.534485,129.456985 526.869141,129.456985 
	C534.229370,165.737885 541.620117,202.169128 549.074341,238.913422 
	C542.680054,238.913422 536.586975,238.913422 530.231201,238.913422 
	C528.755981,230.652679 527.301880,222.510452 525.803589,214.120758 
	C519.613037,214.120758 513.522339,214.120758 507.087372,214.120758 
	C505.608673,222.306763 504.139008,230.442657 502.617096,238.867889 
	C496.480042,238.867889 490.387817,238.867889 483.484863,238.867889 
	C489.555054,209.127747 495.587646,179.571762 501.713715,149.600647 
M516.933350,159.381119 
	C516.751160,159.238525 516.579895,159.073929 516.376892,158.973480 
	C516.340027,158.955261 516.099915,159.187408 516.076782,159.324753 
	C513.794006,172.864090 511.523041,186.405426 509.206482,200.214157 
	C514.158569,200.214157 518.543518,200.214157 523.526428,200.214157 
	C521.315613,186.573944 519.170532,173.339615 516.933350,159.381119 
z"/>
<path fill="#FCFCFD" opacity="1.000000" stroke="none" 
	d="
M803.735352,233.796631 
	C803.326904,235.676880 803.020569,237.134476 802.653442,238.881012 
	C796.594238,238.881012 790.502014,238.881012 783.631592,238.881012 
	C791.064270,202.293579 798.455688,165.909012 805.877014,129.377625 
	C812.997620,129.377625 819.771912,129.377625 826.985352,129.377625 
	C834.361572,165.762299 841.745789,202.186584 849.195679,238.934738 
	C842.787781,238.934738 836.842102,238.934738 830.389404,238.934738 
	C828.911377,230.749847 827.419922,222.490326 825.898438,214.064667 
	C819.717163,214.064667 813.763977,214.064667 807.192566,214.064667 
	C806.089294,220.414352 804.963440,226.894180 803.735352,233.796631 
M820.079102,178.310562 
	C819.005066,171.743713 817.931030,165.176880 816.856995,158.610046 
	C816.615967,158.633408 816.374939,158.656769 816.133850,158.680130 
	C813.918091,172.408386 811.702332,186.136642 809.434875,200.184784 
	C814.426941,200.184784 818.788940,200.184784 823.668213,200.184784 
	C822.455933,192.899307 821.314087,186.037155 820.079102,178.310562 
z"/>
<path fill="#FCFCFD" opacity="1.000000" stroke="none" 
	d="
M969.765015,214.499878 
	C968.007751,222.837692 966.551758,230.835358 965.069275,238.978683 
	C958.710083,238.978683 952.601074,238.978683 945.981995,238.978683 
	C953.432312,202.325302 960.826294,165.949219 968.304504,129.158661 
	C974.606018,129.158661 980.751404,128.953934 986.859680,129.338913 
	C988.020630,129.412079 989.706421,131.679855 990.016785,133.170944 
	C995.772278,160.822037 1001.360718,188.507980 1006.972107,216.189026 
	C1008.485229,223.653442 1009.958374,231.125961 1011.515442,238.923065 
	C1005.120239,238.923065 999.180237,238.923065 992.774841,238.923065 
	C991.284851,230.680786 989.788940,222.405579 988.298340,214.159729 
	C981.986877,214.159729 976.026611,214.159729 969.765015,214.499878 
M982.106995,176.259628 
	C981.191589,170.628693 980.276245,164.997742 979.360901,159.366806 
	C979.043091,159.395660 978.725281,159.424515 978.407471,159.453384 
	C976.212891,172.946487 974.018311,186.439606 971.792664,200.123947 
	C976.787659,200.123947 981.276672,200.123947 986.094360,200.123947 
	C984.750793,192.154984 983.484192,184.642227 982.106995,176.259628 
z"/>
<path fill="#FBFCFD" opacity="1.000000" stroke="none" 
	d="
M609.565552,509.535217 
	C609.862854,511.909943 610.043030,513.872498 610.259827,516.233398 
	C604.470398,517.401611 599.004944,518.504395 593.636658,519.587646 
	C592.747803,515.417725 592.177063,511.468658 591.032532,507.693512 
	C589.613708,503.013519 586.044495,501.364746 581.298828,501.871918 
	C576.619812,502.371979 574.122131,505.191437 573.390869,509.553162 
	C572.407593,515.417175 574.394470,520.467407 578.678284,524.440308 
	C585.025208,530.326477 591.672058,535.890198 597.993958,541.802185 
	C605.996948,549.286133 611.789490,558.011169 612.172302,569.452942 
	C612.839050,589.377258 598.994324,601.595276 579.206116,598.547546 
	C562.912048,596.038086 553.661316,583.682068 554.486694,565.124939 
	C560.016174,563.968201 565.636719,562.792419 571.448425,561.576660 
	C572.029419,565.346069 572.255432,568.675476 573.117310,571.831238 
	C573.846741,574.502319 574.965881,577.211609 576.530212,579.477478 
	C579.104614,583.206360 583.084412,583.893860 587.241150,582.747559 
	C591.169189,581.664368 592.586182,578.403992 592.897217,574.724670 
	C593.465088,568.008423 591.150024,562.161072 586.333801,557.603516 
	C579.930054,551.543518 573.254333,545.763916 566.574219,540.004578 
	C556.162537,531.027954 552.447083,519.813538 554.969727,506.411499 
	C556.058350,500.627899 558.804443,495.784332 563.467834,492.166534 
	C581.102844,478.485535 605.234680,487.401947 609.565552,509.535217 
z"/>
<path fill="#FBFCFD" opacity="1.000000" stroke="none" 
	d="
M892.119995,418.982117 
	C876.782654,414.715576 869.872803,404.409424 869.884766,385.966370 
	C875.281494,384.814331 880.771729,383.642303 886.628235,382.392120 
	C887.383484,386.379120 887.771057,390.331451 888.952087,394.030457 
	C889.828613,396.776031 891.141907,400.152130 893.335754,401.508636 
	C895.970154,403.137543 900.192749,404.133514 902.891602,403.137665 
	C905.242126,402.270386 907.424316,398.430756 907.932190,395.591766 
	C909.113953,388.985077 906.642151,383.041199 901.756714,378.457916 
	C895.569458,372.653290 889.139343,367.104736 882.750488,361.518402 
	C874.911926,354.664398 870.025269,346.667938 869.688538,335.716614 
	C869.037598,314.545990 884.111938,305.628174 902.031921,307.388489 
	C915.284485,308.690277 922.518127,316.178680 924.890808,329.880768 
	C925.258118,332.001892 925.452637,334.152893 925.816284,336.985901 
	C920.209961,338.122406 914.639343,339.251678 908.817871,340.431763 
	C908.134644,336.524353 907.782715,333.073059 906.895325,329.765442 
	C905.460571,324.417023 902.020142,322.092224 897.044312,322.634857 
	C891.835571,323.202881 888.902039,326.442291 888.604675,332.023682 
	C888.253723,338.610016 891.565063,343.442871 896.223877,347.560883 
	C901.836060,352.521545 907.629089,357.283447 913.129517,362.363495 
	C922.868958,371.358612 929.023865,382.088867 927.469666,395.862823 
	C925.712158,411.437256 913.670715,421.048431 897.984619,419.752136 
	C896.161499,419.601501 894.353455,419.268768 892.119995,418.982117 
z"/>
<path fill="#FBFCFD" opacity="1.000000" stroke="none" 
	d="
M1098.219727,579.579468 
	C1097.269531,574.658936 1096.437744,570.120239 1095.546631,565.257263 
	C1101.821045,563.954956 1107.449707,562.786682 1113.261108,561.580505 
	C1113.879395,565.437622 1114.175293,568.899597 1115.048828,572.209106 
	C1115.713989,574.729004 1116.803711,577.262634 1118.253540,579.421326 
	C1120.666504,583.013733 1124.463989,583.734192 1128.476562,582.924927 
	C1132.512817,582.110840 1134.184692,578.937561 1134.616089,575.305359 
	C1135.407593,568.638000 1133.348877,562.650757 1128.527954,558.039795 
	C1122.154297,551.943542 1115.506104,546.122009 1108.797729,540.390808 
	C1097.879883,531.063660 1093.920776,519.451721 1096.991577,505.492859 
	C1098.807251,497.239380 1103.840088,491.569550 1111.732666,488.587952 
	C1118.791016,485.921448 1126.119995,485.662384 1133.366333,487.422272 
	C1145.123535,490.277649 1152.433594,501.870361 1151.737183,516.344116 
	C1146.349365,517.394226 1140.874390,518.461304 1135.392334,519.529785 
	C1134.552124,515.392639 1134.096436,511.582977 1132.969727,507.983398 
	C1131.441895,503.101654 1128.156738,501.339752 1122.915527,501.910095 
	C1118.444214,502.396729 1115.576416,505.378845 1115.066528,510.202209 
	C1114.303345,517.424133 1117.988525,522.516235 1123.045776,527.048218 
	C1130.230225,533.486633 1137.598999,539.763367 1144.314697,546.667908 
	C1150.516724,553.044373 1153.897339,560.993774 1154.010132,570.102234 
	C1154.251221,589.586792 1140.688477,601.334595 1121.304810,598.656799 
	C1109.754761,597.061157 1102.071289,591.012085 1098.219727,579.579468 
z"/>
<path fill="#FBFCFD" opacity="1.000000" stroke="none" 
	d="
M1062.056030,142.194000 
	C1066.958130,131.694168 1079.249146,126.161957 1092.940186,128.292938 
	C1107.134155,130.502197 1115.171509,141.155548 1114.913452,157.941467 
	C1109.566040,159.031281 1104.106323,160.143951 1098.536377,161.279129 
	C1097.806396,157.417175 1097.394897,153.787003 1096.401611,150.323624 
	C1094.894653,145.068604 1091.119629,142.651871 1086.407593,143.425323 
	C1081.173828,144.284424 1078.415161,147.554688 1078.170776,153.057220 
	C1077.895264,159.265915 1080.913086,163.904343 1085.274536,167.818817 
	C1090.972046,172.932480 1096.906860,177.785309 1102.530273,182.977219 
	C1113.914307,193.487991 1119.934448,206.020844 1116.138916,221.845200 
	C1114.357910,229.270187 1109.638672,234.545898 1102.864014,237.810394 
	C1083.958252,246.920578 1063.420654,236.252670 1060.045532,215.648636 
	C1059.593506,212.889221 1059.395752,210.088150 1059.032837,206.887619 
	C1064.995483,205.632202 1070.621704,204.447617 1076.451538,203.220169 
	C1076.967407,206.643433 1077.223022,209.795334 1077.966797,212.827484 
	C1078.591553,215.373962 1079.449463,217.985092 1080.800415,220.204681 
	C1083.195679,224.140198 1086.957153,225.788803 1091.519653,224.638626 
	C1096.105103,223.482620 1097.754883,219.886887 1097.934204,215.593765 
	C1098.206299,209.081833 1095.811279,203.454010 1091.109009,199.052460 
	C1084.913086,193.252792 1078.523560,187.651810 1072.072388,182.135056 
	C1060.513550,172.250549 1056.736450,160.036957 1060.990967,144.789764 
	C1061.567383,143.525711 1061.811768,142.859863 1062.056030,142.194000 
z"/>
<path fill="#FAFBFC" opacity="1.000000" stroke="none" 
	d="
M1169.995361,129.150955 
	C1174.815186,129.248642 1179.168579,129.041992 1183.451294,129.499252 
	C1198.145630,131.068207 1205.149170,137.552338 1207.353271,152.310745 
	C1208.151001,157.651566 1208.145020,163.329681 1207.286865,168.657562 
	C1205.169678,181.801392 1196.835327,189.039932 1183.527832,189.941360 
	C1178.760498,190.264282 1173.952881,189.993149 1168.579102,189.993149 
	C1168.579102,206.695358 1168.579102,222.746552 1168.579102,238.951263 
	C1161.554199,238.951263 1155.126709,238.951263 1148.425659,238.951263 
	C1148.425659,202.379135 1148.425659,166.036652 1148.425659,129.150955 
	C1155.615356,129.150955 1162.556030,129.150955 1169.995361,129.150955 
M1182.877930,174.729416 
	C1188.833862,170.987000 1191.230957,159.519714 1187.998047,150.235672 
	C1185.928223,144.291626 1180.643921,142.630768 1168.883545,144.283279 
	C1168.883545,154.775284 1168.883545,165.280457 1168.883545,176.420013 
	C1173.591064,175.909668 1177.849609,175.447998 1182.877930,174.729416 
z"/>
<path fill="#FDFEFE" opacity="1.000000" stroke="none" 
	d="
M468.409119,189.792236 
	C462.653168,189.859436 457.338562,189.859436 451.470551,189.859436 
	C451.470551,206.413269 451.470551,222.449692 451.470551,238.826294 
	C444.520386,238.826294 438.109070,238.826294 431.345215,238.826294 
	C431.345215,202.650391 431.345215,166.283310 431.345215,129.563980 
	C432.241730,129.446747 433.334625,129.183624 434.428436,129.179718 
	C443.747925,129.146606 453.069641,129.034805 462.386719,129.187653 
	C479.865051,129.474350 488.436401,137.067642 490.585419,154.298553 
	C491.074921,158.223328 491.077423,162.305481 490.617096,166.234695 
	C488.982361,180.187653 483.045868,186.436752 468.409119,189.792236 
M451.154999,161.494995 
	C451.154999,166.264709 451.154999,171.034409 451.154999,176.171860 
	C458.252563,175.410278 466.239716,178.220078 469.808502,170.762955 
	C473.388489,163.282425 474.003296,154.483810 469.023987,147.339600 
	C464.776184,141.245010 457.538483,144.464279 451.154999,143.840195 
	C451.154999,149.878510 451.154999,155.188080 451.154999,161.494995 
z"/>
<path fill="#F7F9FA" opacity="1.000000" stroke="none" 
	d="
M549.017029,590.032654 
	C549.017029,592.652832 549.017029,594.805664 549.017029,597.248413 
	C533.513000,597.248413 518.289673,597.248413 502.763153,597.248413 
	C502.763153,560.792358 502.763153,524.583679 502.763153,488.091644 
	C518.038574,488.091644 533.278381,488.091644 548.688843,488.091644 
	C548.688843,492.563049 548.688843,496.865906 548.688843,501.701538 
	C540.351318,501.701538 531.965759,501.701538 523.223022,501.701538 
	C523.223022,512.275208 523.223022,522.329834 523.223022,532.921814 
	C529.594666,532.921814 536.161377,532.921814 542.954956,532.921814 
	C542.954956,537.901489 542.954956,542.348999 542.954956,547.414673 
	C536.405151,547.414673 529.876526,547.414673 523.110657,547.414673 
	C523.110657,559.607056 523.110657,571.187378 523.110657,583.294739 
	C531.586487,583.294739 539.979065,583.294739 549.017029,583.294739 
	C549.017029,585.726318 549.017029,587.645813 549.017029,590.032654 
z"/>
<path fill="#F7F9FA" opacity="1.000000" stroke="none" 
	d="
M870.828674,533.141479 
	C872.760559,533.223938 874.211426,533.306335 875.823364,533.397888 
	C875.823364,538.144775 875.823364,542.577515 875.823364,547.439575 
	C869.216309,547.439575 862.775940,547.439575 855.941833,547.439575 
	C855.941833,559.544312 855.941833,571.224182 855.941833,583.450439 
	C864.516296,583.450439 872.928223,583.450439 881.591797,583.450439 
	C881.591797,588.250916 881.591797,592.514587 881.591797,597.160339 
	C866.228149,597.160339 850.864868,597.160339 835.320801,597.160339 
	C835.320801,560.789001 835.320801,524.692078 835.320801,488.201965 
	C850.385132,488.201965 865.428223,488.201965 880.832275,488.201965 
	C880.832275,492.518250 880.832275,497.080444 880.832275,502.047852 
	C872.571655,502.047852 864.304199,502.047852 855.791992,502.047852 
	C855.791992,512.502441 855.791992,522.559387 855.791992,533.141479 
	C860.777039,533.141479 865.562317,533.141479 870.828674,533.141479 
z"/>
<path fill="#F7F9FA" opacity="1.000000" stroke="none" 
	d="
M692.977600,404.141510 
	C697.091003,404.141510 700.710754,404.141510 704.586060,404.141510 
	C704.586060,408.934570 704.586060,413.204590 704.586060,417.834473 
	C689.253540,417.834473 673.879028,417.834473 658.376160,417.834473 
	C658.376160,381.508881 658.376160,345.274139 658.376160,308.750153 
	C673.686035,308.750153 688.762878,308.750153 704.190308,308.750153 
	C704.190308,313.302521 704.190308,317.704987 704.190308,322.724976 
	C695.799194,322.724976 687.425293,322.724976 678.803833,322.724976 
	C678.803833,333.392609 678.803833,343.452484 678.803833,353.837585 
	C685.420105,353.837585 691.868530,353.837585 698.665894,353.837585 
	C698.665894,358.719818 698.665894,363.289124 698.665894,368.474243 
	C692.227356,368.474243 685.667419,368.474243 678.834900,368.474243 
	C678.834900,380.506287 678.834900,391.936005 678.834900,404.141510 
	C683.310120,404.141510 687.897034,404.141510 692.977600,404.141510 
z"/>
<path fill="#F8FAFB" opacity="1.000000" stroke="none" 
	d="
M702.985229,174.985687 
	C706.129761,174.985687 708.780762,174.985687 711.807495,174.985687 
	C711.807495,179.688644 711.807495,184.200546 711.807495,189.162659 
	C705.296875,189.162659 698.877991,189.162659 692.164978,189.162659 
	C692.164978,201.180832 692.164978,212.765228 692.164978,224.999115 
	C700.508850,224.999115 709.039368,224.999115 717.782104,224.999115 
	C717.782104,229.908859 717.782104,234.177643 717.782104,238.818542 
	C702.602661,238.818542 687.395081,238.818542 671.825500,238.818542 
	C671.825500,202.520691 671.825500,166.170044 671.825500,129.481750 
	C686.953735,129.481750 702.006226,129.481750 717.458008,129.481750 
	C717.458008,133.973267 717.458008,138.530655 717.458008,143.666351 
	C709.179871,143.666351 700.794922,143.666351 692.138306,143.666351 
	C692.138306,154.296066 692.138306,164.359436 692.138306,174.985687 
	C695.601257,174.985687 699.046509,174.985687 702.985229,174.985687 
z"/>
<path fill="#F7F9FA" opacity="1.000000" stroke="none" 
	d="
M1065.002930,487.809082 
	C1074.136230,487.809113 1082.770142,487.809113 1091.628540,487.809113 
	C1091.628540,492.476715 1091.628540,496.749054 1091.628540,501.594238 
	C1083.600342,501.594238 1075.546387,501.594238 1067.181274,501.594238 
	C1067.181274,512.226379 1067.181274,522.299500 1067.181274,532.948608 
	C1073.396240,532.948608 1079.785889,532.948608 1086.508911,532.948608 
	C1086.508911,538.069763 1086.508911,542.623474 1086.508911,547.758606 
	C1080.088989,547.758606 1073.705811,547.758606 1066.854126,547.758606 
	C1066.854126,564.541626 1066.854126,580.761047 1066.854126,597.255371 
	C1059.963379,597.255371 1053.551880,597.255371 1046.799316,597.255371 
	C1046.799316,560.867188 1046.799316,524.659424 1046.799316,487.809082 
	C1052.625000,487.809082 1058.564331,487.809082 1065.002930,487.809082 
z"/>
<path fill="#F8FAFB" opacity="1.000000" stroke="none" 
	d="
M1061.547607,142.324158 
	C1061.811768,142.859863 1061.567383,143.525711 1061.196533,144.365570 
	C1055.136353,144.539566 1049.202637,144.539566 1042.723511,144.539566 
	C1042.723511,175.864716 1042.723511,207.252090 1042.723511,238.911469 
	C1035.601807,238.911469 1029.023193,238.911469 1022.131470,238.911469 
	C1022.131470,207.421112 1022.131470,176.148880 1022.131470,144.320557 
	C1015.979004,144.320557 1010.108276,144.320557 1004.039307,144.320557 
	C1004.039307,139.005905 1004.039307,134.249741 1004.039307,129.319504 
	C1022.711914,129.319504 1041.158569,129.319504 1059.676025,129.319504 
	C1060.136353,133.755325 1060.587769,138.104828 1061.547607,142.324158 
z"/>
<path fill="#F6F8F9" opacity="1.000000" stroke="none" 
	d="
M1012.137695,328.046021 
	C1012.024292,326.278595 1011.911011,325.007050 1011.771973,323.445709 
	C1005.788086,323.445709 1000.157593,323.445709 994.257690,323.445709 
	C994.257690,318.398773 994.257690,313.673645 994.257690,308.700897 
	C1012.836853,308.700897 1031.253052,308.700897 1049.932129,308.700897 
	C1049.932129,313.601257 1049.932129,318.345947 1049.932129,323.459351 
	C1044.274292,323.459351 1038.830811,323.459351 1032.855713,323.459351 
	C1032.855713,355.033417 1032.855713,386.249084 1032.855713,417.828308 
	C1025.770264,417.828308 1019.209900,417.828308 1012.137878,417.828308 
	C1012.137878,388.056091 1012.137878,358.299011 1012.137695,328.046021 
z"/>
<path fill="#FDFEFE" opacity="1.000000" stroke="none" 
	d="
M969.827637,559.999878 
	C969.827637,540.860535 969.827637,522.221191 969.827637,503.023285 
	C963.634277,503.023285 957.738708,503.023285 951.506226,503.023285 
	C951.506226,497.755646 951.506226,493.044189 951.506226,488.101624 
	C970.237061,488.101624 988.801514,488.101624 1007.603027,488.101624 
	C1007.603027,492.965942 1007.603027,497.558899 1007.603027,502.579895 
	C1001.880371,502.579895 996.286499,502.579895 990.237366,502.579895 
	C990.237366,534.250610 990.237366,565.500793 990.237366,597.130737 
	C983.257080,597.130737 976.725769,597.130737 969.827637,597.130737 
	C969.827637,584.796143 969.827637,572.648010 969.827637,559.999878 
z"/>
<path fill="#FDFEFE" opacity="1.000000" stroke="none" 
	d="
M652.003235,230.953064 
	C652.003235,233.894882 652.003235,236.344040 652.003235,238.978409 
	C645.224243,238.978409 638.946411,238.978409 632.196533,238.978409 
	C632.196533,207.605194 632.196533,176.221741 632.196533,144.311615 
	C625.835754,144.311615 619.928406,144.311615 613.799072,144.311615 
	C613.799072,139.037750 613.799072,134.295425 613.799072,129.357559 
	C632.527771,129.357559 650.945801,129.357559 669.683716,129.357559 
	C669.683716,134.214478 669.683716,138.933090 669.683716,144.002594 
	C664.024780,144.002594 658.425354,144.002594 652.003235,144.002594 
	C652.003235,173.046494 652.003235,201.753464 652.003235,230.953064 
z"/>
<path fill="#F7F9FA" opacity="1.000000" stroke="none" 
	d="
M789.191406,308.460449 
	C793.946533,308.460480 798.230774,308.460480 802.812744,308.460480 
	C802.812744,340.562225 802.812744,372.009094 802.812744,403.941406 
	C811.504944,403.941406 819.911133,403.941406 828.662720,403.941406 
	C828.662720,408.823914 828.662720,413.230133 828.662720,417.916321 
	C813.520325,417.916321 798.283203,417.916321 782.752563,417.916321 
	C782.752563,381.580505 782.752563,345.362152 782.752563,308.460449 
	C784.849182,308.460449 786.784851,308.460449 789.191406,308.460449 
z"/>
<path fill="#FDFEFE" opacity="1.000000" stroke="none" 
	d="
M451.172455,368.000122 
	C451.172455,380.129456 451.172455,391.758820 451.172455,403.884827 
	C459.842346,403.884827 468.244232,403.884827 477.075684,403.884827 
	C477.075684,408.739685 477.075684,413.112244 477.075684,418.172455 
	C469.568451,418.172455 461.985168,418.172455 454.401917,418.172455 
	C446.777649,418.172455 439.153381,418.172455 431.264984,418.172455 
	C431.264984,381.603699 431.264984,345.381744 431.264984,308.823364 
	C437.636841,308.823364 444.040375,308.823364 451.172455,308.823364 
	C451.172455,328.389496 451.172455,347.944794 451.172455,368.000122 
z"/>
<path fill="#FBFCFD" opacity="1.000000" stroke="none" 
	d="
M802.153992,557.999512 
	C802.153992,534.535278 802.153992,511.570892 802.153992,488.214874 
	C808.806030,488.214874 815.181946,488.214874 822.177734,488.214874 
	C822.177734,489.918976 822.177795,491.686157 822.177795,493.453339 
	C822.177795,519.604431 822.180054,545.755493 822.177124,571.906616 
	C822.174622,593.659790 815.997314,599.848206 794.300903,599.846008 
	C792.310486,599.845764 790.320068,599.845947 787.905029,599.845947 
	C787.905029,595.091187 787.905029,590.569153 787.905029,586.067810 
	C801.595764,583.390808 802.140625,582.715271 802.153564,568.493408 
	C802.156616,565.162048 802.153992,561.830750 802.153992,557.999512 
z"/>
<path fill="#F8FAFB" opacity="1.000000" stroke="none" 
	d="
M1057.602783,417.115784 
	C1057.510132,380.906525 1057.510132,345.123932 1057.510132,308.903931 
	C1063.939331,308.903931 1070.172241,308.903931 1076.799316,308.903931 
	C1076.799316,345.005188 1076.799316,381.336914 1076.799316,418.432831 
	C1070.443237,418.136597 1064.069336,417.839508 1057.602783,417.115784 
z"/>
<path fill="#F8FAFB" opacity="1.000000" stroke="none" 
	d="
M1013.470581,594.453491 
	C1013.467346,558.762268 1013.467346,523.520203 1013.467346,488.046570 
	C1020.189636,488.046570 1026.440430,488.046570 1032.940186,488.046570 
	C1032.940186,524.402039 1032.940186,560.616150 1032.940186,597.507141 
	C1027.152100,597.507141 1021.405029,597.603333 1015.669250,597.391663 
	C1014.907898,597.363586 1014.204224,595.770813 1013.470581,594.453491 
z"/>
<path fill="#FBFCFD" opacity="1.000000" stroke="none" 
	d="
M857.846008,353.000092 
	C857.846008,374.777710 857.846008,396.055298 857.846008,417.754944 
	C851.255615,417.754944 844.884644,417.754944 838.164551,417.754944 
	C838.164551,381.598267 838.164551,345.284668 838.164551,308.724792 
	C844.568909,308.724792 850.833435,308.724792 857.846008,308.724792 
	C857.846008,323.403839 857.846008,337.951935 857.846008,353.000092 
z"/>
<path fill="#FCFCFD" opacity="1.000000" stroke="none" 
	d="
M929.088379,129.154892 
	C933.394165,129.154892 937.215088,129.154892 941.439636,129.154892 
	C941.439636,165.787384 941.439636,202.160980 941.439636,238.856567 
	C935.192261,238.856567 928.934692,238.856567 922.332703,238.856567 
	C922.332703,202.596161 922.332703,166.193405 922.332703,129.154892 
	C924.398621,129.154892 926.501038,129.154892 929.088379,129.154892 
z"/>
<path fill="#F8FAFB" opacity="1.000000" stroke="none" 
	d="
M679.685913,287.540894 
	C681.271118,282.225525 682.727112,277.290161 684.232483,272.187439 
	C690.392273,272.187439 696.489136,272.187439 703.304382,272.187439 
	C698.005127,281.028137 693.397217,289.864014 687.528320,297.763000 
	C685.899536,299.955261 680.529907,299.368103 675.925781,300.235138 
	C677.424316,295.152802 678.490479,291.536865 679.685913,287.540894 
z"/>
<path fill="#1A496A" opacity="1.000000" stroke="none" 
	d="
M749.290771,895.691650 
	C723.345947,856.745605 687.514648,833.153992 642.145264,823.884338 
	C652.218140,784.379089 706.441895,747.404236 758.546021,746.395996 
	C815.982056,745.284668 860.623962,782.132507 877.943665,823.768677 
	C824.378967,834.953796 785.181030,865.032104 760.004028,913.998474 
	C756.390625,907.805786 752.943542,901.898071 749.290771,895.691650 
z"/>
<path fill="#1A496A" opacity="1.000000" stroke="none" 
	d="
M584.888794,1017.881836 
	C559.985168,1033.285156 540.721191,1053.598511 526.652832,1078.862427 
	C496.834167,1054.307983 475.094849,1006.076843 487.081848,953.970276 
	C499.112762,901.672974 543.432617,862.215759 598.765198,855.206604 
	C593.224182,909.795532 610.136230,956.353943 649.950562,995.284241 
	C626.308167,998.471985 604.906677,1005.706055 584.888794,1017.881836 
z"/>
<path fill="#1A496A" opacity="1.000000" stroke="none" 
	d="
M563.321899,1230.624512 
	C542.415894,1199.954956 535.721436,1166.729004 542.508484,1130.117310 
	C592.664429,1152.455078 641.849365,1151.256470 690.815613,1126.332642 
	C682.439209,1180.495850 696.703369,1227.733521 733.626038,1267.996582 
	C681.684265,1299.765503 605.611084,1289.772827 563.321899,1230.624512 
z"/>
<path fill="#1A496A" opacity="1.000000" stroke="none" 
	d="
M922.165649,874.008667 
	C921.837463,867.561035 921.513000,861.610779 921.187622,855.642944 
	C959.373108,858.010803 1012.338013,886.613098 1030.615723,946.311340 
	C1046.454102,998.042053 1026.788330,1050.430298 993.739075,1078.442993 
	C966.461487,1031.110229 925.931152,1002.897888 870.924377,994.185364 
	C904.634644,961.055481 922.062073,921.413757 922.165649,874.008667 
z"/>
<path fill="#1A496A" opacity="1.000000" stroke="none" 
	d="
M920.249146,1264.293701 
	C875.668335,1292.843506 822.262268,1289.018555 787.568115,1267.617554 
	C823.658508,1227.293091 837.448547,1180.341064 828.830078,1126.257202 
	C877.838928,1151.220337 927.050598,1152.501343 976.790527,1130.325562 
	C986.766724,1165.685669 975.564819,1228.503662 920.249146,1264.293701 
z"/>
<path fill="#1A496B" opacity="1.000000" stroke="none" 
	d="
M838.758057,1026.658936 
	C894.973877,1021.341187 945.154602,1053.951416 965.949951,1097.833984 
	C908.113953,1131.541748 822.927429,1108.110107 791.408752,1040.600586 
	C806.160461,1032.957153 821.747559,1028.244873 838.758057,1026.658936 
z"/>
<path fill="#1A496B" opacity="1.000000" stroke="none" 
	d="
M769.699951,1075.319092 
	C810.090881,1127.859375 807.849548,1195.562256 764.363770,1243.846802 
	C763.257874,1245.074707 762.094116,1246.250366 760.962402,1247.444946 
	C711.769653,1203.679810 705.272827,1117.056030 759.654419,1064.086792 
	C762.928345,1067.748535 766.194153,1071.401245 769.699951,1075.319092 
z"/>
<path fill="#1A496B" opacity="1.000000" stroke="none" 
	d="
M616.888000,1112.997925 
	C594.505310,1113.528931 573.858765,1108.650879 554.336975,1098.780762 
	C582.273499,1037.417114 663.733643,1006.847839 727.830933,1041.777466 
	C713.485291,1074.000366 673.498840,1111.002686 616.888000,1112.997925 
z"/>
<path fill="#1A496B" opacity="1.000000" stroke="none" 
	d="
M849.072327,969.076294 
	C829.225891,987.729370 806.177368,999.048706 779.631897,1003.352417 
	C766.773254,938.239868 814.689453,866.063538 887.926636,856.248352 
	C893.228149,900.106873 880.822388,937.687622 849.072327,969.076294 
z"/>
<path fill="#1A496B" opacity="1.000000" stroke="none" 
	d="
M723.478027,999.629517 
	C656.859009,979.487854 621.996399,913.877991 632.449829,856.456116 
	C700.522644,864.492188 753.185913,933.669556 740.255371,1003.527771 
	C734.776611,1002.272827 729.317139,1001.022339 723.478027,999.629517 
z"/>
<path fill="#1C4A6C" opacity="1.000000" stroke="none" 
	d="
M765.651855,561.598022 
	C765.760376,562.520935 765.817017,563.017578 765.823181,563.514893 
	C766.030579,580.147156 760.346130,585.019958 743.219971,582.677063 
	C743.219971,570.975037 743.219971,559.240784 743.219971,547.515442 
	C756.566895,544.591614 763.377441,548.763733 765.651855,561.598022 
z"/>
<path fill="#1A496B" opacity="1.000000" stroke="none" 
	d="
M743.003723,519.987671 
	C743.003723,513.862000 743.003723,508.233063 743.003723,502.049133 
	C749.956055,502.182343 757.517090,500.379059 761.923218,506.889893 
	C766.063843,513.008423 765.381409,520.545166 761.915466,526.871277 
	C757.815125,534.355591 750.065613,531.573242 743.003723,532.313538 
	C743.003723,528.041748 743.003723,524.263062 743.003723,519.987671 
z"/>
<path fill="#1C4A6C" opacity="1.000000" stroke="none" 
	d="
M1378.548218,175.971863 
	C1375.943848,175.990646 1373.784790,175.990646 1371.235107,175.990646 
	C1371.235107,165.308960 1371.235107,154.595612 1371.235107,143.857864 
	C1381.327515,141.471146 1389.550049,144.844681 1390.815186,152.562637 
	C1393.376587,168.189301 1389.438232,175.019302 1378.548218,175.971863 
z"/>
<path fill="#1A496B" opacity="1.000000" stroke="none" 
	d="
M626.376465,338.986206 
	C625.305969,352.701721 620.128357,356.598541 605.804504,354.660004 
	C605.804504,344.273926 605.804504,333.844910 605.804504,323.407501 
	C618.245300,319.546082 625.144653,324.601990 626.376465,338.986206 
z"/>
<path fill="#1C4A6C" opacity="1.000000" stroke="none" 
	d="
M451.225861,581.649170 
	C451.182098,555.075195 451.182098,528.973083 451.182098,501.946075 
	C455.627899,502.319794 459.955170,501.890656 463.610840,503.257599 
	C466.236053,504.239288 468.198090,507.455780 469.990723,510.002747 
	C470.851257,511.225311 470.867401,513.205322 470.870880,514.843079 
	C470.909637,533.147156 471.185516,551.459106 470.739716,569.752930 
	C470.456573,581.371765 462.085876,586.332520 451.225861,581.649170 
z"/>
<path fill="#1A496B" opacity="1.000000" stroke="none" 
	d="
M669.916138,576.676147 
	C669.496704,573.480042 668.905579,570.686340 668.891174,567.889648 
	C668.803650,550.900635 668.833862,533.910950 668.864868,516.921509 
	C668.868835,514.761902 668.888489,512.562622 669.276917,510.450897 
	C670.452148,504.061859 673.525024,501.562378 679.885620,501.526184 
	C686.172852,501.490448 689.324158,504.042786 690.652832,510.337616 
	C690.891663,511.469025 690.977112,512.652161 690.978210,513.811462 
	C690.996826,532.962341 691.154358,552.115295 690.921570,571.263306 
	C690.803772,580.954163 684.708679,585.965515 676.573181,583.110168 
	C673.997253,582.206055 672.176941,579.148926 669.916138,576.676147 
z"/>
<path fill="#1A496B" opacity="1.000000" stroke="none" 
	d="
M1132.991699,380.989197 
	C1132.693481,386.616150 1132.830688,391.819275 1131.978027,396.854767 
	C1131.074219,402.191711 1127.501343,404.553589 1121.981812,404.653015 
	C1116.654175,404.748993 1113.135010,402.243256 1111.684326,397.094818 
	C1111.194214,395.355499 1110.893433,393.499695 1110.889648,391.696289 
	C1110.849365,372.550507 1110.725952,353.402557 1110.969360,334.259583 
	C1111.091553,324.639832 1117.153076,319.979218 1125.609009,322.941956 
	C1128.059692,323.800659 1130.439331,326.370880 1131.674072,328.764008 
	C1132.890259,331.120941 1132.919067,334.245880 1132.940308,337.037842 
	C1133.050415,351.521729 1132.991577,366.006897 1132.991699,380.989197 
z"/>
<path fill="#1C4A6C" opacity="1.000000" stroke="none" 
	d="
M1230.684814,213.678177 
	C1230.576660,194.397507 1230.397827,175.571899 1230.570312,156.749512 
	C1230.668213,146.055298 1235.712158,141.098923 1244.253784,143.484924 
	C1247.118042,144.285034 1249.458252,147.466187 1251.652954,149.905457 
	C1252.509277,150.857254 1252.545288,152.762207 1252.548828,154.233978 
	C1252.597412,174.214218 1252.892822,194.202271 1252.413818,214.171280 
	C1252.219727,222.260040 1248.077026,225.619217 1241.347534,225.468185 
	C1234.794434,225.321152 1231.842285,222.160538 1230.684814,213.678177 
z"/>
<path fill="#1C4A6C" opacity="1.000000" stroke="none" 
	d="
M572.998108,161.994781 
	C572.998108,155.547424 572.998108,149.598358 572.998108,143.201202 
	C579.833801,143.398270 587.108887,141.758896 591.156555,148.116455 
	C595.601013,155.097244 595.521484,163.292297 591.421082,170.479904 
	C587.465881,177.412994 580.039490,175.816132 572.998108,176.248383 
	C572.998108,171.387329 572.998108,166.940201 572.998108,161.994781 
z"/>
<path fill="#1F4D6E" opacity="1.000000" stroke="none" 
	d="
M873.535889,175.505096 
	C873.257385,164.698944 873.257385,154.272446 873.257385,142.794937 
	C877.969543,143.360336 882.306030,143.841034 886.626892,144.435532 
	C887.407471,144.542938 888.231445,144.986633 888.853210,145.496948 
	C895.402954,150.872238 894.474426,158.233658 893.532166,165.254593 
	C892.652832,171.806091 889.142700,174.895782 882.717407,175.754318 
	C879.796082,176.144684 876.784912,175.862076 873.535889,175.505096 
z"/>
<path fill="#255272" opacity="1.000000" stroke="none" 
	d="
M746.478516,367.469360 
	C747.160217,371.653442 747.722717,375.416809 748.339661,379.544098 
	C743.507446,379.544098 739.095947,379.544098 734.111755,379.544098 
	C736.391357,365.588470 738.646973,351.779816 740.902588,337.971130 
	C741.173706,337.997742 741.444824,338.024353 741.716003,338.050964 
	C743.263733,347.716888 744.811523,357.382782 746.478516,367.469360 
z"/>
<path fill="#255272" opacity="1.000000" stroke="none" 
	d="
M969.520142,367.461975 
	C970.194092,371.650513 970.748718,375.418304 971.356628,379.547302 
	C966.539795,379.547302 962.131653,379.547302 957.141785,379.547302 
	C959.433289,365.534393 961.693054,351.715088 963.952881,337.895782 
	C964.212402,337.924530 964.471924,337.953308 964.731445,337.982056 
	C966.287903,347.668457 967.844360,357.354828 969.520142,367.461975 
z"/>
<path fill="#255272" opacity="1.000000" stroke="none" 
	d="
M518.920776,371.028473 
	C519.352234,374.069672 519.727600,376.679016 520.147095,379.595703 
	C515.352600,379.595703 510.921967,379.595703 505.894562,379.595703 
	C508.160034,365.774689 510.388153,352.181366 512.616333,338.588043 
	C512.934631,338.624237 513.252930,338.660431 513.571228,338.696625 
	C515.335754,349.329956 517.100220,359.963287 518.920776,371.028473 
z"/>
<path fill="#255272" opacity="1.000000" stroke="none" 
	d="
M516.979370,159.743195 
	C519.170532,173.339615 521.315613,186.573944 523.526428,200.214157 
	C518.543518,200.214157 514.158569,200.214157 509.206482,200.214157 
	C511.523041,186.405426 513.794006,172.864090 516.076782,159.324753 
	C516.099915,159.187408 516.340027,158.955261 516.376892,158.973480 
	C516.579895,159.073929 516.751160,159.238525 516.979370,159.743195 
z"/>
<path fill="#255272" opacity="1.000000" stroke="none" 
	d="
M820.125732,178.742767 
	C821.314087,186.037155 822.455933,192.899307 823.668213,200.184784 
	C818.788940,200.184784 814.426941,200.184784 809.434875,200.184784 
	C811.702332,186.136642 813.918091,172.408386 816.133850,158.680130 
	C816.374939,158.656769 816.615967,158.633408 816.856995,158.610046 
	C817.931030,165.176880 819.005066,171.743713 820.125732,178.742767 
z"/>
<path fill="#255272" opacity="1.000000" stroke="none" 
	d="
M982.162292,176.694550 
	C983.484192,184.642227 984.750793,192.154984 986.094360,200.123947 
	C981.276672,200.123947 976.787659,200.123947 971.792664,200.123947 
	C974.018311,186.439606 976.212891,172.946487 978.407471,159.453384 
	C978.725281,159.424515 979.043091,159.395660 979.360901,159.366806 
	C980.276245,164.997742 981.191589,170.628693 982.162292,176.694550 
z"/>
<path fill="#1F4D6E" opacity="1.000000" stroke="none" 
	d="
M1182.493042,174.857880 
	C1177.849609,175.447998 1173.591064,175.909668 1168.883545,176.420013 
	C1168.883545,165.280457 1168.883545,154.775284 1168.883545,144.283279 
	C1180.643921,142.630768 1185.928223,144.291626 1187.998047,150.235672 
	C1191.230957,159.519714 1188.833862,170.987000 1182.493042,174.857880 
z"/>
<path fill="#1F4D6E" opacity="1.000000" stroke="none" 
	d="
M451.154999,160.996323 
	C451.154999,155.188080 451.154999,149.878510 451.154999,143.840195 
	C457.538483,144.464279 464.776184,141.245010 469.023987,147.339600 
	C474.003296,154.483810 473.388489,163.282425 469.808502,170.762955 
	C466.239716,178.220078 458.252563,175.410278 451.154999,176.171860 
	C451.154999,171.034409 451.154999,166.264709 451.154999,160.996323 
z"/>
</svg>