<svg version="1.1" id="Layer_1" xmlns="http://www.w3.org/2000/svg" xmlns:xlink="http://www.w3.org/1999/xlink" x="0px" y="0px"
	 width="100%" viewBox="0 0 1500 1500" enable-background="new 0 0 1500 1500" xml:space="preserve">
<path fill="#D3A029" opacity="1.000000" stroke="none" 
	d="
M1.000000,571.000000 
	C1.000000,380.666687 1.000000,190.833405 1.000000,1.000077 
	C500.999878,1.000051 1000.999756,1.000051 1500.999756,1.000026 
	C1500.999756,500.999786 1500.999756,1000.999573 1500.999878,1500.999512 
	C1001.000305,1500.999756 501.000610,1500.999756 1.000453,1500.999878 
	C1.000000,1191.166626 1.000000,881.333313 1.000000,571.000000 
M362.500244,965.566467 
	C353.835266,965.566833 345.170074,965.529358 336.505371,965.577698 
	C326.998077,965.630737 323.046753,970.180054 324.561768,979.428894 
	C325.422302,984.682373 326.369293,989.932129 327.551270,995.121094 
	C348.360138,1086.474854 398.456848,1158.479004 472.912659,1214.170776 
	C509.758179,1241.730713 550.410461,1262.087769 594.259155,1276.007568 
	C597.752991,1277.116699 599.415710,1278.547241 599.099915,1282.510620 
	C598.690857,1287.643921 598.931702,1292.835693 599.018127,1298.000122 
	C599.141846,1305.389404 602.839478,1309.137695 610.085571,1309.139404 
	C692.406189,1309.158081 774.726807,1309.159424 857.047424,1309.136841 
	C864.426270,1309.134888 867.966614,1305.464966 867.995361,1298.011108 
	C868.024231,1290.524780 868.001648,1283.038208 868.001648,1275.756836 
	C868.565308,1275.365234 868.803772,1275.114502 869.094666,1275.010498 
	C872.853577,1273.667114 876.644104,1272.409058 880.380920,1271.007324 
	C981.471130,1233.087402 1058.759521,1168.255005 1106.603882,1070.368408 
	C1120.867798,1041.185303 1130.181396,1010.324158 1135.656860,978.311768 
	C1136.913330,970.965210 1132.862793,965.976196 1125.381836,965.595703 
	C1123.553223,965.502686 1121.716431,965.567200 1119.883423,965.567200 
	C867.755737,965.566467 615.627991,965.566406 362.500244,965.566467 
M215.955627,268.452728 
	C203.896393,281.563568 191.525940,294.404449 179.858292,307.854950 
	C165.910812,323.933655 156.127106,342.275574 155.427521,364.024658 
	C154.753052,384.992249 155.192307,405.995789 155.170456,426.983551 
	C155.170181,427.237732 155.544479,427.492310 155.749695,427.740509 
	C199.671570,427.740509 243.593445,427.740509 287.739197,427.740509 
	C287.739197,413.910187 287.739197,400.341736 287.739197,386.019226 
	C259.807800,386.019226 232.128830,386.019226 204.763382,386.019226 
	C201.827728,363.021332 206.870987,343.667847 223.589340,327.471710 
	C238.043808,313.468719 251.485519,298.395264 265.007507,283.462280 
	C276.913635,270.313721 287.319519,255.531479 288.529327,237.548859 
	C290.099060,214.216171 290.481323,190.600845 288.737579,167.304596 
	C286.970062,143.690125 272.289886,128.920792 249.265869,123.452721 
	C233.005035,119.590874 216.500671,119.390839 200.233643,123.318436 
	C176.670395,129.007675 161.442307,143.955688 158.199112,167.939178 
	C155.762344,185.959076 156.740204,204.440964 156.227188,222.718002 
	C156.220291,222.963242 156.597122,223.219223 156.719299,223.374298 
	C172.027344,223.374298 187.247330,223.374298 202.806564,223.374298 
	C202.806564,211.298569 202.727768,199.650803 202.851532,188.005188 
	C202.891998,184.197311 203.039093,180.300888 203.866287,176.608231 
	C206.158768,166.374084 213.242126,161.433792 223.990692,162.090973 
	C233.647629,162.681427 238.764618,167.829300 240.145325,178.438034 
	C240.402298,180.412430 240.522797,182.417450 240.531448,184.409103 
	C240.571274,193.573273 240.146088,202.759079 240.631165,211.897675 
	C241.721237,232.434494 235.453735,249.897110 220.230576,263.957916 
	C218.888321,265.197693 217.707077,266.611786 215.955627,268.452728 
M742.030212,907.212402 
	C740.194031,915.723328 738.357849,924.234253 736.514587,932.778198 
	C753.462585,932.778198 770.580322,932.778198 787.820618,932.778198 
	C793.238464,914.372375 794.188049,895.947632 790.486694,877.309631 
	C785.068176,850.024780 771.366394,827.046082 752.832703,806.856750 
	C727.854736,779.647400 720.705627,747.889526 727.630493,712.343689 
	C731.978577,690.024658 740.768250,669.459351 752.989929,650.328308 
	C759.432068,640.244324 757.556702,629.557373 748.122070,622.575867 
	C736.054382,613.645935 717.529724,616.637939 709.218140,629.161926 
	C696.046387,649.009521 686.324829,670.496094 680.355652,693.550842 
	C670.861206,730.220947 671.912964,766.050476 689.712646,800.411316 
	C696.755249,814.006653 706.591187,825.462219 716.402588,837.042664 
	C733.264282,856.944580 744.195679,879.239014 742.030212,907.212402 
M575.276123,861.307800 
	C586.976318,884.634155 588.334534,908.425476 577.836609,932.998108 
	C594.794312,932.998108 611.105225,933.090210 627.410339,932.827515 
	C628.748352,932.805969 630.816162,930.583191 631.246033,929.024963 
	C635.696167,912.896606 636.366760,896.526123 633.492249,880.050903 
	C628.520203,851.554138 614.468445,827.664001 595.190491,806.725464 
	C571.121216,780.582764 563.741394,749.929810 569.544678,715.593445 
	C573.535522,691.980408 582.714905,670.323547 595.603577,650.197571 
	C601.916504,640.339661 599.847168,629.189270 590.482971,622.467346 
	C578.137634,613.605469 560.031433,616.648010 551.643677,629.308228 
	C538.490356,649.161621 528.829651,670.644531 522.850769,693.710449 
	C509.241394,746.214417 518.762695,793.150330 555.963806,833.826294 
	C563.297974,841.845520 568.680786,851.649353 575.276123,861.307800 
M883.166016,724.921021 
	C883.612488,721.789062 883.958862,718.639038 884.521362,715.528076 
	C888.783569,691.956482 897.743164,670.256592 910.647583,650.130188 
	C916.952454,640.296814 914.829712,629.179504 905.411194,622.411438 
	C893.310669,613.716125 875.102600,616.634399 866.864014,628.983887 
	C852.405945,650.656372 842.136841,674.243286 836.363281,699.649231 
	C827.001587,740.844849 831.698242,779.826355 856.250244,815.140503 
	C862.407654,823.996887 869.979431,831.857971 876.679382,840.351501 
	C891.421326,859.040161 901.343933,879.710388 899.642761,904.135681 
	C898.971008,913.780823 896.059631,923.269958 894.134827,932.998169 
	C909.761169,932.998169 926.075623,933.075867 942.385803,932.848083 
	C943.665100,932.830200 945.671753,930.893311 946.062561,929.491943 
	C950.604370,913.205688 951.339111,896.678284 948.450317,880.018066 
	C943.690430,852.567078 930.693909,829.063110 912.050110,808.965088 
	C890.061401,785.261414 880.354675,757.874207 883.166016,724.921021 
M640.191711,226.499939 
	C640.191711,235.585907 640.191711,244.671890 640.191711,253.631927 
	C647.264282,253.631927 653.506653,253.631927 659.751953,253.631927 
	C659.751953,211.008286 659.751953,168.756485 659.751953,126.251160 
	C650.737488,126.251160 641.971069,126.251160 632.692078,126.251160 
	C628.715454,149.096268 624.732178,171.979660 620.748901,194.863068 
	C619.569275,193.564484 619.202087,192.318588 618.954895,191.049332 
	C614.978394,170.635483 611.057983,150.210449 606.963440,129.820343 
	C606.682251,128.419815 605.169739,126.220772 604.157166,126.179588 
	C596.568176,125.870850 588.960815,126.011536 581.370239,126.011536 
	C581.370239,169.001816 581.370239,211.371765 581.370239,253.735046 
	C587.343262,253.735046 592.939148,253.735046 598.899780,253.735046 
	C598.899780,227.370453 598.899780,201.269684 598.899780,175.168915 
	C599.224670,175.127640 599.549500,175.086365 599.874390,175.045105 
	C604.981140,201.336517 610.087830,227.627930 615.210815,254.002991 
	C616.935852,254.002991 618.116455,253.851517 619.245117,254.029480 
	C623.895752,254.762848 625.805115,253.228806 626.493103,248.158844 
	C628.236816,235.307541 630.822693,222.570328 633.078796,209.788757 
	C635.121460,198.216873 637.174255,186.646774 639.222534,175.075882 
	C639.545593,175.105911 639.868652,175.135925 640.191711,175.165955 
	C640.191711,191.943939 640.191711,208.721924 640.191711,226.499939 
M602.843994,328.500000 
	C602.843994,363.224548 602.843994,397.949097 602.843994,432.783203 
	C610.361938,432.783203 617.131226,432.783203 624.573364,432.783203 
	C624.573364,414.912659 624.573364,397.250427 624.573364,379.588196 
	C626.143005,380.546814 626.661255,381.672577 627.063965,382.838257 
	C632.384521,398.240417 637.647888,413.662659 643.063049,429.031372 
	C643.584900,430.512268 644.970703,432.747803 646.047363,432.801849 
	C652.911621,433.146332 659.801697,432.977203 667.228394,432.977203 
	C660.286255,413.306122 653.614258,394.400299 646.798767,375.087982 
	C657.568848,372.420074 663.081116,365.372223 663.513672,355.003784 
	C663.921692,345.222717 663.863953,335.345428 662.963013,325.607452 
	C662.008484,315.289673 655.569214,307.722961 645.416443,306.538025 
	C631.486084,304.912170 617.349487,305.053192 602.843994,304.416992 
	C602.843994,312.909943 602.843994,320.204987 602.843994,328.500000 
M695.789612,432.935364 
	C696.757568,433.177124 697.714233,433.486298 698.695129,433.650818 
	C722.469910,437.638306 739.339722,427.459839 740.098877,404.452789 
	C740.893921,380.355194 740.779602,356.187408 739.941040,332.089325 
	C739.310364,313.965363 727.071777,303.808411 708.070679,303.561157 
	C689.594238,303.320679 676.895203,313.331635 676.060425,331.281311 
	C674.941040,355.350647 675.161194,379.506500 675.560547,403.612732 
	C675.782654,417.016510 681.435730,427.765930 695.789612,432.935364 
M480.907166,171.342072 
	C475.740112,198.733002 470.573059,226.123917 465.374451,253.682281 
	C472.694733,253.682281 479.263275,253.682281 485.924957,253.682281 
	C487.011108,246.976334 487.874817,240.531158 489.228790,234.190674 
	C489.511383,232.867203 491.541504,231.066742 492.875427,230.968567 
	C498.014221,230.590332 503.207764,231.012070 508.360138,230.741257 
	C511.679474,230.566818 512.620972,231.985107 513.033936,234.979202 
	C513.894104,241.215683 515.120056,247.401703 516.222900,253.765320 
	C523.593323,253.765320 530.699158,253.765320 538.457214,253.765320 
	C530.323425,210.995422 522.256470,168.576584 514.206787,126.248619 
	C505.640289,126.248619 497.690399,126.248619 489.453949,126.248619 
	C486.615570,141.122574 483.813232,155.807755 480.907166,171.342072 
M539.994629,356.500000 
	C539.994629,381.914307 539.994629,407.328644 539.994629,432.708984 
	C557.488708,432.708984 574.237854,432.708984 591.116211,432.708984 
	C591.116211,426.822449 591.116211,421.236542 591.116211,415.015930 
	C581.231262,415.015930 571.673096,415.015930 562.197388,415.015930 
	C562.197388,401.973175 562.197388,389.574066 562.197388,376.578247 
	C569.304626,376.578247 576.039856,376.578247 582.695923,376.578247 
	C582.695923,370.540710 582.695923,365.112793 582.695923,359.080078 
	C575.673096,359.080078 568.942810,359.080078 562.151489,359.080078 
	C562.151489,346.733978 562.151489,335.002380 562.151489,322.812012 
	C571.915405,322.812012 581.347839,322.812012 591.051758,322.812012 
	C591.051758,316.654541 591.051758,310.963165 591.051758,305.303986 
	C573.891113,305.303986 557.138184,305.303986 539.994629,305.303986 
	C539.994629,322.240326 539.994629,338.870148 539.994629,356.500000 
M498.137177,406.771973 
	C507.976685,379.920654 518.138611,353.180023 527.419861,326.137085 
	C529.627747,319.703979 528.889160,312.259674 529.494324,305.411285 
	C510.825958,305.411285 493.442627,305.411285 476.297363,305.411285 
	C476.297363,311.393402 476.297363,316.950562 476.297363,322.925690 
	C486.175690,322.925690 495.602356,322.925690 505.601715,322.925690 
	C504.856323,325.350189 504.365234,327.239075 503.700897,329.064911 
	C493.871887,356.079620 483.703888,382.977753 474.391724,410.169098 
	C472.013458,417.113586 472.328156,424.980316 471.371338,432.699921 
	C490.896240,432.699921 508.945679,432.699921 527.113281,432.699921 
	C527.113281,426.807220 527.113281,421.224457 527.113281,415.137360 
	C516.532654,415.137360 506.283356,415.137360 495.330292,415.137360 
	C496.337830,412.157104 497.118958,409.846619 498.137177,406.771973 
M438.155121,236.498718 
	C438.155121,223.739151 438.155121,210.979568 438.155121,197.570236 
	C445.745392,197.570236 452.638336,197.570236 459.371582,197.570236 
	C459.371582,191.342667 459.371582,185.787659 459.371582,179.826889 
	C452.174988,179.826889 445.410126,179.826889 438.504150,179.826889 
	C438.504150,167.680664 438.504150,155.965515 438.504150,143.704224 
	C448.087952,143.704224 457.335236,143.704224 466.721039,143.704224 
	C466.721039,137.582153 466.721039,132.012665 466.721039,126.221695 
	C450.013031,126.221695 433.585327,126.221695 416.852783,126.221695 
	C416.852783,168.730591 416.852783,211.118134 416.852783,253.691132 
	C423.961029,253.691132 430.847870,253.691132 438.155121,253.691132 
	C438.155121,248.089890 438.155121,242.793976 438.155121,236.498718 
M562.364502,125.993965 
	C557.286438,125.993965 552.208435,125.993965 547.255493,125.993965 
	C547.255493,169.061478 547.255493,211.289261 547.255493,253.751450 
	C554.416626,253.751450 561.315979,253.751450 568.501343,253.751450 
	C568.501343,211.156982 568.501343,168.817215 568.501343,125.993996 
	C566.569885,125.993996 564.945251,125.993996 562.364502,125.993965 
M420.143188,376.564697 
	C419.200409,379.052032 418.049042,381.484344 417.374634,384.042419 
	C416.726501,386.500519 415.660492,389.383514 416.366119,391.566528 
	C418.816711,399.148041 421.889648,406.534149 424.906494,413.920807 
	C425.377258,415.073517 426.733643,416.580811 427.774933,416.658508 
	C431.970184,416.971558 436.202423,416.788177 441.093231,416.788177 
	C437.932098,408.269867 434.920593,400.722443 432.400269,393.014404 
	C431.652985,390.728943 431.658203,387.785858 432.404480,385.498413 
	C434.957550,377.673279 437.993439,370.005676 440.874115,362.199554 
	C427.108795,359.691742 426.506470,360.020569 421.908875,372.141571 
	C421.437378,373.384552 420.945374,374.619781 420.143188,376.564697 
M461.768921,413.465698 
	C459.275482,406.778473 456.520874,400.171783 454.421844,393.362976 
	C453.623291,390.772522 453.656128,387.503235 454.478912,384.914948 
	C456.912994,377.258148 459.930237,369.786713 462.981781,361.532990 
	C458.749237,361.532990 455.429169,361.792084 452.168579,361.462738 
	C448.655060,361.107849 447.146881,362.641907 446.094757,365.773499 
	C444.299500,371.116852 442.455017,376.497162 439.984772,381.545624 
	C437.351105,386.928009 437.552795,391.795319 440.094513,397.100983 
	C442.382416,401.876770 443.870911,407.029572 445.974609,411.902740 
	C446.748291,413.695068 448.149902,416.414734 449.479401,416.546387 
	C453.647858,416.959106 457.918335,416.340942 462.149292,416.122101 
	C462.096588,415.475708 462.043915,414.829346 461.768921,413.465698 
M782.356934,416.818573 
	C786.810547,417.597717 789.275818,415.984589 790.665710,411.411713 
	C792.642212,404.909088 795.562744,398.698883 797.804810,392.267853 
	C798.398438,390.565155 798.523193,388.322754 797.939392,386.650757 
	C795.365723,379.279999 792.515503,372.002625 789.605469,364.755707 
	C789.118347,363.542877 787.903687,361.822144 786.918274,361.747528 
	C782.570068,361.418182 778.182739,361.605194 773.253296,361.605194 
	C776.216003,369.655853 778.613770,376.742065 781.448853,383.648773 
	C782.999695,387.427063 783.147400,390.733978 781.534912,394.587433 
	C778.609497,401.578674 776.246460,408.805298 773.326172,416.818573 
	C776.605225,416.818573 779.024048,416.818573 782.356934,416.818573 
M771.170044,404.763763 
	C772.537720,401.202271 773.671570,397.526703 775.338501,394.111298 
	C777.015564,390.675323 776.758667,387.653198 775.291199,384.209747 
	C772.562256,377.806366 770.335205,371.190613 767.731079,364.731049 
	C767.245239,363.525726 766.033203,361.818970 765.050781,361.745056 
	C760.710632,361.418365 756.331909,361.603790 751.393921,361.603790 
	C754.010681,368.695740 755.894958,374.914978 758.579956,380.766785 
	C761.273621,386.637634 761.196106,391.968658 758.525146,397.821411 
	C755.817810,403.754059 753.914246,410.053558 751.599548,416.353210 
	C765.997681,418.027557 765.997742,418.027588 770.779724,405.976501 
	C770.840942,405.822144 770.895020,405.664886 771.170044,404.763763 
M550.994751,297.880554 
	C551.549377,298.688873 552.187988,300.246887 552.646301,300.195557 
	C563.302856,299.001678 573.939819,297.633362 584.530151,296.303619 
	C584.530151,291.025848 584.530151,286.441620 584.530151,281.234711 
	C573.189941,283.623108 562.250305,285.927094 550.990234,288.298615 
	C550.990234,291.424408 550.990234,294.222382 550.994751,297.880554 
z"/>
<path fill="#FFFFFF" opacity="1.000000" stroke="none" 
	d="
M363.000244,965.566406 
	C615.627991,965.566406 867.755737,965.566467 1119.883423,965.567200 
	C1121.716431,965.567200 1123.553223,965.502686 1125.381836,965.595703 
	C1132.862793,965.976196 1136.913330,970.965210 1135.656860,978.311768 
	C1130.181396,1010.324158 1120.867798,1041.185303 1106.603882,1070.368408 
	C1058.759521,1168.255005 981.471130,1233.087402 880.380920,1271.007324 
	C876.644104,1272.409058 872.853577,1273.667114 869.094666,1275.010498 
	C868.803772,1275.114502 868.565308,1275.365234 868.001648,1275.756836 
	C868.001648,1283.038208 868.024231,1290.524780 867.995361,1298.011108 
	C867.966614,1305.464966 864.426270,1309.134888 857.047424,1309.136841 
	C774.726807,1309.159424 692.406189,1309.158081 610.085571,1309.139404 
	C602.839478,1309.137695 599.141846,1305.389404 599.018127,1298.000122 
	C598.931702,1292.835693 598.690857,1287.643921 599.099915,1282.510620 
	C599.415710,1278.547241 597.752991,1277.116699 594.259155,1276.007568 
	C550.410461,1262.087769 509.758179,1241.730713 472.912659,1214.170776 
	C398.456848,1158.479004 348.360138,1086.474854 327.551270,995.121094 
	C326.369293,989.932129 325.422302,984.682373 324.561768,979.428894 
	C323.046753,970.180054 326.998077,965.630737 336.505371,965.577698 
	C345.170074,965.529358 353.835266,965.566833 363.000244,965.566406 
z"/>
<path fill="#FFFFFE" opacity="1.000000" stroke="none" 
	d="
M216.203339,268.198792 
	C217.707077,266.611786 218.888321,265.197693 220.230576,263.957916 
	C235.453735,249.897110 241.721237,232.434494 240.631165,211.897675 
	C240.146088,202.759079 240.571274,193.573273 240.531448,184.409103 
	C240.522797,182.417450 240.402298,180.412430 240.145325,178.438034 
	C238.764618,167.829300 233.647629,162.681427 223.990692,162.090973 
	C213.242126,161.433792 206.158768,166.374084 203.866287,176.608231 
	C203.039093,180.300888 202.891998,184.197311 202.851532,188.005188 
	C202.727768,199.650803 202.806564,211.298569 202.806564,223.374298 
	C187.247330,223.374298 172.027344,223.374298 156.719299,223.374298 
	C156.597122,223.219223 156.220291,222.963242 156.227188,222.718002 
	C156.740204,204.440964 155.762344,185.959076 158.199112,167.939178 
	C161.442307,143.955688 176.670395,129.007675 200.233643,123.318436 
	C216.500671,119.390839 233.005035,119.590874 249.265869,123.452721 
	C272.289886,128.920792 286.970062,143.690125 288.737579,167.304596 
	C290.481323,190.600845 290.099060,214.216171 288.529327,237.548859 
	C287.319519,255.531479 276.913635,270.313721 265.007507,283.462280 
	C251.485519,298.395264 238.043808,313.468719 223.589340,327.471710 
	C206.870987,343.667847 201.827728,363.021332 204.763382,386.019226 
	C232.128830,386.019226 259.807800,386.019226 287.739197,386.019226 
	C287.739197,400.341736 287.739197,413.910187 287.739197,427.740509 
	C243.593445,427.740509 199.671570,427.740509 155.746811,427.743591 
	C155.544479,427.492310 155.170181,427.237732 155.170456,426.983551 
	C155.192307,405.995789 154.753052,384.992249 155.427521,364.024658 
	C156.127106,342.275574 165.910812,323.933655 179.858292,307.854950 
	C191.525940,294.404449 203.896393,281.563568 216.203339,268.198792 
z"/>
<path fill="#FFFFFE" opacity="1.000000" stroke="none" 
	d="
M742.067871,906.740479 
	C744.195679,879.239014 733.264282,856.944580 716.402588,837.042664 
	C706.591187,825.462219 696.755249,814.006653 689.712646,800.411316 
	C671.912964,766.050476 670.861206,730.220947 680.355652,693.550842 
	C686.324829,670.496094 696.046387,649.009521 709.218140,629.161926 
	C717.529724,616.637939 736.054382,613.645935 748.122070,622.575867 
	C757.556702,629.557373 759.432068,640.244324 752.989929,650.328308 
	C740.768250,669.459351 731.978577,690.024658 727.630493,712.343689 
	C720.705627,747.889526 727.854736,779.647400 752.832703,806.856750 
	C771.366394,827.046082 785.068176,850.024780 790.486694,877.309631 
	C794.188049,895.947632 793.238464,914.372375 787.820618,932.778198 
	C770.580322,932.778198 753.462585,932.778198 736.514587,932.778198 
	C738.357849,924.234253 740.194031,915.723328 742.067871,906.740479 
z"/>
<path fill="#FFFFFE" opacity="1.000000" stroke="none" 
	d="
M575.119751,860.968994 
	C568.680786,851.649353 563.297974,841.845520 555.963806,833.826294 
	C518.762695,793.150330 509.241394,746.214417 522.850769,693.710449 
	C528.829651,670.644531 538.490356,649.161621 551.643677,629.308228 
	C560.031433,616.648010 578.137634,613.605469 590.482971,622.467346 
	C599.847168,629.189270 601.916504,640.339661 595.603577,650.197571 
	C582.714905,670.323547 573.535522,691.980408 569.544678,715.593445 
	C563.741394,749.929810 571.121216,780.582764 595.190491,806.725464 
	C614.468445,827.664001 628.520203,851.554138 633.492249,880.050903 
	C636.366760,896.526123 635.696167,912.896606 631.246033,929.024963 
	C630.816162,930.583191 628.748352,932.805969 627.410339,932.827515 
	C611.105225,933.090210 594.794312,932.998108 577.836609,932.998108 
	C588.334534,908.425476 586.976318,884.634155 575.119751,860.968994 
z"/>
<path fill="#FFFFFE" opacity="1.000000" stroke="none" 
	d="
M883.135010,725.385925 
	C880.354675,757.874207 890.061401,785.261414 912.050110,808.965088 
	C930.693909,829.063110 943.690430,852.567078 948.450317,880.018066 
	C951.339111,896.678284 950.604370,913.205688 946.062561,929.491943 
	C945.671753,930.893311 943.665100,932.830200 942.385803,932.848083 
	C926.075623,933.075867 909.761169,932.998169 894.134827,932.998169 
	C896.059631,923.269958 898.971008,913.780823 899.642761,904.135681 
	C901.343933,879.710388 891.421326,859.040161 876.679382,840.351501 
	C869.979431,831.857971 862.407654,823.996887 856.250244,815.140503 
	C831.698242,779.826355 827.001587,740.844849 836.363281,699.649231 
	C842.136841,674.243286 852.405945,650.656372 866.864014,628.983887 
	C875.102600,616.634399 893.310669,613.716125 905.411194,622.411438 
	C914.829712,629.179504 916.952454,640.296814 910.647583,650.130188 
	C897.743164,670.256592 888.783569,691.956482 884.521362,715.528076 
	C883.958862,718.639038 883.612488,721.789062 883.135010,725.385925 
z"/>
<path fill="#FFFEFD" opacity="1.000000" stroke="none" 
	d="
M640.191711,225.999924 
	C640.191711,208.721924 640.191711,191.943939 640.191711,175.165955 
	C639.868652,175.135925 639.545593,175.105911 639.222534,175.075882 
	C637.174255,186.646774 635.121460,198.216873 633.078796,209.788757 
	C630.822693,222.570328 628.236816,235.307541 626.493103,248.158844 
	C625.805115,253.228806 623.895752,254.762848 619.245117,254.029480 
	C618.116455,253.851517 616.935852,254.002991 615.210815,254.002991 
	C610.087830,227.627930 604.981140,201.336517 599.874390,175.045105 
	C599.549500,175.086365 599.224670,175.127640 598.899780,175.168915 
	C598.899780,201.269684 598.899780,227.370453 598.899780,253.735046 
	C592.939148,253.735046 587.343262,253.735046 581.370239,253.735046 
	C581.370239,211.371765 581.370239,169.001816 581.370239,126.011536 
	C588.960815,126.011536 596.568176,125.870850 604.157166,126.179588 
	C605.169739,126.220772 606.682251,128.419815 606.963440,129.820343 
	C611.057983,150.210449 614.978394,170.635483 618.954895,191.049332 
	C619.202087,192.318588 619.569275,193.564484 620.748901,194.863068 
	C624.732178,171.979660 628.715454,149.096268 632.692078,126.251160 
	C641.971069,126.251160 650.737488,126.251160 659.751953,126.251160 
	C659.751953,168.756485 659.751953,211.008286 659.751953,253.631927 
	C653.506653,253.631927 647.264282,253.631927 640.191711,253.631927 
	C640.191711,244.671890 640.191711,235.585907 640.191711,225.999924 
z"/>
<path fill="#FFFEFE" opacity="1.000000" stroke="none" 
	d="
M602.843994,328.000000 
	C602.843994,320.204987 602.843994,312.909943 602.843994,304.416992 
	C617.349487,305.053192 631.486084,304.912170 645.416443,306.538025 
	C655.569214,307.722961 662.008484,315.289673 662.963013,325.607452 
	C663.863953,335.345428 663.921692,345.222717 663.513672,355.003784 
	C663.081116,365.372223 657.568848,372.420074 646.798767,375.087982 
	C653.614258,394.400299 660.286255,413.306122 667.228394,432.977203 
	C659.801697,432.977203 652.911621,433.146332 646.047363,432.801849 
	C644.970703,432.747803 643.584900,430.512268 643.063049,429.031372 
	C637.647888,413.662659 632.384521,398.240417 627.063965,382.838257 
	C626.661255,381.672577 626.143005,380.546814 624.573364,379.588196 
	C624.573364,397.250427 624.573364,414.912659 624.573364,432.783203 
	C617.131226,432.783203 610.361938,432.783203 602.843994,432.783203 
	C602.843994,397.949097 602.843994,363.224548 602.843994,328.000000 
M639.213135,359.776093 
	C639.990112,358.336731 641.401611,356.913910 641.439575,355.455322 
	C641.663269,346.861206 641.852173,338.245392 641.448792,329.665253 
	C641.269226,325.846985 638.234009,323.495819 634.373779,323.113800 
	C631.287537,322.808350 628.146973,323.052124 624.784058,323.052124 
	C624.784058,336.126801 624.784058,348.956207 624.784058,363.069611 
	C629.771423,362.065552 634.182068,361.177612 639.213135,359.776093 
z"/>
<path fill="#FFFEFD" opacity="1.000000" stroke="none" 
	d="
M695.408691,432.821411 
	C681.435730,427.765930 675.782654,417.016510 675.560547,403.612732 
	C675.161194,379.506500 674.941040,355.350647 676.060425,331.281311 
	C676.895203,313.331635 689.594238,303.320679 708.070679,303.561157 
	C727.071777,303.808411 739.310364,313.965363 739.941040,332.089325 
	C740.779602,356.187408 740.893921,380.355194 740.098877,404.452789 
	C739.339722,427.459839 722.469910,437.638306 698.695129,433.650818 
	C697.714233,433.486298 696.757568,433.177124 695.408691,432.821411 
M718.851379,364.500031 
	C718.850403,354.509827 718.943848,344.518433 718.819153,334.529785 
	C718.716431,326.302002 714.769348,321.831787 707.946411,321.808746 
	C701.035522,321.785431 697.118103,326.142487 697.035095,334.427307 
	C696.909973,346.913818 696.997925,359.402496 696.997925,371.890259 
	C696.997864,382.546478 696.905518,393.203888 697.035522,403.858551 
	C697.129456,411.555481 700.810730,415.957489 707.116333,416.408936 
	C714.026978,416.903717 718.713074,412.114594 718.807983,403.961914 
	C718.957153,391.142853 718.850037,378.320831 718.851379,364.500031 
z"/>
<path fill="#FFFEFD" opacity="1.000000" stroke="none" 
	d="
M480.959015,170.917511 
	C483.813232,155.807755 486.615570,141.122574 489.453949,126.248619 
	C497.690399,126.248619 505.640289,126.248619 514.206787,126.248619 
	C522.256470,168.576584 530.323425,210.995422 538.457214,253.765320 
	C530.699158,253.765320 523.593323,253.765320 516.222900,253.765320 
	C515.120056,247.401703 513.894104,241.215683 513.033936,234.979202 
	C512.620972,231.985107 511.679474,230.566818 508.360138,230.741257 
	C503.207764,231.012070 498.014221,230.590332 492.875427,230.968567 
	C491.541504,231.066742 489.511383,232.867203 489.228790,234.190674 
	C487.874817,240.531158 487.011108,246.976334 485.924957,253.682281 
	C479.263275,253.682281 472.694733,253.682281 465.374451,253.682281 
	C470.573059,226.123917 475.740112,198.733002 480.959015,170.917511 
M505.201599,188.173019 
	C503.980896,180.752884 502.760193,173.332748 501.539490,165.912613 
	C501.136230,165.930359 500.732941,165.948120 500.329681,165.965866 
	C497.776459,181.529053 495.223236,197.092224 492.629211,212.904053 
	C498.561768,212.904053 503.644745,212.904053 509.291809,212.904053 
	C507.949341,204.688797 506.669342,196.855667 505.201599,188.173019 
z"/>
<path fill="#FFFEFD" opacity="1.000000" stroke="none" 
	d="
M539.994629,356.000000 
	C539.994629,338.870148 539.994629,322.240326 539.994629,305.303986 
	C557.138184,305.303986 573.891113,305.303986 591.051758,305.303986 
	C591.051758,310.963165 591.051758,316.654541 591.051758,322.812012 
	C581.347839,322.812012 571.915405,322.812012 562.151489,322.812012 
	C562.151489,335.002380 562.151489,346.733978 562.151489,359.080078 
	C568.942810,359.080078 575.673096,359.080078 582.695923,359.080078 
	C582.695923,365.112793 582.695923,370.540710 582.695923,376.578247 
	C576.039856,376.578247 569.304626,376.578247 562.197388,376.578247 
	C562.197388,389.574066 562.197388,401.973175 562.197388,415.015930 
	C571.673096,415.015930 581.231262,415.015930 591.116211,415.015930 
	C591.116211,421.236542 591.116211,426.822449 591.116211,432.708984 
	C574.237854,432.708984 557.488708,432.708984 539.994629,432.708984 
	C539.994629,407.328644 539.994629,381.914307 539.994629,356.000000 
z"/>
<path fill="#FFFEFD" opacity="1.000000" stroke="none" 
	d="
M498.018616,407.154053 
	C497.118958,409.846619 496.337830,412.157104 495.330292,415.137360 
	C506.283356,415.137360 516.532654,415.137360 527.113281,415.137360 
	C527.113281,421.224457 527.113281,426.807220 527.113281,432.699921 
	C508.945679,432.699921 490.896240,432.699921 471.371338,432.699921 
	C472.328156,424.980316 472.013458,417.113586 474.391724,410.169098 
	C483.703888,382.977753 493.871887,356.079620 503.700897,329.064911 
	C504.365234,327.239075 504.856323,325.350189 505.601715,322.925690 
	C495.602356,322.925690 486.175690,322.925690 476.297363,322.925690 
	C476.297363,316.950562 476.297363,311.393402 476.297363,305.411285 
	C493.442627,305.411285 510.825958,305.411285 529.494324,305.411285 
	C528.889160,312.259674 529.627747,319.703979 527.419861,326.137085 
	C518.138611,353.180023 507.976685,379.920654 498.018616,407.154053 
z"/>
<path fill="#FFFEFE" opacity="1.000000" stroke="none" 
	d="
M438.155121,236.998398 
	C438.155121,242.793976 438.155121,248.089890 438.155121,253.691132 
	C430.847870,253.691132 423.961029,253.691132 416.852783,253.691132 
	C416.852783,211.118134 416.852783,168.730591 416.852783,126.221695 
	C433.585327,126.221695 450.013031,126.221695 466.721039,126.221695 
	C466.721039,132.012665 466.721039,137.582153 466.721039,143.704224 
	C457.335236,143.704224 448.087952,143.704224 438.504150,143.704224 
	C438.504150,155.965515 438.504150,167.680664 438.504150,179.826889 
	C445.410126,179.826889 452.174988,179.826889 459.371582,179.826889 
	C459.371582,185.787659 459.371582,191.342667 459.371582,197.570236 
	C452.638336,197.570236 445.745392,197.570236 438.155121,197.570236 
	C438.155121,210.979568 438.155121,223.739151 438.155121,236.998398 
z"/>
<path fill="#FEFEFC" opacity="1.000000" stroke="none" 
	d="
M562.842529,125.993980 
	C564.945251,125.993996 566.569885,125.993996 568.501343,125.993996 
	C568.501343,168.817215 568.501343,211.156982 568.501343,253.751450 
	C561.315979,253.751450 554.416626,253.751450 547.255493,253.751450 
	C547.255493,211.289261 547.255493,169.061478 547.255493,125.993965 
	C552.208435,125.993965 557.286438,125.993965 562.842529,125.993980 
z"/>
<path fill="#FEFDFA" opacity="1.000000" stroke="none" 
	d="
M420.303040,376.211639 
	C420.945374,374.619781 421.437378,373.384552 421.908875,372.141571 
	C426.506470,360.020569 427.108795,359.691742 440.874115,362.199554 
	C437.993439,370.005676 434.957550,377.673279 432.404480,385.498413 
	C431.658203,387.785858 431.652985,390.728943 432.400269,393.014404 
	C434.920593,400.722443 437.932098,408.269867 441.093231,416.788177 
	C436.202423,416.788177 431.970184,416.971558 427.774933,416.658508 
	C426.733643,416.580811 425.377258,415.073517 424.906494,413.920807 
	C421.889648,406.534149 418.816711,399.148041 416.366119,391.566528 
	C415.660492,389.383514 416.726501,386.500519 417.374634,384.042419 
	C418.049042,381.484344 419.200409,379.052032 420.303040,376.211639 
z"/>
<path fill="#FEFDFA" opacity="1.000000" stroke="none" 
	d="
M461.880066,413.824341 
	C462.043915,414.829346 462.096588,415.475708 462.149292,416.122101 
	C457.918335,416.340942 453.647858,416.959106 449.479401,416.546387 
	C448.149902,416.414734 446.748291,413.695068 445.974609,411.902740 
	C443.870911,407.029572 442.382416,401.876770 440.094513,397.100983 
	C437.552795,391.795319 437.351105,386.928009 439.984772,381.545624 
	C442.455017,376.497162 444.299500,371.116852 446.094757,365.773499 
	C447.146881,362.641907 448.655060,361.107849 452.168579,361.462738 
	C455.429169,361.792084 458.749237,361.532990 462.981781,361.532990 
	C459.930237,369.786713 456.912994,377.258148 454.478912,384.914948 
	C453.656128,387.503235 453.623291,390.772522 454.421844,393.362976 
	C456.520874,400.171783 459.275482,406.778473 461.880066,413.824341 
z"/>
<path fill="#FEFDFA" opacity="1.000000" stroke="none" 
	d="
M781.899902,416.818573 
	C779.024048,416.818573 776.605225,416.818573 773.326172,416.818573 
	C776.246460,408.805298 778.609497,401.578674 781.534912,394.587433 
	C783.147400,390.733978 782.999695,387.427063 781.448853,383.648773 
	C778.613770,376.742065 776.216003,369.655853 773.253296,361.605194 
	C778.182739,361.605194 782.570068,361.418182 786.918274,361.747528 
	C787.903687,361.822144 789.118347,363.542877 789.605469,364.755707 
	C792.515503,372.002625 795.365723,379.279999 797.939392,386.650757 
	C798.523193,388.322754 798.398438,390.565155 797.804810,392.267853 
	C795.562744,398.698883 792.642212,404.909088 790.665710,411.411713 
	C789.275818,415.984589 786.810547,417.597717 781.899902,416.818573 
z"/>
<path fill="#FEFDFA" opacity="1.000000" stroke="none" 
	d="
M771.061279,405.136383 
	C770.895020,405.664886 770.840942,405.822144 770.779724,405.976501 
	C765.997742,418.027588 765.997681,418.027557 751.599548,416.353210 
	C753.914246,410.053558 755.817810,403.754059 758.525146,397.821411 
	C761.196106,391.968658 761.273621,386.637634 758.579956,380.766785 
	C755.894958,374.914978 754.010681,368.695740 751.393921,361.603790 
	C756.331909,361.603790 760.710632,361.418365 765.050781,361.745056 
	C766.033203,361.818970 767.245239,363.525726 767.731079,364.731049 
	C770.335205,371.190613 772.562256,377.806366 775.291199,384.209747 
	C776.758667,387.653198 777.015564,390.675323 775.338501,394.111298 
	C773.671570,397.526703 772.537720,401.202271 771.061279,405.136383 
z"/>
<path fill="#FEFDFA" opacity="1.000000" stroke="none" 
	d="
M550.992493,297.450439 
	C550.990234,294.222382 550.990234,291.424408 550.990234,288.298615 
	C562.250305,285.927094 573.189941,283.623108 584.530151,281.234711 
	C584.530151,286.441620 584.530151,291.025848 584.530151,296.303619 
	C573.939819,297.633362 563.302856,299.001678 552.646301,300.195557 
	C552.187988,300.246887 551.549377,298.688873 550.992493,297.450439 
z"/>
<path fill="#D4A330" opacity="1.000000" stroke="none" 
	d="
M638.902954,360.032898 
	C634.182068,361.177612 629.771423,362.065552 624.784058,363.069611 
	C624.784058,348.956207 624.784058,336.126801 624.784058,323.052124 
	C628.146973,323.052124 631.287537,322.808350 634.373779,323.113800 
	C638.234009,323.495819 641.269226,325.846985 641.448792,329.665253 
	C641.852173,338.245392 641.663269,346.861206 641.439575,355.455322 
	C641.401611,356.913910 639.990112,358.336731 638.902954,360.032898 
z"/>
<path fill="#D4A12C" opacity="1.000000" stroke="none" 
	d="
M718.851379,365.000061 
	C718.850037,378.320831 718.957153,391.142853 718.807983,403.961914 
	C718.713074,412.114594 714.026978,416.903717 707.116333,416.408936 
	C700.810730,415.957489 697.129456,411.555481 697.035522,403.858551 
	C696.905518,393.203888 696.997864,382.546478 696.997925,371.890259 
	C696.997925,359.402496 696.909973,346.913818 697.035095,334.427307 
	C697.118103,326.142487 701.035522,321.785431 707.946411,321.808746 
	C714.769348,321.831787 718.716431,326.302002 718.819153,334.529785 
	C718.943848,344.518433 718.850403,354.509827 718.851379,365.000061 
z"/>
<path fill="#D4A330" opacity="1.000000" stroke="none" 
	d="
M505.295471,188.597778 
	C506.669342,196.855667 507.949341,204.688797 509.291809,212.904053 
	C503.644745,212.904053 498.561768,212.904053 492.629211,212.904053 
	C495.223236,197.092224 497.776459,181.529053 500.329681,165.965866 
	C500.732941,165.948120 501.136230,165.930359 501.539490,165.912613 
	C502.760193,173.332748 503.980896,180.752884 505.295471,188.597778 
z"/>
</svg>