<svg version="1.1" id="Layer_1" xmlns="http://www.w3.org/2000/svg" xmlns:xlink="http://www.w3.org/1999/xlink" x="0px" y="0px"
	 width="100%" viewBox="0 0 1500 1500" enable-background="new 0 0 1500 1500" xml:space="preserve">
<path fill="#FCC30B" opacity="1.000000" stroke="none" 
	d="
M1501.000000,547.000000 
	C1501.000000,865.306946 1501.000000,1183.113892 1501.000000,1500.960449 
	C1001.067993,1500.960449 501.136017,1500.960449 1.102003,1500.960449 
	C1.102003,1001.109619 1.102003,501.219147 1.102003,1.164364 
	C500.999969,1.164364 1001.000000,1.164364 1501.000000,1.164364 
	C1501.000000,182.864334 1501.000000,364.682159 1501.000000,547.000000 
M833.601135,839.928833 
	C812.087463,829.503662 789.429626,823.353943 765.556335,821.815674 
	C708.102661,818.113647 658.401978,836.251770 617.814209,876.846558 
	C560.220337,934.450195 546.538818,1020.160889 581.982422,1093.269531 
	C616.667236,1164.813110 695.545715,1207.781494 773.621765,1197.723145 
	C818.329651,1191.963623 856.849121,1173.504272 887.804382,1140.649902 
	C931.221191,1094.569458 948.103882,1039.523560 937.321350,977.411316 
	C926.443787,914.751709 890.820251,869.283081 833.601135,839.928833 
M171.123627,288.504974 
	C160.730820,330.956085 150.337997,373.407196 139.862259,416.196991 
	C141.651749,416.333557 142.937271,416.515289 144.223022,416.517029 
	C159.055725,416.537140 173.889786,416.424774 188.720261,416.607574 
	C192.222549,416.650757 193.483597,415.581238 194.319427,412.097260 
	C212.367599,336.866669 230.266418,261.597321 248.974411,186.529938 
	C253.646835,167.781479 254.238312,149.140610 253.607056,129.824234 
	C209.740601,129.824234 166.021912,129.824234 122.235107,129.824234 
	C122.235107,143.770645 122.235107,157.380386 122.235107,171.645157 
	C148.029297,171.645157 173.592056,171.645157 199.910706,171.645157 
	C190.253021,210.859848 180.791183,249.279266 171.123627,288.504974 
M491.055237,537.408203 
	C500.123413,533.870605 502.337738,526.087097 502.657349,517.625610 
	C503.297394,500.679382 497.355377,490.587341 480.793976,488.636017 
	C468.687439,487.209595 456.277679,488.356812 443.763123,488.356812 
	C443.763123,524.514893 443.763123,560.716431 443.763123,597.140076 
	C444.823578,597.298523 445.615906,597.526489 446.405792,597.518433 
	C458.055786,597.399414 469.740356,597.761536 481.345947,596.970520 
	C494.532867,596.071777 502.984131,587.760010 505.080597,574.664978 
	C505.758850,570.428406 506.041260,566.031799 505.760162,561.757446 
	C505.081909,551.443604 501.222809,543.024902 490.623138,539.234863 
	C490.404083,539.156494 490.480133,538.252991 491.055237,537.408203 
M862.525940,567.311890 
	C862.607178,554.345520 859.877319,543.024841 845.260742,538.622742 
	C855.422180,533.786377 858.752136,528.873047 859.139832,518.421631 
	C859.213867,516.425476 859.213257,514.422058 859.142273,512.425781 
	C858.680481,499.440186 852.365601,490.790070 839.580872,489.141785 
	C826.674438,487.477753 813.502075,487.876678 800.302612,487.366272 
	C800.302612,524.651001 800.302612,560.860352 800.302612,597.102478 
	C813.065491,597.102478 825.556641,597.691284 837.966736,596.940430 
	C850.929443,596.156128 859.328796,587.837891 861.738953,575.135742 
	C862.171875,572.853943 862.264160,570.507568 862.525940,567.311890 
M573.579529,400.971161 
	C574.135559,398.543579 575.144043,396.121979 575.176147,393.687469 
	C575.439331,373.735199 576.444336,353.730164 575.360474,333.842712 
	C574.518188,318.386810 566.318848,311.105927 552.023804,309.133942 
	C550.048584,308.861450 548.045349,308.666138 546.054016,308.656738 
	C535.981567,308.609131 525.908752,308.634857 515.876282,308.634857 
	C515.876282,345.478180 515.876282,381.658783 515.876282,417.912811 
	C527.761475,417.912811 539.260864,418.442474 550.687317,417.757080 
	C561.165955,417.128601 569.400696,412.176971 573.579529,400.971161 
M556.456482,144.506256 
	C556.456482,175.932831 556.456482,207.359406 556.456482,238.839233 
	C563.567200,238.839233 569.975159,238.839233 577.057068,238.839233 
	C577.057068,222.139175 577.057068,205.767990 577.057068,189.471130 
	C585.274719,188.857483 585.269592,188.858795 587.188232,196.283386 
	C587.770752,198.537552 588.397522,200.780228 588.991760,203.031418 
	C592.158569,215.029663 595.321472,227.028931 598.442566,238.864288 
	C605.449036,238.864288 611.870911,238.864288 618.734924,238.864288 
	C613.665283,220.751083 608.709290,203.043869 603.741943,185.295883 
	C610.199829,182.016052 614.364990,177.270920 615.355286,170.619568 
	C616.228516,164.753799 616.951599,158.657898 616.318726,152.817734 
	C614.881226,139.550980 608.970276,132.640213 595.794434,130.801193 
	C583.051147,129.022537 570.031494,129.223907 556.456787,128.520493 
	C556.456787,134.266846 556.456787,138.888306 556.456482,144.506256 
M637.906250,542.798279 
	C643.475525,539.692261 647.204956,535.033936 648.047241,528.748718 
	C648.835266,522.867859 649.334656,516.836670 648.958618,510.935516 
	C648.234985,499.579437 642.340759,491.504730 631.175232,489.815338 
	C617.520569,487.749329 603.531921,487.890991 589.503723,487.067200 
	C589.503723,524.683472 589.503723,560.866577 589.503723,597.178223 
	C596.258118,597.178223 602.652222,597.178223 609.627930,597.178223 
	C609.627930,580.592163 609.627930,564.361328 609.627930,548.253418 
	C617.854736,546.704590 617.879944,546.708679 619.757812,553.889832 
	C623.538208,568.346436 627.303284,582.807129 631.067017,597.236572 
	C637.877014,597.236572 644.284485,597.236572 651.191650,597.236572 
	C650.665466,594.949158 650.307007,593.035461 649.782715,591.168274 
	C645.738220,576.764832 641.634583,562.377991 637.635254,547.962097 
	C637.217224,546.455383 637.357849,544.793762 637.906250,542.798279 
M1141.808960,130.601761 
	C1128.766724,129.919830 1115.724487,129.237900 1102.406250,128.541534 
	C1102.406250,166.071838 1102.406250,202.307220 1102.406250,238.860229 
	C1109.072266,238.860229 1115.486450,238.860229 1122.620850,238.860229 
	C1122.620850,222.389053 1122.620850,206.007401 1122.620850,189.747177 
	C1131.103516,188.545914 1131.063843,188.556213 1132.990234,195.984894 
	C1136.698120,210.281448 1140.455811,224.565109 1144.208618,238.914612 
	C1150.998901,238.914612 1157.435791,238.914612 1164.373291,238.914612 
	C1163.778809,236.493744 1163.331299,234.419174 1162.758667,232.379761 
	C1158.713257,217.971603 1154.604126,203.581100 1150.639404,189.150909 
	C1150.252563,187.743317 1150.130249,185.150391 1150.852173,184.716492 
	C1163.205688,177.291168 1163.097412,165.314072 1162.172363,153.354218 
	C1161.169312,140.385986 1155.312500,134.074203 1141.808960,130.601761 
M577.536987,562.349670 
	C577.374207,546.044739 577.810120,529.705750 576.883057,513.444397 
	C575.923706,496.615662 566.355042,487.754456 549.831421,486.508484 
	C527.889099,484.853973 516.012756,493.470001 514.685120,514.840576 
	C513.471863,534.369812 514.002502,554.102600 515.209900,573.656433 
	C516.144653,588.795105 524.782288,596.400757 539.800964,598.579956 
	C560.238342,601.545471 573.757080,592.517639 576.768250,573.746216 
	C577.318970,570.313171 577.295166,566.787964 577.536987,562.349670 
M861.750916,403.676056 
	C867.592407,416.160858 878.522827,421.431366 894.609680,419.519958 
	C911.020813,417.570068 919.857056,409.834259 920.884094,393.449036 
	C922.069214,374.541718 922.439331,355.462402 921.329285,336.565552 
	C920.185120,317.087036 912.269043,309.104706 894.850525,307.491364 
	C872.704285,305.440125 859.921875,314.214355 858.790833,336.406555 
	C857.961182,352.683746 858.190002,369.034271 858.516418,385.340729 
	C858.634338,391.234741 860.408569,397.095612 861.750916,403.676056 
M673.530518,597.530457 
	C681.353271,597.350586 689.214783,597.599976 696.990173,596.896362 
	C710.766907,595.649658 719.957031,587.928162 720.789795,574.305847 
	C722.046875,553.742310 721.963623,533.051636 721.427795,512.441589 
	C721.131714,501.051910 715.268616,491.535522 703.312561,489.745270 
	C689.809082,487.723328 675.976013,487.902466 662.222412,487.120728 
	C662.222412,524.718384 662.222412,560.921509 662.222412,597.530090 
	C665.922974,597.530090 669.233398,597.530090 673.530518,597.530457 
M888.996460,203.500000 
	C888.996460,215.270462 888.996460,227.040924 888.996460,238.805008 
	C896.034546,238.805008 902.429138,238.805008 909.308716,238.805008 
	C909.308716,222.193298 909.308716,205.941071 909.308716,189.782150 
	C917.791870,188.366333 917.796143,188.365219 919.692871,195.651764 
	C923.128540,208.850723 926.502075,222.066483 930.070618,235.229370 
	C930.466248,236.688583 931.896301,238.908234 932.957458,238.973526 
	C938.887085,239.338486 944.850891,239.149063 951.201355,239.149063 
	C950.735535,237.249756 950.460876,235.970306 950.107422,234.712997 
	C945.877380,219.664658 941.697144,204.601776 937.344055,189.589035 
	C936.491394,186.648529 936.937988,185.145889 939.559631,183.069305 
	C942.656006,180.616669 945.865845,177.069489 946.817017,173.420853 
	C948.464417,167.101837 949.080261,160.323761 948.926758,153.766342 
	C948.638794,141.462906 941.939941,132.885651 929.724731,131.124985 
	C916.497559,129.218475 902.991638,129.246155 888.996460,128.393051 
	C888.996460,153.948746 888.996460,178.224365 888.996460,203.500000 
M960.645142,215.682953 
	C963.369629,230.106674 969.977051,237.668991 982.343506,239.697586 
	C986.888672,240.443176 991.651489,240.565857 996.246643,240.172821 
	C1011.436951,238.873505 1020.709778,231.565475 1021.802246,216.468613 
	C1023.298706,195.789520 1023.162537,174.914169 1022.354492,154.176392 
	C1021.886230,142.158203 1015.824707,132.213242 1002.858276,129.476028 
	C996.798706,128.196854 990.240051,127.995949 984.080566,128.739182 
	C970.494751,130.378525 962.067871,137.521851 961.207092,151.032181 
	C959.856812,172.225311 960.594177,193.551422 960.645142,215.682953 
M727.353882,405.225220 
	C728.763184,408.600250 730.043457,412.038635 731.651672,415.316071 
	C732.214539,416.463318 733.521301,417.922363 734.597290,418.018372 
	C738.324158,418.350983 742.098938,418.146637 745.963135,418.146637 
	C745.963135,381.311340 745.963135,345.203766 745.963135,308.782135 
	C740.522522,308.782135 735.292236,308.782135 729.407227,308.782135 
	C729.407227,328.251099 729.407227,347.417694 729.407227,366.584290 
	C727.576233,365.255707 726.737122,363.739258 726.051819,362.156219 
	C718.917664,345.675232 711.850281,329.165100 704.625977,312.723785 
	C703.916382,311.108795 702.429871,308.887909 701.055908,308.692505 
	C697.182190,308.141632 693.179199,308.500000 689.178589,308.500000 
	C689.178589,345.341888 689.178589,381.566376 689.178589,417.805298 
	C694.923645,417.805298 700.308044,417.805298 706.264221,417.805298 
	C706.264221,397.029602 706.264221,376.615997 706.264221,356.202393 
	C706.510681,356.185303 706.757141,356.168182 707.003601,356.151093 
	C713.694153,372.271820 720.384705,388.392578 727.353882,405.225220 
M454.843597,152.578796 
	C451.927551,145.871704 449.088715,139.129028 446.029236,132.488022 
	C445.428741,131.184616 444.058746,129.451248 442.899261,129.333038 
	C439.014618,128.937057 435.064575,129.182770 431.114258,129.182770 
	C431.114258,166.172775 431.114258,202.413391 431.114258,238.874603 
	C436.787476,238.874603 442.173889,238.874603 448.095947,238.874603 
	C448.095947,218.125076 448.095947,197.663727 448.095947,177.202362 
	C449.236145,177.974808 449.674530,178.831421 450.042480,179.717285 
	C457.758484,198.292603 465.419464,216.891174 473.263397,235.412262 
	C473.906067,236.929703 475.651489,238.761932 477.114075,238.992676 
	C480.487366,239.524841 484.001923,239.161591 487.699066,239.161591 
	C487.699066,202.346512 487.699066,165.986237 487.699066,129.469620 
	C482.159210,129.469620 476.928467,129.469620 470.955536,129.469620 
	C470.955536,149.003357 470.955536,168.238281 470.955536,187.473190 
	C470.626373,187.500778 470.297241,187.528366 469.968079,187.555954 
	C465.007965,176.137512 460.047852,164.719086 454.843597,152.578796 
M654.671814,240.740189 
	C663.275330,241.111328 670.243164,238.215668 674.384827,230.385132 
	C677.416687,232.901871 673.554443,238.354492 678.778381,239.071747 
	C682.296143,239.554703 685.933838,239.163727 689.525635,239.163727 
	C689.525635,220.128067 689.525635,201.895859 689.525635,183.444427 
	C679.474548,183.444427 669.752502,183.444427 659.770386,183.444427 
	C659.770386,187.810883 659.770386,191.878571 659.770386,196.230789 
	C663.758423,196.471817 667.460693,196.695587 671.979370,196.968704 
	C671.312439,203.984665 671.174011,210.487289 669.959839,216.782425 
	C668.766174,222.971085 664.794861,225.571777 658.923584,225.422119 
	C652.973511,225.270477 649.886719,222.599854 648.559814,216.030441 
	C648.037170,213.443146 647.892639,210.743774 647.883179,208.094330 
	C647.824585,191.773026 647.815552,175.451248 647.890320,159.130066 
	C647.903198,156.322632 648.081238,153.441528 648.734436,150.727142 
	C650.041870,145.293533 653.703918,142.820435 659.389832,143.028793 
	C665.148804,143.239822 668.351196,145.915482 669.109253,151.686707 
	C669.707397,156.240387 669.856140,160.853104 670.208252,165.489090 
	C676.589905,165.489090 682.645630,165.489090 688.789124,165.489090 
	C688.789124,161.150055 689.175049,157.128052 688.716003,153.204910 
	C687.389038,141.864319 682.996460,132.284698 670.703796,129.656250 
	C664.481140,128.325699 657.759338,127.950066 651.448242,128.700104 
	C638.418579,130.248596 630.974854,136.885437 629.090637,149.841629 
	C627.401611,161.455338 627.424194,173.355774 627.237000,185.138397 
	C627.081360,194.941025 627.117188,204.819153 628.137329,214.551788 
	C629.874390,231.124084 637.790222,238.725616 654.671814,240.740189 
M660.912354,308.458801 
	C656.814453,307.755768 656.385925,310.031433 656.400757,313.407043 
	C656.507812,337.727325 656.506409,362.048462 656.402649,386.368744 
	C656.387878,389.825745 655.985474,393.368134 655.142212,396.714691 
	C653.785095,402.100830 650.202454,404.574036 644.990723,404.423676 
	C640.122559,404.283234 636.499451,401.609497 635.381653,396.537415 
	C634.529358,392.670197 634.088379,388.636658 634.068604,384.674103 
	C633.951538,361.186859 634.010803,337.698730 634.010742,314.210907 
	C634.010742,312.445038 634.010742,310.679138 634.010742,308.782318 
	C627.133423,308.782318 620.880676,308.782318 614.147644,308.782318 
	C614.147644,317.889069 614.063049,326.680603 614.164978,335.469971 
	C614.386963,354.613068 614.391296,373.766998 615.123535,392.892029 
	C615.453857,401.519348 618.233704,409.680603 626.007690,414.906830 
	C646.037781,428.372620 673.483337,417.544128 675.094360,393.838501 
	C677.007019,365.694977 675.544373,337.322113 675.544373,308.458435 
	C671.080872,308.458435 666.453491,308.458435 660.912354,308.458801 
M974.991760,349.500000 
	C974.991638,360.000031 975.174683,370.504547 974.915894,380.998199 
	C974.781433,386.448273 974.225037,391.948029 973.197937,397.298370 
	C972.258301,402.192902 968.492188,404.428253 963.633362,404.397125 
	C958.836853,404.366394 955.074280,402.266937 953.982056,397.361694 
	C953.013000,393.009460 952.286133,388.503113 952.254456,384.059082 
	C952.088074,360.727020 952.182190,337.393127 952.165100,314.059875 
	C952.163818,312.312775 952.000366,310.565796 951.914612,308.864929 
	C945.287231,308.864929 939.225586,308.864929 933.293152,308.864929 
	C933.078186,309.582001 932.900146,309.898529 932.900391,310.214905 
	C932.921692,337.045715 932.503418,363.887360 933.143982,390.703674 
	C933.601196,409.842407 942.863647,419.109772 961.657959,419.683868 
	C982.977600,420.335052 990.578064,412.087921 993.668091,395.017426 
	C993.934021,393.548523 994.080505,392.037933 994.089478,390.545532 
	C994.249268,364.053467 994.384216,337.561279 994.490479,311.068970 
	C994.493530,310.302826 994.124756,309.535217 993.929077,308.767120 
	C987.571777,308.767120 981.467468,308.767120 975.470947,308.767120 
	C975.258606,309.380707 975.058167,309.690735 975.057373,310.001251 
	C975.024353,322.834137 975.009155,335.667084 974.991760,349.500000 
M788.369812,389.097076 
	C791.040222,410.393158 798.685974,418.761719 817.516174,419.687500 
	C828.507996,420.227936 839.049500,418.308258 845.027588,407.331696 
	C850.198669,397.837128 849.332520,387.530914 848.958679,377.321899 
	C842.317261,377.321899 836.235718,377.321899 829.389587,377.321899 
	C829.389587,383.616333 829.794067,389.619812 829.277832,395.543091 
	C828.741943,401.690216 825.523560,404.363403 819.953125,404.583893 
	C814.325562,404.806671 811.081055,402.386383 809.701355,396.488739 
	C809.101440,393.924347 808.897461,391.217072 808.886719,388.573181 
	C808.817322,371.575165 808.825134,354.576569 808.880005,337.578430 
	C808.888000,335.094849 809.002380,332.548615 809.552979,330.142487 
	C810.825806,324.580627 814.838806,321.810089 820.535889,322.193542 
	C825.854248,322.551483 828.864563,325.241364 829.319519,331.152222 
	C829.749268,336.736084 829.411682,342.378967 829.411682,348.262207 
	C836.450806,348.262207 842.543579,348.262207 849.096252,348.262207 
	C849.096252,343.370514 849.288513,338.737976 849.061890,334.126007 
	C848.230591,317.208191 839.778442,308.551392 822.982727,307.203491 
	C802.313843,305.544739 790.428406,314.593292 788.941711,335.234619 
	C787.676086,352.807465 788.402344,370.523773 788.369812,389.097076 
M783.660217,554.713867 
	C779.116028,532.463867 774.571838,510.213867 769.999451,487.825653 
	C763.734192,487.825653 758.077515,487.997253 752.438171,487.757538 
	C749.340759,487.625916 748.533325,489.076965 748.000244,491.728241 
	C741.740417,522.861633 735.381042,553.975037 729.070801,585.098267 
	C728.266052,589.067444 727.591431,593.062988 726.808105,597.308960 
	C733.545593,597.308960 739.500366,597.308960 745.703857,597.308960 
	C747.256226,588.860168 748.777039,580.582947 750.317566,572.198608 
	C756.654419,572.198608 762.599670,572.198608 768.871277,572.198608 
	C770.391235,580.586182 771.890686,588.860291 773.419678,597.297852 
	C779.699463,597.297852 785.637817,597.297852 792.174866,597.297852 
	C789.355652,583.167419 786.600098,569.356140 783.660217,554.713867 
M371.564178,589.856384 
	C371.094330,592.254456 370.624451,594.652527 370.123077,597.211365 
	C376.704224,597.211365 382.778259,597.211365 389.119720,597.211365 
	C390.687531,588.690491 392.208130,580.426086 393.756805,572.009155 
	C399.068146,572.009155 403.895691,572.191284 408.701050,571.943542 
	C411.776001,571.785095 412.679230,573.098633 413.066345,575.878113 
	C413.891022,581.799011 414.931366,587.696228 416.117096,593.555847 
	C416.400238,594.955139 417.534973,597.241150 418.390167,597.293640 
	C423.924377,597.633484 429.489594,597.467773 435.625061,597.467773 
	C433.303589,585.948853 431.186096,575.382202 429.043121,564.820740 
	C424.085327,540.386414 419.149811,515.947388 414.058746,491.540833 
	C413.772003,490.166229 412.217926,488.061371 411.162567,488.005035 
	C404.892365,487.670532 398.595306,487.839813 392.240356,487.839813 
	C385.339813,521.937866 378.550018,555.488770 371.564178,589.856384 
M863.259033,188.873306 
	C872.748169,186.070068 879.271545,179.939301 880.376282,170.130905 
	C881.234863,162.507980 880.945679,154.480118 879.514587,146.946045 
	C877.799927,137.919098 871.417297,131.204895 862.235229,130.459198 
	C848.917664,129.377670 835.446960,130.182037 821.803833,130.182037 
	C821.803833,166.088135 821.803833,202.442490 821.803833,238.936676 
	C828.592102,238.936676 835.028687,238.936676 842.040405,238.936676 
	C842.040405,222.629517 842.040405,206.570465 842.040405,190.793640 
	C849.244568,190.168396 855.850342,189.595093 863.259033,188.873306 
M1034.829712,207.499954 
	C1034.829712,217.928955 1034.829712,228.357941 1034.829712,238.809418 
	C1041.910522,238.809418 1048.296143,238.809418 1055.107178,238.809418 
	C1055.107178,222.533127 1055.107178,206.612305 1055.107178,190.001587 
	C1060.312988,190.001587 1065.114624,190.240845 1069.884766,189.954849 
	C1082.127563,189.220856 1090.411255,182.852539 1093.324951,171.803085 
	C1095.716064,162.735138 1095.306396,153.663177 1092.162720,144.786713 
	C1089.299683,136.702118 1083.457153,130.982468 1075.184692,130.382935 
	C1061.997070,129.427170 1048.689331,130.127457 1034.829590,130.127457 
	C1034.829590,155.295486 1034.829590,180.897720 1034.829712,207.499954 
M501.450836,136.646469 
	C501.450836,170.702347 501.450836,204.758240 501.450836,238.824524 
	C517.369202,238.824524 532.567139,238.824524 547.735535,238.824524 
	C547.735535,234.184174 547.735535,229.919098 547.735535,225.086639 
	C539.078186,225.086639 530.685608,225.086639 522.297607,225.086639 
	C522.297607,212.828979 522.297607,201.153244 522.297607,188.968704 
	C529.144775,188.968704 535.558899,188.968704 541.844360,188.968704 
	C541.844360,184.040253 541.844360,179.639450 541.844360,174.802155 
	C535.073120,174.802155 528.646729,174.802155 522.225952,174.802155 
	C522.225952,164.299103 522.225952,154.247986 522.225952,143.711731 
	C530.836792,143.711731 539.086548,143.711731 547.490356,143.711731 
	C547.490356,138.670517 547.490356,134.126892 547.490356,129.474838 
	C532.073853,129.474838 517.026001,129.474838 501.451141,129.474838 
	C501.451141,131.765823 501.451141,133.729889 501.450836,136.646469 
M957.431824,547.557129 
	C960.541748,547.557129 963.651672,547.557129 966.968384,547.557129 
	C966.968384,542.507568 966.968384,538.072693 966.968384,532.985229 
	C960.205627,532.985229 953.661072,532.985229 947.115601,532.985229 
	C947.115601,522.399414 947.115601,512.468079 947.115601,501.923859 
	C955.734802,501.923859 964.118896,501.923859 972.509827,501.923859 
	C972.509827,496.917023 972.509827,492.535309 972.509827,488.092682 
	C957.065430,488.092682 941.975159,488.092682 926.801270,488.092682 
	C926.801270,524.600281 926.801270,560.812805 926.801270,597.147461 
	C942.357056,597.147461 957.551025,597.147461 972.739258,597.147461 
	C972.739258,592.471375 972.739258,588.208313 972.739258,583.320801 
	C964.079102,583.320801 955.686523,583.320801 947.209229,583.320801 
	C947.209229,571.124390 947.209229,559.561035 947.209229,547.556824 
	C950.517517,547.556824 953.490295,547.556824 957.431824,547.557129 
M999.225952,1168.213623 
	C1004.273315,1171.115112 1009.303528,1174.046753 1014.371826,1176.911011 
	C1022.772095,1181.658447 1032.582153,1179.266846 1036.885986,1171.464600 
	C1041.165527,1163.706299 1038.313354,1154.469238 1030.066772,1149.737549 
	C1007.409302,1136.737305 984.736389,1123.764160 962.047546,1110.818726 
	C953.587158,1105.991577 943.791687,1108.294067 939.481079,1116.017334 
	C935.077332,1123.907471 938.053528,1133.173950 946.603149,1138.084839 
	C963.918396,1148.030396 981.243896,1157.958130 999.225952,1168.213623 
M552.898926,876.631592 
	C531.234680,864.230530 509.592255,851.791077 487.894104,839.449585 
	C480.433319,835.205994 470.741241,837.832031 466.524628,845.011719 
	C462.408539,852.020264 464.538696,862.095215 471.542908,866.156128 
	C495.299957,879.929932 519.159058,893.528931 543.048340,907.072632 
	C548.947998,910.417358 554.759033,909.050232 559.874023,905.185120 
	C564.826355,901.442993 566.341125,896.199524 565.363159,890.090515 
	C564.244995,883.105774 559.180664,879.818054 552.898926,876.631592 
M626.331482,1258.880127 
	C634.188049,1245.173462 642.125610,1231.512329 649.868896,1217.741943 
	C654.091003,1210.233398 651.388672,1200.574219 644.200562,1196.385010 
	C636.920349,1192.142334 626.920105,1194.828247 622.561829,1202.400635 
	C609.287476,1225.464722 596.057678,1248.554810 582.899292,1271.685303 
	C578.286926,1279.793213 580.913879,1289.520020 588.610352,1293.744141 
	C596.134949,1297.873657 605.585144,1295.052002 610.105896,1287.241089 
	C615.438965,1278.026733 620.697693,1268.769165 626.331482,1258.880127 
M886.155090,741.630737 
	C875.348938,760.563660 864.525024,779.486450 853.745178,798.434326 
	C849.149963,806.511353 851.582886,816.302368 859.156433,820.567993 
	C866.804688,824.875671 876.346924,822.032898 881.002014,813.917664 
	C894.084351,791.111023 907.128723,768.282410 920.143188,745.436890 
	C924.778381,737.300293 922.410767,727.546936 914.887146,723.268494 
	C907.153442,718.870483 897.728943,721.637695 892.986938,729.741150 
	C890.802002,733.475098 888.700378,737.257812 886.155090,741.630737 
M980.921143,858.463501 
	C969.381531,865.090271 957.825012,871.687988 946.307861,878.353638 
	C937.745239,883.309326 934.819336,892.547791 939.224548,900.425110 
	C943.578613,908.210815 953.326416,910.512451 961.836609,905.634949 
	C984.494629,892.648560 1007.133423,879.628662 1029.752686,866.574829 
	C1038.183716,861.709106 1040.911255,852.229675 1036.270264,844.381653 
	C1031.798584,836.819885 1022.235962,834.681274 1013.990601,839.415588 
	C1003.170959,845.628052 992.358765,851.853577 980.921143,858.463501 
M509.998901,1165.468018 
	C525.714172,1156.426147 541.443542,1147.408569 557.138855,1138.332275 
	C565.544800,1133.471191 568.367615,1123.900146 563.776123,1116.173462 
	C559.309387,1108.656738 549.714355,1106.417725 541.509583,1111.121216 
	C518.709106,1124.192017 495.928192,1137.296875 473.171417,1150.443481 
	C465.081238,1155.117188 462.385803,1164.683350 466.852173,1172.318604 
	C471.230438,1179.803467 480.599121,1182.211182 488.587921,1177.763550 
	C495.564789,1173.879517 502.451385,1169.833252 509.998901,1165.468018 
M591.701477,761.830688 
	C601.817749,779.426208 611.902649,797.039917 622.064880,814.608887 
	C626.575928,822.407898 636.084412,825.071838 643.619385,820.799194 
	C651.052612,816.584229 653.699036,806.784241 649.297546,799.087341 
	C636.083191,775.979736 622.826965,752.895935 609.510559,729.846985 
	C604.954346,721.960876 595.558228,719.304565 587.951111,723.528625 
	C580.256958,727.801025 577.806580,737.401733 582.385071,745.612122 
	C585.302429,750.843750 588.327393,756.015381 591.701477,761.830688 
M877.190918,1258.349854 
	C882.669861,1267.863159 888.101868,1277.403809 893.641907,1286.881348 
	C898.389832,1295.003906 907.831543,1297.664551 915.527222,1293.171509 
	C923.012146,1288.801514 925.457825,1279.378784 920.902283,1271.410400 
	C907.695068,1248.308350 894.425232,1225.241699 881.073547,1202.222900 
	C876.536804,1194.401489 867.046326,1191.857544 859.503540,1196.133667 
	C852.093872,1200.334351 849.547363,1210.060181 853.995544,1217.889038 
	C861.554932,1231.193604 869.239624,1244.427002 877.190918,1258.349854 
M739.820435,129.146957 
	C735.900330,128.589661 736.123840,131.187256 736.126160,133.825760 
	C736.155579,167.474960 736.142578,201.124207 736.158081,234.773438 
	C736.158691,236.063187 736.339172,237.352844 736.451782,238.854553 
	C751.933167,238.854553 767.145630,238.854553 782.413818,238.854553 
	C782.413818,234.153946 782.413818,229.790207 782.413818,225.015366 
	C773.703491,225.015366 765.426086,225.015366 757.008484,225.015366 
	C757.008484,212.914841 757.008484,201.245285 757.008484,189.037735 
	C763.862610,189.037735 770.265625,189.037735 776.679443,189.037735 
	C776.679443,184.089645 776.679443,179.694962 776.679443,174.870544 
	C769.920837,174.870544 763.489197,174.870544 756.917603,174.870544 
	C756.917603,164.389908 756.917603,154.349136 756.917603,143.652664 
	C765.483765,143.652664 773.697998,143.652664 781.887817,143.652664 
	C781.887817,138.557159 781.887817,134.124390 781.887817,129.145462 
	C767.986511,129.145462 754.372437,129.145462 739.820435,129.146957 
M999.500244,992.832703 
	C994.670349,992.832825 989.840393,992.811401 985.010620,992.837646 
	C975.114319,992.891418 968.116455,999.524658 968.141235,1008.607910 
	C968.163696,1016.828552 976.130066,1024.336792 984.865540,1024.175049 
	C1011.004517,1023.690735 1037.158203,1024.005615 1063.306152,1023.998535 
	C1073.214478,1023.995789 1080.229004,1017.417358 1080.130127,1008.252441 
	C1080.033813,999.325562 1073.077515,992.853271 1063.455078,992.841125 
	C1042.470093,992.814575 1021.485107,992.832764 999.500244,992.832703 
M762.669128,787.173401 
	C764.168396,783.278748 766.908997,779.402283 766.966431,775.486511 
	C767.351990,749.201904 767.181763,722.909058 767.159424,696.618835 
	C767.151123,686.871399 760.836365,680.074585 751.823853,679.999634 
	C742.576050,679.922791 736.007080,686.826721 736.002747,696.682556 
	C735.991272,722.806335 736.117310,748.931091 735.921753,775.053406 
	C735.867859,782.259277 738.856812,787.245117 745.040894,790.305542 
	C751.206970,793.357117 756.984619,792.143555 762.669128,787.173401 
M431.433441,994.557861 
	C424.141602,999.699585 421.601654,1005.734985 423.756622,1012.799500 
	C426.002228,1020.161072 431.741089,1023.999512 440.521149,1024.000244 
	C466.643402,1024.002197 492.765900,1024.054565 518.887451,1023.920715 
	C521.596985,1023.906799 524.587524,1023.317810 526.951904,1022.062256 
	C533.274658,1018.704773 536.332397,1011.207458 534.601746,1004.660767 
	C532.708191,997.497803 526.813354,992.861755 519.260620,992.849915 
	C492.472870,992.807983 465.684967,992.802063 438.897491,992.891968 
	C436.637177,992.899536 434.379608,993.721619 431.433441,994.557861 
M767.167297,1285.500000 
	C767.167114,1270.674805 767.205017,1255.849487 767.152649,1241.024414 
	C767.120361,1231.885376 760.364380,1224.989746 751.612427,1225.001465 
	C742.866577,1225.013184 736.021423,1231.966309 736.010498,1241.004272 
	C735.978271,1267.656250 735.982300,1294.308350 736.007996,1320.960327 
	C736.016724,1330.003296 742.832153,1336.964233 751.588013,1336.997070 
	C760.300232,1337.029663 767.111389,1330.080200 767.153809,1320.981079 
	C767.207397,1309.487671 767.167114,1297.993652 767.167297,1285.500000 
M375.823792,347.499969 
	C375.823792,370.919342 375.823792,394.338684 375.823792,417.878326 
	C391.556671,417.878326 406.621307,417.878326 421.757782,417.878326 
	C421.757782,413.212738 421.757782,408.852722 421.757782,403.903076 
	C412.966187,403.903076 404.580658,403.903076 396.301086,403.903076 
	C396.301086,391.869385 396.301086,380.435822 396.301086,368.327820 
	C403.132629,368.327820 409.686493,368.327820 416.221252,368.327820 
	C416.221252,363.206085 416.221252,358.768890 416.221252,353.785034 
	C409.343994,353.785034 402.775238,353.785034 396.412659,353.785034 
	C396.412659,343.168121 396.412659,333.106903 396.412659,322.533844 
	C405.058472,322.533844 413.304138,322.533844 421.640015,322.533844 
	C421.640015,317.720245 421.640015,313.435211 421.640015,308.807373 
	C406.371155,308.807373 391.310150,308.807373 375.823761,308.807373 
	C375.823761,321.557434 375.823761,334.028687 375.823792,347.499969 
M380.685486,129.155807 
	C379.233459,129.246826 377.781464,129.337845 376.173218,129.438644 
	C376.173218,166.095810 376.173218,202.435471 376.173218,238.870178 
	C391.577850,238.870178 406.635590,238.870178 421.749878,238.870178 
	C421.749878,234.203156 421.749878,229.845779 421.749878,224.905640 
	C412.958557,224.905640 404.578644,224.905640 396.332306,224.905640 
	C396.332306,212.738388 396.332306,201.165695 396.332306,189.153290 
	C403.081787,189.153290 409.515198,189.153290 416.233948,189.153290 
	C416.233948,184.290894 416.233948,179.875092 416.233948,174.901886 
	C409.433899,174.901886 402.875153,174.901886 396.343262,174.901886 
	C396.343262,164.282120 396.343262,154.222412 396.343262,143.655884 
	C404.914978,143.655884 413.158020,143.655884 421.440338,143.655884 
	C421.440338,138.593246 421.440338,134.050827 421.440338,129.155670 
	C407.910309,129.155670 394.781036,129.155670 380.685486,129.155807 
M1174.828125,134.645721 
	C1174.828125,169.393829 1174.828125,204.141922 1174.828125,238.795654 
	C1190.703857,238.795654 1205.775879,238.795654 1220.855835,238.795654 
	C1220.855835,234.161316 1220.855835,229.909668 1220.855835,225.080109 
	C1212.160522,225.080109 1203.762695,225.080109 1195.258423,225.080109 
	C1195.258423,212.904510 1195.258423,201.316513 1195.258423,189.075531 
	C1202.034424,189.075531 1208.582153,189.075531 1215.124878,189.075531 
	C1215.124878,184.023743 1215.124878,179.639954 1215.124878,174.850754 
	C1208.287964,174.850754 1201.848633,174.850754 1195.312500,174.850754 
	C1195.312500,164.368790 1195.312500,154.302521 1195.312500,143.635498 
	C1204.000366,143.635498 1212.394531,143.635498 1220.743896,143.635498 
	C1220.743896,138.582962 1220.743896,134.138565 1220.743896,129.474487 
	C1205.424316,129.474487 1190.366455,129.474487 1175.106323,129.474487 
	C1175.000488,131.076996 1174.914429,132.379959 1174.828125,134.645721 
M449.629089,418.205017 
	C453.590851,418.205017 457.552643,418.205017 462.069916,418.205017 
	C462.069916,386.399109 462.069916,355.152863 462.069916,323.430664 
	C468.067139,323.430664 473.505524,323.430664 479.148193,323.430664 
	C479.148193,318.245453 479.148193,313.549530 479.148193,308.722931 
	C460.300964,308.722931 441.869446,308.722931 423.331238,308.722931 
	C423.331238,313.724670 423.331238,318.435211 423.331238,323.727264 
	C429.418884,323.727264 435.164276,323.727264 441.573181,323.727264 
	C441.573181,355.503418 441.573181,386.699951 441.573181,418.204742 
	C444.397858,418.204742 446.547272,418.204742 449.629089,418.205017 
M999.460754,314.657318 
	C999.460754,317.430939 999.460754,320.204529 999.460754,323.599396 
	C1005.825806,323.599396 1011.553101,323.599396 1017.876160,323.599396 
	C1017.876160,355.403534 1017.876160,386.582367 1017.876160,417.840820 
	C1024.875122,417.840820 1031.256104,417.840820 1038.148926,417.840820 
	C1038.148926,386.305634 1038.148926,355.103790 1038.148926,323.378052 
	C1044.255493,323.378052 1049.853638,323.378052 1055.596313,323.378052 
	C1055.596313,318.259979 1055.596313,313.673981 1055.596313,308.890350 
	C1036.833740,308.890350 1018.328003,308.890350 999.461121,308.890350 
	C999.461121,310.798157 999.461121,312.277039 999.460754,314.657318 
M912.339233,597.562622 
	C914.457520,597.562622 916.575806,597.562622 918.819519,597.562622 
	C918.819519,592.618774 918.819519,588.330200 918.819519,583.434937 
	C910.227295,583.434937 901.821838,583.434937 892.852783,583.434937 
	C892.852783,551.293030 892.852783,519.752075 892.852783,488.054169 
	C885.842163,488.054169 879.410889,488.054169 872.749329,488.054169 
	C872.749329,524.520752 872.749329,560.727539 872.749329,597.562317 
	C885.827515,597.562317 898.600769,597.562317 912.339233,597.562622 
M702.454041,205.499786 
	C702.454041,216.595932 702.454041,227.692078 702.454041,238.872711 
	C709.365906,238.872711 715.603149,238.872711 721.805054,238.872711 
	C721.805054,202.174316 721.805054,165.798035 721.805054,129.398376 
	C715.304138,129.398376 709.194397,129.398376 702.454407,129.398376 
	C702.454407,154.597443 702.454407,179.548599 702.454041,205.499786 
M964.104675,285.491974 
	C965.737488,289.118591 967.276733,292.792023 969.055115,296.345795 
	C969.657532,297.549652 970.793823,299.259308 971.807678,299.347931 
	C975.791138,299.696259 979.823059,299.490540 984.479797,299.490540 
	C981.843994,294.171722 979.723755,289.861633 977.575989,285.565369 
	C971.486633,273.384552 971.479797,273.357452 957.688660,274.497284 
	C956.517639,274.594086 954.806519,275.121246 954.363770,275.975647 
	C950.445496,283.537598 946.757263,291.218750 942.658081,299.562714 
	C946.247009,299.562714 948.906982,299.301147 951.494263,299.623627 
	C955.442322,300.115601 957.588074,298.651093 958.881409,294.870056 
	C960.049866,291.454163 961.941345,288.285583 964.104675,285.491974 
M606.195496,316.430115 
	C606.195496,313.852783 606.195496,311.275421 606.195496,308.808960 
	C599.645447,308.808960 593.912842,308.808960 588.174377,308.808960 
	C588.174377,314.704468 588.174377,320.236237 588.174377,326.182129 
	C590.975769,326.182129 593.408630,326.182129 595.804932,326.182129 
	C596.383118,334.906464 595.415466,336.878479 588.885925,340.761719 
	C590.370483,346.863281 592.201172,347.733368 597.719849,345.013824 
	C602.219055,342.796692 604.146790,338.686218 604.826843,334.189636 
	C605.667725,328.629028 605.772278,322.957092 606.195496,316.430115 
M419.890137,93.974289 
	C414.235229,93.666168 408.581818,93.313568 402.923035,93.117630 
	C402.347473,93.097694 401.385132,93.911964 401.199677,94.521034 
	C398.660339,102.859955 396.226135,111.230904 393.785400,119.528427 
	C401.014313,121.583397 405.635834,119.923035 408.789429,113.247620 
	C411.832733,106.805740 416.000732,100.895187 419.890137,93.974289 
z"/>
<path fill="#FFFFFE" opacity="1.000000" stroke="none" 
	d="
M833.953003,840.057617 
	C890.820251,869.283081 926.443787,914.751709 937.321350,977.411316 
	C948.103882,1039.523560 931.221191,1094.569458 887.804382,1140.649902 
	C856.849121,1173.504272 818.329651,1191.963623 773.621765,1197.723145 
	C695.545715,1207.781494 616.667236,1164.813110 581.982422,1093.269531 
	C546.538818,1020.160889 560.220337,934.450195 617.814209,876.846558 
	C658.401978,836.251770 708.102661,818.113647 765.556335,821.815674 
	C789.429626,823.353943 812.087463,829.503662 833.953003,840.057617 
M818.996460,937.497864 
	C808.149414,927.393494 795.892090,919.747131 780.836609,915.234070 
	C780.836609,926.371582 780.918884,936.811096 780.781860,947.247681 
	C780.745056,950.049622 781.576294,951.617554 784.110413,953.136719 
	C807.578125,967.204346 819.143188,991.968079 815.103271,1018.965759 
	C810.230530,1051.528687 780.333984,1075.187134 746.985840,1072.869873 
	C714.049072,1070.581177 687.468140,1042.967896 687.221130,1010.312500 
	C687.033447,985.504150 697.793518,966.479309 718.732849,953.154419 
	C720.104858,952.281311 721.965698,950.708435 721.995422,949.423950 
	C722.253418,938.284851 722.144104,927.137390 722.144104,915.279602 
	C719.416992,916.193237 717.213318,916.793945 715.116211,917.654358 
	C675.558411,933.882812 651.597595,971.725220 653.838440,1014.376587 
	C657.062012,1075.733276 717.189453,1119.651855 776.385254,1103.318970 
	C812.678650,1093.305420 836.718201,1069.656860 846.231995,1033.249634 
	C855.750854,996.823120 845.901855,964.831421 818.996460,937.497864 
M737.827209,921.500000 
	C737.827576,934.140259 737.783569,946.780762 737.844666,959.420715 
	C737.882568,967.275208 744.017700,973.648743 751.471313,973.761536 
	C758.534485,973.868408 765.382690,967.601807 765.449402,960.192993 
	C765.640930,938.905945 765.648010,917.614868 765.444336,896.328064 
	C765.371521,888.708740 758.844971,882.792053 751.505676,882.856873 
	C743.896362,882.924072 737.913818,889.076965 737.843506,897.049133 
	C737.774597,904.865540 737.827698,912.682983 737.827209,921.500000 
z"/>
<path fill="#FFFEFC" opacity="1.000000" stroke="none" 
	d="
M171.226486,288.101807 
	C180.791183,249.279266 190.253021,210.859848 199.910706,171.645157 
	C173.592056,171.645157 148.029297,171.645157 122.235107,171.645157 
	C122.235107,157.380386 122.235107,143.770645 122.235107,129.824234 
	C166.021912,129.824234 209.740601,129.824234 253.607056,129.824234 
	C254.238312,149.140610 253.646835,167.781479 248.974411,186.529938 
	C230.266418,261.597321 212.367599,336.866669 194.319427,412.097260 
	C193.483597,415.581238 192.222549,416.650757 188.720261,416.607574 
	C173.889786,416.424774 159.055725,416.537140 144.223022,416.517029 
	C142.937271,416.515289 141.651749,416.333557 139.862259,416.196991 
	C150.337997,373.407196 160.730820,330.956085 171.226486,288.101807 
z"/>
<path fill="#FFFDF9" opacity="1.000000" stroke="none" 
	d="
M490.736877,537.571289 
	C490.480133,538.252991 490.404083,539.156494 490.623138,539.234863 
	C501.222809,543.024902 505.081909,551.443604 505.760162,561.757446 
	C506.041260,566.031799 505.758850,570.428406 505.080597,574.664978 
	C502.984131,587.760010 494.532867,596.071777 481.345947,596.970520 
	C469.740356,597.761536 458.055786,597.399414 446.405792,597.518433 
	C445.615906,597.526489 444.823578,597.298523 443.763123,597.140076 
	C443.763123,560.716431 443.763123,524.514893 443.763123,488.356812 
	C456.277679,488.356812 468.687439,487.209595 480.793976,488.636017 
	C497.355377,490.587341 503.297394,500.679382 502.657349,517.625610 
	C502.337738,526.087097 500.123413,533.870605 490.736877,537.571289 
M470.348633,546.852234 
	C468.269653,546.852234 466.190674,546.852234 464.249542,546.852234 
	C464.249542,559.411011 464.249542,571.145874 464.249542,582.834351 
	C482.437988,584.418152 488.072357,578.791931 486.251984,561.295837 
	C485.214264,551.321899 481.302612,547.551575 470.348633,546.852234 
M477.877655,503.219299 
	C473.357788,502.696442 468.837891,502.173553 464.219330,501.639282 
	C464.219330,512.379944 464.219330,522.100525 464.219330,532.141235 
	C467.060425,532.141235 469.538116,532.202881 472.011780,532.129578 
	C479.322876,531.913025 482.678802,529.347290 484.278412,522.840942 
	C486.578705,513.484558 484.675537,506.994690 477.877655,503.219299 
z"/>
<path fill="#FFFEFC" opacity="1.000000" stroke="none" 
	d="
M862.519897,567.751465 
	C862.264160,570.507568 862.171875,572.853943 861.738953,575.135742 
	C859.328796,587.837891 850.929443,596.156128 837.966736,596.940430 
	C825.556641,597.691284 813.065491,597.102478 800.302612,597.102478 
	C800.302612,560.860352 800.302612,524.651001 800.302612,487.366272 
	C813.502075,487.876678 826.674438,487.477753 839.580872,489.141785 
	C852.365601,490.790070 858.680481,499.440186 859.142273,512.425781 
	C859.213257,514.422058 859.213867,516.425476 859.139832,518.421631 
	C858.752136,528.873047 855.422180,533.786377 845.260742,538.622742 
	C859.877319,543.024841 862.607178,554.345520 862.519897,567.751465 
M842.956055,560.956116 
	C840.587524,548.700378 832.668274,544.031372 820.524536,547.693176 
	C820.524536,559.412170 820.524536,571.114990 820.524536,582.767639 
	C838.421753,584.825378 843.776123,579.872314 843.004883,562.352356 
	C842.997559,562.186523 842.999573,562.020264 842.956055,560.956116 
M834.219116,531.151001 
	C840.821655,527.674377 843.836121,517.096130 840.590149,508.793732 
	C838.342468,503.044464 829.376587,500.370361 820.429321,502.803162 
	C820.429321,512.389954 820.429321,521.985229 820.429321,532.394897 
	C824.977600,532.058838 829.211304,531.746033 834.219116,531.151001 
z"/>
<path fill="#FFFEF9" opacity="1.000000" stroke="none" 
	d="
M573.426208,401.328247 
	C569.400696,412.176971 561.165955,417.128601 550.687317,417.757080 
	C539.260864,418.442474 527.761475,417.912811 515.876282,417.912811 
	C515.876282,381.658783 515.876282,345.478180 515.876282,308.634857 
	C525.908752,308.634857 535.981567,308.609131 546.054016,308.656738 
	C548.045349,308.666138 550.048584,308.861450 552.023804,309.133942 
	C566.318848,311.105927 574.518188,318.386810 575.360474,333.842712 
	C576.444336,353.730164 575.439331,373.735199 575.176147,393.687469 
	C575.144043,396.121979 574.135559,398.543579 573.426208,401.328247 
M540.454407,323.001587 
	C539.018311,323.098114 537.582153,323.194641 536.250427,323.284149 
	C536.250427,350.384705 536.250427,377.082581 536.250427,403.998505 
	C538.146729,403.998505 539.635010,404.001129 541.123352,403.998108 
	C551.170288,403.977692 554.852051,400.920746 555.089355,390.746765 
	C555.508606,372.773651 555.620605,354.782684 555.330933,336.807739 
	C555.156921,326.010803 552.068298,323.428375 540.454407,323.001587 
z"/>
<path fill="#FFFEF9" opacity="1.000000" stroke="none" 
	d="
M556.456665,144.008011 
	C556.456787,138.888306 556.456787,134.266846 556.456787,128.520493 
	C570.031494,129.223907 583.051147,129.022537 595.794434,130.801193 
	C608.970276,132.640213 614.881226,139.550980 616.318726,152.817734 
	C616.951599,158.657898 616.228516,164.753799 615.355286,170.619568 
	C614.364990,177.270920 610.199829,182.016052 603.741943,185.295883 
	C608.709290,203.043869 613.665283,220.751083 618.734924,238.864288 
	C611.870911,238.864288 605.449036,238.864288 598.442566,238.864288 
	C595.321472,227.028931 592.158569,215.029663 588.991760,203.031418 
	C588.397522,200.780228 587.770752,198.537552 587.188232,196.283386 
	C585.269592,188.858795 585.274719,188.857483 577.057068,189.471130 
	C577.057068,205.767990 577.057068,222.139175 577.057068,238.839233 
	C569.975159,238.839233 563.567200,238.839233 556.456482,238.839233 
	C556.456482,207.359406 556.456482,175.932831 556.456665,144.008011 
M597.282410,164.504715 
	C597.352234,161.694595 597.660950,158.865448 597.438782,156.078613 
	C597.058472,151.309967 596.112549,146.367279 590.811829,144.813950 
	C586.508362,143.552856 581.874451,143.419342 577.111450,142.746826 
	C577.111450,154.455658 577.111450,165.037857 577.111450,175.573608 
	C588.730957,177.477570 594.895386,174.264297 597.282410,164.504715 
z"/>
<path fill="#FFFEF9" opacity="1.000000" stroke="none" 
	d="
M637.572754,543.001099 
	C637.357849,544.793762 637.217224,546.455383 637.635254,547.962097 
	C641.634583,562.377991 645.738220,576.764832 649.782715,591.168274 
	C650.307007,593.035461 650.665466,594.949158 651.191650,597.236572 
	C644.284485,597.236572 637.877014,597.236572 631.067017,597.236572 
	C627.303284,582.807129 623.538208,568.346436 619.757812,553.889832 
	C617.879944,546.708679 617.854736,546.704590 609.627930,548.253418 
	C609.627930,564.361328 609.627930,580.592163 609.627930,597.178223 
	C602.652222,597.178223 596.258118,597.178223 589.503723,597.178223 
	C589.503723,560.866577 589.503723,524.683472 589.503723,487.067200 
	C603.531921,487.890991 617.520569,487.749329 631.175232,489.815338 
	C642.340759,491.504730 648.234985,499.579437 648.958618,510.935516 
	C649.334656,516.836670 648.835266,522.867859 648.047241,528.748718 
	C647.204956,535.033936 643.475525,539.692261 637.572754,543.001099 
M609.458252,515.512329 
	C609.458252,521.753601 609.458252,527.994812 609.458252,534.554565 
	C616.911987,534.159424 623.982727,535.444031 628.180908,528.440491 
	C631.480957,522.935425 631.044922,510.088348 627.388855,505.915100 
	C622.502136,500.337158 616.057434,501.937439 609.458618,502.043549 
	C609.458618,506.570496 609.458618,510.544830 609.458252,515.512329 
z"/>
<path fill="#FFFEFA" opacity="1.000000" stroke="none" 
	d="
M1142.212402,130.707748 
	C1155.312500,134.074203 1161.169312,140.385986 1162.172363,153.354218 
	C1163.097412,165.314072 1163.205688,177.291168 1150.852173,184.716492 
	C1150.130249,185.150391 1150.252563,187.743317 1150.639404,189.150909 
	C1154.604126,203.581100 1158.713257,217.971603 1162.758667,232.379761 
	C1163.331299,234.419174 1163.778809,236.493744 1164.373291,238.914612 
	C1157.435791,238.914612 1150.998901,238.914612 1144.208618,238.914612 
	C1140.455811,224.565109 1136.698120,210.281448 1132.990234,195.984894 
	C1131.063843,188.556213 1131.103516,188.545914 1122.620850,189.747177 
	C1122.620850,206.007401 1122.620850,222.389053 1122.620850,238.860229 
	C1115.486450,238.860229 1109.072266,238.860229 1102.406250,238.860229 
	C1102.406250,202.307220 1102.406250,166.071838 1102.406250,128.541534 
	C1115.724487,129.237900 1128.766724,129.919830 1142.212402,130.707748 
M1142.381226,167.603348 
	C1146.551514,150.100601 1140.578735,142.124512 1124.123779,143.234680 
	C1123.804688,143.256195 1123.495728,143.427902 1122.819336,143.647049 
	C1122.819336,154.243729 1122.819336,164.958008 1122.819336,175.641327 
	C1133.041016,177.290558 1138.718994,175.114609 1142.381226,167.603348 
z"/>
<path fill="#FFFEFB" opacity="1.000000" stroke="none" 
	d="
M577.536804,562.827515 
	C577.295166,566.787964 577.318970,570.313171 576.768250,573.746216 
	C573.757080,592.517639 560.238342,601.545471 539.800964,598.579956 
	C524.782288,596.400757 516.144653,588.795105 515.209900,573.656433 
	C514.002502,554.102600 513.471863,534.369812 514.685120,514.840576 
	C516.012756,493.470001 527.889099,484.853973 549.831421,486.508484 
	C566.355042,487.754456 575.923706,496.615662 576.883057,513.444397 
	C577.810120,529.705750 577.374207,546.044739 577.536804,562.827515 
M536.124329,577.900085 
	C538.387695,582.987671 542.675232,584.276184 547.670410,583.685913 
	C552.785889,583.081360 555.643738,579.909912 556.384460,574.848145 
	C556.648254,573.045227 556.962219,571.225342 556.966492,569.412476 
	C557.009521,551.431335 557.043152,533.449768 556.935608,515.469177 
	C556.919983,512.852173 556.876953,509.753723 555.540466,507.748505 
	C553.878784,505.255371 551.117371,502.517181 548.377930,501.901886 
	C539.815063,499.978607 535.014465,504.318085 534.921326,513.800476 
	C534.733154,532.945190 534.837097,552.093079 534.913757,571.239319 
	C534.921570,573.195984 535.563171,575.150085 536.124329,577.900085 
z"/>
<path fill="#FFFEFB" opacity="1.000000" stroke="none" 
	d="
M861.588989,403.323822 
	C860.408569,397.095612 858.634338,391.234741 858.516418,385.340729 
	C858.190002,369.034271 857.961182,352.683746 858.790833,336.406555 
	C859.921875,314.214355 872.704285,305.440125 894.850525,307.491364 
	C912.269043,309.104706 920.185120,317.087036 921.329285,336.565552 
	C922.439331,355.462402 922.069214,374.541718 920.884094,393.449036 
	C919.857056,409.834259 911.020813,417.570068 894.609680,419.519958 
	C878.522827,421.431366 867.592407,416.160858 861.588989,403.323822 
M879.005737,372.499939 
	C879.289124,380.621735 879.267090,388.769989 879.968262,396.855530 
	C880.401672,401.853882 884.109070,404.125000 888.992371,404.518433 
	C896.098389,405.090942 900.487061,401.412140 900.911621,393.650940 
	C901.329102,386.019165 901.138916,378.351990 901.145508,370.700317 
	C901.155945,358.555756 901.242859,346.408752 901.032410,334.267426 
	C900.913330,327.394287 898.492554,324.015076 893.616211,322.689423 
	C885.062195,320.363983 879.287964,324.865784 879.087280,334.566345 
	C878.832703,346.872833 879.013000,359.188354 879.005737,372.499939 
z"/>
<path fill="#FFFEFC" opacity="1.000000" stroke="none" 
	d="
M673.037109,597.530273 
	C669.233398,597.530090 665.922974,597.530090 662.222412,597.530090 
	C662.222412,560.921509 662.222412,524.718384 662.222412,487.120728 
	C675.976013,487.902466 689.809082,487.723328 703.312561,489.745270 
	C715.268616,491.535522 721.131714,501.051910 721.427795,512.441589 
	C721.963623,533.051636 722.046875,553.742310 720.789795,574.305847 
	C719.957031,587.928162 710.766907,595.649658 696.990173,596.896362 
	C689.214783,597.599976 681.353271,597.350586 673.037109,597.530273 
M681.829895,541.500000 
	C681.829895,555.257935 681.829895,569.015869 681.829895,582.977295 
	C685.462097,582.977295 688.456726,583.251343 691.382690,582.919617 
	C697.238831,582.255737 700.812073,579.113525 700.906067,573.227905 
	C701.230225,552.933777 701.290405,532.629517 701.006653,512.335266 
	C700.918030,505.993835 697.600403,503.153015 691.257935,502.413940 
	C688.348022,502.074890 685.365906,502.356201 681.829834,502.356201 
	C681.829834,515.292847 681.829834,527.896423 681.829895,541.500000 
z"/>
<path fill="#FFFFFD" opacity="1.000000" stroke="none" 
	d="
M888.996460,203.000000 
	C888.996460,178.224365 888.996460,153.948746 888.996460,128.393051 
	C902.991638,129.246155 916.497559,129.218475 929.724731,131.124985 
	C941.939941,132.885651 948.638794,141.462906 948.926758,153.766342 
	C949.080261,160.323761 948.464417,167.101837 946.817017,173.420853 
	C945.865845,177.069489 942.656006,180.616669 939.559631,183.069305 
	C936.937988,185.145889 936.491394,186.648529 937.344055,189.589035 
	C941.697144,204.601776 945.877380,219.664658 950.107422,234.712997 
	C950.460876,235.970306 950.735535,237.249756 951.201355,239.149063 
	C944.850891,239.149063 938.887085,239.338486 932.957458,238.973526 
	C931.896301,238.908234 930.466248,236.688583 930.070618,235.229370 
	C926.502075,222.066483 923.128540,208.850723 919.692871,195.651764 
	C917.796143,188.365219 917.791870,188.366333 909.308716,189.782150 
	C909.308716,205.941071 909.308716,222.193298 909.308716,238.805008 
	C902.429138,238.805008 896.034546,238.805008 888.996460,238.805008 
	C888.996460,227.040924 888.996460,215.270462 888.996460,203.000000 
M919.727783,175.670914 
	C928.827209,174.159576 932.026672,166.084549 929.396912,152.505722 
	C927.868713,144.614853 920.355774,141.608368 909.555908,143.823639 
	C909.555908,154.485138 909.555908,165.167587 909.555908,175.835739 
	C912.932190,175.835739 915.907349,175.835739 919.727783,175.670914 
z"/>
<path fill="#FFFFFD" opacity="1.000000" stroke="none" 
	d="
M960.546265,215.252090 
	C960.594177,193.551422 959.856812,172.225311 961.207092,151.032181 
	C962.067871,137.521851 970.494751,130.378525 984.080566,128.739182 
	C990.240051,127.995949 996.798706,128.196854 1002.858276,129.476028 
	C1015.824707,132.213242 1021.886230,142.158203 1022.354492,154.176392 
	C1023.162537,174.914169 1023.298706,195.789520 1021.802246,216.468613 
	C1020.709778,231.565475 1011.436951,238.873505 996.246643,240.172821 
	C991.651489,240.565857 986.888672,240.443176 982.343506,239.697586 
	C969.977051,237.668991 963.369629,230.106674 960.546265,215.252090 
M980.795166,215.508774 
	C981.326416,220.157257 983.099365,223.838684 988.121704,225.055450 
	C995.631226,226.874725 1001.577576,223.422562 1001.990845,215.721710 
	C1002.748901,201.598587 1002.722534,187.427902 1002.797241,173.275848 
	C1002.834106,166.292099 1002.753479,159.264862 1002.020874,152.331802 
	C1001.267029,145.197723 996.357422,142.013123 989.260254,143.169754 
	C983.646667,144.084610 980.705444,146.990921 980.567627,154.726212 
	C980.211548,174.702286 980.544067,194.690613 980.795166,215.508774 
z"/>
<path fill="#FFFEFC" opacity="1.000000" stroke="none" 
	d="
M727.214600,404.869263 
	C720.384705,388.392578 713.694153,372.271820 707.003601,356.151093 
	C706.757141,356.168182 706.510681,356.185303 706.264221,356.202393 
	C706.264221,376.615997 706.264221,397.029602 706.264221,417.805298 
	C700.308044,417.805298 694.923645,417.805298 689.178589,417.805298 
	C689.178589,381.566376 689.178589,345.341888 689.178589,308.500000 
	C693.179199,308.500000 697.182190,308.141632 701.055908,308.692505 
	C702.429871,308.887909 703.916382,311.108795 704.625977,312.723785 
	C711.850281,329.165100 718.917664,345.675232 726.051819,362.156219 
	C726.737122,363.739258 727.576233,365.255707 729.407227,366.584290 
	C729.407227,347.417694 729.407227,328.251099 729.407227,308.782135 
	C735.292236,308.782135 740.522522,308.782135 745.963135,308.782135 
	C745.963135,345.203766 745.963135,381.311340 745.963135,418.146637 
	C742.098938,418.146637 738.324158,418.350983 734.597290,418.018372 
	C733.521301,417.922363 732.214539,416.463318 731.651672,415.316071 
	C730.043457,412.038635 728.763184,408.600250 727.214600,404.869263 
z"/>
<path fill="#FFFFFD" opacity="1.000000" stroke="none" 
	d="
M454.965668,152.939728 
	C460.047852,164.719086 465.007965,176.137512 469.968079,187.555954 
	C470.297241,187.528366 470.626373,187.500778 470.955536,187.473190 
	C470.955536,168.238281 470.955536,149.003357 470.955536,129.469620 
	C476.928467,129.469620 482.159210,129.469620 487.699066,129.469620 
	C487.699066,165.986237 487.699066,202.346512 487.699066,239.161591 
	C484.001923,239.161591 480.487366,239.524841 477.114075,238.992676 
	C475.651489,238.761932 473.906067,236.929703 473.263397,235.412262 
	C465.419464,216.891174 457.758484,198.292603 450.042480,179.717285 
	C449.674530,178.831421 449.236145,177.974808 448.095947,177.202362 
	C448.095947,197.663727 448.095947,218.125076 448.095947,238.874603 
	C442.173889,238.874603 436.787476,238.874603 431.114258,238.874603 
	C431.114258,202.413391 431.114258,166.172775 431.114258,129.182770 
	C435.064575,129.182770 439.014618,128.937057 442.899261,129.333038 
	C444.058746,129.451248 445.428741,131.184616 446.029236,132.488022 
	C449.088715,139.129028 451.927551,145.871704 454.965668,152.939728 
z"/>
<path fill="#FFFEF9" opacity="1.000000" stroke="none" 
	d="
M654.236938,240.680862 
	C637.790222,238.725616 629.874390,231.124084 628.137329,214.551788 
	C627.117188,204.819153 627.081360,194.941025 627.237000,185.138397 
	C627.424194,173.355774 627.401611,161.455338 629.090637,149.841629 
	C630.974854,136.885437 638.418579,130.248596 651.448242,128.700104 
	C657.759338,127.950066 664.481140,128.325699 670.703796,129.656250 
	C682.996460,132.284698 687.389038,141.864319 688.716003,153.204910 
	C689.175049,157.128052 688.789124,161.150055 688.789124,165.489090 
	C682.645630,165.489090 676.589905,165.489090 670.208252,165.489090 
	C669.856140,160.853104 669.707397,156.240387 669.109253,151.686707 
	C668.351196,145.915482 665.148804,143.239822 659.389832,143.028793 
	C653.703918,142.820435 650.041870,145.293533 648.734436,150.727142 
	C648.081238,153.441528 647.903198,156.322632 647.890320,159.130066 
	C647.815552,175.451248 647.824585,191.773026 647.883179,208.094330 
	C647.892639,210.743774 648.037170,213.443146 648.559814,216.030441 
	C649.886719,222.599854 652.973511,225.270477 658.923584,225.422119 
	C664.794861,225.571777 668.766174,222.971085 669.959839,216.782425 
	C671.174011,210.487289 671.312439,203.984665 671.979370,196.968704 
	C667.460693,196.695587 663.758423,196.471817 659.770386,196.230789 
	C659.770386,191.878571 659.770386,187.810883 659.770386,183.444427 
	C669.752502,183.444427 679.474548,183.444427 689.525635,183.444427 
	C689.525635,201.895859 689.525635,220.128067 689.525635,239.163727 
	C685.933838,239.163727 682.296143,239.554703 678.778381,239.071747 
	C673.554443,238.354492 677.416687,232.901871 674.384827,230.385132 
	C670.243164,238.215668 663.275330,241.111328 654.236938,240.680862 
z"/>
<path fill="#FFFEF9" opacity="1.000000" stroke="none" 
	d="
M661.369202,308.458618 
	C666.453491,308.458435 671.080872,308.458435 675.544373,308.458435 
	C675.544373,337.322113 677.007019,365.694977 675.094360,393.838501 
	C673.483337,417.544128 646.037781,428.372620 626.007690,414.906830 
	C618.233704,409.680603 615.453857,401.519348 615.123535,392.892029 
	C614.391296,373.766998 614.386963,354.613068 614.164978,335.469971 
	C614.063049,326.680603 614.147644,317.889069 614.147644,308.782318 
	C620.880676,308.782318 627.133423,308.782318 634.010742,308.782318 
	C634.010742,310.679138 634.010742,312.445038 634.010742,314.210907 
	C634.010803,337.698730 633.951538,361.186859 634.068604,384.674103 
	C634.088379,388.636658 634.529358,392.670197 635.381653,396.537415 
	C636.499451,401.609497 640.122559,404.283234 644.990723,404.423676 
	C650.202454,404.574036 653.785095,402.100830 655.142212,396.714691 
	C655.985474,393.368134 656.387878,389.825745 656.402649,386.368744 
	C656.506409,362.048462 656.507812,337.727325 656.400757,313.407043 
	C656.385925,310.031433 656.814453,307.755768 661.369202,308.458618 
z"/>
<path fill="#FFFEFB" opacity="1.000000" stroke="none" 
	d="
M974.991821,349.000000 
	C975.009155,335.667084 975.024353,322.834137 975.057373,310.001251 
	C975.058167,309.690735 975.258606,309.380707 975.470947,308.767120 
	C981.467468,308.767120 987.571777,308.767120 993.929077,308.767120 
	C994.124756,309.535217 994.493530,310.302826 994.490479,311.068970 
	C994.384216,337.561279 994.249268,364.053467 994.089478,390.545532 
	C994.080505,392.037933 993.934021,393.548523 993.668091,395.017426 
	C990.578064,412.087921 982.977600,420.335052 961.657959,419.683868 
	C942.863647,419.109772 933.601196,409.842407 933.143982,390.703674 
	C932.503418,363.887360 932.921692,337.045715 932.900391,310.214905 
	C932.900146,309.898529 933.078186,309.582001 933.293152,308.864929 
	C939.225586,308.864929 945.287231,308.864929 951.914612,308.864929 
	C952.000366,310.565796 952.163818,312.312775 952.165100,314.059875 
	C952.182190,337.393127 952.088074,360.727020 952.254456,384.059082 
	C952.286133,388.503113 953.013000,393.009460 953.982056,397.361694 
	C955.074280,402.266937 958.836853,404.366394 963.633362,404.397125 
	C968.492188,404.428253 972.258301,402.192902 973.197937,397.298370 
	C974.225037,391.948029 974.781433,386.448273 974.915894,380.998199 
	C975.174683,370.504547 974.991638,360.000031 974.991821,349.000000 
z"/>
<path fill="#FFFEFA" opacity="1.000000" stroke="none" 
	d="
M788.308594,388.636841 
	C788.402344,370.523773 787.676086,352.807465 788.941711,335.234619 
	C790.428406,314.593292 802.313843,305.544739 822.982727,307.203491 
	C839.778442,308.551392 848.230591,317.208191 849.061890,334.126007 
	C849.288513,338.737976 849.096252,343.370514 849.096252,348.262207 
	C842.543579,348.262207 836.450806,348.262207 829.411682,348.262207 
	C829.411682,342.378967 829.749268,336.736084 829.319519,331.152222 
	C828.864563,325.241364 825.854248,322.551483 820.535889,322.193542 
	C814.838806,321.810089 810.825806,324.580627 809.552979,330.142487 
	C809.002380,332.548615 808.888000,335.094849 808.880005,337.578430 
	C808.825134,354.576569 808.817322,371.575165 808.886719,388.573181 
	C808.897461,391.217072 809.101440,393.924347 809.701355,396.488739 
	C811.081055,402.386383 814.325562,404.806671 819.953125,404.583893 
	C825.523560,404.363403 828.741943,401.690216 829.277832,395.543091 
	C829.794067,389.619812 829.389587,383.616333 829.389587,377.321899 
	C836.235718,377.321899 842.317261,377.321899 848.958679,377.321899 
	C849.332520,387.530914 850.198669,397.837128 845.027588,407.331696 
	C839.049500,418.308258 828.507996,420.227936 817.516174,419.687500 
	C798.685974,418.761719 791.040222,410.393158 788.308594,388.636841 
z"/>
<path fill="#FFFEFB" opacity="1.000000" stroke="none" 
	d="
M783.752319,555.129395 
	C786.600098,569.356140 789.355652,583.167419 792.174866,597.297852 
	C785.637817,597.297852 779.699463,597.297852 773.419678,597.297852 
	C771.890686,588.860291 770.391235,580.586182 768.871277,572.198608 
	C762.599670,572.198608 756.654419,572.198608 750.317566,572.198608 
	C748.777039,580.582947 747.256226,588.860168 745.703857,597.308960 
	C739.500366,597.308960 733.545593,597.308960 726.808105,597.308960 
	C727.591431,593.062988 728.266052,589.067444 729.070801,585.098267 
	C735.381042,553.975037 741.740417,522.861633 748.000244,491.728241 
	C748.533325,489.076965 749.340759,487.625916 752.438171,487.757538 
	C758.077515,487.997253 763.734192,487.825653 769.999451,487.825653 
	C774.571838,510.213867 779.116028,532.463867 783.752319,555.129395 
M757.983398,524.523865 
	C756.166443,535.760803 754.349487,546.997681 752.473633,558.598938 
	C757.557373,558.598938 761.810303,558.598938 766.690430,558.598938 
	C764.409424,544.608765 762.179016,530.929138 759.948669,517.249451 
	C759.702759,517.278748 759.456787,517.308044 759.210876,517.337402 
	C758.831421,519.456177 758.452026,521.575012 757.983398,524.523865 
z"/>
<path fill="#FFFEFB" opacity="1.000000" stroke="none" 
	d="
M371.662201,589.447998 
	C378.550018,555.488770 385.339813,521.937866 392.240356,487.839813 
	C398.595306,487.839813 404.892365,487.670532 411.162567,488.005035 
	C412.217926,488.061371 413.772003,490.166229 414.058746,491.540833 
	C419.149811,515.947388 424.085327,540.386414 429.043121,564.820740 
	C431.186096,575.382202 433.303589,585.948853 435.625061,597.467773 
	C429.489594,597.467773 423.924377,597.633484 418.390167,597.293640 
	C417.534973,597.241150 416.400238,594.955139 416.117096,593.555847 
	C414.931366,587.696228 413.891022,581.799011 413.066345,575.878113 
	C412.679230,573.098633 411.776001,571.785095 408.701050,571.943542 
	C403.895691,572.191284 399.068146,572.009155 393.756805,572.009155 
	C392.208130,580.426086 390.687531,588.690491 389.119720,597.211365 
	C382.778259,597.211365 376.704224,597.211365 370.123077,597.211365 
	C370.624451,594.652527 371.094330,592.254456 371.662201,589.447998 
M396.608704,553.988708 
	C396.406860,555.419922 396.204987,556.851135 395.963257,558.565063 
	C400.823334,558.565063 405.235107,558.565063 410.118134,558.565063 
	C407.858826,544.842712 405.658600,531.479126 403.458374,518.115601 
	C403.091156,518.155640 402.723907,518.195679 402.356659,518.235718 
	C400.491943,529.869446 398.627228,541.503174 396.608704,553.988708 
z"/>
<path fill="#FFFDF9" opacity="1.000000" stroke="none" 
	d="
M862.857544,188.947540 
	C855.850342,189.595093 849.244568,190.168396 842.040405,190.793640 
	C842.040405,206.570465 842.040405,222.629517 842.040405,238.936676 
	C835.028687,238.936676 828.592102,238.936676 821.803833,238.936676 
	C821.803833,202.442490 821.803833,166.088135 821.803833,130.182037 
	C835.446960,130.182037 848.917664,129.377670 862.235229,130.459198 
	C871.417297,131.204895 877.799927,137.919098 879.514587,146.946045 
	C880.945679,154.480118 881.234863,162.507980 880.376282,170.130905 
	C879.271545,179.939301 872.748169,186.070068 862.857544,188.947540 
M852.943420,143.978699 
	C849.354431,143.978699 845.765442,143.978699 842.250732,143.978699 
	C842.250732,154.989212 842.250732,165.374878 842.250732,175.952194 
	C844.967529,175.952194 847.290833,176.047226 849.604187,175.935318 
	C858.424927,175.508591 861.537170,172.542160 862.106262,163.780212 
	C862.320862,160.476196 862.237122,157.133484 862.024353,153.825470 
	C861.690186,148.631363 859.324951,144.977905 852.943420,143.978699 
z"/>
<path fill="#FFFFFD" opacity="1.000000" stroke="none" 
	d="
M1034.829590,206.999939 
	C1034.829590,180.897720 1034.829590,155.295486 1034.829590,130.127457 
	C1048.689331,130.127457 1061.997070,129.427170 1075.184692,130.382935 
	C1083.457153,130.982468 1089.299683,136.702118 1092.162720,144.786713 
	C1095.306396,153.663177 1095.716064,162.735138 1093.324951,171.803085 
	C1090.411255,182.852539 1082.127563,189.220856 1069.884766,189.954849 
	C1065.114624,190.240845 1060.312988,190.001587 1055.107178,190.001587 
	C1055.107178,206.612305 1055.107178,222.533127 1055.107178,238.809418 
	C1048.296143,238.809418 1041.910522,238.809418 1034.829712,238.809418 
	C1034.829712,228.357941 1034.829712,217.928955 1034.829590,206.999939 
M1054.994507,165.473328 
	C1054.994507,168.897232 1054.994507,172.321121 1054.994507,176.099457 
	C1062.102173,175.498672 1070.029297,178.090454 1073.581421,170.743988 
	C1077.181519,163.298401 1077.734985,154.507187 1072.793091,147.374954 
	C1068.563965,141.271759 1061.338135,144.515732 1054.994507,143.766571 
	C1054.994507,151.220642 1054.994507,157.850067 1054.994507,165.473328 
z"/>
<path fill="#FFFDF8" opacity="1.000000" stroke="none" 
	d="
M501.450989,136.170227 
	C501.451141,133.729889 501.451141,131.765823 501.451141,129.474838 
	C517.026001,129.474838 532.073853,129.474838 547.490356,129.474838 
	C547.490356,134.126892 547.490356,138.670517 547.490356,143.711731 
	C539.086548,143.711731 530.836792,143.711731 522.225952,143.711731 
	C522.225952,154.247986 522.225952,164.299103 522.225952,174.802155 
	C528.646729,174.802155 535.073120,174.802155 541.844360,174.802155 
	C541.844360,179.639450 541.844360,184.040253 541.844360,188.968704 
	C535.558899,188.968704 529.144775,188.968704 522.297607,188.968704 
	C522.297607,201.153244 522.297607,212.828979 522.297607,225.086639 
	C530.685608,225.086639 539.078186,225.086639 547.735535,225.086639 
	C547.735535,229.919098 547.735535,234.184174 547.735535,238.824524 
	C532.567139,238.824524 517.369202,238.824524 501.450836,238.824524 
	C501.450836,204.758240 501.450836,170.702347 501.450989,136.170227 
z"/>
<path fill="#FFFDF6" opacity="1.000000" stroke="none" 
	d="
M956.947449,547.557007 
	C953.490295,547.556824 950.517517,547.556824 947.209229,547.556824 
	C947.209229,559.561035 947.209229,571.124390 947.209229,583.320801 
	C955.686523,583.320801 964.079102,583.320801 972.739258,583.320801 
	C972.739258,588.208313 972.739258,592.471375 972.739258,597.147461 
	C957.551025,597.147461 942.357056,597.147461 926.801270,597.147461 
	C926.801270,560.812805 926.801270,524.600281 926.801270,488.092682 
	C941.975159,488.092682 957.065430,488.092682 972.509827,488.092682 
	C972.509827,492.535309 972.509827,496.917023 972.509827,501.923859 
	C964.118896,501.923859 955.734802,501.923859 947.115601,501.923859 
	C947.115601,512.468079 947.115601,522.399414 947.115601,532.985229 
	C953.661072,532.985229 960.205627,532.985229 966.968384,532.985229 
	C966.968384,538.072693 966.968384,542.507568 966.968384,547.557129 
	C963.651672,547.557129 960.541748,547.557129 956.947449,547.557007 
z"/>
<path fill="#FFFEFC" opacity="1.000000" stroke="none" 
	d="
M998.895569,1168.053467 
	C981.243896,1157.958130 963.918396,1148.030396 946.603149,1138.084839 
	C938.053528,1133.173950 935.077332,1123.907471 939.481079,1116.017334 
	C943.791687,1108.294067 953.587158,1105.991577 962.047546,1110.818726 
	C984.736389,1123.764160 1007.409302,1136.737305 1030.066772,1149.737549 
	C1038.313354,1154.469238 1041.165527,1163.706299 1036.885986,1171.464600 
	C1032.582153,1179.266846 1022.772095,1181.658447 1014.371826,1176.911011 
	C1009.303528,1174.046753 1004.273315,1171.115112 998.895569,1168.053467 
z"/>
<path fill="#FFFEFC" opacity="1.000000" stroke="none" 
	d="
M553.218506,876.809875 
	C559.180664,879.818054 564.244995,883.105774 565.363159,890.090515 
	C566.341125,896.199524 564.826355,901.442993 559.874023,905.185120 
	C554.759033,909.050232 548.947998,910.417358 543.048340,907.072632 
	C519.159058,893.528931 495.299957,879.929932 471.542908,866.156128 
	C464.538696,862.095215 462.408539,852.020264 466.524628,845.011719 
	C470.741241,837.832031 480.433319,835.205994 487.894104,839.449585 
	C509.592255,851.791077 531.234680,864.230530 553.218506,876.809875 
z"/>
<path fill="#FFFEFC" opacity="1.000000" stroke="none" 
	d="
M626.160034,1259.205200 
	C620.697693,1268.769165 615.438965,1278.026733 610.105896,1287.241089 
	C605.585144,1295.052002 596.134949,1297.873657 588.610352,1293.744141 
	C580.913879,1289.520020 578.286926,1279.793213 582.899292,1271.685303 
	C596.057678,1248.554810 609.287476,1225.464722 622.561829,1202.400635 
	C626.920105,1194.828247 636.920349,1192.142334 644.200562,1196.385010 
	C651.388672,1200.574219 654.091003,1210.233398 649.868896,1217.741943 
	C642.125610,1231.512329 634.188049,1245.173462 626.160034,1259.205200 
z"/>
<path fill="#FFFEFC" opacity="1.000000" stroke="none" 
	d="
M886.358032,741.324585 
	C888.700378,737.257812 890.802002,733.475098 892.986938,729.741150 
	C897.728943,721.637695 907.153442,718.870483 914.887146,723.268494 
	C922.410767,727.546936 924.778381,737.300293 920.143188,745.436890 
	C907.128723,768.282410 894.084351,791.111023 881.002014,813.917664 
	C876.346924,822.032898 866.804688,824.875671 859.156433,820.567993 
	C851.582886,816.302368 849.149963,806.511353 853.745178,798.434326 
	C864.525024,779.486450 875.348938,760.563660 886.358032,741.324585 
z"/>
<path fill="#FFFEFC" opacity="1.000000" stroke="none" 
	d="
M981.232300,858.268494 
	C992.358765,851.853577 1003.170959,845.628052 1013.990601,839.415588 
	C1022.235962,834.681274 1031.798584,836.819885 1036.270264,844.381653 
	C1040.911255,852.229675 1038.183716,861.709106 1029.752686,866.574829 
	C1007.133423,879.628662 984.494629,892.648560 961.836609,905.634949 
	C953.326416,910.512451 943.578613,908.210815 939.224548,900.425110 
	C934.819336,892.547791 937.745239,883.309326 946.307861,878.353638 
	C957.825012,871.687988 969.381531,865.090271 981.232300,858.268494 
z"/>
<path fill="#FFFEFC" opacity="1.000000" stroke="none" 
	d="
M509.688385,1165.663330 
	C502.451385,1169.833252 495.564789,1173.879517 488.587921,1177.763550 
	C480.599121,1182.211182 471.230438,1179.803467 466.852173,1172.318604 
	C462.385803,1164.683350 465.081238,1155.117188 473.171417,1150.443481 
	C495.928192,1137.296875 518.709106,1124.192017 541.509583,1111.121216 
	C549.714355,1106.417725 559.309387,1108.656738 563.776123,1116.173462 
	C568.367615,1123.900146 565.544800,1133.471191 557.138855,1138.332275 
	C541.443542,1147.408569 525.714172,1156.426147 509.688385,1165.663330 
z"/>
<path fill="#FFFEFC" opacity="1.000000" stroke="none" 
	d="
M591.502808,761.522278 
	C588.327393,756.015381 585.302429,750.843750 582.385071,745.612122 
	C577.806580,737.401733 580.256958,727.801025 587.951111,723.528625 
	C595.558228,719.304565 604.954346,721.960876 609.510559,729.846985 
	C622.826965,752.895935 636.083191,775.979736 649.297546,799.087341 
	C653.699036,806.784241 651.052612,816.584229 643.619385,820.799194 
	C636.084412,825.071838 626.575928,822.407898 622.064880,814.608887 
	C611.902649,797.039917 601.817749,779.426208 591.502808,761.522278 
z"/>
<path fill="#FFFEFC" opacity="1.000000" stroke="none" 
	d="
M877.031250,1258.020020 
	C869.239624,1244.427002 861.554932,1231.193604 853.995544,1217.889038 
	C849.547363,1210.060181 852.093872,1200.334351 859.503540,1196.133667 
	C867.046326,1191.857544 876.536804,1194.401489 881.073547,1202.222900 
	C894.425232,1225.241699 907.695068,1248.308350 920.902283,1271.410400 
	C925.457825,1279.378784 923.012146,1288.801514 915.527222,1293.171509 
	C907.831543,1297.664551 898.389832,1295.003906 893.641907,1286.881348 
	C888.101868,1277.403809 882.669861,1267.863159 877.031250,1258.020020 
z"/>
<path fill="#FFFDF9" opacity="1.000000" stroke="none" 
	d="
M740.289368,129.146210 
	C754.372437,129.145462 767.986511,129.145462 781.887817,129.145462 
	C781.887817,134.124390 781.887817,138.557159 781.887817,143.652664 
	C773.697998,143.652664 765.483765,143.652664 756.917603,143.652664 
	C756.917603,154.349136 756.917603,164.389908 756.917603,174.870544 
	C763.489197,174.870544 769.920837,174.870544 776.679443,174.870544 
	C776.679443,179.694962 776.679443,184.089645 776.679443,189.037735 
	C770.265625,189.037735 763.862610,189.037735 757.008484,189.037735 
	C757.008484,201.245285 757.008484,212.914841 757.008484,225.015366 
	C765.426086,225.015366 773.703491,225.015366 782.413818,225.015366 
	C782.413818,229.790207 782.413818,234.153946 782.413818,238.854553 
	C767.145630,238.854553 751.933167,238.854553 736.451782,238.854553 
	C736.339172,237.352844 736.158691,236.063187 736.158081,234.773438 
	C736.142578,201.124207 736.155579,167.474960 736.126160,133.825760 
	C736.123840,131.187256 735.900330,128.589661 740.289368,129.146210 
z"/>
<path fill="#FFFFFE" opacity="1.000000" stroke="none" 
	d="
M1000.000183,992.832703 
	C1021.485107,992.832764 1042.470093,992.814575 1063.455078,992.841125 
	C1073.077515,992.853271 1080.033813,999.325562 1080.130127,1008.252441 
	C1080.229004,1017.417358 1073.214478,1023.995789 1063.306152,1023.998535 
	C1037.158203,1024.005615 1011.004517,1023.690735 984.865540,1024.175049 
	C976.130066,1024.336792 968.163696,1016.828552 968.141235,1008.607910 
	C968.116455,999.524658 975.114319,992.891418 985.010620,992.837646 
	C989.840393,992.811401 994.670349,992.832825 1000.000183,992.832703 
z"/>
<path fill="#FFFFFE" opacity="1.000000" stroke="none" 
	d="
M762.403320,787.432739 
	C756.984619,792.143555 751.206970,793.357117 745.040894,790.305542 
	C738.856812,787.245117 735.867859,782.259277 735.921753,775.053406 
	C736.117310,748.931091 735.991272,722.806335 736.002747,696.682556 
	C736.007080,686.826721 742.576050,679.922791 751.823853,679.999634 
	C760.836365,680.074585 767.151123,686.871399 767.159424,696.618835 
	C767.181763,722.909058 767.351990,749.201904 766.966431,775.486511 
	C766.908997,779.402283 764.168396,783.278748 762.403320,787.432739 
z"/>
<path fill="#FFFFFE" opacity="1.000000" stroke="none" 
	d="
M431.777100,994.361572 
	C434.379608,993.721619 436.637177,992.899536 438.897491,992.891968 
	C465.684967,992.802063 492.472870,992.807983 519.260620,992.849915 
	C526.813354,992.861755 532.708191,997.497803 534.601746,1004.660767 
	C536.332397,1011.207458 533.274658,1018.704773 526.951904,1022.062256 
	C524.587524,1023.317810 521.596985,1023.906799 518.887451,1023.920715 
	C492.765900,1024.054565 466.643402,1024.002197 440.521149,1024.000244 
	C431.741089,1023.999512 426.002228,1020.161072 423.756622,1012.799500 
	C421.601654,1005.734985 424.141602,999.699585 431.777100,994.361572 
z"/>
<path fill="#FFFFFE" opacity="1.000000" stroke="none" 
	d="
M767.167297,1286.000000 
	C767.167114,1297.993652 767.207397,1309.487671 767.153809,1320.981079 
	C767.111389,1330.080200 760.300232,1337.029663 751.588013,1336.997070 
	C742.832153,1336.964233 736.016724,1330.003296 736.007996,1320.960327 
	C735.982300,1294.308350 735.978271,1267.656250 736.010498,1241.004272 
	C736.021423,1231.966309 742.866577,1225.013184 751.612427,1225.001465 
	C760.364380,1224.989746 767.120361,1231.885376 767.152649,1241.024414 
	C767.205017,1255.849487 767.167114,1270.674805 767.167297,1286.000000 
z"/>
<path fill="#FFFEFB" opacity="1.000000" stroke="none" 
	d="
M375.823792,346.999939 
	C375.823761,334.028687 375.823761,321.557434 375.823761,308.807373 
	C391.310150,308.807373 406.371155,308.807373 421.640015,308.807373 
	C421.640015,313.435211 421.640015,317.720245 421.640015,322.533844 
	C413.304138,322.533844 405.058472,322.533844 396.412659,322.533844 
	C396.412659,333.106903 396.412659,343.168121 396.412659,353.785034 
	C402.775238,353.785034 409.343994,353.785034 416.221252,353.785034 
	C416.221252,358.768890 416.221252,363.206085 416.221252,368.327820 
	C409.686493,368.327820 403.132629,368.327820 396.301086,368.327820 
	C396.301086,380.435822 396.301086,391.869385 396.301086,403.903076 
	C404.580658,403.903076 412.966187,403.903076 421.757782,403.903076 
	C421.757782,408.852722 421.757782,413.212738 421.757782,417.878326 
	C406.621307,417.878326 391.556671,417.878326 375.823792,417.878326 
	C375.823792,394.338684 375.823792,370.919342 375.823792,346.999939 
z"/>
<path fill="#FFFEFC" opacity="1.000000" stroke="none" 
	d="
M381.168640,129.155731 
	C394.781036,129.155670 407.910309,129.155670 421.440338,129.155670 
	C421.440338,134.050827 421.440338,138.593246 421.440338,143.655884 
	C413.158020,143.655884 404.914978,143.655884 396.343262,143.655884 
	C396.343262,154.222412 396.343262,164.282120 396.343262,174.901886 
	C402.875153,174.901886 409.433899,174.901886 416.233948,174.901886 
	C416.233948,179.875092 416.233948,184.290894 416.233948,189.153290 
	C409.515198,189.153290 403.081787,189.153290 396.332306,189.153290 
	C396.332306,201.165695 396.332306,212.738388 396.332306,224.905640 
	C404.578644,224.905640 412.958557,224.905640 421.749878,224.905640 
	C421.749878,229.845779 421.749878,234.203156 421.749878,238.870178 
	C406.635590,238.870178 391.577850,238.870178 376.173218,238.870178 
	C376.173218,202.435471 376.173218,166.095810 376.173218,129.438644 
	C377.781464,129.337845 379.233459,129.246826 381.168640,129.155731 
z"/>
<path fill="#FFFEFC" opacity="1.000000" stroke="none" 
	d="
M1174.828247,134.164322 
	C1174.914429,132.379959 1175.000488,131.076996 1175.106323,129.474487 
	C1190.366455,129.474487 1205.424316,129.474487 1220.743896,129.474487 
	C1220.743896,134.138565 1220.743896,138.582962 1220.743896,143.635498 
	C1212.394531,143.635498 1204.000366,143.635498 1195.312500,143.635498 
	C1195.312500,154.302521 1195.312500,164.368790 1195.312500,174.850754 
	C1201.848633,174.850754 1208.287964,174.850754 1215.124878,174.850754 
	C1215.124878,179.639954 1215.124878,184.023743 1215.124878,189.075531 
	C1208.582153,189.075531 1202.034424,189.075531 1195.258423,189.075531 
	C1195.258423,201.316513 1195.258423,212.904510 1195.258423,225.080109 
	C1203.762695,225.080109 1212.160522,225.080109 1220.855835,225.080109 
	C1220.855835,229.909668 1220.855835,234.161316 1220.855835,238.795654 
	C1205.775879,238.795654 1190.703857,238.795654 1174.828125,238.795654 
	C1174.828125,204.141922 1174.828125,169.393829 1174.828247,134.164322 
z"/>
<path fill="#FFFCF5" opacity="1.000000" stroke="none" 
	d="
M449.162903,418.204895 
	C446.547272,418.204742 444.397858,418.204742 441.573181,418.204742 
	C441.573181,386.699951 441.573181,355.503418 441.573181,323.727264 
	C435.164276,323.727264 429.418884,323.727264 423.331238,323.727264 
	C423.331238,318.435211 423.331238,313.724670 423.331238,308.722931 
	C441.869446,308.722931 460.300964,308.722931 479.148193,308.722931 
	C479.148193,313.549530 479.148193,318.245453 479.148193,323.430664 
	C473.505524,323.430664 468.067139,323.430664 462.069916,323.430664 
	C462.069916,355.152863 462.069916,386.399109 462.069916,418.205017 
	C457.552643,418.205017 453.590851,418.205017 449.162903,418.204895 
z"/>
<path fill="#FFFEFA" opacity="1.000000" stroke="none" 
	d="
M999.460938,314.206604 
	C999.461121,312.277039 999.461121,310.798157 999.461121,308.890350 
	C1018.328003,308.890350 1036.833740,308.890350 1055.596313,308.890350 
	C1055.596313,313.673981 1055.596313,318.259979 1055.596313,323.378052 
	C1049.853638,323.378052 1044.255493,323.378052 1038.148926,323.378052 
	C1038.148926,355.103790 1038.148926,386.305634 1038.148926,417.840820 
	C1031.256104,417.840820 1024.875122,417.840820 1017.876160,417.840820 
	C1017.876160,386.582367 1017.876160,355.403534 1017.876160,323.599396 
	C1011.553101,323.599396 1005.825806,323.599396 999.460754,323.599396 
	C999.460754,320.204529 999.460754,317.430939 999.460938,314.206604 
z"/>
<path fill="#FFFCF5" opacity="1.000000" stroke="none" 
	d="
M911.856628,597.562500 
	C898.600769,597.562317 885.827515,597.562317 872.749329,597.562317 
	C872.749329,560.727539 872.749329,524.520752 872.749329,488.054169 
	C879.410889,488.054169 885.842163,488.054169 892.852783,488.054169 
	C892.852783,519.752075 892.852783,551.293030 892.852783,583.434937 
	C901.821838,583.434937 910.227295,583.434937 918.819519,583.434937 
	C918.819519,588.330200 918.819519,592.618774 918.819519,597.562622 
	C916.575806,597.562622 914.457520,597.562622 911.856628,597.562500 
z"/>
<path fill="#FFFDF9" opacity="1.000000" stroke="none" 
	d="
M702.454224,204.999786 
	C702.454407,179.548599 702.454407,154.597443 702.454407,129.398376 
	C709.194397,129.398376 715.304138,129.398376 721.805054,129.398376 
	C721.805054,165.798035 721.805054,202.174316 721.805054,238.872711 
	C715.603149,238.872711 709.365906,238.872711 702.454041,238.872711 
	C702.454041,227.692078 702.454041,216.595932 702.454224,204.999786 
z"/>
<path fill="#FFFCF5" opacity="1.000000" stroke="none" 
	d="
M963.809326,285.249939 
	C961.941345,288.285583 960.049866,291.454163 958.881409,294.870056 
	C957.588074,298.651093 955.442322,300.115601 951.494263,299.623627 
	C948.906982,299.301147 946.247009,299.562714 942.658081,299.562714 
	C946.757263,291.218750 950.445496,283.537598 954.363770,275.975647 
	C954.806519,275.121246 956.517639,274.594086 957.688660,274.497284 
	C971.479797,273.357452 971.486633,273.384552 977.575989,285.565369 
	C979.723755,289.861633 981.843994,294.171722 984.479797,299.490540 
	C979.823059,299.490540 975.791138,299.696259 971.807678,299.347931 
	C970.793823,299.259308 969.657532,297.549652 969.055115,296.345795 
	C967.276733,292.792023 965.737488,289.118591 963.809326,285.249939 
z"/>
<path fill="#FFFDF8" opacity="1.000000" stroke="none" 
	d="
M606.195251,316.881683 
	C605.772278,322.957092 605.667725,328.629028 604.826843,334.189636 
	C604.146790,338.686218 602.219055,342.796692 597.719849,345.013824 
	C592.201172,347.733368 590.370483,346.863281 588.885925,340.761719 
	C595.415466,336.878479 596.383118,334.906464 595.804932,326.182129 
	C593.408630,326.182129 590.975769,326.182129 588.174377,326.182129 
	C588.174377,320.236237 588.174377,314.704468 588.174377,308.808960 
	C593.912842,308.808960 599.645447,308.808960 606.195496,308.808960 
	C606.195496,311.275421 606.195496,313.852783 606.195251,316.881683 
z"/>
<path fill="#FFFEFB" opacity="1.000000" stroke="none" 
	d="
M419.782410,94.362755 
	C416.000732,100.895187 411.832733,106.805740 408.789429,113.247620 
	C405.635834,119.923035 401.014313,121.583397 393.785400,119.528427 
	C396.226135,111.230904 398.660339,102.859955 401.199677,94.521034 
	C401.385132,93.911964 402.347473,93.097694 402.923035,93.117630 
	C408.581818,93.313568 414.235229,93.666168 419.782410,94.362755 
z"/>
<path fill="#FCC30C" opacity="1.000000" stroke="none" 
	d="
M819.267944,937.727173 
	C845.901855,964.831421 855.750854,996.823120 846.231995,1033.249634 
	C836.718201,1069.656860 812.678650,1093.305420 776.385254,1103.318970 
	C717.189453,1119.651855 657.062012,1075.733276 653.838440,1014.376587 
	C651.597595,971.725220 675.558411,933.882812 715.116211,917.654358 
	C717.213318,916.793945 719.416992,916.193237 722.144104,915.279602 
	C722.144104,927.137390 722.253418,938.284851 721.995422,949.423950 
	C721.965698,950.708435 720.104858,952.281311 718.732849,953.154419 
	C697.793518,966.479309 687.033447,985.504150 687.221130,1010.312500 
	C687.468140,1042.967896 714.049072,1070.581177 746.985840,1072.869873 
	C780.333984,1075.187134 810.230530,1051.528687 815.103271,1018.965759 
	C819.143188,991.968079 807.578125,967.204346 784.110413,953.136719 
	C781.576294,951.617554 780.745056,950.049622 780.781860,947.247681 
	C780.918884,936.811096 780.836609,926.371582 780.836609,915.234070 
	C795.892090,919.747131 808.149414,927.393494 819.267944,937.727173 
z"/>
<path fill="#FCC410" opacity="1.000000" stroke="none" 
	d="
M737.827209,921.000000 
	C737.827698,912.682983 737.774597,904.865540 737.843506,897.049133 
	C737.913818,889.076965 743.896362,882.924072 751.505676,882.856873 
	C758.844971,882.792053 765.371521,888.708740 765.444336,896.328064 
	C765.648010,917.614868 765.640930,938.905945 765.449402,960.192993 
	C765.382690,967.601807 758.534485,973.868408 751.471313,973.761536 
	C744.017700,973.648743 737.882568,967.275208 737.844666,959.420715 
	C737.783569,946.780762 737.827576,934.140259 737.827209,921.000000 
z"/>
<path fill="#FCC30C" opacity="1.000000" stroke="none" 
	d="
M470.809265,546.853638 
	C481.302612,547.551575 485.214264,551.321899 486.251984,561.295837 
	C488.072357,578.791931 482.437988,584.418152 464.249542,582.834351 
	C464.249542,571.145874 464.249542,559.411011 464.249542,546.852234 
	C466.190674,546.852234 468.269653,546.852234 470.809265,546.853638 
z"/>
<path fill="#FCC30C" opacity="1.000000" stroke="none" 
	d="
M478.246704,503.375336 
	C484.675537,506.994690 486.578705,513.484558 484.278412,522.840942 
	C482.678802,529.347290 479.322876,531.913025 472.011780,532.129578 
	C469.538116,532.202881 467.060425,532.141235 464.219330,532.141235 
	C464.219330,522.100525 464.219330,512.379944 464.219330,501.639282 
	C468.837891,502.173553 473.357788,502.696442 478.246704,503.375336 
z"/>
<path fill="#FCC410" opacity="1.000000" stroke="none" 
	d="
M842.976685,561.405151 
	C842.999573,562.020264 842.997559,562.186523 843.004883,562.352356 
	C843.776123,579.872314 838.421753,584.825378 820.524536,582.767639 
	C820.524536,571.114990 820.524536,559.412170 820.524536,547.693176 
	C832.668274,544.031372 840.587524,548.700378 842.976685,561.405151 
z"/>
<path fill="#FCC411" opacity="1.000000" stroke="none" 
	d="
M833.832031,531.292114 
	C829.211304,531.746033 824.977600,532.058838 820.429321,532.394897 
	C820.429321,521.985229 820.429321,512.389954 820.429321,502.803162 
	C829.376587,500.370361 838.342468,503.044464 840.590149,508.793732 
	C843.836121,517.096130 840.821655,527.674377 833.832031,531.292114 
z"/>
<path fill="#FCC410" opacity="1.000000" stroke="none" 
	d="
M540.914307,323.001678 
	C552.068298,323.428375 555.156921,326.010803 555.330933,336.807739 
	C555.620605,354.782684 555.508606,372.773651 555.089355,390.746765 
	C554.852051,400.920746 551.170288,403.977692 541.123352,403.998108 
	C539.635010,404.001129 538.146729,403.998505 536.250427,403.998505 
	C536.250427,377.082581 536.250427,350.384705 536.250427,323.284149 
	C537.582153,323.194641 539.018311,323.098114 540.914307,323.001678 
z"/>
<path fill="#FCC410" opacity="1.000000" stroke="none" 
	d="
M597.210938,164.911957 
	C594.895386,174.264297 588.730957,177.477570 577.111450,175.573608 
	C577.111450,165.037857 577.111450,154.455658 577.111450,142.746826 
	C581.874451,143.419342 586.508362,143.552856 590.811829,144.813950 
	C596.112549,146.367279 597.058472,151.309967 597.438782,156.078613 
	C597.660950,158.865448 597.352234,161.694595 597.210938,164.911957 
z"/>
<path fill="#FCC515" opacity="1.000000" stroke="none" 
	d="
M609.458435,515.015747 
	C609.458618,510.544830 609.458618,506.570496 609.458618,502.043549 
	C616.057434,501.937439 622.502136,500.337158 627.388855,505.915100 
	C631.044922,510.088348 631.480957,522.935425 628.180908,528.440491 
	C623.982727,535.444031 616.911987,534.159424 609.458252,534.554565 
	C609.458252,527.994812 609.458252,521.753601 609.458435,515.015747 
z"/>
<path fill="#FCC515" opacity="1.000000" stroke="none" 
	d="
M1142.254395,167.979065 
	C1138.718994,175.114609 1133.041016,177.290558 1122.819336,175.641327 
	C1122.819336,164.958008 1122.819336,154.243729 1122.819336,143.647049 
	C1123.495728,143.427902 1123.804688,143.256195 1124.123779,143.234680 
	C1140.578735,142.124512 1146.551514,150.100601 1142.254395,167.979065 
z"/>
<path fill="#FCC30C" opacity="1.000000" stroke="none" 
	d="
M536.017456,577.502747 
	C535.563171,575.150085 534.921570,573.195984 534.913757,571.239319 
	C534.837097,552.093079 534.733154,532.945190 534.921326,513.800476 
	C535.014465,504.318085 539.815063,499.978607 548.377930,501.901886 
	C551.117371,502.517181 553.878784,505.255371 555.540466,507.748505 
	C556.876953,509.753723 556.919983,512.852173 556.935608,515.469177 
	C557.043152,533.449768 557.009521,551.431335 556.966492,569.412476 
	C556.962219,571.225342 556.648254,573.045227 556.384460,574.848145 
	C555.643738,579.909912 552.785889,583.081360 547.670410,583.685913 
	C542.675232,584.276184 538.387695,582.987671 536.017456,577.502747 
z"/>
<path fill="#FCC30C" opacity="1.000000" stroke="none" 
	d="
M879.005737,371.999939 
	C879.013000,359.188354 878.832703,346.872833 879.087280,334.566345 
	C879.287964,324.865784 885.062195,320.363983 893.616211,322.689423 
	C898.492554,324.015076 900.913330,327.394287 901.032410,334.267426 
	C901.242859,346.408752 901.155945,358.555756 901.145508,370.700317 
	C901.138916,378.351990 901.329102,386.019165 900.911621,393.650940 
	C900.487061,401.412140 896.098389,405.090942 888.992371,404.518433 
	C884.109070,404.125000 880.401672,401.853882 879.968262,396.855530 
	C879.267090,388.769989 879.289124,380.621735 879.005737,371.999939 
z"/>
<path fill="#FCC411" opacity="1.000000" stroke="none" 
	d="
M681.829834,541.000000 
	C681.829834,527.896423 681.829834,515.292847 681.829834,502.356201 
	C685.365906,502.356201 688.348022,502.074890 691.257935,502.413940 
	C697.600403,503.153015 700.918030,505.993835 701.006653,512.335266 
	C701.290405,532.629517 701.230225,552.933777 700.906067,573.227905 
	C700.812073,579.113525 697.238831,582.255737 691.382690,582.919617 
	C688.456726,583.251343 685.462097,582.977295 681.829895,582.977295 
	C681.829895,569.015869 681.829895,555.257935 681.829834,541.000000 
z"/>
<path fill="#FCC411" opacity="1.000000" stroke="none" 
	d="
M919.305176,175.753326 
	C915.907349,175.835739 912.932190,175.835739 909.555908,175.835739 
	C909.555908,165.167587 909.555908,154.485138 909.555908,143.823639 
	C920.355774,141.608368 927.868713,144.614853 929.396912,152.505722 
	C932.026672,166.084549 928.827209,174.159576 919.305176,175.753326 
z"/>
<path fill="#FCC411" opacity="1.000000" stroke="none" 
	d="
M980.698364,215.091415 
	C980.544067,194.690613 980.211548,174.702286 980.567627,154.726212 
	C980.705444,146.990921 983.646667,144.084610 989.260254,143.169754 
	C996.357422,142.013123 1001.267029,145.197723 1002.020874,152.331802 
	C1002.753479,159.264862 1002.834106,166.292099 1002.797241,173.275848 
	C1002.722534,187.427902 1002.748901,201.598587 1001.990845,215.721710 
	C1001.577576,223.422562 995.631226,226.874725 988.121704,225.055450 
	C983.099365,223.838684 981.326416,220.157257 980.698364,215.091415 
z"/>
<path fill="#FCC515" opacity="1.000000" stroke="none" 
	d="
M758.027954,524.108887 
	C758.452026,521.575012 758.831421,519.456177 759.210876,517.337402 
	C759.456787,517.308044 759.702759,517.278748 759.948669,517.249451 
	C762.179016,530.929138 764.409424,544.608765 766.690430,558.598938 
	C761.810303,558.598938 757.557373,558.598938 752.473633,558.598938 
	C754.349487,546.997681 756.166443,535.760803 758.027954,524.108887 
z"/>
<path fill="#FCC515" opacity="1.000000" stroke="none" 
	d="
M396.685608,553.562805 
	C398.627228,541.503174 400.491943,529.869446 402.356659,518.235718 
	C402.723907,518.195679 403.091156,518.155640 403.458374,518.115601 
	C405.658600,531.479126 407.858826,544.842712 410.118134,558.565063 
	C405.235107,558.565063 400.823334,558.565063 395.963257,558.565063 
	C396.204987,556.851135 396.406860,555.419922 396.685608,553.562805 
z"/>
<path fill="#FCC30C" opacity="1.000000" stroke="none" 
	d="
M853.376770,144.019073 
	C859.324951,144.977905 861.690186,148.631363 862.024353,153.825470 
	C862.237122,157.133484 862.320862,160.476196 862.106262,163.780212 
	C861.537170,172.542160 858.424927,175.508591 849.604187,175.935318 
	C847.290833,176.047226 844.967529,175.952194 842.250732,175.952194 
	C842.250732,165.374878 842.250732,154.989212 842.250732,143.978699 
	C845.765442,143.978699 849.354431,143.978699 853.376770,144.019073 
z"/>
<path fill="#FCC410" opacity="1.000000" stroke="none" 
	d="
M1054.994507,164.976410 
	C1054.994507,157.850067 1054.994507,151.220642 1054.994507,143.766571 
	C1061.338135,144.515732 1068.563965,141.271759 1072.793091,147.374954 
	C1077.734985,154.507187 1077.181519,163.298401 1073.581421,170.743988 
	C1070.029297,178.090454 1062.102173,175.498672 1054.994507,176.099457 
	C1054.994507,172.321121 1054.994507,168.897232 1054.994507,164.976410 
z"/>
</svg>