<svg xmlns="http://www.w3.org/2000/svg" width="55" height="55" viewBox="0 0 55 55" fill="none">
<circle cx="27.5" cy="27.5" r="27.5" fill="#7BA71C"/>
<path d="M31.5088 40.667C31.2225 40.6678 30.9396 40.6129 30.6809 40.5061C30.4222 40.3994 30.1942 40.2437 30.0138 40.0503L20.7563 30.0503C20.4744 29.7521 20.3203 29.378 20.3203 28.992C20.3203 28.6059 20.4744 28.2319 20.7563 27.9336L30.3397 17.9336C30.665 17.5933 31.1325 17.3792 31.6393 17.3386C32.1461 17.298 32.6507 17.4341 33.0422 17.717C33.4336 17.9999 33.6797 18.4064 33.7265 18.8471C33.7732 19.2878 33.6167 19.7266 33.2913 20.067L24.7238 29.0003L33.0038 37.9336C33.2382 38.1783 33.3871 38.4762 33.4329 38.7921C33.4786 39.108 33.4194 39.4287 33.2621 39.7163C33.1048 40.0038 32.8561 40.2462 32.5454 40.4146C32.2347 40.5831 31.875 40.6707 31.5088 40.667Z" fill="white"/>
</svg>