<svg xmlns="http://www.w3.org/2000/svg" width="55" height="55" viewBox="0 0 55 55" fill="none">
<circle cx="27.5" cy="27.5" r="27.5" transform="rotate(-180 27.5 27.5)" fill="#7BA71C"/>
<path d="M23.4912 14.333C23.7775 14.3322 24.0604 14.3871 24.3191 14.4939C24.5778 14.6006 24.8058 14.7563 24.9862 14.9497L34.2437 24.9497C34.5256 25.2479 34.6797 25.622 34.6797 26.008C34.6797 26.3941 34.5256 26.7681 34.2437 27.0664L24.6603 37.0664C24.335 37.4067 23.8675 37.6208 23.3607 37.6614C22.8539 37.702 22.3493 37.5659 21.9578 37.283C21.5664 37.0001 21.3203 36.5936 21.2735 36.1529C21.2268 35.7122 21.3833 35.2734 21.7087 34.933L30.2762 25.9997L21.9962 17.0664C21.7618 16.8217 21.6129 16.5238 21.5671 16.2079C21.5214 15.892 21.5806 15.5713 21.7379 15.2837C21.8952 14.9962 22.1439 14.7538 22.4546 14.5854C22.7653 14.4169 23.125 14.3293 23.4912 14.333Z" fill="white"/>
</svg>