<svg width="339" height="254" viewBox="0 0 339 254" fill="none" xmlns="http://www.w3.org/2000/svg">
<path d="M126.841 152.799C99.1157 129.561 88.3957 127.216 85.2595 115.631C80.8669 99.4055 83.0401 80.8851 108.559 64.7475C128.868 51.904 157.222 50.9863 161.879 44.0531L157.363 2.35619C157.363 2.35619 115.726 9.90467 90.1479 23.0121C61.1174 37.8883 46.0453 59.9417 32.0993 78.4303C18.1532 96.9189 1.82722 138.559 1.7887 152.453C1.75019 166.347 -2.90705 175.597 8.59482 203.418C20.0967 231.24 35.1289 238.227 40.9066 242.877C46.6843 247.527 68.0062 253.882 89.5123 252.275C111.018 250.668 135.866 238.507 142.872 217.684C149.877 196.861 137.926 162.09 126.841 152.799Z" fill="#8BBC1F" fill-opacity="0.1"/>
<path d="M303.304 151.365C275.579 128.127 264.859 125.781 261.722 114.197C257.33 97.9709 259.503 79.4505 285.021 63.3129C305.331 50.4694 333.685 49.5518 338.342 42.6185L333.826 0.921617C333.826 0.921617 292.189 8.4701 266.611 21.5775C237.58 36.4537 222.508 58.5072 208.562 76.9957C194.616 95.4843 178.29 137.124 178.252 151.018C178.213 164.912 173.556 174.162 185.058 201.984C196.56 229.805 211.592 236.793 217.369 241.443C223.147 246.093 244.469 252.448 265.975 250.841C287.481 249.234 312.329 237.072 319.334 216.249C326.34 195.426 314.389 160.656 303.304 151.365Z" fill="#8BBC1F" fill-opacity="0.1"/>
</svg>
