<svg width="41" height="36" viewBox="0 0 41 36" fill="none" xmlns="http://www.w3.org/2000/svg">
<g id="Calque-1">
<g id="Group">
<path id="Vector" d="M6.74219 8.53691C6.74219 6.92278 7.98185 5.61426 9.51105 5.61426C11.0402 5.61426 12.2799 6.92278 12.2799 8.53691C12.2799 10.1511 11.0402 11.4596 9.51105 11.4596C7.98185 11.4596 6.74219 10.1511 6.74219 8.53691Z" stroke="black" stroke-width="0.7" stroke-miterlimit="10" stroke-linejoin="round"/>
<path id="Vector_2" d="M29.8008 5.6144C29.8008 3.06593 31.8141 1 34.2975 1C36.7809 1 38.7942 3.06593 38.7942 5.6144C38.7942 8.1629 36.7809 10.2288 34.2975 10.2288C31.8141 10.2288 29.8008 8.1629 29.8008 5.6144Z" stroke="black" stroke-width="0.7" stroke-miterlimit="10" stroke-linejoin="round"/>
<path id="Vector_3" d="M1.13577 26.2411C0.580727 24.1847 1.77772 22.0568 3.80934 21.4883C5.84094 20.9198 7.93782 22.1259 8.49289 24.1824C9.04794 26.2388 7.85095 28.3666 5.81932 28.9352C3.78771 29.5038 1.69082 28.2975 1.13577 26.2411Z" stroke="black" stroke-width="0.7" stroke-miterlimit="10" stroke-linejoin="round"/>
<path id="Vector_4" d="M19.1172 32.8944C19.1172 31.3889 20.3997 30.1689 21.9818 30.1689C22.5345 30.1689 23.0508 30.3178 23.4885 30.5759C24.3035 31.0563 24.8463 31.915 24.8463 32.8944C24.8463 34.3995 23.5638 35.6195 21.9818 35.6195C20.3997 35.6195 19.1172 34.3995 19.1172 32.8944Z" stroke="black" stroke-width="0.7" stroke-miterlimit="10" stroke-linejoin="round"/>
<path id="Vector_5" d="M14.2586 21.3477L8.62891 24.1554" stroke="black" stroke-width="0.7" stroke-miterlimit="10" stroke-linejoin="round"/>
<path id="Vector_6" d="M21.9805 25.8525V30.1695" stroke="black" stroke-width="0.7" stroke-miterlimit="10" stroke-linejoin="round"/>
<path id="Vector_7" d="M29.6445 20.5107L35.1171 23.4515" stroke="black" stroke-width="0.7" stroke-miterlimit="10" stroke-linejoin="round"/>
<path id="Vector_8" d="M36.0631 27.3857C34.693 26.706 34.1361 24.998 34.8192 23.5706C35.5022 22.1429 37.1664 21.5365 38.5365 22.2161C39.9063 22.8957 40.4635 24.6037 39.7804 26.0314C39.0974 27.4589 37.4332 28.0654 36.0631 27.3857Z" stroke="black" stroke-width="0.7" stroke-miterlimit="10" stroke-linejoin="round"/>
<path id="Vector_9" d="M28.0586 12.1661L31.2318 8.85156" stroke="black" stroke-width="0.7" stroke-miterlimit="10" stroke-linejoin="round"/>
<path id="Vector_10" d="M14.9246 12.6765L11.7773 10.2432" stroke="black" stroke-width="0.7" stroke-miterlimit="10" stroke-linejoin="round"/>
<path id="Vector_11" d="M20.0401 9.06861C19.3872 9.19833 18.7661 9.40101 18.1769 9.67666C17.5877 9.95234 17.094 10.2361 16.6959 10.528C16.2978 10.8198 15.9474 11.1198 15.6449 11.4279C15.3423 11.736 15.0158 12.1495 14.6655 12.6684C14.3152 13.1872 14.0365 13.698 13.8294 14.2007C13.6224 14.7033 13.4552 15.2952 13.3278 15.9762C13.2004 16.6573 13.1367 17.2005 13.1367 17.6058C13.1367 18.0112 13.1686 18.4409 13.2323 18.8949C13.296 19.349 13.4632 19.9408 13.7339 20.6705C14.0046 21.4002 14.2753 21.9677 14.5461 22.3731C14.8168 22.7784 14.9681 22.981 14.9999 22.981C15.0318 22.981 14.9225 22.5452 15.0614 22.2693C15.1713 22.0509 15.3343 21.8785 15.3343 21.8137C15.3343 21.7488 15.2308 21.5299 15.0238 21.157C14.8168 20.784 14.6496 20.4029 14.5222 20.0138C14.3948 19.6246 14.2992 19.2273 14.2355 18.822C14.1718 18.4166 14.14 18.0112 14.14 17.6058C14.14 17.2005 14.2037 16.6816 14.3311 16.0492C14.4585 15.4168 14.5938 14.9304 14.7371 14.5898C14.8805 14.2493 15.0477 13.9169 15.2388 13.5926C15.4299 13.2683 15.7404 12.871 16.1704 12.4008C16.6003 11.9306 16.9666 11.5819 17.2692 11.3549C17.5717 11.1279 17.8902 10.9252 18.2246 10.7469C18.5591 10.5685 18.997 10.3982 19.5384 10.2361C20.0799 10.0739 20.693 9.97665 21.3777 9.94423C22.0625 9.91179 22.7074 9.96044 23.3126 10.0902C23.9177 10.2199 24.4273 10.382 24.8413 10.5766C25.2554 10.7712 25.5977 10.9577 25.8686 11.136C26.1391 11.3144 26.5293 11.663 27.0389 12.1819C27.5485 12.7008 27.9547 13.2278 28.2571 13.7629C28.5597 14.298 28.7747 14.752 28.9021 15.1249C29.0295 15.4979 29.1251 15.8708 29.1887 16.2438C29.2525 16.6167 29.2843 17.0707 29.2843 17.6058C29.2843 18.141 29.2207 18.7004 29.0933 19.2841C28.9659 19.8678 28.7987 20.3867 28.5917 20.8408C28.3845 21.2948 28.2493 21.5542 28.1855 21.6191C28.153 21.6523 28.3482 21.9499 28.4223 22.2753C28.4928 22.5857 28.441 22.9229 28.4721 23.0297C28.5597 22.9081 28.6473 22.7866 28.7349 22.665C28.9101 22.4217 29.1091 22.0812 29.3321 21.6434C29.5551 21.2056 29.7383 20.7597 29.8815 20.3057C30.0249 19.8516 30.1282 19.43 30.1921 19.0409C30.2556 18.6517 30.2717 18.0518 30.2399 17.241C30.2078 16.4302 30.1205 15.7654 29.9771 15.2465C29.8337 14.7277 29.6982 14.3223 29.5709 14.0304C29.4435 13.7385 29.2843 13.4305 29.0933 13.1062C28.9021 12.7819 28.6713 12.4495 28.4005 12.1089C28.1297 11.7684 27.8273 11.4441 27.4927 11.136C27.1583 10.8279 26.8239 10.5604 26.4895 10.3334C26.1551 10.1064 25.7649 9.88748 25.3191 9.67666C24.8732 9.46587 24.491 9.31184 24.1725 9.21453C23.854 9.11726 23.4877 9.03619 23.0737 8.97133C22.6597 8.90647 22.2138 8.87402 21.736 8.87402C21.2583 8.87402 20.693 8.93888 20.0401 9.06861ZM20.2073 11.5982C19.6977 11.7279 19.2996 11.8657 19.0129 12.0116C18.7263 12.1576 18.4476 12.3278 18.1769 12.5224C17.9062 12.717 17.6275 12.9602 17.3408 13.2521C17.0542 13.544 16.7676 13.9331 16.4809 14.4196C16.1943 14.906 15.9952 15.3195 15.8837 15.66C15.7722 16.0006 15.6926 16.3411 15.6449 16.6816C15.5971 17.0221 15.5891 17.4599 15.621 17.995C15.6369 18.2625 15.6528 18.5301 15.6688 18.7977C15.7723 18.6923 16.1895 18.4857 16.2931 18.3803C16.5001 18.1695 16.2898 18.0031 16.2898 17.6788C16.2898 17.3545 16.3296 16.9816 16.4092 16.56C16.4889 16.1384 16.5765 15.806 16.672 15.5627C16.7676 15.3195 16.9347 15.0114 17.1736 14.6385C17.4125 14.2655 17.6434 13.9656 17.8664 13.7385C18.0893 13.5115 18.3361 13.3007 18.6068 13.1062C18.8776 12.9116 19.1483 12.7494 19.419 12.6197C19.6897 12.49 20.0241 12.3765 20.4223 12.2792C20.8204 12.1819 21.2503 12.1333 21.7122 12.1333C22.174 12.1333 22.5562 12.1657 22.8587 12.2305C23.1613 12.2954 23.5276 12.4251 23.9575 12.6197C24.3875 12.8143 24.7538 13.0332 25.0563 13.2764C25.359 13.5196 25.6138 13.7629 25.8208 14.0061C26.0277 14.2493 26.2427 14.5736 26.4657 14.979C26.6885 15.3844 26.8479 15.7573 26.9433 16.0978C27.0389 16.4384 27.0947 16.8681 27.1105 17.3869C27.1265 17.9058 26.8677 18.3104 27.0747 18.5212C27.1783 18.6266 27.6521 18.6923 27.7555 18.7977C27.7715 18.4977 27.7873 18.1977 27.8033 17.8977C27.8351 17.2978 27.8193 16.8194 27.7555 16.4627C27.6919 16.1059 27.5645 15.6925 27.3733 15.2222C27.1823 14.752 26.9593 14.3385 26.7045 13.9818C26.4497 13.6251 26.1314 13.2764 25.7492 12.9359C25.367 12.5954 24.9767 12.3197 24.5786 12.1089C24.1805 11.8981 23.7346 11.7279 23.2409 11.5982C22.7473 11.4684 22.2456 11.4036 21.736 11.4036C21.2264 11.4036 20.7169 11.4684 20.2073 11.5982ZM20.9 16.8275C20.5656 16.9735 20.2869 17.1924 20.064 17.4842C19.841 17.7761 19.7056 18.0112 19.6579 18.1896C19.6101 18.368 19.5942 18.6112 19.6101 18.9193C19.626 19.2273 19.6738 19.4787 19.7534 19.6733C19.833 19.8678 19.9764 20.0705 20.1834 20.2813C20.3904 20.4921 20.4939 20.6218 20.4939 20.6705C20.4939 20.7191 20.3984 20.7921 20.2073 20.8894C20.0162 20.9867 19.8171 21.157 19.6101 21.4002C19.4031 21.6434 19.1801 21.6758 18.9413 21.4975C18.8218 21.4083 18.7024 21.3191 18.583 21.2299C18.6546 21.1488 18.7263 21.0678 18.7979 20.9867C18.9413 20.8245 19.0448 20.6299 19.1085 20.4029C19.1722 20.1759 19.1881 19.957 19.1562 19.7462C19.1244 19.5354 19.0766 19.3733 19.0129 19.2598C18.9492 19.1463 18.8457 19.0247 18.7024 18.8949C18.5591 18.7652 18.4078 18.6679 18.2485 18.6031C18.0893 18.5382 17.8664 18.522 17.5797 18.5544C17.2931 18.5868 17.0621 18.6679 16.887 18.7977C16.7118 18.9274 16.5765 19.0814 16.4809 19.2598C16.3854 19.4381 16.3296 19.6408 16.3137 19.8678C16.2978 20.0948 16.3137 20.2894 16.3615 20.4516C16.4092 20.6137 16.5128 20.784 16.672 20.9624C16.7516 21.0515 16.8313 21.1407 16.9109 21.2299C16.8153 21.2948 16.7198 21.3596 16.6242 21.4245C16.4331 21.5542 16.2659 21.7326 16.1226 21.9596C15.9793 22.1866 15.8917 22.3569 15.8599 22.4704C15.828 22.584 15.82 22.8029 15.8359 23.1271C15.8519 23.4515 15.9235 23.7351 16.0509 23.9783C16.1783 24.2217 16.3057 24.4001 16.4331 24.5135C16.5605 24.6269 16.887 24.8376 17.4125 25.1458C17.938 25.4539 18.3998 25.681 18.7979 25.827C19.1961 25.9728 19.6658 26.0943 20.2073 26.1917C20.7487 26.289 21.2583 26.3377 21.736 26.3377C22.2138 26.3377 22.795 26.2646 23.4798 26.1188C24.1646 25.9728 24.7538 25.7865 25.2474 25.5594C25.7412 25.3323 26.1471 25.1134 26.4657 24.9026C26.7841 24.6919 27.0389 24.4566 27.2301 24.1972C27.4211 23.9378 27.5405 23.6946 27.5883 23.4675C27.6361 23.2405 27.6361 22.981 27.5883 22.6892C27.5405 22.3974 27.4689 22.1704 27.3733 22.0082C27.2779 21.8461 27.1185 21.6839 26.8957 21.5218C26.6727 21.3596 26.6487 21.1488 26.8239 20.8894C26.9991 20.6299 27.1027 20.4191 27.1345 20.257C27.1663 20.0948 27.1663 19.9246 27.1345 19.7462C27.1027 19.5679 27.0549 19.4138 26.9911 19.2841C26.9275 19.1544 26.7921 19.0085 26.5851 18.8463C26.3781 18.6841 26.1314 18.5868 25.8445 18.5544C25.5579 18.522 25.335 18.5382 25.1758 18.6031C25.0165 18.6679 24.8573 18.7814 24.698 18.9436C24.5388 19.1057 24.4273 19.276 24.3636 19.4544C24.2999 19.6327 24.2681 19.8111 24.2681 19.9895C24.2681 20.1678 24.292 20.33 24.3397 20.4759C24.3875 20.6218 24.491 20.784 24.6502 20.9624C24.7299 21.0515 24.8095 21.1407 24.8891 21.2299C24.7776 21.3191 24.6662 21.4083 24.5547 21.4975C24.3317 21.6758 24.1327 21.6596 23.9575 21.4488C23.7824 21.238 23.5753 21.0597 23.3365 20.9137C23.217 20.8408 23.0976 20.7678 22.9782 20.6948C23.0737 20.5894 23.1693 20.484 23.2648 20.3786C23.4559 20.1678 23.6072 19.9327 23.7187 19.6733C23.8301 19.4138 23.8859 19.1301 23.8859 18.822C23.8859 18.5139 23.854 18.2625 23.7903 18.068C23.7266 17.8734 23.5594 17.6302 23.2887 17.3383C23.018 17.0464 22.7473 16.8518 22.4765 16.7545C22.2058 16.6573 21.959 16.6086 21.736 16.6086C21.5131 16.6086 21.2344 16.6816 20.9 16.8275Z" fill="black"/>
</g>
</g>
</svg>
