<svg width="34" height="37" viewBox="0 0 34 37" fill="none" xmlns="http://www.w3.org/2000/svg">
<g id="Calque-1">
<path id="Vector" d="M23.6439 25.7853V29.758H5.75V4.87207H23.6439V15.0897" stroke="black" stroke-width="0.7" stroke-miterlimit="10" stroke-linejoin="round"/>
<path id="Vector_2" d="M17.1875 20.8543C17.1875 18.4953 18.9859 16.583 21.2044 16.583C23.4227 16.583 25.2213 18.4953 25.2213 20.8543C25.2213 23.2133 23.4227 25.1256 21.2044 25.1256C18.9859 25.1256 17.1875 23.2133 17.1875 20.8543Z" stroke="black" stroke-width="0.7" stroke-miterlimit="10" stroke-linejoin="round"/>
<path id="Vector_3" d="M26.5151 25.3875L31.4945 30.1927C31.4981 30.1964 31.5012 30.1993 31.5012 30.1993L29.8396 32.0121C29.8359 32.016 29.8331 32.0191 29.8331 32.0191L25.4602 26.5247C25.3287 26.3596 25.3378 26.1008 25.4804 25.947L25.9845 25.4035C26.1273 25.2496 26.3648 25.2424 26.5151 25.3875Z" stroke="black" stroke-width="0.7" stroke-miterlimit="10" stroke-linejoin="round"/>
<path id="Vector_4" d="M25.6761 25.6174L24.1836 23.9971" stroke="black" stroke-width="0.7" stroke-miterlimit="10" stroke-linejoin="round"/>
<path id="Vector_5" d="M9.52344 15.0839L12.9853 12.4051L16.5955 13.3365L20.397 8.77539" stroke="black" stroke-width="0.7" stroke-miterlimit="10" stroke-linejoin="round"/>
<path id="Vector_6" d="M8.36328 19.3906H16.0495" stroke="black" stroke-width="0.7" stroke-miterlimit="10" stroke-linejoin="round"/>
<path id="Vector_7" d="M8.36328 22.5557H15.0383" stroke="black" stroke-width="0.7" stroke-miterlimit="10" stroke-linejoin="round"/>
<path id="Vector_8" d="M8.36328 25.2832H13.4666" stroke="black" stroke-width="0.7" stroke-miterlimit="10" stroke-linejoin="round"/>
<path id="Vector_9" d="M8.82812 15.0851C8.82812 14.6714 9.1398 14.3359 9.52427 14.3359C9.90875 14.3359 10.2204 14.6714 10.2204 15.0851C10.2204 15.4989 9.90875 15.8343 9.52427 15.8343C9.1398 15.8343 8.82812 15.4989 8.82812 15.0851Z" fill="white"/>
<path id="Vector_10" d="M12.207 12.6789C12.207 12.2651 12.5187 11.9297 12.9032 11.9297C13.2877 11.9297 13.5993 12.2651 13.5993 12.6789C13.5993 13.0926 13.2877 13.4281 12.9032 13.4281C12.5187 13.4281 12.207 13.0926 12.207 12.6789Z" fill="white"/>
<path id="Vector_11" d="M15.7969 13.4279C15.7969 13.0141 16.1086 12.6787 16.493 12.6787C16.8775 12.6787 17.1892 13.0141 17.1892 13.4279C17.1892 13.8417 16.8775 14.1771 16.493 14.1771C16.1086 14.1771 15.7969 13.8417 15.7969 13.4279Z" fill="white"/>
<path id="Vector_12" d="M19.6992 8.77555C19.6992 8.36178 20.0109 8.02637 20.3955 8.02637C20.7798 8.02637 21.0915 8.36178 21.0915 8.77555C21.0915 9.18932 20.7798 9.52473 20.3955 9.52473C20.0109 9.52473 19.6992 9.18932 19.6992 8.77555Z" fill="white"/>
</g>
</svg>
