<svg width="38" height="29" viewBox="0 0 38 29" fill="none" xmlns="http://www.w3.org/2000/svg">
<g id="Group 55">
<path id="Vector 4" d="M22.5661 11.4469C25.7518 14.102 26.9815 14.3674 27.3447 15.6945C27.8534 17.5532 27.6102 19.677 24.6899 21.535C22.3658 23.0138 19.1157 23.128 18.584 23.9243L19.1149 28.7029C19.1149 28.7029 23.8857 27.8243 26.8137 26.3136C30.137 24.599 31.8578 22.0661 33.4506 19.9422C35.0435 17.8183 36.9018 13.0396 36.9018 11.4469C36.9018 9.8541 37.4328 8.79219 36.1054 5.60648C34.778 2.42077 33.0525 1.62454 32.3887 1.0933C31.7249 0.562057 29.2786 -0.159651 26.8137 0.0313921C24.3489 0.222436 21.5042 1.62451 20.7078 4.01382C19.9114 6.40313 21.2924 10.3853 22.5661 11.4469Z" fill="white"/>
<path id="Vector 5" d="M3.98214 11.7437C7.16785 14.3988 8.3975 14.6643 8.76071 15.9914C9.26942 17.85 9.02619 19.9738 6.10595 21.8319C3.78182 23.3107 0.531701 23.4249 0 24.2212L0.530952 28.9998C0.530952 28.9998 5.30167 28.1212 8.22976 26.6105C11.553 24.8959 13.2738 22.363 14.8667 20.2391C16.4595 18.1152 18.3178 13.3365 18.3178 11.7437C18.3178 10.151 18.8488 9.08907 17.5214 5.90336C16.194 2.71764 14.4686 1.92141 13.8048 1.39017C13.1409 0.858932 10.6946 0.137224 8.22976 0.328267C5.76487 0.519311 2.92024 1.92138 2.12381 4.3107C1.32738 6.70001 2.70844 10.6822 3.98214 11.7437Z" fill="white"/>
</g>
</svg>
