<svg width="40" height="31" viewBox="0 0 40 31" fill="none" xmlns="http://www.w3.org/2000/svg">
<g >
<path d="M14.994 18.317C11.9452 15.5058 10.7303 15.1791 10.434 13.8356C10.0189 11.9538 10.3681 9.84478 13.3777 8.13515C15.7729 6.7745 19.0246 6.82305 19.5955 6.05437L19.3043 1.25522C19.3043 1.25522 14.4956 1.89398 11.4956 3.2563C8.09075 4.80246 6.24536 7.24611 4.54823 9.28765C2.8511 11.3292 0.755991 16.0089 0.676295 17.5997C0.5966 19.1904 0.013179 20.2244 1.1795 23.4726C2.34581 26.7207 4.02928 27.6023 4.66568 28.1661C5.30208 28.7299 7.7092 29.5731 10.1806 29.5056C12.6519 29.4381 15.5631 28.1801 16.4781 25.8337C17.3931 23.4872 16.213 19.4409 14.994 18.317Z" fill="white"/>
<path d="M34.83 18.9498C31.7811 16.1386 30.5663 15.8119 30.2699 14.4684C29.8549 12.5866 30.2041 10.4776 33.2136 8.76796C35.6088 7.40731 38.8606 7.45587 39.4315 6.68718L39.1403 1.88804C39.1403 1.88804 34.3316 2.52679 31.3316 3.88911C27.9267 5.43527 26.0813 7.87892 24.3842 9.92047C22.687 11.962 20.5919 16.6417 20.5122 18.2325C20.4325 19.8232 19.8491 20.8572 21.0154 24.1054C22.1818 27.3535 23.8652 28.2351 24.5016 28.7989C25.138 29.3627 27.5451 30.2059 30.0165 30.1384C32.4879 30.0709 35.3991 28.813 36.3141 26.4665C37.229 24.12 36.049 20.0737 34.83 18.9498Z" fill="white"/>
</g>
</svg>
