<svg width="195" height="195" viewBox="0 0 195 195" fill="none" xmlns="http://www.w3.org/2000/svg">
<g id="icons-money">
<path id="Vector" d="M132.387 17.8705C129.164 18.0223 126.238 18.3183 123.582 18.7608C118.048 19.6833 113.765 20.7249 110.87 21.8275C107.741 23.0197 104.915 24.3415 102.462 25.7845C100.192 27.1196 97.934 28.9813 95.6357 31.4233C93.3785 33.8215 92.0075 36.0041 91.3324 37.804C91.214 38.1197 90.7686 40.4097 90.541 43.9374C90.3129 47.4733 90.1948 52.328 90.1948 58.3805C90.1948 64.4934 90.1948 70.6183 90.1948 76.7311C90.1948 79.5476 87.6209 81.6524 84.8528 81.1334C82.3124 80.6571 79.776 80.1753 77.2356 79.6989C72.4216 78.7964 67.592 78.3635 62.7925 78.3635C58.101 78.3635 53.0697 78.7736 47.7062 79.6495C47.6271 79.6627 47.0929 79.7847 47.0138 79.7978C41.7338 80.7019 37.0122 81.9903 32.8674 83.7055C28.481 85.5206 25.2043 87.3383 23.1233 88.899C20.7854 90.6524 19.0414 92.2392 17.9297 93.598C16.8689 94.8947 15.9233 96.6236 15.1104 98.7915C15.1104 98.7915 14.5521 102.545 14.319 108.684C14.0846 114.857 13.9727 123.561 13.9727 134.801C13.9727 146.063 13.9928 154.703 14.0716 160.62C14.1482 166.368 14.319 169.474 14.319 169.474C14.442 169.966 15.0026 171.321 16.149 173.184C17.0012 174.569 18.9848 176.815 22.1341 179.515C25.0377 182.003 28.6842 184.143 33.0653 185.896C33.1974 185.948 33.3291 185.981 33.362 185.994C37.7406 187.722 42.4007 189.067 47.4095 189.951C52.5626 190.861 57.6278 191.287 62.5946 191.287C67.6526 191.287 72.2432 190.997 76.4442 190.397C80.66 189.794 84.6525 188.863 88.3646 187.676C92.0606 186.494 95.4149 185.061 98.455 183.323C101.551 181.554 103.869 179.838 105.38 178.328C107.065 176.642 108.418 174.919 109.485 173.184C110.274 171.902 110.943 169.876 111.216 167C111.375 165.333 111.503 163.673 111.662 162.005C111.91 159.391 114.369 157.543 116.954 157.999C119.653 158.475 122.317 158.956 125.017 159.433C130.192 160.346 135.046 160.817 139.51 160.817C144.073 160.817 148.443 160.482 152.666 159.877C156.586 159.319 161.389 158.041 166.911 155.971C166.978 155.946 167.44 155.748 167.505 155.722C172.948 153.646 176.634 151.979 177.248 151.568C178.136 150.977 179.931 149.383 182.195 146.968C184.275 144.75 185.68 142.598 186.547 140.488C186.547 140.488 186.747 139.383 186.943 136.977C187.143 134.552 187.301 131.119 187.439 126.738C187.714 117.97 187.883 105.423 187.883 89.0968C187.883 72.7588 187.795 60.2568 187.636 51.6536C187.557 47.3545 187.454 44.0316 187.339 41.7115C187.228 39.4766 187.141 38.5954 187.141 38.5954C186.866 37.7667 185.449 35.3755 182.739 32.2147C180.259 29.321 177.271 26.9265 173.589 24.9437C169.803 22.9054 165.578 21.284 160.976 20.0964C156.514 18.945 150.448 18.1798 142.873 17.8705C139.096 17.7165 135.608 17.7188 132.387 17.8705ZM139.014 23.6082C144.177 23.6082 149.812 24.3131 155.931 25.6362C162.025 26.9537 166.8 28.4284 170.423 30.3351C173.616 32.0159 175.954 33.4423 177.695 35.1824C179.43 36.9175 180.579 39.1187 181.058 41.5137C181.723 44.8403 180.403 47.9247 178.486 50.2687C176.796 52.3341 174.917 54.0421 172.798 55.3139C170.602 56.6311 167.236 57.8828 162.509 59.4192C162.558 59.4032 162.462 59.4396 162.065 59.5676C156.623 61.3227 150.201 62.3042 142.773 62.6343C135.421 62.961 128.637 62.4705 122.395 61.1505C122.428 61.1576 122.362 61.1579 122.098 61.1009C121.835 61.0441 121.769 61.0444 121.801 61.0515C115.921 59.7687 111.583 58.4651 108.446 56.8967C105.641 55.4937 103.206 53.9805 101.225 52.1976C99.1483 50.3286 97.5288 47.9622 96.9711 45.1739C96.6125 43.3803 96.188 41.3489 97.3668 38.9911C98.2898 37.1453 99.5022 36.0899 101.225 34.5395C103.206 32.7569 105.64 31.1941 108.446 29.7911C111.643 28.1929 116.045 26.945 122.098 25.6362C128.218 24.3131 133.853 23.6082 139.014 23.6082ZM100.631 60.7548C101.382 60.7089 102.159 60.8755 102.907 61.2494C104.177 61.8844 105.445 62.5433 106.715 63.1784C108.77 64.2059 112.304 65.4153 117.053 66.6407C121.515 67.7922 127.582 68.5575 135.157 68.8667C142.64 69.1721 149.499 68.7282 155.782 67.5311C162.25 66.2993 167.001 64.8739 169.73 63.5741C171.398 62.7803 173.059 61.9938 174.727 61.1998C177.628 59.8184 181.004 61.848 181.156 65.0579C181.236 66.7251 181.324 68.3866 181.403 70.0538C181.592 74.0002 180.895 77.7927 178.486 80.7377C176.373 83.3199 173.211 85.2884 169.137 87.2668C169.171 87.2506 169.108 87.2864 168.841 87.4151C168.706 87.4795 168.578 87.5474 168.543 87.5636C164.236 89.5959 159.436 91.0736 154.151 92.0646C148.828 93.0626 143.682 93.598 138.767 93.598C133.75 93.598 128.21 92.8913 122.098 91.57C115.977 90.2466 111.092 88.7045 107.309 86.6237C103.873 84.734 101.183 82.8493 99.296 80.4903C97.0599 77.6954 96.4271 74.0755 96.4271 70.2516C96.4271 68.5844 96.4271 66.923 96.4271 65.2558C96.4271 62.7481 98.38 60.8923 100.631 60.7548ZM62.7925 84.5958C67.9549 84.5958 73.5894 85.3006 79.7087 86.6237C85.8025 87.9414 90.5785 89.4159 94.2012 91.3227C97.3945 93.0034 99.732 94.43 101.472 96.1701C103.207 97.9052 104.357 100.106 104.836 102.501C105.501 105.828 104.181 108.863 102.264 111.207C100.574 113.272 98.6951 115.03 96.5754 116.301C94.3491 117.637 90.9755 118.839 86.1389 120.407C86.172 120.396 86.1075 120.42 85.8421 120.506C85.5767 120.591 85.5121 120.615 85.5453 120.605C80.1649 122.303 73.9023 123.248 66.601 123.572C59.1371 123.905 52.2448 123.455 45.9256 122.088C39.8764 120.781 35.4202 119.482 32.2245 117.884C29.4185 116.481 27.0332 114.919 25.0523 113.136C22.9757 111.267 21.3068 108.95 20.7491 106.162C20.3903 104.368 19.966 102.287 21.1448 99.9293C22.0678 98.0834 23.3296 97.0775 25.0523 95.527C27.0329 93.7446 29.4183 92.1817 32.2245 90.7786C35.4206 89.1806 39.8721 87.9327 45.9256 86.6237C52.0447 85.3006 57.6298 84.5958 62.7925 84.5958ZM176.655 91.2732C176.815 91.2732 176.992 91.2732 177.15 91.2732C179.634 91.2732 181.601 93.2902 181.601 95.7744C181.601 97.4416 181.601 99.103 181.601 100.77C181.601 102.511 181.598 103.936 181.503 105.123C181.41 106.284 181.414 107.229 180.663 108.734C179.74 110.579 178.527 111.585 176.804 113.136C174.637 115.087 171.767 116.739 168.049 118.428C164.119 120.215 159.491 121.582 154.151 122.583C148.835 123.579 143.782 124.066 139.014 124.066C134.354 124.066 129.997 123.759 125.907 123.077C121.947 122.419 119.06 121.783 116.855 120.901C114.133 119.813 113.008 117.396 112.453 115.51C111.86 113.493 111.662 111.263 111.662 108.635C111.662 106.253 111.662 103.844 111.662 101.463C111.661 98.6462 114.235 96.5414 117.004 97.0604C119.544 97.5367 122.08 98.0185 124.621 98.4948C129.435 99.3974 134.215 99.8303 139.014 99.8303C143.638 99.8303 149.168 99.2365 155.485 98.0497C155.518 98.0433 155.649 98.0255 155.782 98.0001C156.047 97.9498 156.112 97.9444 156.078 97.9508C162.364 96.7356 166.917 95.376 169.385 94.142C171.001 93.3339 172.28 92.7004 173.242 92.2625C173.728 92.0418 174.13 91.8717 174.529 91.7184C174.915 91.5695 175.134 91.2732 176.655 91.2732ZM24.4588 121.742C25.2092 121.696 25.9865 121.863 26.734 122.237C28.0042 122.871 29.2725 123.481 30.5428 124.117C32.5387 125.114 35.9919 126.339 40.5342 127.529C40.5011 127.522 40.567 127.56 40.831 127.628C40.963 127.662 41.0947 127.669 41.1278 127.678C45.5652 128.794 51.5017 129.551 58.9344 129.855C66.3057 130.155 73.1056 129.725 79.313 128.568C79.3461 128.561 79.4773 128.544 79.6098 128.519C86.0768 127.287 90.7794 125.861 93.5088 124.562C95.1759 123.767 96.8374 122.982 98.5046 122.187C101.406 120.806 104.782 122.835 104.935 126.045C105.014 127.713 105.103 129.373 105.182 131.042C105.37 134.988 104.673 138.78 102.264 141.726C102.06 141.974 101.991 142.004 102.016 141.973C99.9091 144.431 96.8532 146.341 92.9152 148.255C92.9488 148.239 92.8865 148.274 92.6184 148.402C92.4844 148.467 92.3552 148.535 92.3216 148.551C88.0143 150.583 83.2135 152.061 77.9281 153.052C72.6055 154.051 67.5095 154.535 62.5946 154.535C57.5777 154.535 52.0366 153.878 45.9256 152.557C45.6543 152.498 45.3504 152.424 45.2826 152.41C39.4867 151.118 34.7248 149.562 31.0868 147.561C27.6508 145.672 24.961 143.788 23.0738 141.428C20.8378 138.633 20.205 135.064 20.205 131.24C20.205 129.571 20.205 127.911 20.205 126.243C20.205 123.735 22.2074 121.88 24.4588 121.742ZM176.061 121.99C176.228 121.979 176.755 121.99 176.755 121.99C177.324 122.05 178.189 122.237 178.189 122.237C178.519 122.357 178.834 122.539 179.129 122.732L179.871 123.326C180.316 123.838 180.663 124.364 180.663 124.364C181.031 125.065 181.123 125.429 181.205 125.749C181.37 126.374 181.451 126.874 181.503 127.43C181.607 128.522 181.601 129.818 181.601 131.486C181.601 133.152 181.6 134.537 181.503 135.69C181.41 136.821 181.395 137.737 180.663 139.203C179.74 141.048 178.527 142.104 176.804 143.654C174.824 145.437 172.438 146.951 169.632 148.353C166.508 149.915 162.103 151.192 156.178 152.459C156.069 152.481 155.298 152.633 155.189 152.657C149.141 153.902 143.644 154.535 138.767 154.535C133.8 154.537 128.588 153.972 123.087 152.805C119.834 152.115 116.861 150.71 114.728 148.255C112.578 145.779 111.662 142.603 111.662 139.351C111.662 136.89 111.662 134.442 111.662 131.98C111.662 129.176 114.193 127.028 116.954 127.529C119.574 128.006 122.199 128.487 124.819 128.963C129.815 129.872 134.63 130.299 139.261 130.299C143.717 130.299 149.166 129.755 155.485 128.568C155.518 128.561 155.649 128.544 155.782 128.519C162.245 127.287 166.873 125.868 169.385 124.611C171.03 123.789 172.329 123.166 173.391 122.732C173.929 122.512 174.406 122.341 174.974 122.187C175.264 122.11 175.575 122.032 176.061 121.99ZM24.4588 152.212C25.2092 152.166 25.9865 152.332 26.734 152.706C28.0042 153.34 29.2725 154 30.5428 154.635C32.5979 155.662 36.0823 156.872 40.831 158.097C45.2926 159.249 51.36 160.013 58.9344 160.324C66.4185 160.629 73.3252 160.184 79.6098 158.988C86.0768 157.756 90.7794 156.33 93.5088 155.031C95.1759 154.236 96.8374 153.451 98.5046 152.657C101.406 151.275 104.782 153.304 104.935 156.514C105.014 158.182 105.103 159.842 105.182 161.511C105.37 165.457 104.673 169.249 102.264 172.195C100.095 174.844 96.852 176.84 92.6184 178.871C88.237 180.975 83.3329 182.508 77.9281 183.521C72.6055 184.518 67.5095 185.055 62.5946 185.055C57.5777 185.055 52.0366 184.348 45.9256 183.026C39.8044 181.703 34.8698 180.161 31.0868 178.08C27.6508 176.191 24.961 174.306 23.0738 171.946C20.8378 169.153 20.205 165.533 20.205 161.709C20.205 160.04 20.205 158.38 20.205 156.712C20.205 154.205 22.2074 152.349 24.4588 152.212Z" fill="white"/>
<g id="Group">
<path id="Vector_2" d="M66.375 97.8431L66.3943 97.0761C66.3991 96.8857 66.1583 96.719 65.6719 96.5759C65.1855 96.4327 64.5638 96.3517 63.8071 96.3327C63.0946 96.3146 62.4921 96.365 61.999 96.4835C61.5061 96.6021 61.2572 96.7564 61.2524 96.9466L61.2336 97.6959C59.3622 97.7084 57.6002 97.801 55.9476 97.9736C54.295 98.1463 52.8412 98.3864 51.5862 98.6941C50.3312 99.0016 49.3196 99.366 48.5518 99.787C47.7838 100.208 47.349 100.673 47.2471 101.182C47.091 102.071 48.1844 102.878 50.5272 103.603C53.0468 104.381 56.5534 104.885 61.0468 105.117L60.9284 109.827C55.9476 109.488 53.0014 108.842 52.0899 107.891C51.9602 107.733 51.6741 107.601 51.2312 107.495C50.7885 107.388 50.2554 107.327 49.6321 107.312C48.6082 107.286 47.8707 107.381 47.4199 107.595C47.0589 107.777 46.9655 107.947 47.1398 108.106C47.5296 108.544 48.1881 108.936 49.1148 109.28C50.0417 109.625 51.1255 109.926 52.3664 110.183C53.6071 110.44 54.9606 110.653 56.4264 110.821C57.8923 110.989 59.3812 111.121 60.8934 111.219L60.8746 111.968C60.8697 112.158 61.1106 112.325 61.597 112.468C62.0834 112.611 62.6828 112.692 63.3951 112.71C64.152 112.729 64.7769 112.679 65.2699 112.561C65.7628 112.442 66.0118 112.288 66.0165 112.097L66.0349 111.366C67.9065 111.342 69.6576 111.24 71.288 111.061C72.9185 110.882 74.3612 110.641 75.6161 110.34C76.8711 110.038 77.8823 109.68 78.6502 109.264C79.4178 108.849 79.8526 108.387 79.9546 107.878C80.11 107.013 79.0166 106.206 76.6745 105.457C74.2433 104.706 70.7589 104.201 66.2216 103.945L66.34 99.2347C71.3208 99.5743 74.2223 100.224 75.0445 101.185C75.1745 101.331 75.4831 101.458 75.9705 101.566C76.4578 101.673 76.9908 101.734 77.5696 101.749C78.5935 101.774 79.3309 101.68 79.7819 101.465C80.0973 101.318 80.1907 101.148 80.0619 100.954C79.4549 100.296 78.3103 99.7471 76.6288 99.306C74.947 98.865 73.0181 98.5101 70.842 98.2412L68.6433 97.9896L66.375 97.8431ZM52.4666 100.885L53.2119 100.475C53.9793 100.078 55.0565 99.7542 56.4438 99.5035C57.831 99.2528 59.416 99.1141 61.1986 99.0875L61.0818 103.726C58.0124 103.554 55.7487 103.229 54.2906 102.752C52.9644 102.35 52.3298 101.893 52.3873 101.383L52.4666 100.885ZM67.8084 109.929L66.0699 109.974L66.187 105.318C69.1668 105.512 71.4082 105.842 72.9111 106.308C74.2819 106.712 74.9163 107.168 74.8144 107.677C74.7134 108.151 74.1794 108.572 73.2124 108.94C72.2453 109.309 70.98 109.58 69.4165 109.755L67.8084 109.929Z" fill="white"/>
</g>
<g id="Group_2">
<path id="Vector_3" d="M141.573 34.4385L141.461 33.5411C141.434 33.3184 141.167 33.1607 140.662 33.0681C140.157 32.9755 139.528 32.976 138.778 33.0694C138.071 33.1574 137.484 33.3081 137.017 33.5216C136.55 33.7351 136.33 33.9532 136.357 34.1759L136.466 35.0525C134.619 35.3529 132.893 35.7301 131.29 36.1839C129.685 36.6377 128.289 37.1399 127.102 37.6904C125.913 38.2409 124.975 38.8202 124.288 39.4285C123.601 40.0368 123.25 40.6457 123.236 41.255C123.234 42.3151 124.452 43.089 126.891 43.577C129.514 44.0986 133.066 44.1513 137.547 43.7353L138.232 49.2455C133.251 49.6107 130.229 49.3084 129.166 48.3384C129.011 48.174 128.705 48.0637 128.249 48.0073C127.794 47.951 127.257 47.9612 126.638 48.0382C125.622 48.1646 124.909 48.3875 124.5 48.7069C124.174 48.9734 124.111 49.1862 124.31 49.3451C124.77 49.7967 125.487 50.1525 126.462 50.4127C127.437 50.6731 128.56 50.8584 129.829 50.9689C131.1 51.0794 132.474 51.1204 133.951 51.092C135.429 51.0637 136.923 50.9909 138.435 50.8736L138.542 51.7503C138.571 51.9729 138.837 52.1305 139.342 52.2231C139.848 52.3157 140.454 52.3181 141.16 52.2301C141.912 52.1367 142.522 51.9832 142.989 51.7696C143.455 51.5561 143.675 51.338 143.647 51.1155L143.541 50.2596C145.386 49.9453 147.101 49.5591 148.682 49.101C150.262 48.643 151.646 48.1422 152.837 47.5986C154.025 47.0551 154.964 46.4827 155.651 45.8814C156.339 45.2801 156.691 44.6747 156.705 44.0655C156.711 43.0332 155.493 42.2592 153.05 41.7433C150.52 41.2386 146.99 41.1832 142.461 41.5768L141.776 36.0666C146.757 35.7014 149.734 36.0163 150.711 37.0111C150.865 37.1616 151.191 37.2623 151.691 37.3131C152.191 37.3639 152.729 37.3536 153.304 37.2822C154.32 37.1557 155.032 36.9329 155.442 36.6135C155.729 36.3941 155.792 36.1814 155.63 35.9753C154.92 35.3008 153.695 34.8349 151.957 34.5777C150.22 34.3205 148.253 34.2013 146.056 34.2201L143.84 34.2625L141.573 34.4385ZM128.344 40.111L129.011 39.5193C129.702 38.9389 130.712 38.3965 132.04 37.8921C133.368 37.3878 134.911 36.9838 136.668 36.6806L137.344 42.1072C134.28 42.3752 131.988 42.3424 130.465 42.0091C129.087 41.7426 128.381 41.3074 128.351 40.7036L128.344 40.111ZM145.049 48.3129L143.338 48.6316L142.661 43.184C145.64 42.9548 147.911 42.9972 149.475 43.3113C150.899 43.5723 151.604 44.0074 151.589 44.6168C151.57 45.1844 151.115 45.7569 150.222 46.3343C149.329 46.9115 148.125 47.4217 146.608 47.8645L145.049 48.3129Z" fill="white"/>
</g>
</g>
</svg>
