<svg width="293" height="312" viewBox="0 0 293 312" fill="none" xmlns="http://www.w3.org/2000/svg">
<mask id="mask0_677_727" style="mask-type:luminance" maskUnits="userSpaceOnUse" x="0" y="0" width="293" height="312">
<path d="M292.897 0.327148H0.193359V311.894H292.897V0.327148Z" fill="white"/>
</mask>
<g mask="url(#mask0_677_727)">
<path d="M126.567 279.49H32.7812V76.5062L79.05 34.0684H220.577V173.983" stroke="white" stroke-width="3.99949" stroke-miterlimit="10" stroke-linejoin="round"/>
<path d="M85.1495 30.2314V83.2678H28.9453L85.1495 30.2314Z" fill="white"/>
<path d="M121.945 74.6424L203.996 74.6006" stroke="white" stroke-width="2.66633" stroke-miterlimit="10" stroke-linejoin="round"/>
<path d="M100.182 95.8348L204.731 95.793" stroke="white" stroke-width="2.66633" stroke-miterlimit="10" stroke-linejoin="round"/>
<path d="M57.0488 118.332L204.733 117.172" stroke="white" stroke-width="2.66633" stroke-miterlimit="10" stroke-linejoin="round"/>
<path d="M57.0488 137.564L204.733 137.528" stroke="white" stroke-width="2.66633" stroke-miterlimit="10" stroke-linejoin="round"/>
<path d="M57.8555 156.779L205.541 156.744" stroke="white" stroke-width="2.66633" stroke-miterlimit="10" stroke-linejoin="round"/>
<path d="M116.923 168.062L149.909 199.424L129.323 226.295L121.166 236.941L112.883 230.704" stroke="white" stroke-width="3.33291" stroke-miterlimit="10" stroke-linejoin="round"/>
<path d="M256.829 168.062L220.648 195.416L241.235 222.286L249.392 232.932L263.04 224.359" stroke="white" stroke-width="3.33291" stroke-miterlimit="10" stroke-linejoin="round"/>
<path d="M112.883 220.764C112.883 218.779 114.418 217.168 116.312 217.168C118.206 217.168 119.741 218.779 119.741 220.764C119.741 222.749 118.206 224.359 116.312 224.359C114.418 224.359 112.883 222.749 112.883 220.764Z" fill="white"/>
<path d="M250.305 215.994C250.305 214.007 251.84 212.398 253.734 212.398C255.628 212.398 257.163 214.007 257.163 215.994C257.163 217.979 255.628 219.587 253.734 219.587C251.84 219.587 250.305 217.979 250.305 215.994Z" fill="white"/>
<path d="M151.861 202.124C154.293 202.124 156.88 202.376 159.286 202.064C162.426 201.66 161.141 200.333 169.839 198.787C176.624 197.583 186.482 200.324 186.729 202.502C186.776 202.922 177.026 209.642 176.351 210.501C173.706 213.864 158.439 229.094 165.293 234.214C174.114 240.802 183.727 216.491 189.822 220.764C203.783 230.554 212.057 241.166 223.55 253.118C228.77 258.546 237.728 267.044 231.465 271.429C223.368 277.097 211.177 256.783 211.177 256.783L206.629 251.583C206.629 251.583 224.781 269.504 220.216 277.323C216.839 283.111 201.534 265.864 201.534 265.864L196.697 261.469C196.697 261.469 213.974 278.373 210.07 283.458C206.351 288.303 200.109 286.691 195.729 283.101" stroke="white" stroke-width="1.33316" stroke-miterlimit="10" stroke-linecap="round" stroke-linejoin="round"/>
<path d="M125.406 236.94C125.406 243.308 134.136 254.502 141.032 260" stroke="white" stroke-width="1.33316" stroke-miterlimit="10" stroke-linecap="round" stroke-linejoin="round"/>
<path d="M220.648 202.502C215.743 202.318 215.754 198.493 205.234 198.493C196.755 198.493 186.729 202.502 186.729 202.502" stroke="white" stroke-width="1.33316" stroke-miterlimit="10" stroke-linecap="round" stroke-linejoin="round"/>
<path d="M231.465 260C231.465 259.746 235.809 253.377 239.006 247.366C242.204 241.353 241.801 232.662 243.991 230.494" stroke="white" stroke-width="1.33316" stroke-miterlimit="10" stroke-linecap="round" stroke-linejoin="round"/>
<path d="M145.428 259.393C147.434 257.432 150.648 257.471 152.607 259.477L154.262 261.171C156.221 263.175 156.183 266.389 154.178 268.349L150.781 271.668C148.775 273.627 145.561 273.588 143.602 271.584L141.947 269.89C139.988 267.884 140.026 264.67 142.031 262.711L145.428 259.393Z" stroke="white" stroke-width="1.33316" stroke-miterlimit="10" stroke-linejoin="round"/>
<path d="M162.305 261.07C164.624 258.805 168.341 258.848 170.606 261.166L171.152 261.726C173.417 264.044 173.374 267.761 171.055 270.026L159.016 281.787C156.697 284.052 152.98 284.009 150.715 281.689L150.169 281.131C147.904 278.812 147.947 275.096 150.266 272.829L162.305 261.07Z" stroke="white" stroke-width="1.33316" stroke-miterlimit="10" stroke-linejoin="round"/>
<path d="M171.905 268.675C174.167 266.465 177.792 266.507 180.001 268.77L180.748 269.535C182.959 271.796 182.917 275.421 180.654 277.632L169.136 288.884C166.874 291.093 163.249 291.051 161.04 288.787L160.292 288.022C158.082 285.761 158.125 282.136 160.387 279.927L171.905 268.675Z" stroke="white" stroke-width="1.33316" stroke-miterlimit="10" stroke-linejoin="round"/>
<path d="M184.108 274.521C186.132 272.543 189.375 272.582 191.351 274.605L192.942 276.235C194.919 278.258 194.882 281.5 192.858 283.478L184.46 291.681C182.436 293.657 179.195 293.62 177.217 291.595L175.626 289.967C173.649 287.943 173.687 284.7 175.711 282.724L184.108 274.521Z" stroke="white" stroke-width="1.33316" stroke-miterlimit="10" stroke-linejoin="round"/>
</g>
</svg>
