<svg width="80" height="95" viewBox="0 0 80 95" fill="none" xmlns="http://www.w3.org/2000/svg">
<g id="icons-fidel">
<path id="Vector" d="M51.4387 74.501V90.4407C51.4387 92.6013 50.1554 93.1614 48.5715 91.6918L29.8762 74.3385C28.2925 72.8683 25.7111 72.8535 24.1103 74.3051L4.89833 91.7252C3.29762 93.1768 2 92.6013 2 90.4407V5.91244C2 3.75165 3.75165 2 5.91244 2H51.4387C51.4387 2 51.4387 7.41173 51.4387 12.8291" stroke="black" stroke-width="3" stroke-miterlimit="10" stroke-linejoin="round"/>
<g id="Group">
<path id="Vector_2" d="M76.0883 37.5319C76.6812 39.6791 76.9978 41.9414 76.9978 44.2779C76.9978 58.2072 65.7423 69.4992 51.8573 69.4992C37.9726 69.4992 26.7168 58.2072 26.7168 44.2779C26.7168 30.3486 37.9726 19.0566 51.8573 19.0566C56.9841 19.0566 61.7524 20.5962 65.7282 23.2395" stroke="black" stroke-width="3" stroke-miterlimit="10" stroke-linejoin="round"/>
<path id="Vector_3" d="M40.0391 40.2214L51.8585 54.8969L76.999 22.3848" stroke="black" stroke-width="7" stroke-miterlimit="10" stroke-linejoin="round"/>
</g>
</g>
</svg>
