<svg width="306" height="326" viewBox="0 0 306 326" fill="none" xmlns="http://www.w3.org/2000/svg">
<mask id="mask0_677_790" style="mask-type:luminance" maskUnits="userSpaceOnUse" x="0" y="0" width="306" height="326">
<path d="M305.971 0.327148H0.564453V325.417H305.971V0.327148Z" fill="white"/>
</mask>
<g mask="url(#mask0_677_790)">
<path d="M122.456 120.734C93.2764 127.727 72.1094 154.184 72.1094 185.099C72.1094 215.055 91.9934 240.859 119.79 248.791C121.888 249.39 123.766 244.167 122.099 243.716C96.2152 236.721 77.5883 212.87 77.5885 185.099C77.5885 156.941 96.7403 132.847 123.173 126.231C124.548 125.886 123.751 120.424 122.456 120.734Z" fill="white"/>
<path d="M158.516 84.9899L118.336 85.8459C116.82 85.8786 115.616 87.1837 115.654 88.6996L115.996 104.623C109.685 106.576 103.054 109.382 97.5041 112.385L84.4912 97.3179C83.9692 96.7126 83.2285 96.3725 82.4937 96.3475C81.759 96.3225 81.0578 96.5784 80.496 97.1466L52.1873 125.741C51.0899 126.851 51.1438 128.632 52.3015 129.679L66.7413 142.749C63.3267 148.865 60.046 156.486 57.8378 163.466L43.4551 163.352C41.9418 163.34 40.6701 164.522 40.6584 166.035L40.3731 207.813C40.3614 209.334 41.5915 210.609 43.1127 210.609H57.267C58.8963 216.285 61.0363 220.822 65.8281 228.759L54.4133 238.461C53.2485 239.455 53.1153 241.252 54.1279 242.401L79.5259 271.166C80.5265 272.3 82.272 272.393 83.4069 271.394C83.4069 271.394 96.7991 259.296 96.9905 259.408C102.861 262.854 109.092 265.628 115.654 267.683V286.403C115.654 287.914 116.884 289.137 118.393 289.143L158.573 289.258C160.086 289.263 161.307 288.087 161.313 286.575L161.37 265.972H155.891L155.834 283.779L121.133 283.664V264.259L119.592 263.345C111.364 261.022 103.621 257.492 96.5339 252.902L81.8088 265.458L60.0635 240.803L72.677 230.129L70.9076 226.648C65.3788 217.538 63.4432 213.65 61.8329 207.185L60.9198 205.13H45.8522L46.1375 168.831L60.6915 168.946L61.8329 168.432C64.0164 160.309 69.0489 148.59 73.1906 142.121L72.734 140.751L58.123 127.567L82.2654 103.139L95.849 118.835L97.8465 118.264C103.746 114.794 112.019 111.31 119.192 109.246L121.589 108.333L121.19 91.268L155.834 90.526L155.891 106.678L161.37 106.621L161.313 87.7295C161.306 86.198 160.047 84.9568 158.516 84.9899Z" fill="white"/>
<path d="M135.479 122.54C135.479 117.684 139.342 113.747 144.108 113.747C148.874 113.747 152.738 117.684 152.738 122.54C152.738 127.397 148.874 131.334 144.108 131.334C139.342 131.334 135.479 127.397 135.479 122.54Z" stroke="white" stroke-width="2.66633" stroke-miterlimit="10" stroke-linejoin="round"/>
<path d="M116.643 158.675C116.643 153.818 120.506 149.881 125.272 149.881C130.038 149.881 133.902 153.818 133.902 158.675C133.902 163.531 130.038 167.468 125.272 167.468C120.506 167.468 116.643 163.531 116.643 158.675Z" stroke="white" stroke-width="2.66633" stroke-miterlimit="10" stroke-linejoin="round"/>
<path d="M108.014 192.406C108.014 187.549 111.877 183.612 116.643 183.612C121.41 183.612 125.273 187.549 125.273 192.406C125.273 197.262 121.41 201.2 116.643 201.2C111.877 201.2 108.014 197.262 108.014 192.406Z" stroke="white" stroke-width="2.66633" stroke-miterlimit="10" stroke-linejoin="round"/>
<path d="M144.109 215.586C144.109 210.73 147.973 206.792 152.739 206.792C157.505 206.792 161.369 210.73 161.369 215.586C161.369 220.443 157.505 224.38 152.739 224.38C147.973 224.38 144.109 220.443 144.109 215.586Z" stroke="white" stroke-width="2.66633" stroke-miterlimit="10" stroke-linejoin="round"/>
<path d="M130.207 250.762C130.207 245.906 134.071 241.968 138.837 241.968C143.603 241.968 147.467 245.906 147.467 250.762C147.467 255.618 143.603 259.556 138.837 259.556C134.071 259.556 130.207 255.618 130.207 250.762Z" stroke="white" stroke-width="2.66633" stroke-miterlimit="10" stroke-linejoin="round"/>
<path d="M179.529 229.662C179.529 224.806 183.393 220.87 188.159 220.87C192.924 220.87 196.789 224.806 196.789 229.662C196.789 234.52 192.924 238.456 188.159 238.456C183.393 238.456 179.529 234.52 179.529 229.662Z" stroke="white" stroke-width="2.66633" stroke-miterlimit="10" stroke-linejoin="round"/>
<path d="M157.115 183.612C157.115 178.755 160.979 174.818 165.745 174.818C170.511 174.818 174.375 178.755 174.375 183.612C174.375 188.468 170.511 192.406 165.745 192.406C160.979 192.406 157.115 188.468 157.115 183.612Z" stroke="white" stroke-width="2.66633" stroke-miterlimit="10" stroke-linejoin="round"/>
<path d="M170.9 140.128C170.9 135.272 174.764 131.334 179.53 131.334C184.296 131.334 188.16 135.272 188.16 140.128C188.16 144.985 184.296 148.922 179.53 148.922C174.764 148.922 170.9 144.985 170.9 140.128Z" stroke="white" stroke-width="2.66633" stroke-miterlimit="10" stroke-linejoin="round"/>
<path d="M196.791 192.406C196.791 187.549 200.654 183.612 205.421 183.612C210.187 183.612 214.05 187.549 214.05 192.406C214.05 197.262 210.187 201.2 205.421 201.2C200.654 201.2 196.791 197.262 196.791 192.406Z" stroke="white" stroke-width="2.66633" stroke-miterlimit="10" stroke-linejoin="round"/>
<path d="M113.259 183.217L107.684 172.562" stroke="white" stroke-width="2.66633" stroke-miterlimit="10" stroke-linecap="round" stroke-linejoin="round"/>
<path d="M133.46 241.552C130.211 234.263 123.806 227.127 125.274 217.977C126.636 209.488 141.687 188.118 141.73 187.124C142.08 179.03 132.126 166.315 132.106 166.344" stroke="white" stroke-width="2.66633" stroke-miterlimit="10" stroke-linecap="round" stroke-linejoin="round"/>
<path d="M147.471 131.334C153.761 145.278 153.761 150.285 161.371 159.271C164.558 163.034 178.82 156.786 185.008 162.274C190.456 167.107 199.362 181.526 199.362 183.612" stroke="white" stroke-width="2.66633" stroke-miterlimit="10" stroke-linecap="round" stroke-linejoin="round"/>
<path d="M170.9 192.406C174.465 201.419 180.012 212.993 183.137 220.646" stroke="white" stroke-width="2.66633" stroke-miterlimit="10" stroke-linecap="round" stroke-linejoin="round"/>
<path d="M157.275 124.918C158.074 124.918 161.368 125.045 167.803 127.464" stroke="white" stroke-width="2.66633" stroke-miterlimit="10" stroke-linecap="round" stroke-linejoin="round"/>
<path d="M153.76 249.308C157.447 249.308 162.332 248.468 165.745 247.067C171.433 244.735 177.358 242.423 177.358 241.552" stroke="white" stroke-width="2.66633" stroke-miterlimit="10" stroke-linecap="round" stroke-linejoin="round"/>
<path d="M205.419 206.827C204.736 209.466 199.359 221.686 199.359 220.572" stroke="white" stroke-width="2.66633" stroke-miterlimit="10" stroke-linecap="round" stroke-linejoin="round"/>
<path d="M97.0898 155.659C97.0898 154.658 97.9367 153.846 98.9812 153.846C100.026 153.846 100.873 154.658 100.873 155.659C100.873 156.661 100.026 157.473 98.9812 157.473C97.9367 157.473 97.0898 156.661 97.0898 155.659Z" fill="white"/>
<path d="M100.869 164.53C100.869 163.528 101.716 162.716 102.761 162.716C103.805 162.716 104.652 163.528 104.652 164.53C104.652 165.531 103.805 166.343 102.761 166.343C101.716 166.343 100.869 165.531 100.869 164.53Z" fill="white"/>
<path d="M111.369 218.831C111.369 217.83 112.216 217.017 113.261 217.017C114.305 217.017 115.152 217.83 115.152 218.831C115.152 219.833 114.305 220.646 113.261 220.646C112.216 220.646 111.369 219.833 111.369 218.831Z" fill="white"/>
<path d="M138.847 143.96C138.758 142.962 139.53 142.078 140.57 141.986C141.611 141.893 142.526 142.627 142.615 143.625C142.703 144.623 141.932 145.507 140.891 145.599C139.851 145.692 138.935 144.958 138.847 143.96Z" fill="white"/>
<path d="M163.151 201.699C163.132 200.696 163.964 199.869 165.008 199.848C166.052 199.83 166.914 200.626 166.933 201.627C166.952 202.628 166.12 203.457 165.076 203.476C164.031 203.496 163.17 202.699 163.151 201.699Z" fill="white"/>
<path d="M196.128 156.278C196.037 155.281 196.808 154.395 197.847 154.3C198.888 154.205 199.805 154.936 199.896 155.934C199.988 156.931 199.219 157.817 198.178 157.912C197.138 158.008 196.22 157.276 196.128 156.278Z" fill="white"/>
<path d="M114.752 227.849C114.752 226.848 115.599 226.035 116.643 226.035C117.688 226.035 118.535 226.848 118.535 227.849C118.535 228.851 117.688 229.662 116.643 229.662C115.599 229.662 114.752 228.851 114.752 227.849Z" fill="white"/>
<path d="M143.015 152.644C142.926 151.647 143.698 150.763 144.738 150.67C145.779 150.578 146.694 151.312 146.783 152.31C146.871 153.308 146.1 154.191 145.059 154.284C144.019 154.376 143.103 153.642 143.015 152.644Z" fill="white"/>
<path d="M166.7 210.651C166.681 209.651 167.512 208.821 168.557 208.803C169.601 208.783 170.463 209.579 170.482 210.58C170.5 211.583 169.669 212.41 168.625 212.43C167.58 212.449 166.718 211.652 166.7 210.651Z" fill="white"/>
<path d="M200.316 164.951C200.225 163.953 200.995 163.067 202.035 162.972C203.076 162.877 203.992 163.609 204.084 164.606C204.175 165.604 203.406 166.49 202.365 166.585C201.324 166.68 200.407 165.948 200.316 164.951Z" fill="white"/>
<path d="M118.535 236.642C118.535 235.641 119.382 234.829 120.427 234.829C121.471 234.829 122.318 235.641 122.318 236.642C122.318 237.645 121.471 238.456 120.427 238.456C119.382 238.456 118.535 237.645 118.535 236.642Z" fill="white"/>
<path d="M147.56 161.068C147.471 160.07 148.243 159.187 149.283 159.094C150.324 159.002 151.239 159.736 151.328 160.734C151.416 161.732 150.645 162.615 149.604 162.708C148.564 162.8 147.648 162.066 147.56 161.068Z" fill="white"/>
<path d="M170.647 219.373C170.628 218.372 171.46 217.544 172.504 217.524C173.548 217.504 174.41 218.301 174.429 219.303C174.448 220.304 173.616 221.131 172.572 221.151C171.527 221.172 170.665 220.375 170.647 219.373Z" fill="white"/>
<path d="M204.886 173.363C204.795 172.366 205.566 171.48 206.605 171.385C207.646 171.29 208.563 172.021 208.654 173.019C208.745 174.016 207.976 174.902 206.935 174.997C205.894 175.092 204.978 174.361 204.886 173.363Z" fill="white"/>
<path d="M214.049 41.2838V121.636C214.049 123.97 215.943 125.864 218.279 125.864C222.357 125.864 253.56 125.864 260.568 125.864C262.902 125.864 264.798 123.97 264.798 121.636V41.2838C264.798 38.9494 262.902 37.0547 260.568 37.0547H218.279C215.943 37.0547 214.049 38.9494 214.049 41.2838Z" stroke="#F1F5FC" stroke-width="3.99949" stroke-miterlimit="10" stroke-linecap="round" stroke-linejoin="round"/>
<path d="M214.049 70.8877H264.798M214.049 91.9318H264.798" stroke="#F1F5FC" stroke-width="3.99949" stroke-miterlimit="10" stroke-linecap="round" stroke-linejoin="round"/>
<path d="M214.049 118.771C214.049 115.59 216.219 113.011 218.894 113.011H259.953C262.628 113.011 264.798 115.59 264.798 118.771C264.798 121.952 262.628 124.531 259.953 124.531H253.615C252.744 124.531 251.959 125.367 251.866 126.398L251.436 131.067C251.343 132.098 250.558 132.93 249.687 132.926L228.342 132.812C227.469 132.807 226.687 131.967 226.596 130.935L226.194 126.399C226.103 125.368 225.321 124.531 224.448 124.531H218.894C216.219 124.531 214.049 121.952 214.049 118.771Z" fill="#F5F5F5" stroke="#F1F5FC" stroke-width="3.99949" stroke-miterlimit="10" stroke-linejoin="round"/>
<path d="M214.049 43.7542C214.049 40.0541 217.048 37.0547 220.748 37.0547H258.097C261.797 37.0547 264.798 40.0541 264.798 43.7542C264.798 47.4542 261.797 50.4536 258.097 50.4536H220.748C217.048 50.4536 214.049 47.4542 214.049 43.7542Z" fill="#F5F5F5" stroke="#F1F5FC" stroke-width="3.99949" stroke-miterlimit="10" stroke-linejoin="round"/>
</g>
</svg>
