<svg width="263" height="239" viewBox="0 0 263 239" fill="none" xmlns="http://www.w3.org/2000/svg">
<path d="M32.0605 134.202C32.0605 120.806 42.8326 109.946 56.1206 109.946C69.4088 109.946 80.1808 120.806 80.1808 134.202C80.1808 147.598 69.4088 158.458 56.1206 158.458C42.8326 158.458 32.0605 147.598 32.0605 134.202Z" stroke="white" stroke-width="2.66634" stroke-miterlimit="10" stroke-linejoin="round"/>
<path d="M2.57043 222.513C3.46792 192.708 26.5452 168.528 56.1197 168.528C85.6943 168.528 108.647 192.711 109.669 222.513C110.315 241.363 2.02269 240.701 2.57043 222.513Z" stroke="white" stroke-width="3.99951" stroke-miterlimit="10" stroke-linejoin="round"/>
<path d="M135.934 138.844C135.934 130.208 142.878 123.208 151.444 123.208C160.011 123.208 166.956 130.208 166.956 138.844C166.956 147.481 160.011 154.481 151.444 154.481C142.878 154.481 135.934 147.481 135.934 138.844Z" stroke="white" stroke-width="2.66634" stroke-miterlimit="10" stroke-linejoin="round"/>
<path d="M152.688 160.994C133.622 160.994 118.795 176.553 118.216 195.768C117.937 205.029 160.997 207.183 179.09 201.72C179.538 199.677 180.193 196.823 181.182 193.982C182.02 191.579 182.915 189.649 183.773 188.202C184.211 187.461 184.776 187.128 185.267 186.586C180.971 171.941 168.519 160.994 152.688 160.994Z" stroke="white" stroke-width="2.66634" stroke-miterlimit="10" stroke-linejoin="round"/>
<path d="M211.111 148.051C211.111 139.414 218.054 132.413 226.621 132.413C235.188 132.413 242.132 139.414 242.132 148.051C242.132 156.685 235.188 163.687 226.621 163.687C218.054 163.687 211.111 156.685 211.111 148.051Z" stroke="white" stroke-width="2.66634" stroke-miterlimit="10" stroke-linejoin="round"/>
<path d="M192.101 204.981C192.678 185.768 207.556 170.18 226.621 170.18C245.687 170.18 260.485 185.77 261.144 204.981C261.56 217.134 191.747 216.708 192.101 204.981Z" stroke="white" stroke-width="2.66634" stroke-miterlimit="10" stroke-linejoin="round"/>
<path d="M99.9766 52.4058C99.9766 24.7713 132.356 2.36914 172.297 2.36914C212.239 2.36914 244.619 24.7713 244.619 52.4058C244.619 80.0404 212.239 102.442 172.297 102.442C160.768 102.442 149.868 100.576 140.196 97.2553C135.801 95.7469 101.178 123.208 101.178 123.208C101.178 123.208 123.264 89.243 121.167 87.7927C108.075 78.7374 99.9766 66.2259 99.9766 52.4058Z" stroke="white" stroke-width="3.99951" stroke-miterlimit="10" stroke-linejoin="round"/>
<path d="M169.488 57.2678C169.488 54.2188 172.212 51.7471 175.571 51.7471C178.931 51.7471 181.655 54.2188 181.655 57.2678C181.655 60.3167 178.931 62.7884 175.571 62.7884C172.212 62.7884 169.488 60.3167 169.488 57.2678Z" fill="white"/>
<path d="M135.963 57.2678C135.963 54.2188 138.687 51.7471 142.047 51.7471C145.407 51.7471 148.131 54.2188 148.131 57.2678C148.131 60.3167 145.407 62.7884 142.047 62.7884C138.687 62.7884 135.963 60.3167 135.963 57.2678Z" fill="white"/>
<path d="M197.93 57.2678C197.93 54.2188 200.653 51.7471 204.014 51.7471C207.375 51.7471 210.099 54.2188 210.099 57.2678C210.099 60.3167 207.375 62.7884 204.014 62.7884C200.653 62.7884 197.93 60.3167 197.93 57.2678Z" fill="white"/>
</svg>
