<svg width="70" height="75" viewBox="0 0 70 75" fill="none" xmlns="http://www.w3.org/2000/svg">
<g id="icons-locality 1" clip-path="url(#clip0_909_1220)">
<g id="Clip path group">
<mask id="mask0_909_1220" style="mask-type:luminance" maskUnits="userSpaceOnUse" x="0" y="0" width="70" height="75">
<g id="ArtboardFrame">
<path id="Vector" d="M69.9996 0H0V74.6281H69.9996V0Z" fill="white"/>
</g>
</mask>
<g mask="url(#mask0_909_1220)">
<g id="Calque-1">
<path id="Vector_2" d="M13.4744 30.2413L5.78516 34.6163L14.0341 62.351L25.6667 54.7673L39.6524 56.2117L49.1338 47.4717L64.5226 46.3259L53.4329 23.1415L41.011 22.1367C41.011 22.1367 33.952 28.2065 31.4479 30.2604L27.6614 29.5813" stroke="#2F2021" stroke-width="4" stroke-miterlimit="10" stroke-linejoin="round"/>
<path id="Vector_3" d="M20.3438 13.2842C15.9901 13.2842 12.4688 17.8808 12.4688 22.1411C12.4688 26.4015 20.383 37.3132 20.383 37.3132C20.383 37.3132 28.2318 26.4015 28.2318 22.1411C28.2318 17.8807 24.6973 13.2842 20.3438 13.2842ZM20.3438 16.2059C22.9257 16.2059 25.0269 18.2396 25.0269 20.7523C25.0269 23.265 22.9257 25.2987 20.3438 25.2987C17.7618 25.2987 15.6737 23.265 15.6737 20.7523C15.6737 18.2396 17.7618 16.2059 20.3438 16.2059Z" fill="#2F2021"/>
<g id="Group">
<path id="Vector_4" d="M10.5436 48.2405C10.4851 48.1667 10.2978 48.2217 10.125 48.3588C9.95223 48.4954 9.85721 48.6644 9.91573 48.7386C11.1236 49.1344 10.5702 48.9906 11.1323 49.1449C11.4164 49.2229 10.56 48.9596 10.2951 48.8304C10.1703 48.7696 10.5679 48.8946 10.7006 48.9352C10.9251 49.004 11.2563 49.1495 11.4724 49.2367C11.6089 49.2916 12.0182 49.4384 11.8779 49.3935C11.2223 49.1847 11.8786 49.399 12.3358 49.5377C12.3959 49.6098 12.5868 49.5474 12.7544 49.4069C12.922 49.2665 12.9976 49.0988 12.9375 49.0271C11.7391 48.638 12.2423 48.8174 11.7471 48.6338C11.5055 48.5441 12.2479 48.7726 12.4666 48.9088C12.6027 48.9939 12.152 48.8271 11.9957 48.791C11.7658 48.7378 11.3839 48.6569 11.1584 48.5684C11.0472 48.5244 10.7156 48.3814 10.8314 48.4112C11.5412 48.5923 10.8317 48.4003 10.5436 48.2405ZM13.8794 49.2627C13.8194 49.1939 13.6477 49.2535 13.487 49.3935C13.3262 49.534 13.2438 49.7046 13.3038 49.7738C14.4419 49.9805 13.9279 49.9201 14.4419 49.9834C14.6904 50.0136 13.9452 49.897 13.7093 49.8128C13.5841 49.7683 13.971 49.8421 14.1018 49.8656C14.3429 49.9088 14.5841 49.9767 14.8212 50.0358C14.9434 50.066 15.3115 50.1494 15.1875 50.1272C14.5584 50.0165 15.188 50.131 15.58 50.193C15.6413 50.2584 15.8193 50.1922 15.9724 50.0488C16.1256 49.9054 16.1908 49.7344 16.1294 49.669C15.005 49.4677 15.4793 49.5868 15.0044 49.4723C14.7652 49.4145 15.5062 49.5306 15.737 49.6166C15.866 49.6643 15.4553 49.5897 15.3184 49.5771C15.0846 49.5558 14.7523 49.5361 14.5204 49.4853C14.4067 49.4606 14.0778 49.3675 14.1933 49.3805C14.8439 49.4535 14.1843 49.3851 13.8794 49.2627ZM17.0712 49.7738C17.0101 49.7126 16.8472 49.775 16.705 49.9176C16.5628 50.0606 16.4869 50.2236 16.548 50.2849C17.7935 50.3188 17.2503 50.3301 17.8038 50.3238C17.9279 50.3226 17.3005 50.2664 17.4245 50.2714C17.6889 50.2828 17.9584 50.3188 18.2224 50.3368C18.3584 50.3465 18.7642 50.3675 18.628 50.3633C17.9359 50.3415 18.6317 50.3633 19.0466 50.3633C19.1085 50.419 19.2571 50.3377 19.3867 50.193C19.5163 50.048 19.5794 49.8949 19.5175 49.8392C18.2948 49.8082 18.9379 49.8622 18.2878 49.7998C18.0232 49.7746 18.8251 49.8002 19.0858 49.8522C19.2275 49.8807 18.7985 49.8731 18.6541 49.8786C18.3688 49.8895 17.5187 49.9054 17.8038 49.8916C18.3752 49.8639 17.8015 49.8975 17.0712 49.7738ZM22.6701 49.4329C21.5536 49.6052 22.1461 49.5256 21.5451 49.6031C21.4306 49.6182 22.0062 49.5755 21.8983 49.6166C21.6534 49.7096 20.8713 49.8329 21.1265 49.7738C21.6385 49.6551 21.1254 49.7629 20.4332 49.7738C20.3725 49.7268 20.2282 49.8149 20.1192 49.957C20.0103 50.0991 19.98 50.2509 20.0408 50.2979C21.2006 50.1213 20.5541 50.227 21.1919 50.1142C21.4056 50.0899 21.7316 50.0501 21.5975 50.0752C21.0806 50.1704 21.597 50.0715 22.3561 49.944C22.4159 49.9805 22.5328 49.9004 22.6178 49.7608C22.7028 49.6207 22.7298 49.4694 22.6701 49.4329ZM25.4434 48.4896C24.5179 48.8434 24.917 48.6988 24.5277 48.8434C24.3413 48.9126 24.8914 48.6745 25.0902 48.6732C25.2212 48.6724 24.856 48.7885 24.737 48.8434C24.6002 48.9063 24.2672 49.0573 24.096 49.1055C24.0142 49.1285 23.77 49.1797 23.8475 49.1449C24.3723 48.9076 23.8527 49.1487 23.5989 49.1973C23.5432 49.1746 23.4551 49.2635 23.4027 49.3935C23.3503 49.5239 23.347 49.6463 23.4027 49.669C23.703 49.5541 23.5949 49.5901 23.7036 49.5511C23.6034 49.5864 23.8918 49.4698 23.9913 49.4329C24.0852 49.3981 24.1834 49.3709 24.2791 49.3415C24.2844 49.3394 24.3017 49.3294 24.3053 49.3281C24.4353 49.2887 24.5694 49.2547 24.6977 49.2103C24.8391 49.1612 25.2571 49.0023 25.1163 49.0531C24.5472 49.2577 25.1132 49.0535 25.5088 48.8694C25.5534 48.8623 25.5779 48.7642 25.5611 48.6598C25.5443 48.5558 25.488 48.4824 25.4434 48.4896ZM27.8111 46.9827C27.6838 46.95 27.5767 46.9676 27.5626 47.0221C26.8577 47.5592 27.2625 47.2662 26.8562 47.5596C26.7751 47.6179 27.1757 47.3337 27.1178 47.4154C27.0081 47.5697 26.5464 47.9231 26.6861 47.7953C26.9718 47.5341 26.6898 47.7915 26.1498 48.0967C26.1219 48.1324 26.1584 48.215 26.2413 48.2799C26.3243 48.3453 26.4228 48.368 26.4506 48.3323C27.2358 47.737 26.8059 48.0716 27.2355 47.7299C27.3584 47.6427 27.58 47.4804 27.4972 47.5462C27.1552 47.8175 27.5031 47.5529 28.0204 47.1404C28.0345 47.0855 27.9385 47.0159 27.8111 46.9827ZM29.8257 44.7426C29.653 44.7552 29.5194 44.8256 29.5248 44.8998C28.8594 45.6604 29.2491 45.2352 28.8576 45.6595C28.7786 45.7455 29.1686 45.3183 29.1193 45.4239C29.0291 45.6168 28.5984 46.1048 28.7268 45.9346C28.9891 45.5878 28.7274 45.9337 28.1905 46.4197C28.1888 46.4867 28.3089 46.5467 28.4652 46.5505C28.6215 46.5547 28.7513 46.4997 28.753 46.4327C29.4479 45.6415 29.0658 46.1023 29.4463 45.6465C29.5349 45.5405 29.0667 46.0381 29.1585 45.9346C29.3221 45.7505 29.8216 45.2042 29.6687 45.3975C29.3837 45.7576 29.6603 45.3954 30.1396 44.8474C30.1342 44.7732 29.9983 44.7296 29.8257 44.7426ZM31.5917 42.253C31.4063 42.2828 31.265 42.37 31.2777 42.4497C30.663 43.3263 31.0288 42.8354 30.6629 43.3276C30.5885 43.4274 30.9556 42.9356 30.9114 43.0526C30.8315 43.2634 30.4385 43.8202 30.5582 43.6286C30.8016 43.24 30.5519 43.6211 30.048 44.2055C30.0581 44.2823 30.2088 44.3338 30.3882 44.3104C30.5676 44.2865 30.7122 44.2039 30.7021 44.1267C31.3277 43.2391 30.9905 43.7469 31.33 43.2358C31.4102 43.115 30.951 43.6852 31.0291 43.5632C31.1666 43.349 31.6294 42.741 31.5001 42.9607C31.26 43.3678 31.5115 42.9532 31.958 42.3448C31.9452 42.2652 31.777 42.2233 31.5917 42.253ZM33.1745 39.8686C32.9874 39.9009 32.8467 39.9848 32.8605 40.0651C32.6049 40.4541 32.6414 40.4071 32.612 40.4582C32.7573 40.4331 32.4761 40.7232 32.4027 40.8512C32.3258 40.9854 32.09 41.3782 32.1673 41.2443C32.3956 40.848 32.1693 41.2479 31.814 41.6635C31.8277 41.743 31.982 41.7872 32.1673 41.7553C32.3524 41.7233 32.4949 41.6251 32.4812 41.5456C33.0099 40.7458 32.7628 41.1653 33.0045 40.7464C33.0958 40.5881 32.8312 41.1346 32.6512 41.1657C32.489 41.1937 32.8408 40.8918 32.939 40.7595C33.042 40.6208 33.3397 40.2039 33.253 40.3533C33.0144 40.7644 33.2585 40.3502 33.5408 39.9472C33.527 39.8669 33.3616 39.8363 33.1745 39.8686ZM34.6789 37.6805C34.4965 37.7059 34.3671 37.7857 34.378 37.864C33.89 38.5647 34.1776 38.1754 33.8809 38.5715C33.8193 38.6537 34.1123 38.2259 34.0771 38.3225C34.0162 38.4897 33.7058 38.9304 33.8024 38.7811C33.9979 38.4789 33.8055 38.7831 33.3969 39.2659C33.4093 39.3445 33.5668 39.3867 33.7501 39.3576C33.9334 39.3285 34.0765 39.2397 34.064 39.161C34.5504 38.4671 34.2874 38.8689 34.548 38.4667C34.6119 38.3681 34.2312 38.8193 34.2864 38.7156C34.3811 38.5379 34.7571 38.0644 34.6658 38.2439C34.4987 38.5724 34.6677 38.2372 35.0321 37.7723C35.0212 37.694 34.8613 37.6551 34.6789 37.6805ZM36.4056 35.5318C36.237 35.5397 36.1014 35.6036 36.1047 35.676C35.7334 36.1327 35.7757 36.0879 35.7385 36.1345C35.6473 36.304 35.2924 36.7574 35.4114 36.6062C35.6513 36.3011 35.4107 36.604 34.9536 37.091C34.9609 37.1659 35.1059 37.2131 35.2806 37.1958C35.4553 37.1785 35.5889 37.1135 35.5815 37.0386C36.1476 36.3457 35.8371 36.7451 36.144 36.3441C36.2175 36.248 35.8059 36.6699 35.8693 36.5669C35.9796 36.3875 36.4108 35.9286 36.301 36.1083C36.0974 36.4412 36.2989 36.1059 36.7196 35.6497C36.7162 35.5774 36.5742 35.5239 36.4056 35.5318ZM38.564 33.4486C38.4326 33.4192 38.315 33.4446 38.3024 33.501C37.6698 34.099 37.8363 33.944 37.6745 34.0906C37.4842 34.286 37.2126 34.5704 37.3344 34.4574C37.6693 34.1467 37.3321 34.4639 36.7719 34.9553C36.7682 35.0204 36.8818 35.0777 37.0335 35.0863C37.1853 35.095 37.3176 35.0466 37.3213 34.9815C38.053 34.2926 37.6519 34.6848 38.0538 34.2871C38.1456 34.1963 37.647 34.5983 37.7268 34.4967C37.8698 34.3148 38.3971 33.8595 38.2501 34.0382C37.9703 34.378 38.2513 34.0447 38.7864 33.6058C38.799 33.5494 38.6954 33.478 38.564 33.4486ZM40.7879 31.7715C40.2326 32.1321 40.2995 32.0856 40.2385 32.1253C40.2036 32.1511 40.1888 32.1651 40.1338 32.2039C40.0969 32.2269 40.0596 32.2495 39.9638 32.3087C39.8251 32.4054 39.5943 32.5647 39.689 32.5052C40.0633 32.2704 39.6976 32.5121 39.1266 32.859C39.102 32.8994 39.1501 32.972 39.2443 33.0293C39.3385 33.0867 39.4422 33.109 39.4666 33.0686C40.2324 32.5734 39.8023 32.859 40.2254 32.5708C40.3161 32.509 39.8431 32.7492 39.9245 32.6756C40.0753 32.5392 40.603 32.2429 40.4478 32.3742C40.1419 32.6329 40.4484 32.3717 40.9972 32.0729C41.0329 32.0491 41.0134 31.96 40.958 31.8763C40.9025 31.7927 40.8237 31.7477 40.7879 31.7715ZM43.4044 30.6185C43.2608 30.676 43.342 30.6369 43.2604 30.6709C43.3119 30.6487 43.1557 30.7033 43.1034 30.7234C43.0481 30.7446 42.987 30.7648 42.933 30.7889C42.8254 30.8371 42.7133 30.883 42.6061 30.933C42.6011 30.9354 42.5981 30.9437 42.5931 30.9461C42.5772 30.9513 42.573 30.953 42.5538 30.9592C42.5362 30.9673 42.519 30.9774 42.5014 30.9854C42.3633 31.0488 41.9552 31.2399 42.0958 31.1819C42.5362 31.0005 42.09 31.1843 41.6905 31.313C41.6446 31.3164 41.6171 31.4022 41.6251 31.5095C41.6331 31.6168 41.6708 31.6964 41.7166 31.6929C42.4755 31.3898 42.1929 31.5407 42.4755 31.3916C42.5914 31.3303 42.1151 31.6002 42.0958 31.4702C42.0766 31.3369 42.3353 31.3699 42.4625 31.3261C42.5894 31.2822 42.7258 31.2468 42.8548 31.2081C42.8949 31.196 42.9322 31.1811 42.9724 31.1689C43.0147 31.156 43.144 31.1124 43.1034 31.1295C42.6442 31.3218 43.0992 31.1318 43.234 31.0902C43.2897 31.1101 43.3709 31.0233 43.4174 30.8937C43.4638 30.7641 43.4596 30.6385 43.4044 30.6185ZM46.1642 30.2517C46.2831 30.2349 45.9307 30.2687 45.8114 30.2779C45.659 30.2896 45.2462 30.3304 45.0918 30.3434C44.9813 30.3527 44.6409 30.376 44.7515 30.3696C45.3354 30.3356 44.7565 30.3667 44.4509 30.3696C44.3906 30.328 44.26 30.4126 44.1629 30.5531C44.0658 30.6935 44.0373 30.839 44.0976 30.8806C45.0462 30.8354 44.6334 30.889 45.0524 30.8413C45.2492 30.8189 44.6338 30.8511 44.4509 30.7758C44.3475 30.7334 44.6799 30.7337 44.7908 30.7234C44.9984 30.7042 45.173 30.7206 45.3794 30.7365C45.4786 30.7441 45.7791 30.7521 45.6803 30.7627C45.155 30.8192 45.6787 30.7662 45.9943 30.7889C46.0562 30.8494 46.2195 30.7762 46.3606 30.6317C46.5016 30.4871 46.5661 30.3253 46.5046 30.2648C45.4761 30.3174 45.9294 30.3229 45.484 30.3172C45.2534 30.3143 45.9357 30.2841 46.1642 30.2517ZM47.4858 30.3827C47.4251 30.3152 47.2505 30.3858 47.0931 30.5268C46.9357 30.6679 46.8629 30.8262 46.9232 30.8937C47.9086 31.1606 47.4582 31.0838 47.9044 31.1689C48.1166 31.2094 47.4707 31.0562 47.3024 30.9199C47.2095 30.8447 47.5394 30.9457 47.6557 30.9723C47.8722 31.0218 48.0664 31.1108 48.2702 31.195C48.3711 31.2366 48.6776 31.3358 48.5712 31.313C48.0166 31.1937 48.5649 31.3118 48.8852 31.4309C48.9446 31.5049 49.1443 31.4519 49.3168 31.313C49.4896 31.174 49.5725 31.007 49.5131 30.933C48.814 30.7462 48.9011 30.7595 48.8199 30.7365C48.8123 30.7349 48.8015 30.738 48.7935 30.7365C48.6637 30.7036 48.4113 30.6246 48.5059 30.6579C48.6005 30.6911 48.6926 30.7118 48.7282 30.7234C48.5231 30.6843 48.2795 30.6407 48.0873 30.5924C47.9806 30.5655 47.6662 30.4755 47.7734 30.5006C48.3552 30.6368 47.7721 30.4942 47.4858 30.3827ZM50.416 31.2868C50.3578 31.2109 50.1741 31.2564 49.9974 31.3916C49.8204 31.5267 49.717 31.6957 49.7747 31.7715C50.5374 32.1371 50.105 31.9597 50.5337 32.1384C50.6132 32.1717 50.2934 31.9185 50.3767 31.9419C50.5487 31.9902 51.0067 32.2769 50.8346 32.2301C50.4658 32.13 50.835 32.2219 51.3051 32.5052C51.3629 32.5833 51.555 32.5354 51.7371 32.4004C51.9188 32.2654 52.0172 32.0985 51.9594 32.0205C51.1875 31.6546 51.5902 31.8713 51.1875 31.6536C51.1101 31.6116 51.4964 31.8027 51.4098 31.7846C51.213 31.7433 50.6622 31.5088 50.8476 31.5881C51.2135 31.7449 50.848 31.5815 50.416 31.2868ZM52.7966 32.4791C52.7401 32.4006 52.5476 32.4517 52.3651 32.5839C52.1821 32.716 52.0858 32.8854 52.1423 32.9638C53.0595 33.5073 52.5425 33.2254 53.0583 33.501C53.1537 33.5521 52.7497 33.2085 52.849 33.2521C53.0587 33.344 53.623 33.7454 53.4116 33.6582C52.9662 33.4749 53.4053 33.6606 53.9742 34.0513C54.0307 34.131 54.2329 34.0792 54.4187 33.9465C54.6046 33.8137 54.6979 33.6463 54.641 33.5665C53.7184 33.0241 54.214 33.3462 53.7255 33.0293C53.628 32.9662 54.1236 33.2607 54.0131 33.2259C53.7762 33.1513 53.1139 32.7813 53.3329 32.8983C53.7653 33.129 53.3316 32.8994 52.7966 32.4791ZM55.4652 34.0644C55.4091 33.9854 55.2178 34.0379 55.0337 34.1692C54.8495 34.3005 54.7419 34.4701 54.798 34.5491C55.7001 35.0877 55.1969 34.8163 55.7005 35.0863C55.7892 35.1338 55.4146 34.8051 55.5046 34.8505C55.7055 34.9524 56.2472 35.348 56.0408 35.2567C55.603 35.0627 56.0467 35.26 56.6034 35.6235C56.6604 35.7028 56.8504 35.6521 57.035 35.5187C57.2196 35.3853 57.3276 35.218 57.2703 35.1387C56.3673 34.6041 56.8496 34.9173 56.3678 34.6015C56.2681 34.5363 56.7579 34.8541 56.6424 34.8243C56.4067 34.7633 55.7708 34.3996 55.9885 34.5099C56.4134 34.725 55.9906 34.5015 55.4652 34.0644ZM58.0945 35.5842C58.0372 35.5073 57.8421 35.555 57.6629 35.689C57.4838 35.8231 57.3833 35.9921 57.4406 36.069C58.4842 36.4594 58.1996 36.3814 58.4872 36.4621C58.6805 36.5548 58.8643 36.6551 59.0627 36.7372C59.1816 36.7863 59.5479 36.9168 59.429 36.8682C58.7697 36.5995 59.4286 36.8587 59.7953 36.9468C59.856 37.0165 60.0381 36.9576 60.2005 36.8158C60.3633 36.674 60.4446 36.5055 60.3839 36.4358C59.239 36.0103 59.7359 36.2473 59.2457 36.0166C58.9882 35.8955 59.7806 36.1996 60.0176 36.3573C60.1281 36.4307 59.7539 36.3101 59.6253 36.2786C59.3407 36.2091 59.0858 36.1419 58.8141 36.0297C58.6826 35.9754 58.2841 35.8104 58.4214 35.8463C59.082 36.0182 58.4265 35.8375 58.0945 35.5842Z" fill="#2F2021"/>
</g>
<path id="Vector_5" d="M31.3945 31.3047L39.4586 55.2716" stroke="#2F2021" stroke-width="2.66633" stroke-miterlimit="10" stroke-linejoin="round"/>
</g>
</g>
</g>
</g>
<defs>
<clipPath id="clip0_909_1220">
<rect width="70" height="74.6281" fill="white"/>
</clipPath>
</defs>
</svg>
