<svg width="318" height="319" viewBox="0 0 318 319" fill="none" xmlns="http://www.w3.org/2000/svg">
<path d="M222.033 223.233V257.481H54.6504V42.9395H222.033V131.026" stroke="white" stroke-width="3.99949" stroke-miterlimit="10" stroke-linejoin="round"/>
<path d="M48.476 57.5708L37.8164 57.416V244.593L48.1694 244.642" stroke="white" stroke-width="1.33316" stroke-miterlimit="10" stroke-linejoin="round"/>
<path d="M30.4668 73.5171L22.6133 73.3901V226.992L30.2408 227.033" stroke="white" stroke-width="1.33316" stroke-miterlimit="10" stroke-linejoin="round"/>
<path d="M161.646 180.718C161.646 160.381 178.469 143.895 199.222 143.895C219.972 143.895 236.796 160.381 236.796 180.718C236.796 201.055 219.972 217.541 199.222 217.541C178.469 217.541 161.646 201.055 161.646 180.718Z" stroke="white" stroke-width="2.66633" stroke-miterlimit="10" stroke-linejoin="round"/>
<path d="M248.888 219.806L295.467 261.232C295.501 261.264 295.529 261.289 295.529 261.289L279.986 276.917C279.952 276.951 279.925 276.977 279.925 276.977L239.02 229.61C237.79 228.187 237.875 225.956 239.209 224.63L243.925 219.944C245.261 218.618 247.482 218.555 248.888 219.806Z" stroke="white" stroke-width="2.66633" stroke-miterlimit="10" stroke-linejoin="round"/>
<path d="M241.037 221.78L227.076 207.811" stroke="white" stroke-width="2.66633" stroke-miterlimit="10" stroke-linejoin="round"/>
<path d="M89.9355 130.978L122.318 107.884L156.089 115.913L191.649 76.5918" stroke="white" stroke-width="2.66633" stroke-miterlimit="10" stroke-linejoin="round"/>
<path d="M186.361 182.271L196.499 195.392L216.696 174.761" stroke="white" stroke-width="2.66633" stroke-miterlimit="10" stroke-linejoin="round"/>
<path d="M79.0918 168.103H150.99" stroke="white" stroke-width="1.33316" stroke-miterlimit="10" stroke-linejoin="round"/>
<path d="M79.0918 195.392H141.532" stroke="white" stroke-width="1.33316" stroke-miterlimit="10" stroke-linejoin="round"/>
<path d="M79.0918 218.907H126.83" stroke="white" stroke-width="1.33316" stroke-miterlimit="10" stroke-linejoin="round"/>
<path d="M83.4238 130.987C83.4238 127.42 86.3393 124.528 89.9357 124.528C93.5322 124.528 96.4476 127.42 96.4476 130.987C96.4476 134.554 93.5322 137.445 89.9357 137.445C86.3393 137.445 83.4238 134.554 83.4238 130.987Z" fill="white"/>
<path d="M115.041 110.244C115.041 106.677 117.957 103.785 121.553 103.785C125.149 103.785 128.065 106.677 128.065 110.244C128.065 113.811 125.149 116.703 121.553 116.703C117.957 116.703 115.041 113.811 115.041 110.244Z" fill="white"/>
<path d="M148.621 116.702C148.621 113.135 151.537 110.243 155.133 110.243C158.729 110.243 161.645 113.135 161.645 116.702C161.645 120.269 158.729 123.161 155.133 123.161C151.537 123.161 148.621 120.269 148.621 116.702Z" fill="white"/>
<path d="M185.139 76.5925C185.139 73.0254 188.054 70.1338 191.652 70.1338C195.247 70.1338 198.163 73.0254 198.163 76.5925C198.163 80.1596 195.247 83.0512 191.652 83.0512C188.054 83.0512 185.139 80.1596 185.139 76.5925Z" fill="white"/>
</svg>
