<svg width="126" height="142" viewBox="0 0 126 142" fill="none" xmlns="http://www.w3.org/2000/svg">
<g id="icons-share 1">
<g id="Calque-1">
<path id="Vector" d="M112.282 42.3533L89.9416 21.3193L89.8482 32.9881C89.8482 32.9881 68.1839 30.1438 55.9547 44.4483C43.7256 58.7529 41.7012 88.5567 41.7012 88.5567C41.7012 88.5567 57.6376 63.4201 62.9989 58.5911C79.0356 44.1462 89.7879 50.4865 89.7879 50.4865L89.2447 61.0884L112.282 42.3533Z" stroke="black" stroke-width="4" stroke-miterlimit="10" stroke-linejoin="round"/>
<path id="Vector_2" d="M52.9596 39.7024L28.5529 39.6685C26.996 39.6662 25.7429 40.9909 25.754 42.6271L26.1915 106.985C26.2026 108.621 27.4737 109.942 29.0306 109.937L91.3549 109.698C92.9124 109.692 94.1896 108.361 94.2076 106.724L94.6763 65.5302" stroke="black" stroke-width="3" stroke-miterlimit="10" stroke-linejoin="round"/>
<path id="Vector_3" d="M73.3105 90.1381C73.3105 86.5651 76.0319 83.6685 79.3895 83.6685C82.747 83.6685 85.4686 86.5651 85.4686 90.1381C85.4686 93.7118 82.747 96.6084 79.3895 96.6084C76.0319 96.6084 73.3105 93.7118 73.3105 90.1381Z" fill="black"/>
<path id="Vector_4" d="M65.4667 85.9769C65.0925 83.0747 67.0061 80.414 69.7324 80.026C72.4587 79.6372 75.0224 82.1118 74.8231 83.0034C74.7222 83.4548 73.0908 84.1682 72.3293 86.5898C71.5751 88.9884 71.9544 90.4027 71.918 90.4082C68.6258 90.877 65.8409 88.8783 65.4667 85.9769Z" fill="black"/>
<path id="Vector_5" d="M68.9147 105.838C68.9147 105.838 68.7993 102.415 70.1068 99.8677C71.4143 97.321 74.1445 95.6509 74.1445 95.6509C74.1445 95.6509 75.7433 98.2293 79.3902 98.1247C83.7205 97.9996 84.9984 95.5234 84.9984 95.5234C84.9984 95.5234 90.0174 100.31 89.8373 105.546C89.832 105.698 68.9147 105.838 68.9147 105.838Z" fill="black"/>
<path id="Vector_6" d="M67.4302 100.614C67.4302 100.614 67.8371 99.3823 68.0716 98.8264C69.4156 95.6367 72.5587 94.1345 72.5587 94.1345L72.0767 92.7036C72.0767 92.7036 70.516 92.7963 68.9129 92.2142C66.9946 91.5166 66.544 90.4761 66.544 90.4761C66.544 90.4761 63.1214 91.5641 61.39 95.5235C60.2854 98.0495 60.2148 100.681 60.2148 100.681L67.4302 100.614Z" fill="black"/>
</g>
</g>
</svg>
