<svg width="103" height="110" viewBox="0 0 103 110" fill="none" xmlns="http://www.w3.org/2000/svg">
<g clip-path="url(#clip0_585_258)">
<path d="M38.5 29.2871C38.5 29.1256 38.6085 28.9946 38.7423 28.9946H44.8916C45.0255 28.9946 45.1339 29.1256 45.1339 29.2871V56.6353C45.1339 56.7968 45.0255 56.9277 44.8916 56.9277H38.7423C38.6085 56.9277 38.5 56.7968 38.5 56.6353V29.2871Z" stroke="#F1F5FC" stroke-width="2" stroke-miterlimit="10" stroke-linejoin="round"/>
<path d="M63.4336 56.9277H72.6119V61.781H63.4336V56.9277Z" stroke="#F1F5FC" stroke-width="1.5" stroke-miterlimit="10" stroke-linejoin="round"/>
<path d="M63.688 61.7808H72.0465L82.3945 69.9337L82.352 73.2127H51.5V69.7156L63.688 61.7808Z" stroke="#F1F5FC" stroke-width="2" stroke-miterlimit="10" stroke-linejoin="round"/>
<path d="M61.6895 73.4601C61.6895 73.0158 72.6121 73.2686 72.6121 73.4601C72.6121 76.1014 70.1668 78.2427 67.1505 78.2427C64.1348 78.2427 61.6888 76.0612 61.6895 73.4601Z" stroke="#F1F5FC" stroke-miterlimit="10" stroke-linejoin="round"/>
<path d="M45.1348 42.9614C54.8769 42.9614 53.9319 33.574 59.4647 31.7762C68.0241 28.9948 68.0241 41.4769 68.0241 56.9279" stroke="#F1F5FC" stroke-miterlimit="10" stroke-linecap="round" stroke-linejoin="round"/>
<path d="M49.7603 22.048C46.4768 15.8507 39.8223 11.6113 32.1475 11.6113C21.2167 11.6113 12.3555 20.2108 12.3555 30.8187C12.3555 39.9601 19.1277 47.6255 27.9424 49.5661" stroke="#F1F5FC" stroke-width="3" stroke-miterlimit="10" stroke-linejoin="round"/>
<path d="M27.5527 49.0103L28.362 91.1394C28.3721 91.666 28.572 92.4737 28.8086 92.9439L31.5154 98.3229C31.8643 99.0169 32.5865 99.1287 33.1284 98.5744L39.2172 92.3402C39.5724 91.9768 39.6102 91.3545 39.3017 90.9503L36.4684 87.2375L39.1794 84.0888C39.5111 83.7038 39.5443 83.0531 39.2535 82.636L36.5826 78.8038L39.3566 75.4371C39.6799 75.0446 39.6992 74.3933 39.3997 73.9823L36.5137 70.0223L36.532 61.9817" stroke="#F1F5FC" stroke-width="3" stroke-miterlimit="10" stroke-linejoin="round"/>
</g>
<defs>
<clipPath id="clip0_585_258">
<rect width="103" height="110" fill="white"/>
</clipPath>
</defs>
</svg>
