<svg width="132" height="184" viewBox="0 0 132 184" fill="none" xmlns="http://www.w3.org/2000/svg">
<g id="icons-volunteer">
<g id="Group">
<path id="Vector" d="M30.4115 63.6788C30.4117 56.4197 30.4115 49.1605 30.4115 41.9014C30.4115 35.4162 29.0853 17.5177 42.8566 16.5729C50.9828 16.0154 54.3569 24.0114 54.2065 47.7936C54.1072 63.4897 54.7543 80.5873 54.7543 86.8985" stroke="white" stroke-width="5" stroke-miterlimit="10" stroke-linecap="round" stroke-linejoin="round"/>
<path id="Vector_2" d="M128.83 130.603C128.83 175.879 110.256 180.942 69.329 180.77C5.07453 180.499 5.96441 153.575 3.19437 112.254C2.76069 105.783 1.8664 87.8704 15.656 86.9254C23.7929 86.3679 27.1714 94.3641 27.0208 118.146" stroke="white" stroke-width="5" stroke-miterlimit="10" stroke-linecap="round" stroke-linejoin="round"/>
<path id="Vector_3" d="M52.9617 27.9721C52.9617 27.9721 52.4327 3.97182 66.2221 3.02701C74.3592 2.46948 77.7376 10.4655 77.5871 34.2477C77.4876 49.9438 78.1357 67.0414 78.1357 73.3526" stroke="white" stroke-width="5" stroke-miterlimit="10" stroke-linecap="round" stroke-linejoin="round"/>
<path id="Vector_4" d="M78.1714 66.7686C78.1715 59.5095 78.1714 52.2503 78.1714 44.9912C78.1714 38.5061 76.8434 20.6077 90.633 19.6628C98.7706 19.1052 102.149 27.1014 101.998 50.8836C101.898 66.5796 102.546 83.6772 102.546 89.9883" stroke="white" stroke-width="5" stroke-miterlimit="10" stroke-linecap="round" stroke-linejoin="round"/>
<path id="Vector_5" d="M102.58 85.3096C102.58 78.0504 102.58 70.7913 102.58 63.5321C102.58 57.047 101.252 39.1486 115.042 38.2038C123.178 37.6462 126.556 45.6423 126.406 69.4244C126.307 85.1204 126.955 102.218 126.955 108.529" stroke="white" stroke-width="5" stroke-miterlimit="10" stroke-linecap="round" stroke-linejoin="round"/>
<path id="Vector_6" d="M72.4759 122.44C71.3899 123.956 68.7626 118.915 67.4799 117.646C64.508 114.705 60.7338 112.413 57.1976 114.185C52.9592 116.308 47.8924 123.666 49.5095 130.105C51.6427 138.6 65.8831 148.799 71.8157 154.732C72.9948 155.911 93.5597 134.754 94.4619 128.835C95.6617 120.965 90.2912 114.365 85.6577 113.457C80.4939 112.445 75.7807 117.827 72.4759 122.44Z" fill="white" stroke="white" stroke-width="5" stroke-miterlimit="10" stroke-linecap="round" stroke-linejoin="round"/>
</g>
</g>
</svg>
