<svg width="78" height="83" viewBox="0 0 78 83" fill="none" xmlns="http://www.w3.org/2000/svg">
<g id="icons-foyers 1" clip-path="url(#clip0_872_1167)">
<g id="Clip path group">
<mask id="mask0_872_1167" style="mask-type:luminance" maskUnits="userSpaceOnUse" x="0" y="0" width="78" height="83">
<g id="ArtboardFrame">
<path id="Vector" d="M77.9996 0H0V83H77.9996V0Z" fill="white"/>
</g>
</mask>
<g mask="url(#mask0_872_1167)">
<g id="Calque-1">
<g id="Group">
<path id="Vector_2" d="M53.5374 68.5664C53.5374 71.6878 52.159 74.2179 50.4584 74.2179H45.2821C43.5816 74.2179 42.2031 71.6878 42.2031 68.5664" stroke="black" stroke-width="2" stroke-miterlimit="10" stroke-linejoin="round"/>
<path id="Vector_3" d="M50.8977 74.2178C50.8977 75.5957 50.2605 76.6262 47.87 76.6374C46.3558 76.6444 44.8418 75.5957 44.8418 74.2178" stroke="black" stroke-width="1.33316" stroke-miterlimit="10" stroke-linejoin="round"/>
<path id="Vector_4" d="M30.4785 44.6656C30.4785 34.9191 38.6199 27.0181 48.6627 27.0181C58.7058 27.0181 66.8471 34.9191 66.8471 44.6656C66.8471 51.4028 64.4253 56.0541 58.4894 60.0186C54.7158 62.5385 56.493 65.1092 54.4807 67.9144C52.5361 70.6255 41.8039 71.0447 40.4871 66.4069C39.7389 63.7713 40.6393 62.6303 38.2021 60.2242C33.4515 55.5342 30.4785 51.622 30.4785 44.6656Z" stroke="black" stroke-width="3" stroke-miterlimit="10" stroke-linejoin="round"/>
<path id="Vector_5" d="M46.2404 65.6163C46.2404 63.8262 46.465 61.8873 46.2206 60.1163C46.1338 59.4878 44.802 54.8719 44.1532 53.3065C43.9324 52.7735 42.0066 49.9291 41.0507 50.8641C39.0281 52.8421 42.0428 55.5671 44.2045 55.057C45.4784 54.7562 46.0248 53.4781 46.505 52.4234C46.8999 51.5556 47.336 50.6365 47.4214 49.6773C47.4848 48.9634 47.7316 47.3477 47.0426 46.8399C46.0951 46.1408 45.5361 47.9049 45.448 48.5167C45.2235 50.0769 46.1874 53.9337 48.0669 54.317C50.3199 54.7763 51.7411 51.4707 51.8582 49.7095C51.903 49.0329 51.7313 47.6042 50.7112 47.8466C50.1118 47.9893 50.2205 49.6204 50.2205 50.0229C50.2205 51.7654 50.9482 54.2233 52.8597 54.6345C54.0696 54.8943 55.3962 54.1832 56.0945 53.2123C56.337 52.8757 56.72 51.4716 55.9541 51.397C55.1024 51.3145 54.0925 52.0783 53.7814 52.8631C52.7435 55.4818 51.8377 58.5733 51.3503 61.3469C51.1557 62.4557 51.1147 63.615 51.1147 64.7411C51.1147 64.7882 51.0737 64.7704 51.0312 64.7704" stroke="black" stroke-width="1.33316" stroke-miterlimit="10" stroke-linecap="round" stroke-linejoin="round"/>
<path id="Vector_6" d="M62.4796 45.5759C62.4796 45.5759 62.8537 43.9198 62.2422 41.5479" stroke="black" stroke-width="1.33316" stroke-miterlimit="10" stroke-linejoin="round"/>
<path id="Vector_7" d="M61.4642 39.4019C60.8942 38.191 60.049 36.8893 58.8064 35.5815C54.322 30.8617 48.6621 30.9837 48.6621 30.9837" stroke="black" stroke-width="1.33316" stroke-miterlimit="10" stroke-linejoin="round"/>
<path id="Vector_8" d="M70.9363 59.171L67.0293 56.5122" stroke="black" stroke-width="0.799898" stroke-miterlimit="10" stroke-linejoin="round"/>
<path id="Vector_9" d="M74.0138 52.5877L69.5098 51.1553" stroke="black" stroke-width="0.799898" stroke-miterlimit="10" stroke-linejoin="round"/>
<path id="Vector_10" d="M74.4556 45.5771L69.7305 45.688" stroke="black" stroke-width="0.799898" stroke-miterlimit="10" stroke-linejoin="round"/>
<path id="Vector_11" d="M74.0134 39.3037L69.459 40.5663" stroke="black" stroke-width="0.799898" stroke-miterlimit="10" stroke-linejoin="round"/>
<path id="Vector_12" d="M70.935 32.3267L66.8457 34.695" stroke="black" stroke-width="0.799898" stroke-miterlimit="10" stroke-linejoin="round"/>
<path id="Vector_13" d="M30.2948 56.5122L26.2051 58.8805" stroke="black" stroke-width="0.799898" stroke-miterlimit="10" stroke-linejoin="round"/>
<path id="Vector_14" d="M27.8479 51.0107L23.3926 52.5878" stroke="black" stroke-width="0.799898" stroke-miterlimit="10" stroke-linejoin="round"/>
<path id="Vector_15" d="M26.6088 45.6325L21.8828 45.5757" stroke="black" stroke-width="0.799898" stroke-miterlimit="10" stroke-linejoin="round"/>
<path id="Vector_16" d="M27.8105 40.0196L23.2578 38.7505" stroke="black" stroke-width="0.799898" stroke-miterlimit="10" stroke-linejoin="round"/>
<path id="Vector_17" d="M30.4771 34.6951L25.1426 31.9082" stroke="black" stroke-width="0.799898" stroke-miterlimit="10" stroke-linejoin="round"/>
</g>
<path id="Vector_18" d="M34.8161 72.4538L15.5769 72.3209C13.3911 72.3209 11.6193 70.3536 11.6193 67.927L11.9469 42.47L7.26456 42.5052C4.83722 42.4932 4.23549 40.911 5.92054 38.9711L30.4256 10.7605C32.3245 8.57439 35.3448 8.63486 37.1715 10.8956L48.363 24.7458" stroke="black" stroke-width="3" stroke-miterlimit="10" stroke-linejoin="round"/>
</g>
</g>
</g>
</g>
<defs>
<clipPath id="clip0_872_1167">
<rect width="78" height="83" fill="white"/>
</clipPath>
</defs>
</svg>
