<svg width="92" height="97" viewBox="0 0 92 97" fill="none" xmlns="http://www.w3.org/2000/svg">
<g id="icons-communes 1">
<g id="Calque-1">
<g id="Group">
<path id="Vector" d="M36.4043 41.8079C36.4043 39.6682 38.0936 37.9336 40.1775 37.9336C42.2613 37.9336 43.9506 39.6682 43.9506 41.8079C43.9506 43.9477 42.2613 45.6822 40.1775 45.6822C38.0936 45.6822 36.4043 43.9477 36.4043 41.8079Z" stroke="black" stroke-width="2.66633" stroke-miterlimit="10" stroke-linejoin="round"/>
<path id="Vector_2" d="M67.8281 37.9338C67.8281 34.5555 70.5718 31.8169 73.9559 31.8169C77.34 31.8169 80.0836 34.5555 80.0836 37.9338C80.0836 41.3121 77.34 44.0508 73.9559 44.0508C70.5718 44.0508 67.8281 41.3121 67.8281 37.9338Z" stroke="black" stroke-width="2.66633" stroke-miterlimit="10" stroke-linejoin="round"/>
<path id="Vector_3" d="M28.7651 65.2762C28.0087 62.5499 29.6399 59.7292 32.4084 58.9755C35.1769 58.2219 38.0343 59.8207 38.7907 62.5471C39.5471 65.273 37.9159 68.0936 35.1474 68.8473C32.3789 69.601 29.5215 68.0021 28.7651 65.2762Z" stroke="black" stroke-width="2.66633" stroke-miterlimit="10" stroke-linejoin="round"/>
<path id="Vector_4" d="M53.2656 74.0974C53.2656 72.1018 55.0133 70.4844 57.1694 70.4844C57.9226 70.4844 58.6257 70.6816 59.2226 71.0239C60.3329 71.6609 61.0728 72.7993 61.0728 74.0974C61.0728 76.0925 59.3249 77.7099 57.1694 77.7099C55.0133 77.7099 53.2656 76.0925 53.2656 74.0974Z" stroke="black" stroke-width="2.66633" stroke-miterlimit="10" stroke-linejoin="round"/>
<path id="Vector_5" d="M46.6483 58.7891L38.9766 62.5111" stroke="black" stroke-width="2.66633" stroke-miterlimit="10" stroke-linejoin="round"/>
<path id="Vector_6" d="M57.1699 64.7617V70.4842" stroke="black" stroke-width="2.66633" stroke-miterlimit="10" stroke-linejoin="round"/>
<path id="Vector_7" d="M67.6172 57.6802L75.0747 61.5787" stroke="black" stroke-width="2.66633" stroke-miterlimit="10" stroke-linejoin="round"/>
<path id="Vector_8" d="M76.3603 66.7948C74.4936 65.894 73.7344 63.6298 74.6652 61.7372C75.5961 59.8445 77.8639 59.0407 79.7306 59.9415C81.5979 60.8429 82.3566 63.1072 81.4262 64.9992C80.4954 66.8918 78.2276 67.6956 76.3603 66.7948Z" stroke="black" stroke-width="2.66633" stroke-miterlimit="10" stroke-linejoin="round"/>
<path id="Vector_9" d="M65.4551 46.6184L69.7788 42.2246" stroke="black" stroke-width="2.66633" stroke-miterlimit="10" stroke-linejoin="round"/>
<path id="Vector_10" d="M47.5526 47.2955L43.2637 44.0698" stroke="black" stroke-width="2.66633" stroke-miterlimit="10" stroke-linejoin="round"/>
<path id="Vector_11" d="M54.5264 42.5128C53.6367 42.6847 52.7903 42.9535 51.9874 43.3188C51.1845 43.6843 50.5118 44.0604 49.9692 44.4473C49.4267 44.8342 48.9493 45.2319 48.537 45.6403C48.1246 46.0487 47.6798 46.5968 47.2024 47.2847C46.725 47.9725 46.3452 48.6496 46.0631 49.316C45.781 49.9823 45.5531 50.7668 45.3795 51.6697C45.2059 52.5724 45.1191 53.2925 45.1191 53.8299C45.1191 54.3673 45.1625 54.9368 45.2493 55.5385C45.3361 56.1406 45.564 56.9254 45.9329 57.8927C46.3018 58.8599 46.6707 59.612 47.0396 60.1493C47.4086 60.6866 47.6147 60.9553 47.6581 60.9553C47.7015 60.9553 47.5526 60.3776 47.7419 60.012C47.8917 59.7221 48.1138 59.4937 48.1138 59.4076C48.1138 59.3221 47.9727 59.0316 47.6907 58.5373C47.4085 58.0431 47.1807 57.5379 47.0071 57.0218C46.8335 56.5058 46.7033 55.9793 46.6165 55.442C46.5297 54.9047 46.4863 54.3673 46.4863 53.8299C46.4863 53.2925 46.5731 52.6047 46.7466 51.7664C46.9203 50.9281 47.1047 50.2832 47.3001 49.8318C47.4954 49.3804 47.7232 48.9398 47.9836 48.5099C48.244 48.08 48.6672 47.5534 49.2531 46.93C49.839 46.3066 50.3381 45.8445 50.7504 45.5436C51.1628 45.2427 51.5968 44.974 52.0525 44.7375C52.5082 44.5011 53.105 44.2754 53.8428 44.0604C54.5806 43.8455 55.4161 43.7165 56.3492 43.6736C57.2823 43.6306 58.1615 43.695 58.9862 43.867C59.8103 44.0389 60.5052 44.2539 61.0691 44.5118C61.6336 44.7698 62.1001 45.017 62.4687 45.2534C62.8379 45.4899 63.3693 45.952 64.0637 46.6398C64.7585 47.3277 65.3114 48.0262 65.7241 48.7356C66.1361 49.4449 66.4294 50.0468 66.6027 50.5412C66.7765 51.0356 66.9069 51.5299 66.9933 52.0243C67.0802 52.5187 67.1237 53.1205 67.1237 53.8299C67.1237 54.539 67.0368 55.2807 66.8635 56.0545C66.6896 56.8284 66.4618 57.5161 66.1796 58.1183C65.8974 58.7199 65.7131 59.0638 65.6261 59.1499C65.5821 59.194 65.8478 59.5885 65.9491 60.0196C66.0454 60.4316 65.9744 60.8784 66.0167 61.0201C66.1361 60.8588 66.2555 60.6975 66.3749 60.5362C66.6137 60.2141 66.8849 59.7624 67.1886 59.182C67.4928 58.6016 67.7421 58.0109 67.9374 57.4087C68.1327 56.8071 68.2735 56.248 68.3605 55.7319C68.4474 55.2164 68.4688 54.421 68.4259 53.3462C68.3825 52.2715 68.2631 51.3902 68.0678 50.7024C67.8725 50.0145 67.6882 49.4772 67.5143 49.0902C67.3404 48.7033 67.1237 48.2949 66.8635 47.865C66.6027 47.4351 66.288 46.9945 65.9194 46.5431C65.5502 46.0917 65.1381 45.6618 64.6826 45.2534C64.2265 44.845 63.771 44.4903 63.3154 44.1894C62.8593 43.8885 62.3279 43.5983 61.7199 43.3188C61.1126 43.0394 60.5915 42.8352 60.1575 42.7063C59.7239 42.5773 59.2244 42.4698 58.6605 42.3838C58.096 42.2978 57.4886 42.2549 56.8378 42.2549C56.1864 42.2549 55.4161 42.3408 54.5264 42.5128ZM54.7542 45.866C54.0598 46.038 53.5173 46.2207 53.1267 46.4141C52.7361 46.6076 52.3563 46.8333 51.9874 47.0912C51.6185 47.3492 51.2387 47.6716 50.8481 48.0585C50.4575 48.4454 50.0669 48.9613 49.6763 49.6061C49.2857 50.251 49.0144 50.7991 48.8625 51.2505C48.7106 51.7019 48.6021 52.1533 48.537 52.6047C48.4719 53.0561 48.461 53.6364 48.5044 54.3457C48.5261 54.7003 48.5478 55.0551 48.5695 55.4099C48.7106 55.2698 49.2792 54.9962 49.4203 54.8567C49.7024 54.5772 49.4158 54.3565 49.4158 53.9266C49.4158 53.4967 49.4701 53.0023 49.5786 52.4435C49.6871 51.8846 49.8065 51.4439 49.9367 51.1215C50.0669 50.7991 50.2947 50.3907 50.6203 49.8963C50.9457 49.402 51.2604 49.0043 51.5642 48.7033C51.868 48.4024 52.2044 48.123 52.5733 47.865C52.9422 47.6071 53.3111 47.3921 53.6801 47.2202C54.049 47.0482 54.5047 46.8977 55.047 46.7688C55.59 46.6398 56.1759 46.5754 56.8047 46.5754C57.4341 46.5754 57.9551 46.6184 58.3672 46.7043C58.7798 46.7903 59.2788 46.9623 59.8648 47.2202C60.4507 47.4781 60.9497 47.7683 61.3623 48.0908C61.7744 48.4131 62.1216 48.7356 62.4038 49.058C62.686 49.3804 62.9787 49.8103 63.2824 50.3477C63.5867 50.8851 63.8034 51.3795 63.9338 51.8308C64.0637 52.2822 64.1396 52.8519 64.1616 53.5397C64.183 54.2275 63.8304 54.7641 64.1126 55.0431C64.2535 55.1832 64.8994 55.2698 65.0402 55.4099C65.0622 55.0121 65.0837 54.6142 65.1057 54.2168C65.1491 53.4215 65.1271 52.7874 65.0402 52.3145C64.9538 51.8416 64.78 51.2935 64.5197 50.6701C64.259 50.0468 63.9553 49.4986 63.6081 49.0258C63.261 48.5529 62.8269 48.0908 62.3059 47.6394C61.7854 47.1879 61.2534 46.8225 60.7109 46.5431C60.1685 46.2636 59.5611 46.038 58.8882 45.866C58.2154 45.6941 57.5321 45.6081 56.8378 45.6081C56.1429 45.6081 55.4486 45.6941 54.7542 45.866ZM55.6984 52.7981C55.2423 52.9916 54.8628 53.2818 54.559 53.6687C54.2551 54.0556 54.0707 54.3673 54.0056 54.6039C53.9405 54.8404 53.9188 55.1625 53.9405 55.5712C53.9621 55.9793 54.0273 56.3123 54.1358 56.5706C54.2443 56.8284 54.4396 57.097 54.7217 57.3766C55.0038 57.6561 55.1449 57.8278 55.1449 57.8927C55.1449 57.957 55.0147 58.0534 54.7542 58.1826C54.4938 58.3117 54.2226 58.5373 53.9405 58.8599C53.6583 59.182 53.3545 59.2251 53.0291 58.9886C52.8663 58.8703 52.7035 58.752 52.5408 58.6338C52.6384 58.5264 52.7361 58.4191 52.8338 58.3117C53.0291 58.0965 53.1701 57.8387 53.2569 57.5379C53.3437 57.2371 53.3654 56.9466 53.322 56.6671C53.2786 56.388 53.2135 56.1728 53.1267 56.0224C53.0399 55.872 52.8988 55.7107 52.7035 55.5385C52.5082 55.3668 52.3021 55.2377 52.085 55.1516C51.868 55.066 51.5642 55.0442 51.1736 55.0873C50.783 55.1303 50.4684 55.2377 50.2296 55.4099C49.9909 55.5815 49.8065 55.7859 49.6763 56.0224C49.5461 56.2589 49.4701 56.5276 49.4484 56.8284C49.4267 57.1292 49.4484 57.3875 49.5135 57.6022C49.5786 57.8175 49.7197 58.0431 49.9367 58.2796C50.0452 58.3978 50.1537 58.5155 50.2622 58.6338C50.132 58.7199 50.0018 58.806 49.8716 58.8921C49.6111 59.0638 49.3833 59.3003 49.188 59.6011C48.9927 59.9024 48.8733 60.128 48.83 60.2784C48.7866 60.4289 48.7757 60.7188 48.7974 61.1487C48.8191 61.5787 48.9167 61.9547 49.0904 62.2773C49.2639 62.5999 49.4376 62.8364 49.6111 62.9868C49.7848 63.1373 50.2296 63.4168 50.9457 63.825C51.6619 64.2337 52.2912 64.5345 52.8338 64.728C53.3763 64.9214 54.0164 65.0827 54.7542 65.2113C55.492 65.3405 56.1864 65.4048 56.8378 65.4048C57.4886 65.4048 58.2808 65.3083 59.2139 65.1149C60.147 64.9214 60.9497 64.674 61.6226 64.3732C62.2954 64.0724 62.8489 63.7819 63.2824 63.5024C63.7165 63.2234 64.0637 62.9116 64.3244 62.5678C64.5847 62.2239 64.7475 61.9013 64.8124 61.6005C64.8779 61.2991 64.8779 60.9553 64.8124 60.5684C64.7475 60.1814 64.6496 59.8806 64.5197 59.6659C64.3894 59.4507 64.1726 59.236 63.8683 59.0207C63.5647 58.806 63.5322 58.5264 63.771 58.1826C64.0097 57.8387 64.1506 57.5591 64.194 57.3444C64.2375 57.1292 64.2375 56.9036 64.194 56.6671C64.1506 56.4306 64.0857 56.2267 63.9987 56.0545C63.9118 55.8829 63.7275 55.6894 63.4453 55.4742C63.163 55.2595 62.8269 55.1303 62.4363 55.0873C62.0456 55.0442 61.7419 55.066 61.5246 55.1516C61.3079 55.2377 61.0911 55.3881 60.8738 55.6033C60.657 55.818 60.5052 56.0436 60.4182 56.2801C60.3313 56.5167 60.2879 56.7532 60.2879 56.9897C60.2879 57.2262 60.3203 57.4409 60.3858 57.6344C60.4507 57.8278 60.5915 58.0431 60.8089 58.2796C60.9172 58.3978 61.0256 58.5155 61.134 58.6338C60.9822 58.752 60.8303 58.8703 60.6785 58.9886C60.3748 59.2251 60.1035 59.2038 59.8648 58.9242C59.626 58.6447 59.3438 58.4082 59.0186 58.2147C58.8558 58.1183 58.6929 58.0213 58.5301 57.9248C58.6605 57.7848 58.7908 57.6452 58.9207 57.5057C59.1815 57.2262 59.3872 56.9145 59.5391 56.5706C59.6909 56.2267 59.7668 55.8502 59.7668 55.442C59.7668 55.0338 59.7239 54.7003 59.637 54.4425C59.5501 54.1845 59.3223 53.8622 58.9531 53.4752C58.5845 53.0883 58.2154 52.8304 57.8468 52.7014C57.4776 52.5724 57.1414 52.5079 56.8378 52.5079C56.5335 52.5079 56.1539 52.6047 55.6984 52.7981Z" fill="black"/>
</g>
<path id="Vector_12" d="M35.5293 77.7095L20.2809 77.2616C17.9105 77.2616 15.9889 75.4224 15.9889 73.1532L16.3443 48.4426L10.5369 48.4401C7.90457 48.4289 7.25201 46.9494 9.07939 45.1355L31.8474 18.7273C33.9067 16.6832 37.182 16.7397 39.163 18.8536L50.5405 30.9942L55.2025 35.9688" stroke="black" stroke-width="3" stroke-miterlimit="10" stroke-linejoin="round"/>
</g>
</g>
</svg>
