<svg width="223" height="238" viewBox="0 0 223 238" fill="none" xmlns="http://www.w3.org/2000/svg">
<g clip-path="url(#clip0_895_444)">
<mask id="mask0_895_444" style="mask-type:luminance" maskUnits="userSpaceOnUse" x="0" y="0" width="223" height="238">
<path d="M222.933 0H0V237.3H222.933V0Z" fill="white"/>
</mask>
<g mask="url(#mask0_895_444)">
<path d="M96.2511 212.619H24.8203V58.0194L60.0602 25.6973H167.852V132.261" stroke="white" stroke-width="5" stroke-miterlimit="10" stroke-linejoin="round"/>
<path d="M64.7055 22.7754V63.1697H21.8984L64.7055 22.7754Z" fill="white"/>
<path d="M92.7305 56.6002L155.223 56.5684" stroke="white" stroke-width="3" stroke-miterlimit="10" stroke-linejoin="round"/>
<path d="M76.1543 72.7418L155.782 72.71" stroke="white" stroke-width="3" stroke-miterlimit="10" stroke-linejoin="round"/>
<path d="M43.3027 89.8755L155.784 88.9922" stroke="white" stroke-width="3" stroke-miterlimit="10" stroke-linejoin="round"/>
<path d="M43.3027 104.523L155.784 104.496" stroke="white" stroke-width="3" stroke-miterlimit="10" stroke-linejoin="round"/>
<path d="M43.918 119.159L156.4 119.132" stroke="white" stroke-width="3" stroke-miterlimit="10" stroke-linejoin="round"/>
<path d="M88.9051 127.753L114.029 151.64L98.3493 172.105L92.1368 180.214L85.8281 175.464" stroke="white" stroke-width="3.33291" stroke-miterlimit="10" stroke-linejoin="round"/>
<path d="M195.463 127.753L167.906 148.587L183.586 169.052L189.798 177.161L200.193 170.631" stroke="white" stroke-width="3.33291" stroke-miterlimit="10" stroke-linejoin="round"/>
<path d="M85.8281 167.893C85.8281 166.381 86.9974 165.154 88.4398 165.154C89.8823 165.154 91.0516 166.381 91.0516 167.893C91.0516 169.404 89.8823 170.631 88.4398 170.631C86.9974 170.631 85.8281 169.404 85.8281 167.893Z" fill="white"/>
<path d="M190.494 164.26C190.494 162.747 191.663 161.521 193.106 161.521C194.548 161.521 195.717 162.747 195.717 164.26C195.717 165.772 194.548 166.997 193.106 166.997C191.663 166.997 190.494 165.772 190.494 164.26Z" fill="white"/>
<path d="M115.516 153.696C117.368 153.696 119.338 153.888 121.171 153.65C123.562 153.343 122.583 152.332 129.208 151.155C134.375 150.238 141.884 152.325 142.072 153.984C142.108 154.304 134.682 159.422 134.168 160.076C132.154 162.637 120.525 174.237 125.746 178.137C132.464 183.155 139.785 164.638 144.428 167.893C155.061 175.349 161.363 183.432 170.116 192.535C174.092 196.669 180.915 203.142 176.145 206.481C169.978 210.798 160.692 195.326 160.692 195.326L157.229 191.366C157.229 191.366 171.053 205.015 167.577 210.97C165.005 215.379 153.348 202.243 153.348 202.243L149.664 198.895C149.664 198.895 162.823 211.77 159.85 215.643C157.017 219.333 152.263 218.105 148.927 215.371" stroke="white" stroke-width="1.33316" stroke-miterlimit="10" stroke-linecap="round" stroke-linejoin="round"/>
<path d="M95.3672 180.214C95.3669 185.064 102.016 193.589 107.268 197.777" stroke="white" stroke-width="1.33316" stroke-miterlimit="10" stroke-linecap="round" stroke-linejoin="round"/>
<path d="M167.906 153.984C164.171 153.844 164.179 150.931 156.166 150.931C149.709 150.931 142.072 153.984 142.072 153.984" stroke="white" stroke-width="1.33316" stroke-miterlimit="10" stroke-linecap="round" stroke-linejoin="round"/>
<path d="M176.145 197.777C176.145 197.584 179.453 192.732 181.888 188.154C184.323 183.575 184.017 176.956 185.685 175.304" stroke="white" stroke-width="1.33316" stroke-miterlimit="10" stroke-linecap="round" stroke-linejoin="round"/>
<path d="M110.615 197.314C112.143 195.821 114.591 195.85 116.083 197.378L117.343 198.669C118.836 200.195 118.807 202.643 117.279 204.136L114.692 206.663C113.164 208.155 110.717 208.126 109.225 206.599L107.964 205.309C106.472 203.781 106.5 201.333 108.028 199.842L110.615 197.314Z" stroke="white" stroke-width="1.33316" stroke-miterlimit="10" stroke-linejoin="round"/>
<path d="M123.469 198.591C125.235 196.866 128.066 196.899 129.791 198.664L130.207 199.091C131.932 200.856 131.899 203.688 130.133 205.413L120.964 214.37C119.198 216.095 116.367 216.062 114.642 214.296L114.226 213.87C112.5 212.104 112.534 209.273 114.3 207.547L123.469 198.591Z" stroke="white" stroke-width="1.33316" stroke-miterlimit="10" stroke-linejoin="round"/>
<path d="M130.781 204.384C132.504 202.7 135.265 202.732 136.948 204.456L137.517 205.038C139.201 206.761 139.169 209.522 137.445 211.206L128.673 219.775C126.95 221.458 124.189 221.426 122.506 219.702L121.937 219.119C120.254 217.397 120.286 214.636 122.009 212.953L130.781 204.384Z" stroke="white" stroke-width="1.33316" stroke-miterlimit="10" stroke-linejoin="round"/>
<path d="M140.075 208.837C141.616 207.33 144.086 207.36 145.591 208.901L146.803 210.142C148.308 211.683 148.28 214.152 146.739 215.659L140.343 221.906C138.802 223.411 136.332 223.383 134.826 221.84L133.614 220.601C132.109 219.059 132.138 216.589 133.679 215.084L140.075 208.837Z" stroke="white" stroke-width="1.33316" stroke-miterlimit="10" stroke-linejoin="round"/>
</g>
</g>
<defs>
<clipPath id="clip0_895_444">
<rect width="222.934" height="237.3" fill="white"/>
</clipPath>
</defs>
</svg>
