<svg width="161" height="173" viewBox="0 0 161 173" fill="none" xmlns="http://www.w3.org/2000/svg">
<g id="icons-sensibilisation">
<path id="Vector" d="M150.562 47.0987L112.431 12.9365L112.271 31.8883C112.271 31.8883 75.2924 27.2688 54.4189 50.5013C33.5453 73.7339 30.0898 122.14 30.0898 122.14C30.0898 122.14 57.2913 81.3142 66.4423 73.4713C93.8155 50.0108 112.169 60.3083 112.169 60.3083L111.241 77.5272L150.562 47.0987Z" stroke="white" stroke-width="3" stroke-miterlimit="10" stroke-linejoin="round"/>
<path id="Vector_2" d="M49.3058 42.7926L7.64656 42.7373C4.98914 42.7337 2.85027 44.8851 2.86927 47.5425L3.61591 152.069C3.63491 154.726 5.80454 156.872 8.46195 156.862L114.843 156.475C117.5 156.466 119.68 154.303 119.711 151.646L120.511 84.7407" stroke="white" stroke-width="5" stroke-miterlimit="10" stroke-linejoin="round"/>
<path id="Vector_3" d="M111.04 133.045C109.74 134.86 106.594 128.824 105.058 127.304C101.499 123.782 96.9799 121.038 92.7452 123.16C87.67 125.702 81.6027 134.513 83.5391 142.224C86.0936 152.396 103.146 164.607 110.249 171.713C111.661 173.125 136.287 147.789 137.367 140.703C138.804 131.278 132.373 123.376 126.824 122.288C120.641 121.076 114.998 127.52 111.04 133.045Z" fill="white" stroke="white" stroke-width="2" stroke-miterlimit="10" stroke-linecap="round" stroke-linejoin="round"/>
<path id="Vector_4" d="M147.312 92.1141C146.719 92.9417 145.286 90.1915 144.587 89.4992C142.965 87.895 140.907 86.6446 138.977 87.6109C136.665 88.7693 133.901 92.7826 134.783 96.2961C135.947 100.929 143.715 106.492 146.952 109.729C147.594 110.373 158.813 98.8312 159.306 95.6027C159.96 91.3096 157.031 87.7096 154.503 87.2141C151.686 86.662 149.114 89.5978 147.312 92.1141Z" fill="white" stroke="white" stroke-width="2" stroke-miterlimit="10" stroke-linecap="round" stroke-linejoin="round"/>
</g>
</svg>
