<svg width="86" height="91" viewBox="0 0 86 91" fill="none" xmlns="http://www.w3.org/2000/svg">
<g id="icons-job 1" clip-path="url(#clip0_872_1194)">
<g id="Clip path group">
<g id="Calque-1">
<g id="Group">
<g id="Group_2">
<path id="Vector" d="M18.8442 43.0413C13.7692 44.2502 10.0878 48.8244 10.0879 54.1689C10.0879 59.3483 13.5461 63.8099 18.3804 65.181C18.7453 65.2843 19.0718 64.3815 18.782 64.3038C14.2804 63.0942 11.0408 58.9705 11.0408 54.1689C11.0408 49.301 14.3716 45.1355 18.9687 43.9916C19.2079 43.932 19.0693 42.9876 18.8442 43.0413Z" fill="black"/>
<path id="Vector_2" d="M25.1156 36.8614L18.1276 37.0094C17.8639 37.0151 17.6545 37.2407 17.661 37.5028L17.7206 40.2558C16.623 40.5934 15.4698 41.0785 14.5045 41.5978L12.2413 38.9928C12.1505 38.8882 12.0217 38.8294 11.8939 38.8251C11.7662 38.8207 11.6442 38.8649 11.5465 38.9632L6.62308 43.9068C6.43223 44.0987 6.44159 44.4067 6.64293 44.5876L9.15429 46.8473C8.56045 47.9047 7.98985 49.2222 7.60578 50.4291L5.10439 50.4094C4.8412 50.4074 4.62002 50.6115 4.61801 50.8732L4.56837 58.0961C4.56635 58.3589 4.78028 58.5798 5.04483 58.5798H7.50652C7.78989 59.5608 8.16208 60.3456 8.99548 61.7172L7.01023 63.3951C6.80766 63.5669 6.78446 63.8772 6.9606 64.0756L11.3778 69.049C11.5518 69.2453 11.8554 69.2616 12.0527 69.0883C12.0527 69.0883 14.3819 66.9968 14.4151 67.0163C15.4362 67.6119 16.5199 68.0919 17.661 68.4472V71.6834C17.661 71.9446 17.875 72.1563 18.1375 72.1573L25.1255 72.1767C25.3886 72.1778 25.601 71.9748 25.602 71.713L25.6119 68.1512H24.659L24.6491 71.2299L18.6139 71.21V67.8552L18.3459 67.6972C16.9149 67.2954 15.5684 66.685 14.3357 65.8915L11.7748 68.0623L7.99293 63.7995L10.1866 61.9545L9.87887 61.3522C8.91731 59.7776 8.58071 59.1053 8.30063 57.9877L8.14182 57.6324H5.52127L5.5709 51.3569L8.10212 51.3764L8.30063 51.2874C8.68038 49.8833 9.55564 47.8571 10.276 46.7387L10.1965 46.5019L7.65541 44.2226L11.8542 39.9993L14.2166 42.7128L14.5641 42.6141C15.59 42.0142 17.029 41.4118 18.2765 41.0551L18.6933 40.8972L18.6239 37.9469L24.6491 37.8186L24.659 40.611L25.6119 40.6012L25.602 37.3351C25.6008 37.0703 25.3818 36.8557 25.1156 36.8614Z" fill="black"/>
</g>
<path id="Vector_3" d="M21.1094 43.3534C21.1094 42.5137 21.7813 41.833 22.6103 41.833C23.4391 41.833 24.1111 42.5137 24.1111 43.3534C24.1111 44.193 23.4391 44.8737 22.6103 44.8737C21.7813 44.8737 21.1094 44.193 21.1094 43.3534Z" stroke="black" stroke-miterlimit="10" stroke-linejoin="round"/>
<path id="Vector_4" d="M17.834 49.6004C17.834 48.7607 18.506 48.0801 19.3349 48.0801C20.1638 48.0801 20.8357 48.7607 20.8357 49.6004C20.8357 50.4401 20.1638 51.1207 19.3349 51.1207C18.506 51.1207 17.834 50.4401 17.834 49.6004Z" stroke="black" stroke-miterlimit="10" stroke-linejoin="round"/>
<path id="Vector_5" d="M16.332 55.4325C16.332 54.5926 17.004 53.9121 17.8329 53.9121C18.6618 53.9121 19.3338 54.5926 19.3338 55.4325C19.3338 56.272 18.6618 56.9525 17.8329 56.9525C17.004 56.9525 16.332 56.272 16.332 55.4325Z" stroke="black" stroke-miterlimit="10" stroke-linejoin="round"/>
<path id="Vector_6" d="M22.6094 59.4404C22.6094 58.6004 23.2813 57.9199 24.1102 57.9199C24.9391 57.9199 25.6111 58.6004 25.6111 59.4404C25.6111 60.2798 24.9391 60.9608 24.1102 60.9608C23.2813 60.9608 22.6094 60.2798 22.6094 59.4404Z" stroke="black" stroke-miterlimit="10" stroke-linejoin="round"/>
<path id="Vector_7" d="M20.1934 65.5214C20.1934 64.682 20.8653 64.001 21.6942 64.001C22.5231 64.001 23.1951 64.682 23.1951 65.5214C23.1951 66.3609 22.5231 67.0418 21.6942 67.0418C20.8653 67.0418 20.1934 66.3609 20.1934 65.5214Z" stroke="black" stroke-miterlimit="10" stroke-linejoin="round"/>
<path id="Vector_8" d="M28.7715 61.8735C28.7715 61.034 29.4435 60.353 30.2723 60.353C31.1013 60.353 31.7732 61.034 31.7732 61.8735C31.7732 62.7129 31.1013 63.3939 30.2723 63.3939C29.4435 63.3939 28.7715 62.7129 28.7715 61.8735Z" stroke="black" stroke-miterlimit="10" stroke-linejoin="round"/>
<path id="Vector_9" d="M24.8711 53.912C24.8711 53.0721 25.5431 52.3916 26.372 52.3916C27.2009 52.3916 27.8728 53.0721 27.8728 53.912C27.8728 54.7515 27.2009 55.4325 26.372 55.4325C25.5431 55.4325 24.8711 54.7515 24.8711 53.912Z" stroke="black" stroke-miterlimit="10" stroke-linejoin="round"/>
<path id="Vector_10" d="M27.2695 46.3939C27.2695 45.5542 27.9415 44.8735 28.7704 44.8735C29.5993 44.8735 30.2713 45.5542 30.2713 46.3939C30.2713 47.2335 29.5993 47.9142 28.7704 47.9142C27.9415 47.9142 27.2695 47.2335 27.2695 46.3939Z" stroke="black" stroke-miterlimit="10" stroke-linejoin="round"/>
<path id="Vector_11" d="M31.7715 55.4325C31.7715 54.5926 32.4434 53.9121 33.2723 53.9121C34.1013 53.9121 34.7732 54.5926 34.7732 55.4325C34.7732 56.272 34.1013 56.9525 33.2723 56.9525C32.4434 56.9525 31.7715 56.272 31.7715 55.4325Z" stroke="black" stroke-miterlimit="10" stroke-linejoin="round"/>
<path id="Vector_12" d="M17.245 53.844L16.2754 52.0015" stroke="black" stroke-miterlimit="10" stroke-linecap="round" stroke-linejoin="round"/>
<path id="Vector_13" d="M20.758 63.9286C20.193 62.6689 19.0789 61.4353 19.3343 59.853C19.5712 58.3852 22.1889 54.691 22.1963 54.5187C22.2572 53.1195 20.5261 50.9212 20.5226 50.9263" stroke="black" stroke-miterlimit="10" stroke-linecap="round" stroke-linejoin="round"/>
<path id="Vector_14" d="M23.1953 44.8735C24.2893 47.2842 24.2893 48.1499 25.6128 49.7034C26.1671 50.354 28.6474 49.2738 29.7238 50.2227C30.6714 51.0581 32.2202 53.5509 32.2202 53.9119" stroke="black" stroke-miterlimit="10" stroke-linecap="round" stroke-linejoin="round"/>
<path id="Vector_15" d="M27.2695 55.4326C27.8895 56.9904 28.8543 58.9919 29.3978 60.3145" stroke="black" stroke-miterlimit="10" stroke-linecap="round" stroke-linejoin="round"/>
<path id="Vector_16" d="M24.9004 43.7646C25.0394 43.7645 25.6121 43.7865 26.7314 44.2049" stroke="black" stroke-miterlimit="10" stroke-linecap="round" stroke-linejoin="round"/>
<path id="Vector_17" d="M24.2891 65.2702C24.9304 65.2702 25.7799 65.1245 26.3735 64.8827C27.3627 64.4793 28.3932 64.0795 28.3932 63.9287" stroke="black" stroke-miterlimit="10" stroke-linecap="round" stroke-linejoin="round"/>
<path id="Vector_18" d="M33.2725 57.9258C33.1537 58.3818 32.2188 60.4943 32.2188 60.302" stroke="black" stroke-miterlimit="10" stroke-linecap="round" stroke-linejoin="round"/>
<path id="Vector_19" d="M14.4316 49.0792C14.4316 48.906 14.5789 48.7656 14.7606 48.7656C14.9423 48.7656 15.0896 48.906 15.0896 49.0792C15.0896 49.2524 14.9423 49.3928 14.7606 49.3928C14.5789 49.3928 14.4316 49.2524 14.4316 49.0792Z" fill="black"/>
<path id="Vector_20" d="M15.0898 50.6129C15.0898 50.4397 15.2371 50.2993 15.4188 50.2993C15.6005 50.2993 15.7477 50.4397 15.7477 50.6129C15.7477 50.7861 15.6005 50.9265 15.4188 50.9265C15.2371 50.9265 15.0898 50.7861 15.0898 50.6129Z" fill="black"/>
<path id="Vector_21" d="M16.916 60.0009C16.916 59.8276 17.0633 59.687 17.245 59.687C17.4266 59.687 17.5739 59.8276 17.5739 60.0009C17.5739 60.1742 17.4266 60.3143 17.245 60.3143C17.0633 60.3143 16.916 60.1742 16.916 60.0009Z" fill="black"/>
<path id="Vector_22" d="M21.6946 47.0565C21.6791 46.884 21.8134 46.7312 21.9943 46.7152C22.1753 46.6992 22.3344 46.8262 22.3499 46.9987C22.3652 47.1712 22.2311 47.324 22.0501 47.3399C21.8691 47.3559 21.7099 47.229 21.6946 47.0565Z" fill="black"/>
<path id="Vector_23" d="M25.9219 57.0388C25.9187 56.8655 26.0633 56.7224 26.245 56.7193C26.4266 56.7157 26.5765 56.8533 26.5798 57.0266C26.583 57.1999 26.4384 57.343 26.2567 57.3461C26.0751 57.3497 25.9252 57.2121 25.9219 57.0388Z" fill="black"/>
<path id="Vector_24" d="M31.6575 49.1862C31.6417 49.0138 31.7755 48.8606 31.9564 48.8442C32.1373 48.8278 32.2968 48.9542 32.3127 49.1267C32.3286 49.2992 32.1947 49.4523 32.0138 49.4687C31.8329 49.4852 31.6734 49.3587 31.6575 49.1862Z" fill="black"/>
<path id="Vector_25" d="M17.5039 61.5605C17.5039 61.3872 17.6512 61.2466 17.8328 61.2466C18.0145 61.2466 18.1618 61.3872 18.1618 61.5605C18.1618 61.7333 18.0145 61.8739 17.8328 61.8739C17.6512 61.8739 17.5039 61.7333 17.5039 61.5605Z" fill="black"/>
<path id="Vector_26" d="M22.4192 48.558C22.4037 48.3854 22.538 48.2327 22.719 48.2167C22.8999 48.2007 23.0591 48.3276 23.0745 48.5002C23.0899 48.6727 22.9557 48.8255 22.7747 48.8414C22.5938 48.8574 22.4346 48.7305 22.4192 48.558Z" fill="black"/>
<path id="Vector_27" d="M26.5391 58.5867C26.5359 58.4134 26.6805 58.2702 26.8621 58.2672C27.0438 58.2636 27.1936 58.4011 27.1969 58.5744C27.2002 58.7477 27.0556 58.8909 26.8739 58.8939C26.6923 58.8975 26.5424 58.7595 26.5391 58.5867Z" fill="black"/>
<path id="Vector_28" d="M32.386 50.6858C32.3702 50.5133 32.504 50.3602 32.6849 50.3437C32.8658 50.3273 33.0253 50.4537 33.0412 50.6262C33.0571 50.7987 32.9233 50.9518 32.7424 50.9683C32.5615 50.9847 32.4019 50.8582 32.386 50.6858Z" fill="black"/>
<path id="Vector_29" d="M18.1621 63.08C18.1621 62.9072 18.3094 62.7666 18.4911 62.7666C18.6727 62.7666 18.82 62.9072 18.82 63.08C18.82 63.2533 18.6727 63.3939 18.4911 63.3939C18.3094 63.3939 18.1621 63.2533 18.1621 63.08Z" fill="black"/>
<path id="Vector_30" d="M23.2102 50.0145C23.1948 49.842 23.329 49.6892 23.51 49.6732C23.6909 49.6573 23.8501 49.7842 23.8655 49.9567C23.8809 50.1292 23.7467 50.282 23.5657 50.298C23.3848 50.3139 23.2256 50.187 23.2102 50.0145Z" fill="black"/>
<path id="Vector_31" d="M27.2247 60.0945C27.2214 59.9212 27.366 59.7785 27.5477 59.775C27.7293 59.7714 27.8792 59.9094 27.8824 60.0822C27.8857 60.2555 27.7411 60.3987 27.5595 60.4018C27.3778 60.4053 27.228 60.2678 27.2247 60.0945Z" fill="black"/>
<path id="Vector_32" d="M33.181 52.1403C33.1651 51.968 33.2989 51.8147 33.4799 51.7983C33.6607 51.7819 33.8203 51.9082 33.8362 52.081C33.852 52.2533 33.7182 52.4062 33.5373 52.423C33.3564 52.4394 33.1969 52.3126 33.181 52.1403Z" fill="black"/>
</g>
<g id="Group_3">
<path id="Vector_33" d="M12.748 29.3394H73.2523V70.4773H35.0534" stroke="black" stroke-width="3" stroke-miterlimit="10" stroke-linejoin="round"/>
<path id="Vector_34" d="M73.252 29.3394L67.0764 46.5571C66.7421 47.4895 65.6637 48.2453 64.668 48.2453H35.6914" stroke="black" stroke-width="3" stroke-miterlimit="10" stroke-linejoin="round"/>
<path id="Vector_35" d="M54.0398 29.3394L54.0542 23.1564C54.0572 21.7503 52.9135 20.6051 51.4987 20.5985L33.8218 20.5166C32.4073 20.5101 31.1746 21.6415 31.0686 23.0437L30.6113 29.0892" stroke="black" stroke-width="3" stroke-miterlimit="10" stroke-linejoin="round"/>
<path id="Vector_36" d="M38.7695 49.0754C38.7695 48.6168 39.1435 48.2451 39.6048 48.2451H49.0799C49.5412 48.2451 49.9151 48.6168 49.9151 49.0754V52.0453C49.9151 52.5039 49.5412 52.8756 49.0799 52.8756H39.6048C39.1435 52.8756 38.7695 52.5039 38.7695 52.0453V49.0754Z" fill="black" stroke="black" stroke-width="3" stroke-miterlimit="10" stroke-linejoin="round"/>
</g>
</g>
</g>
</g>
<defs>
<clipPath id="clip0_872_1194">
<rect width="86" height="91" fill="white"/>
</clipPath>
</defs>
</svg>
