<svg width="285" height="286" viewBox="0 0 285 286" fill="none" xmlns="http://www.w3.org/2000/svg">
<path d="M197.17 39.2061H252.154L252.03 221.648" stroke="white" stroke-width="3.99949" stroke-miterlimit="10" stroke-linejoin="round"/>
<path d="M252.153 217.882V251.826H69.6445V39.2061H116.666" stroke="white" stroke-width="3.99949" stroke-miterlimit="10" stroke-linejoin="round"/>
<path d="M64.8873 46.4417L59.6439 46.3547C58.7954 46.3406 58.1074 46.9494 58.1074 47.7141V261.896C58.1074 262.66 58.7954 263.283 59.6441 263.285L238.662 263.808C239.511 263.811 240.194 263.193 240.189 262.427L240.15 257.782" stroke="white" stroke-width="1.33316" stroke-miterlimit="10" stroke-linejoin="round"/>
<path d="M55.8962 55.2852L52.3415 55.2854C51.4842 55.2715 50.7891 55.8768 50.7891 56.6377V269.715C50.7891 270.475 51.4842 271.093 52.3419 271.097L233.235 271.616C234.093 271.62 234.782 271.005 234.777 270.244L234.738 265.621" stroke="white" stroke-width="1.33316" stroke-miterlimit="10" stroke-linejoin="round"/>
<path d="M211.373 163.468L218.031 171.299L231.294 158.985" stroke="white" stroke-width="2.66633" stroke-miterlimit="10" stroke-linejoin="round"/>
<path d="M204.965 190.512L211.621 198.345L224.886 186.03" stroke="white" stroke-width="2.66633" stroke-miterlimit="10" stroke-linejoin="round"/>
<path d="M181.637 213.817L188.293 221.648L201.557 209.334" stroke="white" stroke-width="2.66633" stroke-miterlimit="10" stroke-linejoin="round"/>
<path d="M103.102 165.143H200.717" stroke="white" stroke-width="2.66633" stroke-miterlimit="10" stroke-linejoin="round"/>
<path d="M103.102 192.187H187.875" stroke="white" stroke-width="2.66633" stroke-miterlimit="10" stroke-linejoin="round"/>
<path d="M103.102 215.491H167.914" stroke="white" stroke-width="2.66633" stroke-miterlimit="10" stroke-linejoin="round"/>
<path d="M161.94 96.6159H162.49C164.568 96.6159 166.698 96.9725 168.878 97.6857C171.059 98.3988 172.923 99.4482 174.472 100.834L169.398 106.519C168.46 105.5 167.34 104.695 166.036 104.104C164.731 103.513 163.366 103.218 161.94 103.218V115.443L162.185 115.504C163.896 115.953 165.577 116.462 167.228 117.032C168.878 117.603 170.346 118.347 171.629 119.264C172.913 120.18 173.952 121.332 174.747 122.717C175.542 124.103 175.939 125.835 175.939 127.913C175.939 129.951 175.572 131.754 174.839 133.323C174.105 134.892 173.107 136.237 171.843 137.357C170.58 138.478 169.102 139.364 167.411 140.016C165.72 140.668 163.896 141.096 161.94 141.3V145.701H158.639V141.361C155.95 141.402 153.372 140.994 150.907 140.139C148.441 139.283 146.271 137.877 144.396 135.921L149.959 130.236C150.937 131.621 152.2 132.681 153.749 133.415C155.298 134.148 156.928 134.596 158.639 134.759V121.861L158.333 121.8C156.622 121.311 154.992 120.771 153.443 120.18C151.895 119.59 150.519 118.815 149.317 117.858C148.115 116.9 147.168 115.739 146.475 114.373C145.782 113.008 145.436 111.307 145.436 109.269C145.436 107.435 145.802 105.785 146.536 104.318C147.269 102.851 148.248 101.577 149.47 100.498C150.693 99.4176 152.099 98.5516 153.688 97.8996C155.277 97.2476 156.928 96.8401 158.639 96.6771V92.5815H161.94V96.6159ZM158.639 103.34C157.213 103.584 155.939 104.186 154.819 105.143C153.698 106.101 153.138 107.354 153.138 108.903C153.138 109.84 153.291 110.594 153.596 111.164C153.902 111.735 154.299 112.224 154.788 112.631C155.277 113.039 155.858 113.375 156.53 113.64C157.203 113.905 157.906 114.2 158.639 114.526V103.34ZM161.94 134.759C162.796 134.596 163.601 134.342 164.355 133.995C165.108 133.649 165.771 133.221 166.341 132.712C166.912 132.202 167.37 131.591 167.717 130.878C168.063 130.165 168.236 129.36 168.236 128.463C168.236 127.567 168.043 126.813 167.655 126.202C167.268 125.59 166.769 125.081 166.158 124.673C165.547 124.266 164.874 123.919 164.141 123.634C163.407 123.349 162.674 123.084 161.94 122.84V134.759Z" fill="white"/>
<path d="M122.322 40.2814C122.322 32.9519 128.859 27.0104 136.923 27.0104L136.923 26.9981C136.901 20.2247 142.922 14.6392 150.374 14.5222L160.543 14.3628C168.357 14.2402 174.516 19.8968 174.299 26.9975V27.0104C182.363 27.0104 188.9 32.9519 188.9 40.2814C188.9 47.6108 182.363 53.5525 174.299 53.5525H136.923C128.859 53.5525 122.322 47.6108 122.322 40.2814Z" fill="white"/>
</svg>
