<svg width="116" height="124" viewBox="0 0 116 124" fill="none" xmlns="http://www.w3.org/2000/svg">
<g id="icons-commitment 1">
<g id="Calque-1">
<g id="Group">
<path id="Vector" d="M78.6421 92.9836C84.748 89.7791 102.115 79.1407 106.468 89.0079C106.817 89.8007 98.9958 94.0439 85.6519 101.334C74.8788 107.22 63.6283 113.64 55.808 113.64C48.2338 113.64 30.2467 106.123 28.3576 106.906C27.5532 107.239 22.1406 111.761 22.1406 111.352" stroke="white" stroke-width="3" stroke-miterlimit="10" stroke-linecap="round" stroke-linejoin="round"/>
<path id="Vector_2" d="M22.2812 87.377C27.5792 84.7597 35.616 81.5301 41.826 83.0766C44.912 83.845 47.9778 87.5086 50.9334 87.5156C64.2062 87.5483 77.21 81.1309 78.6425 95.2692C78.648 95.3249 60.7147 95.7617 55.8084 95.7617" stroke="white" stroke-width="3" stroke-miterlimit="10" stroke-linecap="round" stroke-linejoin="round"/>
<path id="Vector_3" d="M9.52148 83.7114H21.4567V115.035H9.52148V83.7114Z" stroke="white" stroke-width="3" stroke-miterlimit="10" stroke-linejoin="round"/>
</g>
<g id="Group_2">
<path id="Vector_4" d="M31.8184 28.9518C31.8184 26.2164 33.9483 23.999 36.5758 23.999C39.2033 23.999 41.3333 26.2164 41.3333 28.9518C41.3333 31.687 39.2033 33.9044 36.5758 33.9044C33.9483 33.9044 31.8184 31.687 31.8184 28.9518Z" stroke="white" stroke-width="2" stroke-miterlimit="10" stroke-linejoin="round"/>
<path id="Vector_5" d="M71.4395 23.9988C71.4395 19.6801 74.8989 16.1792 79.1658 16.1792C83.4327 16.1792 86.8922 19.6801 86.8922 23.9988C86.8922 28.3175 83.4327 31.8184 79.1658 31.8184C74.8989 31.8184 71.4395 28.3175 71.4395 23.9988Z" stroke="white" stroke-width="2" stroke-miterlimit="10" stroke-linejoin="round"/>
<path id="Vector_6" d="M22.1845 58.9518C21.2308 55.467 23.2875 51.861 26.7782 50.8975C30.269 49.9341 33.8719 51.9781 34.8256 55.4628C35.7792 58.9476 33.7226 62.5536 30.2318 63.5171C26.7411 64.4805 23.1381 62.4366 22.1845 58.9518Z" stroke="white" stroke-width="2" stroke-miterlimit="10" stroke-linejoin="round"/>
<path id="Vector_7" d="M53.0781 70.2282C53.0781 67.6776 55.2818 65.6099 58.0001 65.6099C58.9499 65.6099 59.8369 65.8623 60.5889 66.2996C61.9893 67.1138 62.922 68.5689 62.922 70.2282C62.922 72.7793 60.7184 74.8469 58.0001 74.8469C55.2818 74.8469 53.0781 72.7793 53.0781 70.2282Z" stroke="white" stroke-width="2" stroke-miterlimit="10" stroke-linejoin="round"/>
<path id="Vector_8" d="M44.7317 50.6592L35.0586 55.4172" stroke="white" stroke-width="2" stroke-miterlimit="10" stroke-linejoin="round"/>
<path id="Vector_9" d="M58 58.2944V65.6097" stroke="white" stroke-width="2" stroke-miterlimit="10" stroke-linejoin="round"/>
<path id="Vector_10" d="M71.1719 49.2417L80.5749 54.2251" stroke="white" stroke-width="2" stroke-miterlimit="10" stroke-linejoin="round"/>
<path id="Vector_11" d="M82.1953 60.8933C79.8416 59.7416 78.8843 56.847 80.058 54.4278C81.2318 52.0087 84.0912 50.9812 86.4456 52.1328C88.7993 53.2844 89.7559 56.179 88.5828 58.5982C87.4091 61.0173 84.5497 62.0449 82.1953 60.8933Z" stroke="white" stroke-width="2" stroke-miterlimit="10" stroke-linejoin="round"/>
<path id="Vector_12" d="M68.4453 35.1012L73.8978 29.4844" stroke="white" stroke-width="2" stroke-miterlimit="10" stroke-linejoin="round"/>
<path id="Vector_13" d="M45.8745 35.9658L40.4668 31.8423" stroke="white" stroke-width="2" stroke-miterlimit="10" stroke-linejoin="round"/>
<path id="Vector_14" d="M54.6681 29.8522C53.5463 30.072 52.4791 30.4155 51.4667 30.8826C50.4543 31.3497 49.6061 31.8306 48.9221 32.3252C48.238 32.8199 47.6361 33.3282 47.1162 33.8502C46.5963 34.3723 46.0354 35.0731 45.4334 35.9524C44.8315 36.8316 44.3526 37.6972 43.9969 38.549C43.6412 39.4008 43.3539 40.4038 43.135 41.5578C42.9161 42.712 42.8066 43.6324 42.8066 44.3194C42.8066 45.0063 42.8614 45.7345 42.9708 46.5039C43.0803 47.2733 43.3676 48.2763 43.8327 49.5127C44.2979 50.7493 44.7631 51.711 45.2282 52.3979C45.6934 53.0849 45.9533 53.4284 46.008 53.4284C46.0628 53.4284 45.875 52.6899 46.1137 52.222C46.3025 51.852 46.5826 51.5599 46.5826 51.4499C46.5826 51.3401 46.4048 50.9691 46.049 50.3371C45.6934 49.7051 45.406 49.0594 45.1872 48.3999C44.9683 47.7404 44.8041 47.0672 44.6947 46.3802C44.5852 45.6933 44.5305 45.0063 44.5305 44.3194C44.5305 43.6324 44.6399 42.7531 44.8588 41.6815C45.0777 40.6099 45.3103 39.7855 45.5566 39.2085C45.8028 38.6314 46.0901 38.0681 46.4184 37.5186C46.7468 36.969 47.2803 36.2958 48.0191 35.4989C48.7579 34.7021 49.3872 34.1113 49.9071 33.7266C50.427 33.3419 50.9742 32.9984 51.5488 32.6962C52.1234 32.3939 52.8759 32.1054 53.8062 31.8306C54.7365 31.5558 55.7899 31.391 56.9665 31.336C58.143 31.2811 59.2512 31.3635 60.291 31.5833C61.3307 31.8031 62.2063 32.0779 62.9177 32.4077C63.6291 32.7374 64.2174 33.0534 64.6825 33.3556C65.1477 33.6579 65.8181 34.2487 66.6937 35.128C67.5693 36.0073 68.267 36.9003 68.7868 37.8071C69.3067 38.7139 69.6762 39.4833 69.8947 40.1152C70.1139 40.7472 70.2783 41.3792 70.3872 42.0112C70.4968 42.6433 70.5516 43.4126 70.5516 44.3194C70.5516 45.2262 70.442 46.1742 70.2235 47.1634C70.0043 48.1526 69.7171 49.0319 69.3614 49.8013C69.0058 50.5707 68.7732 51.0103 68.6637 51.1202C68.6077 51.1764 68.9433 51.6808 69.0705 52.2323C69.1919 52.7585 69.1028 53.3297 69.1562 53.5108C69.3067 53.3047 69.457 53.0987 69.6075 52.8925C69.9086 52.4804 70.2506 51.9034 70.6335 51.1615C71.0171 50.4196 71.3314 49.6639 71.5776 48.8945C71.8239 48.1251 72.0022 47.4107 72.1111 46.7512C72.2207 46.0918 72.2484 45.075 72.1936 43.7011C72.1388 42.3273 71.9883 41.2007 71.742 40.3213C71.4958 39.442 71.2634 38.7551 71.0442 38.2605C70.825 37.7659 70.5516 37.2438 70.2235 36.6943C69.8947 36.1447 69.4979 35.5814 69.0331 35.0044C68.568 34.4273 68.048 33.8778 67.4735 33.3556C66.8989 32.8336 66.3243 32.3802 65.7496 31.9955C65.175 31.6108 64.5047 31.2398 63.7385 30.8826C62.9724 30.5254 62.3157 30.2644 61.7685 30.0995C61.2213 29.9347 60.592 29.7972 59.8805 29.6874C59.1691 29.5774 58.403 29.5225 57.5821 29.5225C56.7612 29.5225 55.7899 29.6324 54.6681 29.8522ZM54.9554 34.1388C54.0798 34.3586 53.3957 34.5922 52.9032 34.8395C52.4107 35.0868 51.9319 35.3753 51.4667 35.705C51.0016 36.0348 50.5227 36.447 50.0302 36.9415C49.5377 37.4361 49.0452 38.0956 48.5527 38.92C48.0602 39.7443 47.7181 40.445 47.5266 41.0221C47.3351 41.5991 47.1983 42.1761 47.1162 42.7531C47.0341 43.3302 47.0204 44.0721 47.0751 44.9789C47.1025 45.4323 47.1299 45.8856 47.1572 46.3391C47.3351 46.1605 48.0521 45.8105 48.2299 45.6318C48.5856 45.2746 48.2243 44.9926 48.2243 44.443C48.2243 43.8935 48.2927 43.2615 48.4296 42.5471C48.5664 41.8327 48.7168 41.2694 48.881 40.8572C49.0452 40.445 49.3325 39.9229 49.7429 39.2909C50.1533 38.6589 50.5501 38.1506 50.9332 37.7659C51.3162 37.3812 51.7404 37.024 52.2055 36.6943C52.6707 36.3645 53.1358 36.0897 53.601 35.8699C54.0661 35.6501 54.6407 35.4577 55.3247 35.2928C56.0088 35.128 56.7476 35.0455 57.5411 35.0455C58.3346 35.0455 58.9913 35.1005 59.5111 35.2104C60.031 35.3204 60.6604 35.5402 61.3991 35.8699C62.1379 36.1997 62.7672 36.5706 63.2871 36.9827C63.8069 37.3949 64.2447 37.8071 64.6005 38.2193C64.9562 38.6314 65.3256 39.181 65.7086 39.8679C66.0917 40.5549 66.3653 41.1869 66.5295 41.764C66.6937 42.341 66.7894 43.0691 66.8168 43.9484C66.8441 44.8277 66.3995 45.5133 66.7552 45.8705C66.9331 46.0491 67.7471 46.1605 67.9249 46.3391C67.9523 45.8307 67.9796 45.3223 68.007 44.814C68.0618 43.7973 68.0344 42.9867 67.9249 42.3822C67.8155 41.7777 67.5966 41.077 67.2683 40.2801C66.9399 39.4833 66.5568 38.7826 66.119 38.178C65.6812 37.5736 65.134 36.9827 64.4773 36.4057C63.8207 35.8287 63.1503 35.3615 62.4662 35.0044C61.7822 34.6471 61.0161 34.3586 60.1678 34.1388C59.3196 33.9189 58.4577 33.809 57.5821 33.809C56.7065 33.809 55.8309 33.9189 54.9554 34.1388ZM56.1456 43.0004C55.571 43.2477 55.0922 43.6187 54.7091 44.1133C54.326 44.6079 54.0934 45.0063 54.0114 45.3086C53.9293 45.6109 53.9019 46.0231 53.9293 46.5451C53.9566 47.0672 54.0388 47.4931 54.1756 47.8228C54.3124 48.1526 54.5586 48.4961 54.9144 48.8533C55.27 49.2105 55.4479 49.4303 55.4479 49.5127C55.4479 49.5952 55.2837 49.7189 54.9554 49.8837C54.627 50.0486 54.285 50.3371 53.9293 50.7493C53.5736 51.1615 53.1905 51.2164 52.7801 50.9142C52.5749 50.763 52.3697 50.6119 52.1645 50.4607C52.2876 50.3233 52.4107 50.186 52.5338 50.0486C52.7801 49.7738 52.9579 49.4441 53.0674 49.0594C53.1769 48.6747 53.2042 48.3037 53.1495 47.9465C53.0947 47.5893 53.0127 47.3145 52.9032 47.1222C52.7938 46.9298 52.6159 46.7238 52.3697 46.5039C52.1234 46.2841 51.8635 46.1192 51.5898 46.0093C51.3162 45.8994 50.9332 45.8719 50.4407 45.9269C49.9481 45.9818 49.5514 46.1192 49.2504 46.3391C48.9494 46.5589 48.7168 46.8199 48.5527 47.1222C48.3885 47.4244 48.2927 47.7679 48.2654 48.1526C48.238 48.5373 48.2654 48.867 48.3474 49.1418C48.4296 49.4166 48.6074 49.7051 48.881 50.0074C49.0178 50.1585 49.1546 50.3096 49.2914 50.4607C49.1273 50.5707 48.9631 50.6806 48.799 50.7905C48.4706 51.0103 48.1833 51.3126 47.9371 51.6973C47.6908 52.0819 47.5403 52.3705 47.4855 52.5628C47.4309 52.7552 47.4171 53.1261 47.4445 53.6757C47.4719 54.2253 47.595 54.7061 47.8139 55.1183C48.0328 55.5304 48.2517 55.8327 48.4706 56.025C48.6895 56.2174 49.2504 56.5746 50.1533 57.0967C51.0563 57.6188 51.8498 58.0035 52.5338 58.2508C53.2179 58.4981 54.025 58.7042 54.9554 58.8691C55.8857 59.0339 56.7612 59.1164 57.5821 59.1164C58.403 59.1164 59.4017 58.9927 60.5783 58.7454C61.7548 58.4981 62.7672 58.1821 63.6154 57.7974C64.4637 57.4127 65.1614 57.0418 65.7086 56.6845C66.2559 56.3273 66.6937 55.9289 67.022 55.4893C67.3503 55.0496 67.5555 54.6374 67.6377 54.2527C67.7197 53.868 67.7197 53.4284 67.6377 52.9338C67.5555 52.4392 67.4324 52.0545 67.2683 51.7797C67.1041 51.5049 66.8305 51.2302 66.4474 50.9553C66.0644 50.6806 66.0233 50.3233 66.3243 49.8837C66.6253 49.444 66.8031 49.0869 66.8578 48.8121C66.9125 48.5373 66.9125 48.2488 66.8578 47.9465C66.8031 47.6442 66.721 47.3832 66.6115 47.1634C66.5021 46.9435 66.2696 46.6962 65.9138 46.4215C65.5581 46.1467 65.134 45.9818 64.6415 45.9269C64.149 45.8719 63.7659 45.8994 63.4923 46.0093C63.2187 46.1192 62.945 46.3116 62.6714 46.5864C62.3978 46.8611 62.2063 47.1497 62.0968 47.4519C61.9874 47.7541 61.9327 48.0564 61.9327 48.3587C61.9327 48.661 61.9737 48.9357 62.0558 49.183C62.1379 49.4303 62.3157 49.7051 62.5894 50.0074C62.7262 50.1585 62.863 50.3096 62.9998 50.4607C62.8082 50.6119 62.6167 50.763 62.4252 50.9142C62.0421 51.2164 61.7001 51.1889 61.3991 50.8317C61.0981 50.4745 60.7424 50.1722 60.332 49.9249C60.1268 49.8013 59.9216 49.6776 59.7164 49.554C59.8805 49.3754 60.0447 49.1967 60.2089 49.0181C60.5372 48.661 60.7971 48.2625 60.9887 47.8228C61.1802 47.3832 61.276 46.9024 61.276 46.3802C61.276 45.8582 61.2213 45.4323 61.1118 45.1025C61.0023 44.7728 60.7151 44.3606 60.2499 43.866C59.7848 43.3714 59.3196 43.0417 58.8545 42.8768C58.3893 42.712 57.9652 42.6295 57.5821 42.6295C57.199 42.6295 56.7202 42.7531 56.1456 43.0004Z" fill="white"/>
</g>
</g>
</g>
</svg>
