<svg width="25" height="29" viewBox="0 0 25 29" fill="none" xmlns="http://www.w3.org/2000/svg">
<g id="&#240;&#159;&#166;&#134; icon &#34;bell&#34;">
<path id="Vector" d="M20.0749 9.64164C20.0749 7.34973 19.2711 5.1517 17.8401 3.53108C16.4092 1.91045 14.4685 1 12.4449 1C10.4213 1 8.48063 1.91045 7.04973 3.53108C5.61884 5.1517 4.81497 7.34973 4.81497 9.64164C4.81497 19.7236 1 22.6041 1 22.6041H23.8898C23.8898 22.6041 20.0749 19.7236 20.0749 9.64164Z" stroke="#082D0E" stroke-width="0.7" stroke-linecap="round" stroke-linejoin="round"/>
<path id="Vector_2" d="M14.646 26.6553C14.4225 27.0645 14.1016 27.4043 13.7154 27.6403C13.3294 27.8764 12.8916 28.0008 12.4461 28.0008C12.0005 28.0008 11.5628 27.8764 11.1767 27.6403C10.7906 27.4043 10.4697 27.0645 10.2461 26.6553" stroke="#082D0E" stroke-width="0.7" stroke-linecap="round" stroke-linejoin="round"/>
</g>
</svg>
