<svg width="97" height="90" viewBox="0 0 97 90" fill="none" xmlns="http://www.w3.org/2000/svg">
<g id="icons-satisfied">
<g id="Group">
<path id="Vector" d="M53.7678 71.2842C53.7678 76.4885 51.4698 80.7084 48.6351 80.7084H40.0058C37.1711 80.7084 34.873 76.4885 34.873 71.2842" stroke="black" stroke-width="2" stroke-miterlimit="10" stroke-linejoin="round"/>
<path id="Vector_2" d="M49.3689 80.708C49.3689 83.0057 48.3065 84.7242 44.3211 84.7421C41.7974 84.7537 39.2734 83.0057 39.2734 80.708" stroke="black" stroke-width="1.33316" stroke-miterlimit="10" stroke-linejoin="round"/>
<path id="Vector_3" d="M15.3281 31.4281C15.3281 15.1754 28.8998 2 45.6414 2C62.3831 2 75.9547 15.1754 75.9547 31.4281C75.9547 42.6624 71.9175 50.4186 62.0223 57.0303C55.7323 61.2323 58.6945 65.5191 55.3403 70.1969C52.0985 74.7178 34.2077 75.4168 32.0126 67.6823C30.7654 63.2882 32.2662 61.3855 28.2034 57.3732C20.2842 49.5524 15.3281 43.0279 15.3281 31.4281Z" stroke="black" stroke-width="3" stroke-miterlimit="10" stroke-linejoin="round"/>
<path id="Vector_4" d="M41.6046 66.365C41.6046 63.3799 41.979 60.1459 41.5714 57.1935C41.4268 56.1453 39.2066 48.4481 38.1252 45.8373C37.757 44.9487 34.5467 40.2055 32.9533 41.7644C29.5815 45.0634 34.6072 49.6075 38.2107 48.7561C40.3343 48.2545 41.2452 46.1235 42.0455 44.3646C42.7039 42.9179 43.4312 41.3854 43.5731 39.7856C43.6788 38.5952 44.0906 35.901 42.9422 35.0539C41.3623 33.8884 40.4304 36.8299 40.2837 37.85C39.9094 40.4519 41.5161 46.8829 44.6496 47.522C48.4048 48.2887 50.7745 42.7759 50.9695 39.8396C51.0445 38.7112 50.758 36.3286 49.0577 36.733C48.058 36.9709 48.2397 39.6912 48.2397 40.3618C48.2397 43.2678 49.4522 47.3657 52.6393 48.0516C54.6557 48.4855 56.8672 47.2989 58.0316 45.6807C58.4356 45.1192 59.0742 42.7776 57.7974 42.6535C56.3775 42.5155 54.6939 43.7895 54.1754 45.0981C52.4452 49.4644 50.9352 54.6205 50.1232 59.2447C49.7985 61.0938 49.73 63.0269 49.73 64.9055C49.73 64.9832 49.6615 64.9545 49.5913 64.9545" stroke="black" stroke-width="1.33316" stroke-miterlimit="10" stroke-linecap="round" stroke-linejoin="round"/>
<path id="Vector_5" d="M68.6751 32.9455C68.6751 32.9455 69.2979 30.1838 68.2793 26.2285" stroke="black" stroke-width="1.33316" stroke-miterlimit="10" stroke-linejoin="round"/>
<path id="Vector_6" d="M66.9822 22.6505C66.0318 20.6313 64.623 18.4606 62.5515 16.2798C55.0755 8.40931 45.6406 8.6128 45.6406 8.6128" stroke="black" stroke-width="1.33316" stroke-miterlimit="10" stroke-linejoin="round"/>
<path id="Vector_7" d="M82.7727 55.6173L76.2598 51.1836" stroke="black" stroke-width="0.799898" stroke-miterlimit="10" stroke-linejoin="round"/>
<path id="Vector_8" d="M87.9047 44.6388L80.3965 42.25" stroke="black" stroke-width="0.799898" stroke-miterlimit="10" stroke-linejoin="round"/>
<path id="Vector_9" d="M88.6405 32.9482L80.7637 33.1331" stroke="black" stroke-width="0.799898" stroke-miterlimit="10" stroke-linejoin="round"/>
<path id="Vector_10" d="M87.9036 22.4863L80.3105 24.5917" stroke="black" stroke-width="0.799898" stroke-miterlimit="10" stroke-linejoin="round"/>
<path id="Vector_11" d="M82.7709 10.8525L75.9531 14.8018" stroke="black" stroke-width="0.799898" stroke-miterlimit="10" stroke-linejoin="round"/>
<path id="Vector_12" d="M15.0227 51.1826L8.20508 55.1319" stroke="black" stroke-width="0.799898" stroke-miterlimit="10" stroke-linejoin="round"/>
<path id="Vector_13" d="M10.9447 42.0088L3.51758 44.6383" stroke="black" stroke-width="0.799898" stroke-miterlimit="10" stroke-linejoin="round"/>
<path id="Vector_14" d="M8.8783 33.0411L1 32.9463" stroke="black" stroke-width="0.799898" stroke-miterlimit="10" stroke-linejoin="round"/>
<path id="Vector_15" d="M10.8823 23.6807L3.29297 21.5645" stroke="black" stroke-width="0.799898" stroke-miterlimit="10" stroke-linejoin="round"/>
<path id="Vector_16" d="M15.3283 14.8016L6.43555 10.1543" stroke="black" stroke-width="0.799898" stroke-miterlimit="10" stroke-linejoin="round"/>
</g>
<path id="Vector_17" d="M70.1619 43.5996C68.8454 43.7824 67.5112 44.0931 66.1585 44.5318C64.806 44.9705 63.4716 45.5554 62.1555 46.2866C60.8395 47.0181 59.8524 47.6394 59.1944 48.151C58.5363 48.6627 57.7869 49.3392 56.9461 50.1797C56.1052 51.0211 55.2462 52.063 54.3687 53.3056C53.4914 54.5489 52.7237 55.9198 52.0656 57.4182C51.4076 58.9173 50.9323 60.3613 50.6399 61.75C50.3474 63.1395 50.2012 64.7849 50.2012 66.6853C50.2012 68.5864 50.3474 70.2318 50.6399 71.6205C50.9323 73.0101 51.371 74.3996 51.956 75.7883C52.5409 77.1779 53.272 78.5122 54.1494 79.7913C55.0268 81.0712 56.0869 82.3137 57.3299 83.5205C58.5728 84.7265 59.9255 85.7685 61.3878 86.6464C62.8501 87.5235 64.3124 88.2178 65.7747 88.7295C67.237 89.2419 68.6083 89.5887 69.8874 89.7714C71.1673 89.9542 72.5926 90.0273 74.1648 89.9907C75.7363 89.9542 77.0706 89.8266 78.1678 89.6074C79.2642 89.3881 80.3248 89.0957 81.3481 88.7295C82.3721 88.364 83.2492 87.9986 83.9801 87.6331C84.7118 87.2677 85.7351 86.6098 87.0508 85.6588C88.3672 84.7087 89.5367 83.6846 90.5607 82.5882C91.584 81.4911 92.535 80.2119 93.4121 78.7493C94.2892 77.2875 94.9844 75.8249 95.496 74.363C96.0076 72.9004 96.3552 71.5296 96.538 70.2497C96.7207 68.9706 96.7938 67.5445 96.7572 65.973C96.7207 64.4008 96.5559 62.9568 96.2635 61.6404C95.9711 60.3247 95.5326 58.9717 94.9478 57.583C94.3623 56.1935 93.741 54.9875 93.0832 53.9634C92.4254 52.9401 91.4931 51.8064 90.2863 50.5638C89.0802 49.3205 87.8369 48.2607 86.5578 47.3836C85.2779 46.5059 83.9436 45.7748 82.5549 45.1899C81.1653 44.6049 79.7766 44.1663 78.3871 43.8738C76.9975 43.5813 75.6088 43.4168 74.2193 43.3802C72.8305 43.3437 71.4775 43.4169 70.1619 43.5996ZM67.4746 57.583C68.5344 57.6561 69.3758 57.8388 69.997 58.1312C70.6183 58.4236 71.2404 58.789 71.8617 59.2276C72.4829 59.6669 72.8671 59.9958 73.0132 60.2151C73.1594 60.4344 73.3056 60.544 73.4518 60.544C73.598 60.544 73.8903 60.3247 74.3289 59.8862C74.7675 59.4476 75.2799 59.0448 75.8646 58.6794C76.4493 58.3139 77.0893 58.0215 77.7837 57.8023C78.478 57.583 79.1911 57.4734 79.9228 57.4734C80.6537 57.4734 81.2571 57.5465 81.7322 57.6926C82.2073 57.8388 82.7376 58.0946 83.3223 58.4601C83.9071 58.8256 84.4918 59.429 85.0773 60.2695C85.662 61.1109 86.0096 62.0432 86.1193 63.0665C86.2289 64.0897 86.1192 64.9855 85.7896 65.7537C85.4606 66.5212 83.4133 68.7878 79.6483 72.5528C75.8825 76.3186 73.7628 78.1833 73.287 78.1467C72.8119 78.1102 70.8563 76.3731 67.4198 72.937C63.9834 69.5009 62.0093 67.3439 61.4975 66.466C60.9857 65.5889 60.6932 64.8945 60.6201 64.3829C60.5469 63.8705 60.5469 63.3775 60.6201 62.9016C60.6932 62.4265 60.8028 61.988 60.9491 61.586C61.0954 61.1839 61.3146 60.7633 61.6072 60.3247C61.8996 59.8862 62.3017 59.4476 62.8136 59.0083C63.3254 58.5697 63.9651 58.2043 64.7328 57.9119C65.5005 57.6195 66.4144 57.5099 67.4746 57.583Z" fill="black"/>
</g>
</svg>
