<svg width="121" height="129" viewBox="0 0 121 129" fill="none" xmlns="http://www.w3.org/2000/svg">
<g id="icons-eco 1">
<g id="Calque-1">
<g id="Group">
<path id="Vector" d="M82.5396 95.4139C77.295 97.4822 75.5294 96.8351 73.9918 96.8351C72.5301 96.8351 65.3287 95.6914 65.3287 95.6914C65.3287 95.6914 63.7949 101.031 61.8586 103.123C60.6744 104.403 58.0031 102.732 55.7489 101.55C53.8483 100.554 52.2442 100.243 52.0778 98.9324C51.5965 95.1421 56.4941 90.5756 55.8759 90.1734C49.7302 86.1685 45.8242 80.2519 45.8242 73.9301C45.8242 62.5706 55.8438 50.7565 79.9035 53.4335C83.253 53.8062 79.3449 47.4123 92.3428 44.0619C93.214 43.8374 89.685 55.2041 90.9528 56.0185C96.4152 59.5274 99.9355 63.6258 101.393 68.5106C101.901 70.2181 109.832 68.6497 109.832 70.5578C109.832 72.6502 109.21 73.1836 109.087 75.5955C108.964 78.0074 110.389 79.2409 109.342 80.2055C107.554 81.8535 102.522 78.8365 101.485 81.2092" stroke="#F1F5FC" stroke-width="2" stroke-miterlimit="10" stroke-linejoin="round"/>
<path id="Vector_2" d="M83.1055 94.6338C83.1055 87.2191 89.0693 81.209 96.4268 81.209C103.784 81.209 109.747 87.2191 109.747 94.6338C109.747 102.049 103.784 108.059 96.4268 108.059C89.0693 108.059 83.1055 102.049 83.1055 94.6338Z" stroke="#F1F5FC" stroke-width="2" stroke-miterlimit="10" stroke-linejoin="round"/>
<path id="Vector_3" d="M101.103 101.726C99.9691 102.514 98.6543 102.907 97.1579 102.907C93.9545 102.907 92.0927 101.09 91.5739 97.4578H90.1289L90.867 96.1134H91.4509C91.4372 95.9692 91.4307 95.7301 91.4307 95.3945C91.4307 95.0524 91.4372 94.8031 91.4509 94.6459H90.1289L90.8568 93.3015H91.5739C92.1202 89.6822 93.9813 87.8726 97.1579 87.8726C97.8547 87.8726 98.5443 87.9617 99.2274 88.1393C99.9112 88.3175 100.46 88.5531 100.877 88.8473L100.324 90.1714C99.3612 89.6242 98.3055 89.3503 97.1579 89.3503C94.9792 89.3503 93.7049 90.6671 93.3359 93.3015H100.539L99.8012 94.6459H93.2338C93.2201 94.8031 93.2129 95.0524 93.2129 95.3945C93.2129 95.7301 93.2201 95.9692 93.2338 96.1134H99.9242L99.197 97.4578H93.3569C93.7664 100.105 95.0334 101.429 97.1579 101.429C98.2715 101.429 99.4119 101.087 100.58 100.402L101.103 101.726Z" fill="#F1F5FC"/>
<path id="Vector_4" d="M90.3008 70.5579C90.3008 69.6567 91.0215 68.9263 91.9093 68.9263C92.7979 68.9263 93.5186 69.6567 93.5186 70.5579C93.5186 71.4589 92.7979 72.1894 91.9093 72.1894C91.0215 72.1894 90.3008 71.4589 90.3008 70.5579Z" fill="#F1F5FC" stroke="#F1F5FC" stroke-width="2" stroke-miterlimit="10" stroke-linejoin="round"/>
<path id="Vector_5" d="M53.2891 57.3889C53.2891 53.4481 53.4167 49.6472 56.9075 47.0632C62.0532 43.2541 68.8015 46.0842 68.8015 52.5467" stroke="#F1F5FC" stroke-width="2" stroke-miterlimit="10" stroke-linecap="round" stroke-linejoin="round"/>
<path id="Vector_6" d="M45.8246 67.1334C44.5048 67.1334 43.1549 67.297 41.9636 66.6194C39.5916 65.2704 39.5938 61.4795 40.6117 59.2886C41.1306 58.1717 42.9348 56.7968 44.2187 57.7769C45.3116 58.6111 43.8728 60.2334 43.1537 60.7016C41.2649 61.9313 38.2144 63.2042 35.9019 62.4998C33.9283 61.8986 33.6564 56.6054 36.2941 57.4876C36.8563 57.6756 36.6567 58.2301 36.6567 58.7356C36.6567 60.5953 35.3428 60.7296 33.9396 61.9849C31.7283 63.9631 29.9062 62.0389 29.9062 61.163" stroke="#F1F5FC" stroke-width="1.5" stroke-miterlimit="10" stroke-linecap="round" stroke-linejoin="round"/>
</g>
<path id="Vector_7" d="M46.7295 103.345L26.6744 102.661C23.5568 102.661 21.0295 99.85 21.0295 96.3814L21.4968 58.6178L8.85233 58.5681C5.39024 58.551 4.53199 56.2899 6.93538 53.5179L41.8869 13.2051C44.5954 10.0811 48.9031 10.1675 51.5086 13.3981L72.6041 39.5546" stroke="#F1F5FC" stroke-width="3" stroke-miterlimit="10" stroke-linejoin="round"/>
</g>
</g>
</svg>
