<svg width="25" height="24" viewBox="0 0 25 24" fill="none" xmlns="http://www.w3.org/2000/svg">
<path d="M12.4657 7.80556C10.3153 7.80556 8.56044 9.56044 8.56044 11.7108C8.56044 13.8612 10.3153 15.6161 12.4657 15.6161C14.6161 15.6161 16.371 13.8612 16.371 11.7108C16.371 9.56044 14.6161 7.80556 12.4657 7.80556ZM24.1786 11.7108C24.1786 10.0936 24.1933 8.49111 24.1024 6.87685C24.0116 5.00185 23.5839 3.33779 22.2128 1.96669C20.8388 0.592668 19.1776 0.167864 17.3026 0.0770433C15.6854 -0.0137771 14.0829 0.000871418 12.4686 0.000871418C10.8515 0.000871418 9.24892 -0.0137771 7.63466 0.0770433C5.75966 0.167864 4.0956 0.595598 2.7245 1.96669C1.35048 3.34072 0.925676 5.00185 0.834856 6.87685C0.744035 8.49404 0.758684 10.0966 0.758684 11.7108C0.758684 13.3251 0.744035 14.9306 0.834856 16.5448C0.925676 18.4198 1.35341 20.0839 2.7245 21.455C4.09853 22.829 5.75966 23.2538 7.63466 23.3446C9.25185 23.4354 10.8544 23.4208 12.4686 23.4208C14.0858 23.4208 15.6884 23.4354 17.3026 23.3446C19.1776 23.2538 20.8417 22.8261 22.2128 21.455C23.5868 20.0809 24.0116 18.4198 24.1024 16.5448C24.1962 14.9306 24.1786 13.328 24.1786 11.7108ZM12.4657 17.7196C9.14052 17.7196 6.45693 15.036 6.45693 11.7108C6.45693 8.38564 9.14052 5.70204 12.4657 5.70204C15.7909 5.70204 18.4745 8.38564 18.4745 11.7108C18.4745 15.036 15.7909 17.7196 12.4657 17.7196ZM18.7206 6.85927C17.9442 6.85927 17.3173 6.23232 17.3173 5.45595C17.3173 4.67958 17.9442 4.05263 18.7206 4.05263C19.497 4.05263 20.1239 4.67958 20.1239 5.45595C20.1242 5.6403 20.088 5.82289 20.0176 5.99325C19.9471 6.16361 19.8438 6.31841 19.7134 6.44876C19.5831 6.57912 19.4283 6.68248 19.2579 6.75292C19.0875 6.82336 18.9049 6.8595 18.7206 6.85927Z" fill="white"/>
</svg>
