<svg xmlns="http://www.w3.org/2000/svg" width="40" height="40" viewBox="0 0 40 40" fill="none">
  <path d="M36.3633 35.7475C37.4497 34.6683 38.1245 33.5792 38.6196 32.29L38.6197 32.2899C39.096 31.0473 39.4233 29.6359 39.525 27.5736L39.525 27.573C39.6177 25.5224 39.6369 24.8693 39.6369 19.6409C39.6369 14.4122 39.6117 13.7583 39.525 11.7093L39.525 11.7083C39.4233 9.64606 39.0948 8.22731 38.6196 6.99175L38.6193 6.9909C38.1172 5.70892 37.4488 4.61383 36.363 3.53404C35.2837 2.4475 34.1946 1.77272 32.9054 1.27753C31.6622 0.794894 30.2505 0.473761 28.1888 0.372131V0.37213L28.1882 0.372102C26.1376 0.279385 25.4845 0.260156 20.2562 0.260156C15.0274 0.260156 14.3735 0.285406 12.3246 0.37208L12.3235 0.37213C10.2556 0.473771 8.84985 0.79497 7.60655 1.27766L7.60614 1.27782C6.32418 1.77988 5.2291 2.44825 4.14934 3.53402C3.06262 4.6135 2.38795 5.70862 1.89285 6.99143C1.41018 8.2347 1.089 9.64045 0.987364 11.7083H0.987363L0.987337 11.7089C0.894619 13.7595 0.875391 14.4125 0.875391 19.6409C0.875391 24.8697 0.900641 25.5236 0.987314 27.5725L0.987365 27.5736C1.089 29.6354 1.41019 31.0472 1.8929 32.2905L1.89306 32.291C2.39515 33.573 3.06357 34.6681 4.14947 35.748C5.22892 36.8346 6.32403 37.5092 7.60683 38.0043L7.60715 38.0044C8.84976 38.4808 10.2612 38.8081 12.3235 38.9097L12.3241 38.9097C14.3747 39.0025 15.0278 39.0217 20.2562 39.0217C25.4849 39.0217 26.1388 38.9964 28.1878 38.9098L28.1888 38.9097C30.2512 38.8081 31.6626 38.4795 32.9051 38.0045L32.9062 38.004C34.1883 37.5019 35.2834 36.8335 36.3633 35.7475ZM36.3633 35.7475C36.3631 35.7477 36.3629 35.7479 36.3627 35.7481L36.257 35.6417L36.3633 35.7475C36.3633 35.7475 36.3633 35.7475 36.3633 35.7475ZM20.209 4.02213L20.1704 3.99519L20.1297 3.96683C15.165 3.96699 14.4664 3.99215 12.5548 4.06098C12.5048 4.06278 12.454 4.06461 12.4022 4.06647C10.5404 4.15948 9.54912 4.46849 8.88724 4.72596L8.88505 4.72681L8.88504 4.72679C7.99417 5.05735 7.38457 5.47725 6.72831 6.13351C6.0659 6.79712 5.64759 7.40403 5.32437 8.29521L5.32264 8.29998L5.32257 8.29995C5.06003 8.95394 4.75552 9.96861 4.65646 11.8315C4.65232 11.955 4.6483 12.0733 4.64442 12.1877C4.58423 13.9619 4.55562 14.8052 4.55562 19.6133C4.55562 24.4327 4.58434 25.2691 4.64476 27.029C4.64854 27.139 4.65244 27.2526 4.65646 27.371C4.75552 29.234 5.06006 30.251 5.3225 30.9024L5.32408 30.9063L5.32402 30.9063C5.64768 31.78 6.06555 32.4062 6.72831 33.069C7.3838 33.7245 7.99252 34.1198 8.88784 34.4768C9.54956 34.7341 10.5664 35.0432 12.4217 35.1433C12.4218 35.1433 12.4218 35.1433 12.4219 35.1433L12.4138 35.2931C14.4562 35.3869 15.056 35.4121 20.2033 35.4121C25.3505 35.4121 25.9516 35.3869 27.9915 35.3003L20.209 4.02213ZM20.209 4.02213H20.2562C25.3889 4.02213 25.9998 4.04736 28.0257 4.13377L20.209 4.02213ZM35.2496 8.29816C34.8998 7.3954 34.4863 6.7571 33.8168 6.08755C33.134 5.41198 32.5029 4.99847 31.6001 4.64867L35.2496 8.29816ZM35.2496 8.29816C35.5141 8.97493 35.8266 9.99429 35.9144 11.8659L35.2496 8.29816ZM20.2562 9.6207C14.7146 9.6207 10.2335 14.1079 10.2335 19.6433C10.2335 25.1848 14.7208 29.666 20.2562 29.666C25.7977 29.666 30.2788 25.1787 30.2788 19.6433C30.2788 14.1018 25.7915 9.6207 20.2562 9.6207ZM20.2562 25.904C16.7953 25.904 13.9955 23.1042 13.9955 19.6433C13.9955 16.1825 16.7953 13.3827 20.2562 13.3827C23.717 13.3827 26.5168 16.1825 26.5168 19.6433C26.5168 23.1042 23.717 25.904 20.2562 25.904ZM30.5231 11.8356C31.8773 11.8356 32.9847 10.7375 32.9847 9.37642C32.9847 8.02238 31.8759 6.92205 30.5231 6.92205C29.17 6.92205 28.0639 8.02258 28.0639 9.37642C28.0639 10.7358 29.1624 11.8356 30.5231 11.8356Z" fill="#2F2121" stroke="#2F2021" stroke-width="0.3"/>
</svg>