<svg width="23" height="23" viewBox="0 0 23 23" fill="none" xmlns="http://www.w3.org/2000/svg">
<path d="M3.25781 0.710938C1.89062 0.710938 0.757812 1.84375 0.757812 3.21094V20.2109C0.757812 21.5781 1.89062 22.7109 3.25781 22.7109H20.2578C21.625 22.7109 22.7578 21.5781 22.7578 20.2109V3.21094C22.7578 1.84375 21.625 0.710938 20.2578 0.710938H3.25781ZM3.25781 2.71094H20.2578C20.543 2.71094 20.7578 2.92578 20.7578 3.21094V20.2109C20.7578 20.4961 20.543 20.7109 20.2578 20.7109H3.25781C2.97265 20.7109 2.75781 20.4961 2.75781 20.2109V3.21094C2.75781 2.92578 2.97265 2.71094 3.25781 2.71094ZM6.19531 4.42969C5.24609 4.42969 4.47656 5.19922 4.47656 6.14844C4.47656 7.09766 5.24609 7.86719 6.19531 7.86719C7.14453 7.86719 7.91406 7.09766 7.91406 6.14844C7.91406 5.19922 7.14453 4.42969 6.19531 4.42969ZM15.2266 8.99219C13.793 8.99219 12.8398 9.77735 12.4453 10.5234H12.3828V9.21094H9.57031V18.7109H12.5078V14.0234C12.5078 12.7852 12.7539 11.5859 14.2891 11.5859C15.8008 11.5859 15.8203 12.9844 15.8203 14.0859V18.7109H18.7578V13.4922C18.7578 10.9375 18.2148 8.99219 15.2266 8.99219ZM4.75781 9.21094V18.7109H7.72656V9.21094H4.75781Z" fill="white"/>
</svg>
