<svg width="39" height="38" viewBox="0 0 39 38"  xmlns="http://www.w3.org/2000/svg">
<path fill='#2F2121' id="linkedin" d="M5.07064 0.410156C2.76013 0.410156 0.845703 2.32458 0.845703 4.6351V33.3647C0.845703 35.6752 2.76013 37.5896 5.07064 37.5896H33.8002C36.1108 37.5896 38.0252 35.6752 38.0252 33.3647V4.6351C38.0252 2.32458 36.1108 0.410156 33.8002 0.410156H5.07064ZM5.07064 3.79011H33.8002C34.2822 3.79011 34.6452 4.15318 34.6452 4.6351V33.3647C34.6452 33.8466 34.2822 34.2097 33.8002 34.2097H5.07064C4.58873 34.2097 4.22566 33.8466 4.22566 33.3647V4.6351C4.22566 4.15318 4.58873 3.79011 5.07064 3.79011ZM10.035 6.69476C8.43079 6.69476 7.1303 7.99524 7.1303 9.5994C7.1303 11.2036 8.43079 12.5041 10.035 12.5041C11.6391 12.5041 12.9396 11.2036 12.9396 9.5994C12.9396 7.99524 11.6391 6.69476 10.035 6.69476ZM25.2976 14.4053C22.8748 14.4053 21.2641 15.7322 20.5973 16.9931H20.4917V14.775H15.7386V30.8297H20.7029V22.908C20.7029 20.8153 21.1188 18.7887 23.7132 18.7887C26.268 18.7887 26.301 21.152 26.301 23.0136V30.8297H31.2653V22.0102C31.2653 17.6928 30.3477 14.4053 25.2976 14.4053ZM7.60561 14.775V30.8297H12.6227V14.775H7.60561Z" />
</svg>
