<svg width="56" height="56" viewBox="0 0 56 56" fill="none" xmlns="http://www.w3.org/2000/svg">
<g id="orange_master_logo 1" clip-path="url(#clip0_854_3030)">
<path id="Vector" d="M56 0H0V56H56V0Z" fill="#FF7900"/>
<path id="Vector_2" d="M21.9688 50.5757C21.2088 51.0835 20.3146 51.353 19.4006 51.3496C19.0954 51.3717 18.789 51.3288 18.5016 51.2235C18.2142 51.1183 17.9525 50.9532 17.7337 50.7392C17.5149 50.5252 17.3441 50.2672 17.2326 49.9822C17.121 49.6972 17.0713 49.3918 17.0867 49.0861C17.0867 47.3412 18.6906 46.4171 21.9957 46.0442V45.6119C21.9957 45.0451 21.5645 44.7159 20.7704 44.7159C20.4049 44.7048 20.042 44.7802 19.7111 44.9359C19.3803 45.0916 19.0909 45.3232 18.8664 45.6119L17.4832 44.8212C17.8651 44.3093 18.3697 43.9018 18.9503 43.636C19.531 43.3702 20.1692 43.2547 20.8062 43.3002C22.8368 43.3002 23.9669 44.1794 23.9669 45.6119V51.2623H22.1558L21.9688 50.5757ZM19.0938 48.9327C19.0846 49.0604 19.1016 49.1887 19.1438 49.3097C19.186 49.4307 19.2524 49.5417 19.339 49.6361C19.4256 49.7305 19.5306 49.8062 19.6475 49.8585C19.7644 49.9109 19.8908 49.9389 20.0189 49.9407C20.7341 49.9147 21.4135 49.6213 21.9229 49.1186V47.2739C20.0066 47.517 19.0982 48.0087 19.0982 48.9316L19.0938 48.9327Z" fill="white"/>
<path id="Vector_3" d="M25.5918 43.6742L27.2886 43.439L27.4745 44.3641C28.2193 43.7129 29.163 43.3338 30.1513 43.2889C30.4893 43.25 30.8317 43.2898 31.1518 43.4052C31.4718 43.5205 31.7608 43.7084 31.9962 43.9541C32.2315 44.1997 32.4068 44.4965 32.5084 44.8212C32.61 45.1459 32.6351 45.4897 32.5817 45.8257V51.2521H30.5332V46.1785C30.5332 45.2243 30.2846 44.7953 29.5454 44.7953C28.8229 44.8448 28.142 45.1521 27.6268 45.6611V51.2521H25.5918V43.6742Z" fill="white"/>
<path id="Vector_4" d="M46.1711 51.4011C43.874 51.4011 42.502 49.9249 42.502 47.3612C42.502 44.7976 43.8852 43.29 46.1375 43.29C48.3898 43.29 49.7215 44.7225 49.7215 47.2571C49.7215 47.3915 49.7058 47.5259 49.7058 47.6524H44.5157C44.5314 49.1286 45.144 49.8734 46.3514 49.8734C46.7075 49.8813 47.0592 49.7939 47.3701 49.6202C47.681 49.4465 47.9399 49.1929 48.1199 48.8856L49.6229 49.7188C49.2522 50.284 48.7359 50.7386 48.1284 51.0347C47.5208 51.3308 46.8446 51.4574 46.1711 51.4011ZM47.7077 46.332C47.7335 46.1159 47.7114 45.8968 47.643 45.6902C47.5745 45.4836 47.4615 45.2946 47.3119 45.1366C47.1622 44.9786 46.9796 44.8555 46.777 44.776C46.5745 44.6965 46.3569 44.6626 46.1397 44.6766C45.2146 44.6766 44.6367 45.2691 44.5594 46.332H47.7077Z" fill="white"/>
<path id="Vector_5" d="M6.89159 51.4864C5.84533 51.4218 4.8631 50.9606 4.14509 50.1968C3.42708 49.4331 3.02734 48.4243 3.02734 47.376C3.02734 46.3278 3.42708 45.319 4.14509 44.5552C4.8631 43.7915 5.84533 43.3303 6.89159 43.2656C7.93785 43.3303 8.92008 43.7915 9.63809 44.5552C10.3561 45.319 10.7558 46.3278 10.7558 47.376C10.7558 48.4243 10.3561 49.4331 9.63809 50.1968C8.92008 50.9606 7.93785 51.4218 6.89159 51.4864ZM6.89159 44.9904C5.36055 44.9904 5.07607 46.3736 5.07607 47.3615C5.07607 48.3493 5.36055 49.7426 6.89159 49.7426C8.42263 49.7426 8.70711 48.3594 8.70711 47.3615C8.70711 46.3635 8.42263 44.9938 6.89159 44.9938V44.9904Z" fill="white"/>
<path id="Vector_6" d="M12.1562 43.464H14.1062V44.3802C14.3716 44.0636 14.699 43.8048 15.0683 43.6197C15.4375 43.4346 15.8408 43.3271 16.2532 43.3038C16.3415 43.3015 16.4299 43.3059 16.5175 43.3173V45.2414H16.419C15.523 45.2414 14.5497 45.3792 14.2462 46.0736V51.2581H12.1562V43.464Z" fill="white"/>
<path id="Vector_7" d="M37.6042 49.5868C39.161 49.5745 39.2909 47.993 39.2909 46.957C39.2909 45.7396 38.6984 44.7484 37.5896 44.7484C36.8527 44.7484 36.0306 45.286 36.0306 47.0421C36.0317 48.0065 36.0989 49.5969 37.6042 49.5868ZM41.2632 43.4391V50.8177C41.2632 52.1214 41.1647 54.265 37.4485 54.2897C35.9175 54.2897 34.4973 53.6871 34.2128 52.3476L36.2378 52.0217C36.3229 52.4047 36.5559 52.7878 37.7039 52.7878C38.769 52.7878 39.2842 52.2782 39.2842 51.0596V50.1524L39.2562 50.1244C39.0733 50.4943 38.783 50.8004 38.4233 51.0026C38.0636 51.2049 37.6513 51.2938 37.2402 51.2578C35.4247 51.2578 33.9922 49.9978 33.9922 47.3625C33.9922 44.7562 35.4684 43.2991 37.1282 43.2969C38.6828 43.2969 39.2562 44.0025 39.3917 44.3754H39.3682L39.5362 43.4425L41.2632 43.4391Z" fill="white"/>
<path id="Vector_8" d="M50.5258 40.8531H49.7194V43.0853H49.2927V40.8531H48.4863V40.5093H50.5247L50.5258 40.8531ZM53.8858 43.0853H53.4614V40.9338H53.4479L52.6046 43.0853H52.3358L51.4924 40.9338H51.4779V43.0853H51.0534V40.5171H51.7097L52.478 42.4726L53.2351 40.5171H53.8847L53.8858 43.0853Z" fill="white"/>
</g>
<defs>
<clipPath id="clip0_854_3030">
<rect width="56" height="56" fill="white"/>
</clipPath>
</defs>
</svg>
