<svg width="34" height="36" viewBox="0 0 34 36" fill="none" xmlns="http://www.w3.org/2000/svg">
<path d="M23.6439 27.0363V29.0384H5.75V4.75391H23.6439L23.6267 17.9996" stroke="black" stroke-width="0.7" stroke-miterlimit="10" stroke-linejoin="round"/>
<path d="M8.29688 13.5821C8.29688 9.85036 11.2123 6.8252 14.8087 6.8252C18.405 6.8252 21.3204 9.85036 21.3204 13.5821C21.3204 17.3138 18.405 20.339 14.8087 20.339C11.2123 20.339 8.29688 17.3138 8.29688 13.5821Z" stroke="black" stroke-width="0.7" stroke-miterlimit="10" stroke-linejoin="round"/>
<path d="M23.4197 20.7547L31.4917 28.3564C31.4978 28.3622 31.5027 28.3669 31.5027 28.3669L28.8089 31.2347C28.8033 31.2407 28.7986 31.2456 28.7986 31.2456L21.7093 22.5539C21.4961 22.2926 21.5109 21.8835 21.7423 21.64L22.5596 20.78C22.791 20.5367 23.1759 20.5253 23.4197 20.7547Z" stroke="black" stroke-width="0.7" stroke-miterlimit="10" stroke-linejoin="round"/>
<path d="M22.056 21.1169L19.6367 18.5537" stroke="black" stroke-width="0.7" stroke-miterlimit="10" stroke-linejoin="round"/>
<path d="M8.36328 22.0107H15.0383" stroke="black" stroke-width="0.7" stroke-miterlimit="10" stroke-linejoin="round"/>
<path d="M8.36328 24.6719H13.4666" stroke="black" stroke-width="0.7" stroke-miterlimit="10" stroke-linejoin="round"/>
<path d="M14.8505 9.74488H14.9225C15.1945 9.74488 15.4719 9.79288 15.7545 9.88888C16.0425 9.97955 16.2879 10.1155 16.4905 10.2969L15.8265 11.0409C15.7039 10.9075 15.5572 10.8035 15.3865 10.7289C15.2159 10.6489 15.0372 10.6089 14.8505 10.6089V12.2089L14.8825 12.2169C15.1065 12.2755 15.3252 12.3422 15.5385 12.4169C15.7572 12.4915 15.9492 12.5902 16.1145 12.7129C16.2852 12.8302 16.4212 12.9795 16.5225 13.1609C16.6292 13.3422 16.6825 13.5689 16.6825 13.8409C16.6825 14.1075 16.6345 14.3449 16.5385 14.5529C16.4425 14.7555 16.3119 14.9315 16.1465 15.0809C15.9812 15.2249 15.7865 15.3395 15.5625 15.4249C15.3439 15.5102 15.1065 15.5662 14.8505 15.5929V16.1689H14.4185V15.6009C14.0665 15.6062 13.7279 15.5529 13.4025 15.4409C13.0825 15.3289 12.7999 15.1449 12.5545 14.8889L13.2825 14.1449C13.4105 14.3262 13.5759 14.4649 13.7785 14.5609C13.9812 14.6569 14.1945 14.7155 14.4185 14.7369V13.0489L14.3785 13.0409C14.1545 12.9769 13.9412 12.9075 13.7385 12.8329C13.5359 12.7529 13.3545 12.6515 13.1945 12.5289C13.0399 12.4009 12.9172 12.2489 12.8265 12.0729C12.7359 11.8915 12.6905 11.6675 12.6905 11.4009C12.6905 11.1609 12.7385 10.9449 12.8345 10.7529C12.9305 10.5609 13.0585 10.3955 13.2185 10.2569C13.3785 10.1129 13.5625 9.99822 13.7705 9.91288C13.9785 9.82755 14.1945 9.77422 14.4185 9.75288V9.21688H14.8505V9.74488ZM14.4185 10.6249C14.2319 10.6569 14.0639 10.7369 13.9145 10.8649C13.7705 10.9875 13.6985 11.1502 13.6985 11.3529C13.6985 11.4755 13.7172 11.5742 13.7545 11.6489C13.7972 11.7235 13.8505 11.7875 13.9145 11.8409C13.9785 11.8942 14.0532 11.9395 14.1385 11.9769C14.2292 12.0089 14.3225 12.0462 14.4185 12.0889V10.6249ZM14.8505 14.7369C14.9625 14.7155 15.0665 14.6835 15.1625 14.6409C15.2639 14.5929 15.3519 14.5369 15.4265 14.4729C15.5012 14.4035 15.5599 14.3235 15.6025 14.2329C15.6505 14.1369 15.6745 14.0302 15.6745 13.9129C15.6745 13.7955 15.6479 13.6969 15.5945 13.6169C15.5465 13.5369 15.4825 13.4702 15.4025 13.4169C15.3225 13.3635 15.2345 13.3182 15.1385 13.2809C15.0425 13.2435 14.9465 13.2089 14.8505 13.1769V14.7369Z" fill="black"/>
</svg>
