<svg width="29" height="24" viewBox="0 0 29 24" fill="none" xmlns="http://www.w3.org/2000/svg">
<path d="M28.7619 3.00021C27.732 3.45654 26.6257 3.76488 25.4627 3.90424C26.6627 3.18619 27.5605 2.05605 27.9886 0.724711C26.8611 1.3944 25.6272 1.86578 24.3404 2.11838C23.475 1.19444 22.3289 0.582046 21.0798 0.376262C19.8308 0.170478 18.5488 0.38282 17.4328 0.980322C16.3168 1.57782 15.4293 2.52706 14.908 3.68065C14.3868 4.83423 14.261 6.12764 14.5502 7.36004C12.2657 7.24534 10.0308 6.65156 7.9906 5.61723C5.95042 4.5829 4.15052 3.13114 2.70771 1.35618C2.21438 2.20718 1.93071 3.19384 1.93071 4.24464C1.93016 5.19061 2.16311 6.12208 2.6089 6.95641C3.05468 7.79075 3.69951 8.50216 4.48618 9.02751C3.57385 8.99848 2.68166 8.75196 1.88385 8.30848V8.38248C1.88375 9.70922 2.34269 10.9951 3.18277 12.022C4.02286 13.0489 5.19235 13.7536 6.49281 14.0163C5.64648 14.2454 4.75916 14.2791 3.89788 14.115C4.26479 15.2566 4.97951 16.2549 5.94197 16.9701C6.90442 17.6853 8.06644 18.0816 9.26535 18.1036C7.23014 19.7013 4.71667 20.5679 2.12928 20.5641C1.67095 20.5642 1.21301 20.5375 0.757812 20.4839C3.38417 22.1726 6.44143 23.0688 9.56381 23.0653C20.1335 23.0653 25.9116 14.3111 25.9116 6.71871C25.9116 6.47204 25.9055 6.22291 25.8944 5.97624C27.0183 5.16345 27.9885 4.15695 28.7594 3.00391L28.7619 3.00021Z" fill="white"/>
</svg>
