<svg width="38" height="34" viewBox="0 0 38 34" fill="none" xmlns="http://www.w3.org/2000/svg">
<path id="Vector" d="M11.7881 33.5933H11.6214C8.26382 33.5639 4.95479 32.7882 1.93391 31.3224C1.37823 31.0614 0.920695 30.6294 0.628289 30.0895C0.335884 29.5497 0.223961 28.9305 0.308906 28.3224C0.40129 27.7103 0.684713 27.143 1.11871 26.7015C1.55271 26.26 2.11509 25.9669 2.72557 25.8641C4.59768 25.6143 6.39867 24.9833 8.01724 24.0099C5.20716 21.8129 3.04381 18.8965 1.75645 15.5699C0.469086 12.2434 0.10568 8.63044 0.704739 5.1141C0.785964 4.55712 1.0255 4.03521 1.39484 3.61047C1.76418 3.18573 2.24777 2.87604 2.78807 2.71826C3.31373 2.55318 3.87629 2.54612 4.40592 2.69798C4.93555 2.84983 5.40892 3.1539 5.76724 3.57243C6.98391 5.16781 8.51285 6.4986 10.2608 7.48361C12.0087 8.46861 13.939 9.08719 15.9339 9.3016C16.0292 6.84713 17.084 4.52809 18.8714 2.84326C19.7639 1.98863 20.8176 1.32016 21.971 0.876823C23.1245 0.433483 24.3546 0.224135 25.5898 0.260976C26.8249 0.297817 28.0404 0.580112 29.1653 1.09141C30.2903 1.60271 31.3023 2.33278 32.1422 3.2391C32.3611 3.43257 32.633 3.55587 32.9227 3.59302C33.2125 3.63016 33.5067 3.57944 33.7672 3.44743C34.264 3.21315 34.8171 3.12496 35.3621 3.19315C35.907 3.26133 36.4213 3.48308 36.845 3.83253C37.2687 4.18197 37.5843 4.64469 37.755 5.16671C37.9257 5.68873 37.9444 6.24852 37.8089 6.78077C37.3284 8.76017 36.4179 10.6095 35.1422 12.1974C34.8611 18.124 32.2482 23.6991 27.8734 27.707C23.4985 31.715 17.7165 33.8309 11.7881 33.5933ZM11.7881 29.4266H11.9547C14.377 29.5099 16.7916 29.1116 19.0588 28.2547C21.3259 27.3978 23.4004 26.0993 25.1619 24.4347C26.9235 22.77 28.337 20.7723 29.3207 18.5572C30.3044 16.3421 30.8385 13.9538 30.8922 11.5308C30.9266 10.8667 31.2005 10.2376 31.6631 9.75993C32.1712 9.1167 32.6045 8.41776 32.9547 7.6766C32.2042 7.67803 31.4618 7.52103 30.7762 7.21588C30.0905 6.91073 29.4769 6.4643 28.9756 5.90576C28.4935 5.42775 27.9209 5.05072 27.2913 4.79673C26.6617 4.54274 25.9877 4.41691 25.3089 4.4266C24.6233 4.40887 23.9409 4.52673 23.301 4.77342C22.661 5.0201 22.0761 5.39076 21.5797 5.8641C20.9101 6.49952 20.4191 7.29965 20.1559 8.18444C19.8926 9.06923 19.8664 10.0076 20.0797 10.9058L20.6214 13.2808L18.1839 13.4474C15.6862 13.6511 13.174 13.3094 10.8214 12.4461C8.46883 11.5828 6.332 10.2184 4.55891 8.44743C4.48286 11.1899 5.16891 13.8998 6.54077 16.2757C7.91263 18.6516 9.91655 20.6006 12.3297 21.9058L14.3089 23.0308L12.9964 24.9058C11.577 26.7673 9.63221 28.1606 7.41307 28.9058C8.83664 29.2626 10.2997 29.4376 11.7672 29.4266H11.7881Z" fill="#2F2121"/>
</svg>
